<?xml version="1.0" encoding="utf-8"?>
<!-- Generator: Adobe Illustrator 27.7.0, SVG Export Plug-In . SVG Version: 6.00 Build 0)  -->
<svg version="1.1" id="레이어_1" xmlns="http://www.w3.org/2000/svg" xmlns:xlink="http://www.w3.org/1999/xlink" x="0px"
	 y="0px" viewBox="0 0 1080 1013.3" style="enable-background:new 0 0 1080 1013.3;" xml:space="preserve">
<style type="text/css">
	.st0{fill:none;stroke:#231815;stroke-width:8;stroke-linecap:round;stroke-linejoin:round;stroke-miterlimit:10;}
	.st1{fill:#FF5562;stroke:#231815;stroke-width:7.9999;stroke-linecap:round;stroke-linejoin:round;stroke-miterlimit:9.9999;}
	.st2{fill:#FFFFFF;}
</style>
<g id="풍선">
	<path class="st0" d="M766.2,780.7c0,0,16.6-22.6,36.6-143.9c6.5-39.4,4-87.5,51-192.4"/>
	<path class="st1" d="M846.7,439.2c0,0-31.5,14.1-3.2,14.7c0,0,4.2,13.8,13,3.6c0,0,16.9,14.8,4.7-13.8L846.7,439.2z"/>
	
		<ellipse transform="matrix(0.2141 -0.9768 0.9768 0.2141 390.1909 1123.3889)" class="st1" cx="893.2" cy="319.2" rx="131.3" ry="121.3"/>
	<path class="st2" d="M960,309.9c0,0,8.4,53.3-32.5,75c0,0,4.3,20.6,22.8,8.4C968.8,381.1,1002.7,310.7,960,309.9z"/>
	<path class="st2" d="M920.7,406.4c-1.7-7.7-10.6-11.1-17.4-7.2c-4.4,2.5-7.4,6.4-2.1,11.8C909.4,419.5,923,416.4,920.7,406.4z"/>
</g>
</svg>
