<?xml version="1.0" encoding="utf-8"?>
<!-- Generator: Adobe Illustrator 27.7.0, SVG Export Plug-In . SVG Version: 6.00 Build 0)  -->
<svg version="1.1" id="레이어_1" xmlns="http://www.w3.org/2000/svg" xmlns:xlink="http://www.w3.org/1999/xlink" x="0px"
	 y="0px" viewBox="0 0 1080 1013.3" style="enable-background:new 0 0 1080 1013.3;" xml:space="preserve">
<style type="text/css">
	.st0{fill:#D6CFCE;stroke:#231815;stroke-width:8;stroke-linecap:round;stroke-linejoin:round;stroke-miterlimit:10;}
	.st1{fill:#F4F2F2;}
	.st2{fill:#231815;}
	.st3{fill:#898989;stroke:#231815;stroke-width:7.9996;stroke-linecap:round;stroke-linejoin:round;stroke-miterlimit:9.9994;}
	.st4{fill:#231815;stroke:#231815;stroke-width:8;stroke-linecap:round;stroke-linejoin:round;stroke-miterlimit:10;}
	.st5{fill:#FFC0C0;stroke:#231815;stroke-width:8;stroke-linecap:round;stroke-linejoin:round;stroke-miterlimit:10;}
</style>
<g id="셀카봉">
	<g>
		<path class="st0" d="M885.5,567.9l-137.6-39.5c-6.6-1.9-10.5-8.8-8.6-15.4l20.7-71.9c1.9-6.6,8.8-10.5,15.4-8.6L913.1,472
			c6.6,1.9,10.5,8.8,8.6,15.4l-20.7,72C899.1,566,892.1,569.8,885.5,567.9z"/>
		<path class="st1" d="M892.8,518.1l-25.1-7.2c-3.9-1.1-6.1-5.1-5-9l6.7-23.4c1.1-3.9,5.1-6.1,9-5l25.1,7.2c3.9,1.1,6.1,5.1,5,9
			l-6.7,23.4C900.7,516.9,896.6,519.2,892.8,518.1z"/>
		<circle class="st2" cx="879.2" cy="486.2" r="6.8"/>
		<circle class="st2" cx="896.4" cy="491.1" r="6.8"/>
		<circle class="st2" cx="883.5" cy="503.2" r="6.8"/>
	</g>
	
		<rect x="689.9" y="632.7" transform="matrix(0.276 -0.9612 0.9612 0.276 -47.952 1219.5151)" class="st3" width="191.3" height="17.7"/>
	<path class="st4" d="M742.7,790.8L742.7,790.8c-5.5-1.6-8.6-7.3-7.1-12.7l24.2-84.3c1.6-5.5,7.3-8.6,12.7-7.1l0,0
		c5.5,1.6,8.6,7.3,7.1,12.7l-24.2,84.3C753.9,789.2,748.2,792.4,742.7,790.8z"/>
	<path class="st5" d="M819.9,564.5l-23.4-6.7c-7.1-2-11.2-9.4-9.1-16.5l28.1-97.7c2-7.1,9.4-11.2,16.5-9.1l23.4,6.7
		c7.1,2,11.2,9.4,9.1,16.5l-28.1,97.7C834.3,562.4,827,566.5,819.9,564.5z"/>
</g>
</svg>
