<?xml version="1.0" encoding="utf-8"?>
<!-- Generator: Adobe Illustrator 27.7.0, SVG Export Plug-In . SVG Version: 6.00 Build 0)  -->
<svg version="1.1" id="레이어_1" xmlns="http://www.w3.org/2000/svg" xmlns:xlink="http://www.w3.org/1999/xlink" x="0px"
	 y="0px" viewBox="0 0 1080 1013.3" style="enable-background:new 0 0 1080 1013.3;" xml:space="preserve">
<style type="text/css">
	.st0{fill:#435E1D;}
	.st1{fill:#FFC973;}
	.st2{fill:#FF7676;}
	.st3{opacity:0.68;fill:#FFFFFF;stroke:#000000;stroke-width:8;stroke-miterlimit:10;enable-background:new    ;}
	.st4{fill:none;stroke:#000000;stroke-width:8;stroke-miterlimit:10;}
</style>
<g id="꽃1">
	<g>
		<g>
			<path class="st0" d="M812.5,716c0.7,1.6,0.5,3.5-0.6,4.9l-59.4,76.4c-2.9,3.8-6.2,3.7-9.1,3.5c-0.7,0-1.4-0.1-2.1-0.1l-3.9,0.2
				c-2,0.1-4-1.2-4.7-3c-0.7-1.6-0.5-3.5,0.6-4.9l65.5-82.2c1.5-2,4.6-2.6,6.7-0.9l5.6,4C811.5,714.3,812.1,715,812.5,716z"/>
			<path d="M735.3,796.5c-0.2-0.6-0.2-1.1,0.2-1.7l65.5-82.2c0.6-0.7,1.5-0.9,2.2-0.2l5.6,4c0.3,0.1,0.4,0.5,0.5,0.7
				c0.2,0.6,0.2,1.1-0.2,1.7l-59.4,76.4c-2.5,3.1-4.9,2.3-8.9,2.3l-3.9,0.2C736.2,797.5,735.6,797.1,735.3,796.5 M729.3,799
				c1.3,3.2,4.5,5.2,7.7,5l3.9-0.2c0.7,0,1.4-0.1,1.9,0.1c3.1,0.1,7.8,0.3,11.8-4.9l59.4-76.4c1.8-2.4,2.2-5.4,1.1-8.2
				c-0.6-1.4-1.6-2.6-2.9-3.5l-5.6-4c-3.6-2.5-8.5-1.9-11.3,1.6l-65.5,82.2C728.6,793.2,728.2,796.4,729.3,799L729.3,799z"/>
		</g>
		<g>
			<path class="st1" d="M848.2,689.6c0.6,1.4,0.6,3.1,0.2,4.6c-2.6,9-9,24.8-21.1,28.4c-7.1,2.2-14.8,0-22.9-6.7
				c-4.7-3.9-8-8-9.6-12c-5-12.2,3.2-24.7,22.7-34.7c1.7-0.9,3.8-1.1,5.5-0.4c1.7,0.7,3.2,2,3.9,3.8c0.1,0.2,0.2,0.6,0.3,0.8
				c0.9,3.4,1.7,8.7,0.6,14.5c4.3-2,9.6-3.5,15.6-2.4C845.6,686,847.3,687.4,848.2,689.6z"/>
			<path d="M798,702.5c-6.1-14.8,12.8-26.3,21.2-30.5c1.9-1,4.2-0.1,4.9,1.7c0.1,0.2,0.1,0.2,0.2,0.4c1.5,5.3,2.5,15.1-4.7,23.9
				c0,0,10.2-11.7,23.5-9.4c1.2,0.2,2.1,1,2.5,2c0.3,0.8,0.5,1.7,0.1,2.5c-3.1,10.6-14.4,40.1-38.8,20.2
				C802.1,709.5,799.4,705.9,798,702.5 M792,705c1.9,4.6,5.4,9,10.6,13.2c8.9,7.4,17.6,9.8,26,7.3c13.5-4.2,20.4-21,23.2-30.6
				c0.7-2.2,0.4-4.6-0.5-6.8c-1.3-3.2-4.1-5.3-7.3-5.9c-4.5-0.7-8.6-0.4-12.4,0.6c0.1-4.3-0.4-7.8-1.3-10.5
				c-0.2-0.4-0.3-0.8-0.5-1.2c-1.1-2.6-3.1-4.6-5.8-5.6c-2.5-1.1-5.5-0.8-8,0.5C795,676.9,786.2,691,792,705L792,705z"/>
		</g>
		<g>
			<path class="st1" d="M840,678.2c0.4,1,0.5,2.4,0.2,3.4c-2.9,12.4-9.7,34-21.4,37.9c-4.8,1.5-9.5,0.2-14.4-3.7
				c-2.5-2-4.3-4.3-5.3-6.7c-1.3-3.2-1.3-6.5,0.1-9.9c4.5-10.7,22.8-19.7,33.5-23.9C835.7,673.9,838.9,675.4,840,678.2z"/>
			<path d="M802.3,707.8c-5.4-13,21.4-25.4,31.9-29.5c1.2-0.5,2.6,0.1,3.1,1.3c0.2,0.4,0.1,0.9,0.1,1.4
				c-2.9,12.4-12.9,47.2-30.4,32.4C804.5,711.3,803,709.6,802.3,707.8 M796.3,710.3L796.3,710.3c1.2,2.8,3.3,5.7,6.1,8
				c7.1,6,13.4,5.7,17.5,4.3c12.5-4.2,19.7-24.3,23.5-40.1c0.4-1.8,0.4-3.7-0.4-5.5c-1.8-4.4-6.9-6.5-11.6-4.8
				c-13.4,5.5-30.4,14.4-35.1,25.7C794.8,702,794.6,706.3,796.3,710.3L796.3,710.3z"/>
		</g>
	</g>
	<g>
		<path class="st0" d="M792.7,701c0.5,1.2,0.4,2.7-0.1,3.8l-39.2,88.5c-1.9,4.5-4.9,5.3-7.8,6c-0.4,0.2-1.1,0.2-1.7,0.5l-3.8,1.1
			c-2.3,0.7-4.9-0.6-5.9-3c-0.5-1.2-0.4-2.7,0.1-3.8l43-95.7c1.1-2.3,3.9-3.5,6.2-2.6l6.4,2.5C791.3,698.7,792.2,699.8,792.7,701z"
			/>
		<path d="M737.2,796.6c-0.2-0.4-0.1-0.9,0-1.2l43-95.7c0.4-0.8,1.4-1.3,2.2-0.9l6.4,2.5c0.5,0,0.6,0.4,0.8,0.8
			c0.2,0.4,0.1,0.9,0.1,1.4l-39.2,88.5c-1.5,3.7-3.5,3.5-7.2,4.6l-3.8,1.1C738.4,797.8,737.6,797.4,737.2,796.6 M731.2,799.1
			c1.6,3.8,5.7,5.9,9.7,4.7l3.8-1.1c0.6-0.2,1.1-0.2,1.5-0.4c3.2-0.8,7.4-1.9,9.9-7.8l39.2-88.5c0.8-2,1-4.4,0.2-6.4
			c-0.8-2-2.4-3.7-4.4-4.5l-6.4-2.5c-4.2-1.6-8.6,0.2-10.4,4.3l-42.8,95.8C730.6,794.7,730.4,797.1,731.2,799.1L731.2,799.1z"/>
	</g>
	<g>
		<path class="st2" d="M821.4,667.1c0.4,1,0.5,1.9,0.6,3.1c-0.4,9.3-2.8,26.2-13.5,32.7c-6.4,3.8-14.2,3.5-23.8-1
			c-7.3-3.5-12.2-8.1-14.5-13.5c-5.6-13.6,7.5-27.9,16-35.1c1.6-1.3,3.6-2,5.7-1.6s3.7,1.5,4.7,3.5c0.7,1.1,1.2,2.3,1.7,3.5
			c1.2,2.8,2.2,6.4,2.4,10.5c3.6-3.1,8.7-5.7,14.6-6C817.7,662.8,820.3,664.5,821.4,667.1z"/>
		<path d="M772.9,687.1c-5-12.2,8.6-25.8,14.9-31.4c1.8-1.4,4.3-1,5.3,0.9c0.6,0.9,1,1.9,1.5,3.1c2.1,5.2,3.6,12.8-0.4,21.2
			c0,0,7.1-13.9,20.6-14.8c1.6-0.2,2.7,0.8,3.2,2.2c0.2,0.4,0.2,1.1,0.2,1.6c-0.4,10.9-4.3,42.5-32.9,28.8
			C778.7,695.3,774.7,691.3,772.9,687.1 M766.9,689.6c2.5,6,7.9,11.3,16.1,15.2c10.5,5,19.5,5.3,26.8,0.9
			c12.2-7.4,14.7-25.2,15.2-35.3c0.1-1.4-0.3-2.9-0.8-4.3c-1.6-4-5.5-6.4-9.8-6.1c-4.6,0.2-8.5,1.6-11.8,3.7
			c-0.5-2.4-1.1-4.5-1.9-6.3c-0.5-1.2-1.1-2.6-1.8-3.7c-1.6-2.6-3.9-4.5-7-5.1c-3.1-0.6-5.9,0.3-8.4,2.3
			C774.8,658.7,760.6,674.1,766.9,689.6L766.9,689.6z"/>
	</g>
	<g>
		<path class="st2" d="M810.5,657.8c0.2,0.6,0.4,1.5,0.4,2.2c0.1,12.8-1.1,35.4-11.7,42.1c-4.3,2.7-9.2,2.6-14.8-0.2
			c-4.1-2-6.8-4.7-8.2-8.1c-5.4-13,13.9-29.4,25.9-38.3c1.4-1.1,3.2-1.3,4.8-0.8C808.5,655.1,809.9,656.2,810.5,657.8z"/>
		<path d="M779.1,692.5c-4.7-11.4,16.3-28,24.8-34.3c1.2-1,2.9-0.3,3.4,0.9c0.1,0.2,0.2,0.6,0.1,0.9c0.1,12.8-1.2,49-21.8,38.7
			C782.4,697,780.1,694.9,779.1,692.5 M773.1,695L773.1,695c1.6,4,4.9,7.4,9.8,9.6c8.2,4.1,14.3,2.3,18.1,0.1
			c11.3-7.2,13.4-28.2,13.2-44.8c0-1.2-0.2-2.2-0.6-3.3c-1.1-2.6-3.2-4.3-5.6-5.2c-2.7-0.8-5.4-0.1-7.6,1.5
			C784.6,664.2,767.3,680.7,773.1,695L773.1,695z"/>
	</g>
	<g>
		<path class="st0" d="M830.8,737.3c0.8,2,0.2,4.4-1.6,5.8l-77.6,57.7c-3.8,2.7-7.3,1.6-10.2,0.7c-0.8-0.2-1.6-0.5-2.4-0.7l-3.9-1
			c-1-0.3-2.1-1-2.6-2.2c-1.4-3.4,3.1-7.1,4.6-8.2l81.9-59.9c2.2-1.6,5.1-1.2,6.7,1l4.4,5.5C830.5,736.5,830.7,736.9,830.8,737.3
			L830.8,737.3z"/>
		<path d="M735.6,796.6c-0.3-0.8,2.5-3.6,3.4-4.2l81.9-59.9c0.7-0.5,1.7-0.5,2.2,0.3l4.4,5.5c0.1,0.2,0.1,0.2,0.2,0.4
			c0.2,0.6,0.1,1.4-0.6,1.9l-77.6,57.7c-3.3,2.3-5.9,0.3-9.9-0.6L735.6,796.6C735.9,796.7,735.6,796.6,735.6,796.6 M729.6,799.1
			c0.8,2,2.6,3.6,4.7,4.1l3.9,1c0.8,0.2,1.3,0.4,2.1,0.5c3,1.1,8.1,2.5,13.1-1.2l77.6-57.7c3.1-2.2,4-6.1,2.6-9.5
			c-0.3-0.8-0.8-1.3-1.3-2l-4.4-5.5c-2.9-3.5-7.8-4.1-11.2-1.5L735,787.2C732.9,788.8,727.4,793.7,729.6,799.1L729.6,799.1z"/>
	</g>
	<g>
		<path class="st2" d="M872.3,720.9c0.8,2,0.6,4.4-0.5,6.3c-4.9,7.9-15.3,21.5-27.8,21.8c-7.4,0.2-14.3-4-20.2-12.5
			c-1.8-2.6-3.3-5.2-4.3-7.6c-2.6-6.4-2.4-12.1,0.2-17.2c5.5-10.5,20.6-14.8,29-16.6c3.3-0.6,6.5,1.1,7.7,3.9
			c0.3,0.8,0.5,1.7,0.4,2.7c0,3.5-0.6,8.9-3.3,14.2c4.8-0.8,10.2-0.7,15.8,1.9C870.5,718.1,871.7,719.5,872.3,720.9z"/>
		<g>
			<path d="M822.3,727.4c-8.3-20.2,16.9-27.3,27-29.4c1.8-0.3,3.3,0.5,3.9,2.1c0.2,0.4,0.3,0.8,0.3,1.3c-0.1,5.4-1.7,15.2-10.9,21.8
				c0,0,13.1-8.7,25.1-2.8c0.8,0.4,1.3,0.9,1.6,1.7c0.4,1,0.2,2.2-0.2,3.4c-5.7,9.4-24.5,34.9-42.7,8.9
				C824.4,731.9,823.2,729.6,822.3,727.4 M816.3,729.9c1.1,2.6,2.7,5.4,4.6,8.4c6.7,9.4,14.5,14.2,22.9,14
				c14.1-0.4,25.3-14.9,30.5-23.3c1.7-2.8,2.1-6.3,0.9-9.3c-0.9-2.2-2.6-4.1-4.9-5c-4.1-2-8.2-2.7-12.1-2.7c1.2-4,1.5-7.7,1.5-10.5
				c-0.1-1.4-0.2-2.7-0.7-3.9c-1.8-4.4-6.6-6.9-11.3-5.9c-9.1,1.9-25.1,6.6-31.3,18.3C814.5,714,812.6,720.9,816.3,729.9
				L816.3,729.9z"/>
		</g>
	</g>
	<g>
		<path class="st2" d="M867.5,708.1c0.7,1.6,0.4,3.3-0.4,4.8c-6.2,11.2-18.2,30.2-30.8,31c-5.1,0.2-9.4-2.2-12.9-7.4
			c-1-1.2-1.6-2.6-2.1-4c-1.7-4.2-1.5-8.3,0.6-11.7c6-10.4,27.6-14.4,39.6-15.8C864.2,704.5,866.5,705.7,867.5,708.1z"/>
		<g>
			<path d="M824.3,731c-6.8-16.4,25.7-21.8,37.6-23c1.1-0.2,2.1,0.5,2.4,1.3c0.2,0.6,0.3,1.3-0.1,1.9c-6.2,11.2-25,42.2-38,23.1
				C825.5,733.4,824.8,732.2,824.3,731 M818.3,733.5L818.3,733.5c0.7,1.6,1.5,3.1,2.6,4.6c5.3,7.7,11.5,9.1,15.6,8.8
				c13.3-0.6,25.6-18,33.5-32.5c1.3-2.4,1.4-5,0.4-7.6c-1.5-3.6-5.2-5.8-9.2-5.3c-15.7,1.8-35.6,6.2-42.1,17.3
				C816.4,723.3,816.2,728.5,818.3,733.5L818.3,733.5z"/>
		</g>
	</g>
	<g>
		<path class="st0" d="M819.9,676.6c0.6,1.4,0.5,2.9-0.2,4.1l-43.9,86.2c-2.2,4.4-6.3,7.5-11,8.5l-3.9,0.9c-2.4,0.5-4.7-0.6-5.6-2.8
			c-0.6-1.4-0.5-2.9,0.2-4.1l49.5-96c1.1-2.3,4-3.3,6.4-2.2l6.4,3C818.6,674.6,819.5,675.6,819.9,676.6z"/>
		<path d="M758.3,772.2c-0.2-0.4-0.1-0.9,0.1-1.4l49.5-96c0.4-0.8,1.4-1.1,2.3-0.7l6.4,3c0.3,0.1,0.6,0.4,0.8,0.8
			c0.2,0.4,0.1,0.9-0.1,1.4l-43.9,86.2c-1.8,3.6-5,6-8.9,6.9l-3.9,0.9C759.3,773.5,758.6,772.8,758.3,772.2 M752.3,774.7
			c1.5,3.6,5.4,5.7,9.3,4.9l3.9-0.9c5.8-1.2,10.6-5.1,13.3-10.4l43.9-86.2c1-2.1,1.1-4.7,0.2-6.9c-0.7-1.8-2.3-3.3-4.1-4.2l-6.4-3
			c-4-1.8-8.7-0.2-10.7,3.7l-49.5,96C751.3,770,751.4,772.5,752.3,774.7L752.3,774.7z"/>
	</g>
	<g>
		<path class="st2" d="M850.4,644.4c0.4,1,0.7,2.3,0.4,3.3c-0.9,9.3-4,26-15.4,31.9c-6.6,3.4-14.6,2.7-23.7-2.4
			c-6.9-3.7-11.3-8.2-13.4-13.2c-6.1-14.8,10.1-29.5,17.4-35c1.6-1.3,3.7-1.8,5.8-1.2c2,0.3,3.6,1.8,4.6,3.7
			c0.2,0.6,0.5,1.2,0.7,1.8c1.4,3.4,2.4,7.7,2.5,12.3c3.8-2.7,8.8-5.3,14.9-5.2C846.9,640.3,849.4,641.8,850.4,644.4z"/>
		<path d="M801.3,662.8c-5.2-12.6,9.7-26,16.4-31.3c1.8-1.4,4.3-0.8,5.4,1.3c0.2,0.6,0.4,1,0.7,1.6c2.1,5.2,4,13.8-0.9,22.9
			c0,0,7.8-13.5,21.3-13.7c1.4-0.1,2.5,0.9,3,2.1c0.2,0.6,0.3,1.3,0.3,1.8c-1.1,11-6.6,42-34.3,27
			C806.8,670.8,803,666.8,801.3,662.8 M795.3,665.2c2.4,5.8,7.5,10.7,14.7,14.8c10.3,5.6,19.2,6.4,26.7,2.3
			c12.5-6.6,16.2-24.5,17-34.4c0.2-1.7,0-3.5-0.6-4.9c-1.6-3.8-5.2-6.3-9.1-6.1c-4.7,0-8.6,1.2-12.1,3.1c-0.4-2.7-1.1-5.4-2.2-8.2
			c-0.2-0.6-0.6-1.4-0.8-2c-1.4-2.7-3.8-4.7-6.7-5.4c-2.9-0.7-6.1-0.1-8.6,1.9C797.2,639.1,790.5,653.4,795.3,665.2L795.3,665.2z"/>
	</g>
	<g>
		<path class="st2" d="M840.1,634.6c0.3,0.8,0.4,1.5,0.5,2.4c-0.6,12.9-3.1,35.2-13.9,41.3c-4.4,2.5-9.2,2.1-14.7-1
			c-3.7-2.2-6.4-4.6-7.7-7.8c-5.5-13.4,15-29.1,27.7-37.4c1.5-0.9,3.1-1,4.6-0.7C838.3,631.9,839.4,633,840.1,634.6z"/>
		<g>
			<path d="M807.3,668.2c-4.8-11.6,17.5-27.6,26.5-33.4c1.3-0.8,2.9-0.3,3.4,0.9c0.2,0.4,0.2,0.6,0.2,1.1
				c-0.6,12.9-3.8,48.9-23.9,37.5C810,672.5,808.2,670.4,807.3,668.2 M801.3,670.7L801.3,670.7c1.6,3.8,4.5,7,9,9.4
				c8.2,4.6,14.1,3.1,18,1c11.6-6.4,14.9-27.5,15.6-43.9c0.2-1.2-0.1-2.5-0.6-3.7c-1-2.4-2.9-4.2-5.6-5c-2.5-0.9-5.3-0.4-7.6,1
				C813.6,640.2,795.2,655.9,801.3,670.7L801.3,670.7z"/>
		</g>
	</g>
	<g>
		<path class="st0" d="M849.2,702.3c0.8,2,0.3,4.1-1.3,5.4L776,772.5c-3.5,3.3-8.6,4.7-13.5,4.2l-3.9-0.5c-1.7-0.2-3.1-1.3-3.8-2.9
			c-0.8-2-0.3-4.1,1.3-5.4l80.4-72c2.1-1.8,5-1.6,6.9,0.2l4.9,5C848.5,701.2,849,701.7,849.2,702.3L849.2,702.3z"/>
		<path d="M757.7,771.8c-0.2-0.6-0.1-1.4,0.4-1.8l80.4-72c0.7-0.5,1.7-0.5,2.3,0l4.9,5c0.1,0.2,0.4,0.3,0.4,0.5
			c0.2,0.6,0.1,1.4-0.4,1.8l-71.9,64.7c-2.9,2.6-6.9,3.8-10.8,3.3l-3.9-0.5C758.5,772.6,757.9,772.4,757.7,771.8 M751.7,774.3
			c1.1,2.6,3.5,4.6,6.2,4.9l3.9,0.5c5.8,0.9,11.8-0.9,16-4.9l71.9-64.7c2.6-2.2,3.4-6.1,2.1-9.1c-0.4-1-0.9-1.7-1.8-2.6l-4.9-5
			c-3-3.2-7.9-3.3-11.4-0.4l-80.4,72C751.4,767.4,750.4,771.1,751.7,774.3L751.7,774.3z"/>
	</g>
	<g>
		<path class="st2" d="M888.9,682.2c0.7,1.8,0.7,3.9-0.2,5.7c-4.2,8.5-13.1,22.7-25.8,24.4c-7.3,0.9-14.5-2.7-21.3-10.7
			c-2.8-3.3-4.8-6.5-6.1-9.7c-2.2-5.4-2.3-10.8,0.1-15.7c4.8-10.4,19.1-16.1,27.1-18.4c3.4-0.9,6.8,0.7,8.2,3.9
			c0.2,0.6,0.3,1.3,0.4,2.2c0.3,3.6,0.1,8.8-2,14.4c4.7-1.2,10.1-1.6,15.8,0.3C886.8,679.3,888.3,680.6,888.9,682.2z"/>
		<path d="M838.6,690.7c-7.3-17.8,15.7-26.8,25-29.7c1.9-0.5,3.7,0.4,4.3,2c0.2,0.4,0.2,0.6,0.2,1.1c0.4,5.5-0.2,15.3-8.9,22.6
			c0,0,12.2-9.7,24.8-5.1c0.8,0.4,1.6,1,1.9,1.8c0.4,1,0.3,2-0.1,3.1c-4.8,9.9-21.3,37.1-41.7,13
			C841.4,696.4,839.7,693.3,838.6,690.7 M832.6,693.2c1.4,3.4,3.6,7,6.7,10.6c7.6,8.8,15.6,12.8,24.3,11.8c14-1.8,23.7-17,28.1-26.1
			c1.3-2.6,1.4-5.7,0.3-8.3c-1.1-2.6-3.1-4.6-5.7-5.4c-4.2-1.6-8.5-1.9-12.3-1.5c0.9-4.1,0.8-7.8,0.6-10.5c-0.2-1.1-0.3-2-0.8-3
			c-2-4.8-7.1-7.1-12.2-5.7c-8.5,2.6-23.6,8.6-29.2,20.2C830,680.7,830,686.8,832.6,693.2L832.6,693.2z"/>
	</g>
	<g>
		<path class="st2" d="M883,669.9c0.6,1.4,0.5,2.9-0.1,4.3c-5,11.7-15.4,31.9-27.8,33.7c-4.9,0.6-9.5-1.5-13.5-6.1
			c-1.4-1.8-2.6-3.4-3.3-5.2c-1.6-3.8-1.5-7.6,0.4-10.9c5.5-10.5,26.1-16.3,37.7-18.8C879.3,666,881.9,667.3,883,669.9z"/>
		<g>
			<path d="M841.4,695.2c-6.2-15,24.3-22.9,35.9-25.3c1.3-0.3,2.3,0.5,2.6,1.3c0.2,0.6,0.2,1.1,0.1,1.8c-5,11.7-21.1,44.3-35.6,26.6
				C842.7,697.9,842,696.6,841.4,695.2 M835.4,697.7l6-2.5L835.4,697.7L835.4,697.7c0.8,2,2.1,4,3.6,6c6,7.1,12.1,7.9,16.4,7.3
				c13.3-1.9,23.7-20.3,30.4-35.5c0.9-2.3,0.9-4.6,0-6.8c-1.6-4-5.8-6.1-9.9-5.3c-15.1,3.2-34.1,9.3-40,20.5
				C833.6,688.3,833.5,693.1,835.4,697.7L835.4,697.7z"/>
		</g>
	</g>
	<g>
		<path class="st0" d="M816,717.6c0.7,1.6,0.3,3.6-0.8,5l-61.5,74.7c-3,3.6-6.6,3.4-9.2,3.3c-0.7,0-1.4-0.1-2.1-0.1l-4,0
			c-1.6,0-3-1.1-3.7-2.7c-0.9-2.2-0.3-6.4,1.1-8.2l66.4-77.7c1.7-2.1,4.6-2.4,6.7-0.7l5.5,4.3C815.1,716.1,815.6,716.8,816,717.6
			L816,717.6z"/>
		<path d="M737.5,796.7c-0.5-1.2-0.1-4.2,0.6-4.9l66.5-77.5c0.6-0.7,1.5-0.9,2.2-0.2l5.5,4.3c0.3,0.1,0.4,0.5,0.5,0.7
			c0.2,0.6,0.2,1.1-0.2,1.7l-61.4,74.4c-2.5,3.1-5,2.1-9,2.1l-4,0C738,797.3,737.7,797.1,737.5,796.7 M731.5,799.2
			c1.2,2.8,3.7,4.5,6.8,4.5l4,0c0.7,0,1.4-0.1,1.9,0.1c2.9,0.2,7.9,0.5,12-4.5l61.5-74.7c1.8-2.4,2.4-5.5,1.3-8.3
			c-0.6-1.4-1.5-2.4-2.6-3.4l-5.5-4.3c-3.4-2.6-8.4-2.2-11.2,1.3l-66.5,77.5l0,0l0,0C730.9,790.3,730.1,795.8,731.5,799.2
			L731.5,799.2z"/>
	</g>
	<g>
		<path class="st2" d="M852.3,692.1c0.7,1.6,0.6,3.3,0.1,4.9c-2.9,8.9-9.6,24.5-21.8,27.9c-7.1,2-14.7-0.5-22.7-7.3
			c-4.4-3.8-7.4-7.7-9-11.7c-5.1-12.4,3.5-25.1,23.4-34.7c1.8-0.7,3.7-0.8,5.3-0.1c1.7,0.7,3.2,2,3.8,3.6c0.2,0.4,0.2,0.6,0.4,1
			c0.7,3.5,1.5,8.8,0.1,14.5c4.3-2,9.7-3.1,15.6-2C849.7,688.7,851.5,690.1,852.3,692.1z"/>
		<path d="M801.9,704.4c-6.3-15.2,13.3-26.3,21.7-30.5c1.9-1,4,0,4.7,1.8c0.1,0.2,0.2,0.4,0.2,0.6c1.3,5.3,2.1,15.3-5.4,23.8
			c0,0,10.5-11.4,23.8-8.8c1,0.3,2.1,1,2.5,2c0.3,0.8,0.5,1.7,0.1,2.5c-3.4,10.5-15.4,39.8-39.3,19
			C805.9,711.4,803.3,707.9,801.9,704.4 M795.9,706.9c1.8,4.4,5.3,8.8,10,13c8.8,7.6,17.4,10.4,25.6,8.2c13.7-3.8,20.9-20.3,23.9-30
			c0.7-2.4,0.6-4.7-0.4-7.1c-1.2-3-3.8-5.2-7.1-5.8c-4.4-1-8.7-0.6-12.3,0.4c0.2-4.1-0.4-7.8-1.1-10.6c-0.2-0.4-0.2-1.1-0.4-1.5
			c-1.1-2.6-3.1-4.6-5.5-5.5c-2.5-1.1-5.5-0.8-8.1,0.3C799.2,678.6,790,692.7,795.9,706.9L795.9,706.9z"/>
	</g>
	<g>
		<path class="st2" d="M844.5,680.6c0.5,1.2,0.5,2.4,0.3,3.6c-3.3,12.4-10.4,33.8-22.3,37.3c-4.8,1.5-9.6,0-14.4-4.2
			c-2.3-2.1-4.1-4.2-5.1-6.6c-1.3-3.2-1.4-6.7,0.1-9.9c4.7-10.8,23.5-19.3,34-23.1C840.2,676.5,843.4,678,844.5,680.6z"/>
		<g>
			<path d="M806.1,709.5c-5.4-13.2,21.8-24.9,32.3-29c1.2-0.5,2.4,0.2,2.9,1.4c0.2,0.4,0.2,1.1,0.2,1.6
				c-3.3,12.4-14.2,46.8-31.5,31.7C808,713.2,806.8,711.3,806.1,709.5 M800.1,712L800.1,712c1.2,2.8,3.1,5.3,5.7,7.7
				c7,6.2,13.3,6,17.4,4.8c12.7-3.8,20.5-23.6,24.7-39.7c0.4-1.8,0.3-3.9-0.5-5.7c-1.8-4.4-6.7-6.6-11.1-4.8
				c-13.8,5.2-31.1,13.7-35.9,24.8C798.5,703.7,798.4,708,800.1,712L800.1,712z"/>
		</g>
	</g>
	<path class="st3" d="M735.4,804.6c5.7-0.5,63.1-9.4,132.3-56.8c3.1-2.2,0.3-7.2-3.4-6.6c-8.7,1-29.2-0.9-40.1-4.6
		c-3.2-1-6.7-0.3-9.3,1.9c-10.4,9-31.1,28.5-57.1,47.4c-1.8,1.2-22.9,16.7-22.3,14.8c4.1-11.5,28.8-58,49.4-88.7
		c1.6-2.3,1.6-5.1,0.4-7.6c-3.2-6.2-13.9-22.4-12.9-37.6c0.2-2.9-3.5-5.1-5.3-2.7c-15.5,20.4-32.6,69.2-35.9,137.5
		C731.6,802.2,734.4,804.6,735.4,804.6z"/>
	<path class="st4" d="M735.4,804.6c5.7-0.5,63.1-9.4,132.3-56.8c3.1-2.2,0.3-7.2-3.4-6.6c-8.7,1-29.2-0.9-40.1-4.6
		c-3.2-1-6.7-0.3-9.3,1.9c-10.4,9-31.1,28.5-57.1,47.4c-1.8,1.2-22.9,16.7-22.3,14.8c4.1-11.5,28.8-58,49.4-88.7
		c1.6-2.3,1.6-5.1,0.4-7.6c-3.2-6.2-13.9-22.4-12.9-37.6c0.2-2.9-3.5-5.1-5.3-2.7c-15.5,20.4-32.6,69.2-35.9,137.5
		C731.6,802.2,734.4,804.6,735.4,804.6z"/>
</g>
</svg>
