<?xml version="1.0" encoding="utf-8"?>
<!-- Generator: Adobe Illustrator 27.7.0, SVG Export Plug-In . SVG Version: 6.00 Build 0)  -->
<svg version="1.1" id="레이어_1" xmlns="http://www.w3.org/2000/svg" xmlns:xlink="http://www.w3.org/1999/xlink" x="0px"
	 y="0px" viewBox="0 0 1080 1013.3" style="enable-background:new 0 0 1080 1013.3;" xml:space="preserve">
<style type="text/css">
	.st0{fill:#435E1D;}
	.st1{fill:#FFC973;}
</style>
<g id="꽃2">
	<g>
		<g>
			<path class="st0" d="M812.7,715.8c0.7,1.6,0.5,3.5-0.6,4.9l-59.4,76.4c-3.1,3.9-7.5,6.1-12.6,6.4l-3.9,0.2c-2,0.1-4-1.2-4.7-3
				c-0.7-1.6-0.5-3.5,0.6-4.9l66.6-85c1.7-2.1,4.6-2.6,6.7-0.9l5.6,4C811.8,714.1,812.3,714.8,812.7,715.8z"/>
			<path d="M734.4,799.1c-0.2-0.6-0.2-1.1,0.2-1.7l66.6-85c0.6-0.7,1.5-0.9,2.2-0.2l5.6,4c0.3,0.1,0.4,0.5,0.5,0.7
				c0.2,0.6,0.2,1.1-0.2,1.7L750,795c-2.5,3.1-6.1,5.1-10.1,5.1l-3.9,0.2C735.3,800.2,734.6,799.7,734.4,799.1 M728.4,801.6
				c1.3,3.2,4.5,5.2,7.7,5l3.9-0.2c5.8-0.1,11.4-3,14.9-7.5l59.4-76.4c1.8-2.4,2.2-5.4,1.1-8.2c-0.6-1.4-1.6-2.6-2.9-3.5l-5.6-4
				c-3.6-2.5-8.5-1.9-11.3,1.6l-66.6,85C727.6,795.8,727.3,799,728.4,801.6L728.4,801.6z"/>
		</g>
		<g>
			<path class="st1" d="M848.5,689.4c0.6,1.4,0.6,3.1,0.2,4.6c-2.6,9-9,24.8-21.1,28.4c-7.1,2.2-14.8,0-22.9-6.7
				c-4.7-3.9-8-8-9.6-12c-5-12.2,3.2-24.7,22.7-34.7c1.7-0.9,3.8-1.1,5.5-0.4c1.7,0.7,3.2,2,3.9,3.8c0.1,0.2,0.2,0.6,0.3,0.8
				c0.9,3.4,1.7,8.7,0.6,14.5c4.3-2,9.6-3.5,15.6-2.4C845.8,685.8,847.6,687.2,848.5,689.4z"/>
			<path d="M798.3,702.4c-6.1-14.8,12.8-26.3,21.2-30.5c1.9-1,4.2-0.1,4.9,1.7c0.1,0.2,0.1,0.2,0.2,0.4c1.5,5.3,2.5,15.1-4.7,23.9
				c0,0,10.2-11.7,23.5-9.4c1.2,0.2,2.1,1,2.5,2c0.3,0.8,0.5,1.7,0.1,2.5c-3.1,10.6-14.4,40.1-38.8,20.2
				C802.3,709.4,799.7,705.8,798.3,702.4 M792.3,704.8c1.9,4.6,5.4,9,10.6,13.2c8.9,7.4,17.6,9.8,26,7.3c13.5-4.2,20.4-21,23.2-30.6
				c0.7-2.2,0.4-4.6-0.5-6.8c-1.3-3.2-4.1-5.3-7.3-5.9c-4.5-0.7-8.6-0.4-12.4,0.6c0.1-4.3-0.4-7.8-1.3-10.5
				c-0.2-0.4-0.3-0.8-0.5-1.2c-1.1-2.6-3.1-4.6-5.8-5.6c-2.5-1.1-5.5-0.8-8,0.5C795.2,676.7,786.5,690.8,792.3,704.8L792.3,704.8z"
				/>
		</g>
		<g>
			<path class="st1" d="M840.3,678c0.4,1,0.5,2.4,0.2,3.4c-2.9,12.4-9.7,34-21.4,37.9c-4.8,1.5-9.5,0.2-14.4-3.7
				c-2.5-2-4.3-4.3-5.3-6.7c-1.3-3.2-1.3-6.5,0.1-9.9c4.5-10.7,22.8-19.7,33.5-23.9C835.9,673.7,839.1,675.2,840.3,678z"/>
			<path d="M802.6,707.6c-5.4-13,21.4-25.4,31.9-29.5c1.2-0.5,2.6,0.1,3.1,1.3c0.2,0.4,0.1,0.9,0.1,1.4
				c-2.9,12.4-12.9,47.2-30.4,32.4C804.7,711.2,803.3,709.4,802.6,707.6 M796.6,710.1L796.6,710.1c1.2,2.8,3.3,5.7,6.1,8
				c7.1,6,13.4,5.7,17.5,4.3c12.5-4.2,19.7-24.3,23.5-40.1c0.4-1.8,0.4-3.7-0.4-5.5c-1.8-4.4-6.9-6.5-11.6-4.8
				c-13.4,5.5-30.4,14.4-35.1,25.7C795,701.8,794.9,706.1,796.6,710.1L796.6,710.1z"/>
		</g>
	</g>
	<g>
		<g>
			<g>
				<path class="st0" d="M793,700.8c0.5,1.2,0.4,2.7-0.1,3.8l-39.2,88.5c-1.9,4.5-5.9,7.8-10.5,9.2l-3.8,1.1c-2.3,0.7-4.9-0.6-5.9-3
					c-0.5-1.2-0.4-2.7,0.1-3.8l44.2-98.5c1.1-2.3,3.9-3.5,6.2-2.6l6.4,2.5C791.6,698.6,792.5,699.6,793,700.8z"/>
				<path d="M736.3,799.3c-0.2-0.4-0.1-0.9,0-1.2l44.2-98.5c0.4-0.8,1.4-1.3,2.2-0.9l6.4,2.5c0.5,0,0.6,0.4,0.8,0.8
					c0.2,0.4,0.1,0.9,0.1,1.4l-39.2,88.5c-1.5,3.7-4.6,6.4-8.4,7.4l-3.8,1.1C737.5,800.4,736.6,800.1,736.3,799.3 M730.3,801.8
					c1.6,3.8,5.7,5.9,9.7,4.7l3.8-1.1c5.7-1.6,10.3-5.7,12.8-11.1l39.2-88.5c0.8-2,1-4.4,0.2-6.4c-0.8-2-2.4-3.7-4.4-4.5l-6.4-2.5
					c-4.2-1.6-8.6,0.2-10.4,4.3l-44.1,98.7C729.7,797.3,729.5,799.8,730.3,801.8L730.3,801.8z"/>
			</g>
			<g>
				<path class="st1" d="M821.7,667c0.4,1,0.5,1.9,0.6,3.1c-0.4,9.3-2.8,26.2-13.5,32.7c-6.4,3.8-14.2,3.5-23.8-1
					c-7.3-3.5-12.2-8.1-14.5-13.5c-5.6-13.6,7.5-27.9,16-35.1c1.6-1.3,3.6-2,5.7-1.6s3.7,1.5,4.7,3.5c0.7,1.1,1.2,2.3,1.7,3.5
					c1.2,2.8,2.2,6.4,2.4,10.5c3.6-3.1,8.7-5.7,14.6-6C818,662.6,820.6,664.4,821.7,667z"/>
				<path d="M773.2,686.9c-5-12.2,8.6-25.8,14.9-31.4c1.8-1.4,4.3-1,5.3,0.9c0.6,0.9,1,1.9,1.5,3.1c2.1,5.2,3.6,12.8-0.4,21.2
					c0,0,7.1-13.9,20.6-14.8c1.6-0.2,2.7,0.8,3.2,2.2c0.2,0.4,0.2,1.1,0.2,1.6c-0.4,10.9-4.3,42.5-32.9,28.8
					C778.9,695.1,774.9,691.1,773.2,686.9 M767.2,689.4c2.5,6,7.9,11.3,16.1,15.2c10.5,5,19.5,5.3,26.8,0.9
					c12.2-7.4,14.7-25.2,15.2-35.3c0.1-1.4-0.3-2.9-0.8-4.3c-1.6-4-5.5-6.4-9.8-6.1c-4.6,0.2-8.5,1.6-11.8,3.7
					c-0.5-2.4-1.1-4.5-1.9-6.3c-0.5-1.2-1.1-2.6-1.8-3.7c-1.6-2.6-3.9-4.5-7-5.1c-3.1-0.6-5.9,0.3-8.4,2.3
					C775.1,658.5,760.8,674,767.2,689.4L767.2,689.4z"/>
			</g>
			<g>
				<path class="st1" d="M810.8,657.6c0.2,0.6,0.4,1.5,0.4,2.2c0.1,12.8-1.1,35.4-11.7,42.1c-4.3,2.7-9.2,2.6-14.8-0.2
					c-4.1-2-6.8-4.7-8.2-8.1c-5.4-13,13.9-29.4,25.9-38.3c1.4-1.1,3.2-1.3,4.8-0.8C808.7,655,810.1,656,810.8,657.6z"/>
				<path d="M779.4,692.3c-4.7-11.4,16.3-28,24.8-34.3c1.2-1,2.9-0.3,3.4,0.9c0.1,0.2,0.2,0.6,0.1,0.9c0.1,12.8-1.2,49-21.8,38.7
					C782.7,696.8,780.4,694.7,779.4,692.3 M773.4,694.8L773.4,694.8c1.6,4,4.9,7.4,9.8,9.6c8.2,4.1,14.3,2.3,18.1,0.1
					c11.3-7.2,13.4-28.2,13.2-44.8c0-1.2-0.2-2.2-0.6-3.3c-1.1-2.6-3.2-4.3-5.6-5.2c-2.7-0.8-5.4-0.1-7.6,1.5
					C784.9,664.1,767.5,680.6,773.4,694.8L773.4,694.8z"/>
			</g>
		</g>
		<g>
			<g>
				<path class="st0" d="M831.1,737.1c0.8,2,0.2,4.4-1.6,5.8l-77.6,57.7c-3.9,3-8.9,3.9-13.8,2.9l-3.9-1c-1-0.3-2.1-1-2.6-2.2
					c-1.4-3.4,3.1-7.1,4.6-8.2l83.1-62.8c2.2-1.6,5.1-1.2,6.7,1l4.4,5.5C830.8,736.3,830.9,736.7,831.1,737.1L831.1,737.1z"/>
				<path d="M734.7,799.3c-0.3-0.8,2.5-3.6,3.4-4.2l83.1-62.8c0.7-0.5,1.7-0.5,2.2,0.3l4.4,5.5c0.1,0.2,0.1,0.2,0.2,0.4
					c0.2,0.6,0.1,1.4-0.6,1.9L749.6,798c-3.3,2.3-7.1,3.2-11,2.2L734.7,799.3C735,799.4,734.7,799.3,734.7,799.3 M728.7,801.7
					c0.8,2,2.6,3.6,4.7,4.1l3.9,1c5.7,1.4,11.7,0.1,16.5-3.3l77.6-57.7c3.1-2.2,4-6.1,2.6-9.5c-0.3-0.8-0.8-1.3-1.3-2l-4.4-5.5
					c-2.9-3.5-7.8-4.1-11.2-1.5l-83.1,62.8C731.9,791.5,726.4,796.3,728.7,801.7L728.7,801.7z"/>
			</g>
			<g>
				<path class="st1" d="M872.6,720.7c0.8,2,0.6,4.4-0.5,6.3c-4.9,7.9-15.3,21.5-27.8,21.8c-7.4,0.2-14.3-4-20.2-12.5
					c-1.8-2.6-3.3-5.2-4.3-7.6c-2.6-6.4-2.4-12.1,0.2-17.2c5.5-10.5,20.6-14.8,29-16.6c3.3-0.6,6.5,1.1,7.7,3.9
					c0.3,0.8,0.5,1.7,0.4,2.7c0,3.5-0.6,8.9-3.3,14.2c4.8-0.8,10.2-0.7,15.8,1.9C870.7,718,872,719.3,872.6,720.7z"/>
				<path d="M822.6,727.2c-8.3-20.2,16.9-27.3,27-29.4c1.8-0.3,3.3,0.5,3.9,2.1c0.2,0.4,0.3,0.8,0.3,1.3
					c-0.1,5.4-1.7,15.2-10.9,21.8c0,0,13.1-8.7,25.1-2.8c0.8,0.4,1.3,0.9,1.6,1.7c0.4,1,0.2,2.2-0.2,3.4
					c-5.7,9.4-24.5,34.9-42.7,8.9C824.7,731.8,823.5,729.4,822.6,727.2 M816.6,729.7c1.1,2.6,2.7,5.4,4.6,8.4
					c6.7,9.4,14.5,14.2,22.9,14c14.1-0.4,25.3-14.9,30.5-23.3c1.7-2.8,2.1-6.3,0.9-9.3c-0.9-2.2-2.6-4.1-4.9-5
					c-4.1-2-8.2-2.7-12.1-2.7c1.2-4,1.5-7.7,1.5-10.5c-0.1-1.4-0.2-2.7-0.7-3.9c-1.8-4.4-6.6-6.9-11.3-5.9
					c-9.1,1.9-25.1,6.6-31.3,18.3C814.7,713.9,812.9,720.7,816.6,729.7L816.6,729.7z"/>
			</g>
			<g>
				<path class="st1" d="M867.8,707.9c0.7,1.6,0.4,3.3-0.4,4.8c-6.2,11.2-18.2,30.2-30.8,31c-5.1,0.2-9.4-2.2-12.9-7.4
					c-1-1.2-1.6-2.6-2.1-4c-1.7-4.2-1.5-8.3,0.6-11.7c6-10.4,27.6-14.4,39.6-15.8C864.5,704.4,866.8,705.5,867.8,707.9z"/>
				<path d="M824.5,730.9c-6.8-16.4,25.7-21.8,37.6-23c1.1-0.2,2.1,0.5,2.4,1.3c0.2,0.6,0.3,1.3-0.1,1.9c-6.2,11.2-25,42.2-38,23.1
					C825.7,733.2,825,732.1,824.5,730.9 M818.5,733.4L818.5,733.4c0.7,1.6,1.5,3.1,2.6,4.6c5.3,7.7,11.5,9.1,15.6,8.8
					c13.3-0.6,25.6-18,33.5-32.5c1.3-2.4,1.4-5,0.4-7.6c-1.5-3.6-5.2-5.8-9.2-5.3c-15.7,1.8-35.6,6.2-42.1,17.3
					C816.7,723.1,816.5,728.4,818.5,733.4L818.5,733.4z"/>
			</g>
		</g>
		<g>
			<g>
				<path class="st0" d="M820.2,676.5c0.6,1.4,0.5,2.9-0.2,4.1l-43.9,86.2c-2.2,4.4-6.3,7.5-11,8.5l-3.9,0.9
					c-2.4,0.5-4.7-0.6-5.6-2.8c-0.6-1.4-0.5-2.9,0.2-4.1l49.5-96c1.1-2.3,4-3.3,6.4-2.2l6.4,3C818.9,674.4,819.8,675.5,820.2,676.5z
					"/>
				<path d="M758.6,772.1c-0.2-0.4-0.1-0.9,0.1-1.4l49.5-96c0.4-0.8,1.4-1.1,2.3-0.7l6.4,3c0.3,0.1,0.6,0.4,0.8,0.8
					c0.2,0.4,0.1,0.9-0.1,1.4l-43.9,86.2c-1.8,3.6-5,6-8.9,6.9l-3.9,0.9C759.6,773.3,758.9,772.7,758.6,772.1 M752.6,774.6
					c1.5,3.6,5.4,5.7,9.3,4.9l3.9-0.9c5.8-1.2,10.6-5.1,13.3-10.4l43.9-86.2c1-2.1,1.1-4.7,0.2-6.9c-0.7-1.8-2.3-3.3-4.1-4.2l-6.4-3
					c-4-1.8-8.7-0.2-10.7,3.7l-49.5,96C751.6,769.8,751.7,772.4,752.6,774.6L752.6,774.6z"/>
			</g>
			<g>
				<path class="st1" d="M850.7,644.2c0.4,1,0.7,2.3,0.4,3.3c-0.9,9.3-4,26-15.4,31.9c-6.6,3.4-14.6,2.7-23.7-2.4
					c-6.9-3.7-11.3-8.2-13.4-13.2c-6.1-14.8,10.1-29.5,17.4-35c1.6-1.3,3.7-1.8,5.8-1.2c2,0.3,3.6,1.8,4.6,3.7
					c0.2,0.6,0.5,1.2,0.7,1.8c1.4,3.4,2.4,7.7,2.5,12.3c3.8-2.7,8.8-5.3,14.9-5.2C847.1,640.1,849.6,641.6,850.7,644.2z"/>
				<path d="M801.6,662.6c-5.2-12.6,9.7-26,16.4-31.3c1.8-1.4,4.3-0.8,5.4,1.3c0.2,0.6,0.4,1,0.7,1.6c2.1,5.2,4,13.8-0.9,22.9
					c0,0,7.8-13.5,21.3-13.7c1.4-0.1,2.5,0.9,3,2.1c0.2,0.6,0.3,1.3,0.3,1.8c-1.1,11-6.6,42-34.3,27
					C807,670.7,803.2,666.6,801.6,662.6 M795.6,665.1c2.4,5.8,7.5,10.7,14.7,14.8c10.3,5.6,19.2,6.4,26.7,2.3
					c12.5-6.6,16.2-24.5,17-34.4c0.2-1.7,0-3.5-0.6-4.9c-1.6-3.8-5.2-6.3-9.1-6.1c-4.7,0-8.6,1.2-12.1,3.1c-0.4-2.7-1.1-5.4-2.2-8.2
					c-0.2-0.6-0.6-1.4-0.8-2c-1.4-2.7-3.8-4.7-6.7-5.4c-2.9-0.7-6.1-0.1-8.6,1.9C797.5,639,790.7,653.3,795.6,665.1L795.6,665.1z"/>
			</g>
			<g>
				<path class="st1" d="M840.4,634.5c0.3,0.8,0.4,1.5,0.5,2.4c-0.6,12.9-3.1,35.2-13.9,41.3c-4.4,2.5-9.2,2.1-14.7-1
					c-3.7-2.2-6.4-4.6-7.7-7.8c-5.4-13.2,15-29.1,27.7-37.4c1.5-0.9,3.1-1,4.6-0.7C838.5,631.7,839.7,632.9,840.4,634.5z"/>
				<path d="M807.6,668.1c-4.8-11.6,17.5-27.6,26.5-33.4c1.3-0.8,2.9-0.3,3.4,0.9c0.2,0.4,0.2,0.6,0.2,1.1
					c-0.6,12.9-3.8,48.9-23.9,37.5C810.3,672.4,808.5,670.3,807.6,668.1 M801.6,670.6L801.6,670.6c1.6,3.8,4.5,7,9,9.4
					c8.2,4.6,14.1,3.1,18,1c11.6-6.4,14.9-27.5,15.6-43.9c0.2-1.2-0.1-2.5-0.6-3.7c-1-2.4-2.9-4.2-5.6-5c-2.5-0.9-5.3-0.4-7.6,1
					C813.8,640,795.5,655.7,801.6,670.6L801.6,670.6z"/>
			</g>
		</g>
		<g>
			<g>
				<path class="st0" d="M849.5,702.1c0.8,2,0.3,4.1-1.3,5.4l-71.9,64.7c-3.5,3.3-8.6,4.7-13.5,4.2l-3.9-0.5
					c-1.7-0.2-3.1-1.3-3.8-2.9c-0.8-2-0.3-4.1,1.3-5.4l80.4-72c2.1-1.8,5-1.6,6.9,0.2l4.9,5C848.8,701,849.2,701.5,849.5,702.1
					L849.5,702.1z"/>
				<path d="M758,771.6c-0.2-0.6-0.1-1.4,0.4-1.8l80.4-72c0.7-0.5,1.7-0.5,2.3,0l4.9,5c0.1,0.2,0.4,0.3,0.4,0.5
					c0.2,0.6,0.1,1.4-0.4,1.8l-71.9,64.7c-2.9,2.6-6.9,3.8-10.8,3.3l-3.9-0.5C758.8,772.5,758.2,772.2,758,771.6 M752,774.1
					c1.1,2.6,3.5,4.6,6.2,4.9l3.9,0.5c5.8,0.9,11.8-0.9,16-4.9l71.9-64.7c2.6-2.2,3.4-6.1,2.1-9.1c-0.4-1-0.9-1.7-1.8-2.6l-4.9-5
					c-3-3.2-7.9-3.3-11.4-0.4l-80.4,72C751.7,767.2,750.6,770.9,752,774.1L752,774.1z"/>
			</g>
			<g>
				<path class="st1" d="M889.2,682c0.7,1.8,0.7,3.9-0.2,5.7c-4.2,8.5-13.1,22.7-25.8,24.4c-7.3,0.9-14.5-2.7-21.3-10.7
					c-2.8-3.3-4.8-6.5-6.1-9.7c-2.2-5.4-2.3-10.8,0.1-15.7c4.8-10.4,19.1-16.1,27.1-18.4c3.4-0.9,6.8,0.7,8.2,3.9
					c0.2,0.6,0.3,1.3,0.4,2.2c0.3,3.6,0.1,8.8-2,14.4c4.7-1.2,10.1-1.6,15.8,0.3C887.1,679.1,888.5,680.4,889.2,682z"/>
				<path d="M838.9,690.6c-7.3-17.8,15.7-26.8,25-29.7c1.9-0.5,3.7,0.4,4.3,2c0.2,0.4,0.2,0.6,0.2,1.1c0.4,5.5-0.2,15.3-8.9,22.6
					c0,0,12.2-9.7,24.8-5.1c0.8,0.4,1.6,1,1.9,1.8c0.4,1,0.3,2-0.1,3.1c-4.8,9.9-21.3,37.1-41.7,13
					C841.7,696.2,839.9,693.2,838.9,690.6 M832.9,693c1.4,3.4,3.6,7,6.7,10.6c7.6,8.8,15.6,12.8,24.3,11.8c14-1.8,23.7-17,28.1-26.1
					c1.3-2.6,1.4-5.7,0.3-8.3s-3.1-4.6-5.7-5.4c-4.2-1.6-8.5-1.9-12.3-1.5c0.9-4.1,0.8-7.8,0.6-10.5c-0.2-1.1-0.3-2-0.8-3
					c-2-4.8-7.1-7.1-12.2-5.7c-8.5,2.6-23.6,8.6-29.2,20.2C830.3,680.5,830.2,686.6,832.9,693L832.9,693z"/>
			</g>
			<g>
				<path class="st1" d="M883.2,669.7c0.6,1.4,0.5,2.9-0.1,4.3c-5,11.7-15.4,31.9-27.8,33.7c-4.9,0.6-9.5-1.5-13.5-6.1
					c-1.4-1.8-2.6-3.4-3.3-5.2c-1.6-3.8-1.5-7.6,0.4-10.9c5.5-10.5,26.1-16.3,37.7-18.8C879.5,665.9,882.1,667.1,883.2,669.7z"/>
				<path d="M841.6,695c-6.2-15,24.3-22.9,35.9-25.3c1.3-0.3,2.3,0.5,2.6,1.3c0.2,0.6,0.2,1.1,0.1,1.8c-5,11.7-21.1,44.3-35.6,26.6
					C843,697.8,842.2,696.4,841.6,695 M835.6,697.5l6-2.5L835.6,697.5L835.6,697.5c0.8,2,2.1,4,3.6,6c6,7.1,12.1,7.9,16.4,7.3
					c13.3-1.9,23.7-20.3,30.4-35.5c0.9-2.3,0.9-4.6,0-6.8c-1.6-4-5.8-6.1-9.9-5.3c-15.1,3.2-34.1,9.3-40,20.5
					C833.9,688.2,833.7,692.9,835.6,697.5L835.6,697.5z"/>
			</g>
		</g>
		<g>
			<g>
				<path class="st0" d="M816.2,717.5c0.7,1.6,0.3,3.6-0.8,5L754,797.2c-3.1,3.9-7.8,6-12.7,6.2l-4,0c-2,0.1-3.8-1.2-4.5-3.1
					c-0.7-1.6-0.3-3.6,0.8-5l68.7-83.3c1.7-2.1,4.6-2.4,6.7-0.7l5.5,4.3C815.4,715.9,815.9,716.7,816.2,717.5L816.2,717.5z"/>
				<path d="M735.8,799.1c-0.2-0.6-0.2-1.1,0.2-1.7l68.8-83.1c0.6-0.7,1.5-0.9,2.2-0.2l5.5,4.3c0.3,0.1,0.4,0.5,0.5,0.7
					c0.2,0.6,0.2,1.1-0.2,1.7l-61.4,74.4c-2.5,3.1-6.2,4.9-10.2,4.9l-4,0C736.6,800.1,736,799.7,735.8,799.1 M729.7,801.5
					c1.2,3,4.2,5.1,7.7,5l4,0c5.8-0.1,11.4-2.6,15.1-7.1l61.5-74.7c1.8-2.4,2.4-5.5,1.3-8.3c-0.6-1.4-1.5-2.4-2.6-3.4l-5.5-4.3
					c-3.5-2.8-8.4-2.2-11.2,1.3l-68.8,83.1C729.1,795.5,728.6,798.7,729.7,801.5L729.7,801.5z"/>
			</g>
			<g>
				<path class="st1" d="M852.6,692c0.7,1.6,0.6,3.3,0.1,4.9c-2.9,8.9-9.6,24.5-21.8,27.9c-7.1,2-14.7-0.5-22.7-7.3
					c-4.4-3.8-7.4-7.7-9-11.7c-5.1-12.4,3.5-25.1,23.4-34.7c1.8-0.7,3.7-0.8,5.3-0.1c1.7,0.7,3.2,2,3.8,3.6c0.2,0.4,0.2,0.6,0.4,1
					c0.7,3.5,1.5,8.8,0.1,14.5c4.3-2,9.7-3.1,15.6-2C850,688.6,851.7,690,852.6,692z"/>
				<path d="M802.1,704.3c-6.3-15.2,13.3-26.3,21.7-30.5c1.9-1,4,0,4.7,1.8c0.1,0.2,0.2,0.4,0.2,0.6c1.3,5.3,2.1,15.3-5.4,23.8
					c0,0,10.5-11.4,23.8-8.8c1,0.3,2.1,1,2.5,2c0.3,0.8,0.5,1.7,0.1,2.5c-3.4,10.5-15.4,39.8-39.3,19
					C806.2,711.3,803.5,707.7,802.1,704.3 M796.1,706.8c1.8,4.4,5.3,8.8,10,13c8.8,7.6,17.4,10.4,25.6,8.2
					c13.7-3.8,20.9-20.3,23.9-30c0.7-2.4,0.6-4.7-0.4-7.1c-1.2-3-3.8-5.2-7.1-5.8c-4.4-1-8.7-0.6-12.3,0.4c0.2-4.1-0.4-7.8-1.1-10.6
					c-0.2-0.4-0.2-1.1-0.4-1.5c-1.1-2.6-3.1-4.6-5.5-5.5c-2.5-1.1-5.5-0.8-8.1,0.3C799.5,678.5,790.3,692.5,796.1,706.8L796.1,706.8
					z"/>
			</g>
			<g>
				<path class="st1" d="M844.8,680.4c0.5,1.2,0.5,2.4,0.3,3.6c-3.3,12.4-10.4,33.8-22.3,37.3c-4.8,1.5-9.6,0-14.4-4.2
					c-2.3-2.1-4.1-4.2-5.1-6.6c-1.3-3.2-1.4-6.7,0.1-9.9c4.7-10.8,23.5-19.3,34-23.1C840.5,676.3,843.7,677.8,844.8,680.4z"/>
				<path d="M806.3,709.4c-5.4-13.2,21.8-24.9,32.3-29c1.2-0.5,2.4,0.2,2.9,1.4c0.2,0.4,0.1,0.9,0.2,1.6
					c-3.3,12.4-14.2,46.8-31.5,31.7C808.3,713,807.1,711.2,806.3,709.4 M800.3,711.8L800.3,711.8c1.2,2.8,3.1,5.3,5.7,7.7
					c7,6.2,13.3,6,17.4,4.8c12.7-3.8,20.5-23.6,24.7-39.7c0.4-1.8,0.3-3.9-0.5-5.7c-1.8-4.4-6.7-6.6-11.1-4.8
					c-13.8,5.2-31.1,13.7-35.9,24.8C798.8,703.6,798.7,707.8,800.3,711.8L800.3,711.8z"/>
			</g>
		</g>
	</g>
</g>
</svg>
