<?xml version="1.0" encoding="utf-8"?>
<!-- Generator: Adobe Illustrator 27.7.0, SVG Export Plug-In . SVG Version: 6.00 Build 0)  -->
<svg version="1.1" id="레이어_1" xmlns="http://www.w3.org/2000/svg" xmlns:xlink="http://www.w3.org/1999/xlink" x="0px"
	 y="0px" viewBox="0 0 1080 1013.3" style="enable-background:new 0 0 1080 1013.3;" xml:space="preserve">
<style type="text/css">
	
		.st0{clip-path:url(#SVGID_00000103974210668012341720000004672836238416543136_);fill:none;stroke:#E08C80;stroke-width:3;stroke-linecap:round;stroke-linejoin:round;stroke-miterlimit:10;}
	.st1{fill:#8BE8C6;stroke:#231815;stroke-width:8;stroke-linecap:round;stroke-linejoin:round;stroke-miterlimit:10;}
	.st2{fill:#6D3630;}
	.st3{fill:#FF6840;}
	.st4{fill:#9E0D0D;}
	.st5{fill:#6D3630;stroke:#231815;stroke-width:8;stroke-linecap:round;stroke-linejoin:round;stroke-miterlimit:10;}
</style>
<g id="아이스크림_00000183241160887881085820000013892865424431697055_">
	<g>
		<defs>
			<path id="SVGID_1_" d="M755.4,682.6l-13.9,100c-0.4,2.8,2.9,4.7,5.1,2.9l76.6-60.4c1.7-1.4,1.6-4.1-0.4-5.2
				c-10.1-5.9-37.8-22.4-62.5-39.5C758.4,679.1,755.8,680.3,755.4,682.6z"/>
		</defs>
		<use xlink:href="#SVGID_1_"  style="overflow:visible;fill:#FF9C85;"/>
		<clipPath id="SVGID_00000161611567942164374400000010826089917688090809_">
			<use xlink:href="#SVGID_1_"  style="overflow:visible;"/>
		</clipPath>
		
			<path style="clip-path:url(#SVGID_00000161611567942164374400000010826089917688090809_);fill:none;stroke:#E08C80;stroke-width:3;stroke-linecap:round;stroke-linejoin:round;stroke-miterlimit:10;" d="
			M751,800.3l15.9-135.4l11.1,7l-15.9,135.4l12.1,7.7l15.9-135.4l13.2,8.3l-15.9,135.4l11.8,7.5L815,695.4c0,0,0.8-49.9-42.6-54.8
			c-43.4-4.8-68.3,99.4-68.3,99.4l107-84.5l3.1,13.6l-107,84.5l3.4,15.2l107-84.5l3.1,14l-107,84.5l2.9,12.8l107-84.5"/>
		
			<use xlink:href="#SVGID_1_"  style="overflow:visible;fill:none;stroke:#231815;stroke-width:8;stroke-linecap:round;stroke-linejoin:round;stroke-miterlimit:10;"/>
	</g>
	<path class="st1" d="M759.3,678.6c0,0-1.5-8.7,5.5-8.7c7.1,0,4.7-15.1,10.6-13.5c6,1.6,0.8-10.6,13.3-5.2s4.2-2.6,12.9,0.1
		c8.8,2.7,20.5,3.1,23.3,10.4c2.8,7.3,12.2,12.2,14.2,18.5s2.9,9.6,0,16.6c-2.9,7,0.4,8.4-4.8,13.4c-5.3,5-5.4,9.1-9.2,10.3
		S769.5,700.2,759.3,678.6z"/>
	<path class="st1" d="M777,655.3c0,0-1.4-8.1,5.2-8.1s4.4-14.2,9.9-12.6c5.6,1.5,0.7-10,12.4-4.9c11.7,5.1,3.9-2.5,12.1,0.1
		c8.2,2.5,19.1,2.9,21.8,9.7c2.7,6.8,11.4,11.4,13.3,17.3c1.9,5.9,2.7,9,0,15.5s0.4,7.8-4.5,12.5c-4.9,4.7-5.1,8.5-8.6,9.7
		C835,695.5,786.5,675.5,777,655.3z"/>
	<path class="st2" d="M776.8,679.3l-1.3,4.9c0,0,2,1.2,2.2,1.4c0.3,0.2,2.1-1.5,2.1-1.5s0.5-3.4,0.3-3.7
		C779.9,680.1,776.8,679.3,776.8,679.3z"/>
	<path class="st2" d="M804.3,685.9l-3.7,3.5c0,0,1,2.1,1.2,2.4c0.1,0.3,2.6-0.2,2.6-0.2s2.2-2.6,2.2-3S804.3,685.9,804.3,685.9z"/>
	<path class="st2" d="M842.8,677.8l-3.4,3.2c0,0,1,1.9,1.1,2.2s2.4-0.2,2.4-0.2s2.1-2.5,2-2.8C844.9,680,842.8,677.8,842.8,677.8z"
		/>
	<path class="st3" d="M816.6,639.9l-3,2.9c0,0,0.8,1.7,1,1.9c0.1,0.2,2.1-0.2,2.1-0.2s1.8-2.2,1.8-2.4
		C818.4,641.8,816.6,639.9,816.6,639.9z"/>
	<path class="st3" d="M822.5,661.7l-3.4,3.2c0,0,1,1.9,1.1,2.2c0.1,0.3,2.4-0.2,2.4-0.2s2.1-2.5,2-2.8
		C824.6,663.8,822.5,661.7,822.5,661.7z"/>
	<path class="st3" d="M833.7,649.4l0.1,3.7c0,0,1.9,0.7,2.2,0.8s1.4-1.3,1.4-1.3s-0.4-2.5-0.7-2.7
		C836.5,649.7,833.7,649.4,833.7,649.4z"/>
	<path class="st3" d="M819,684.9l0.1,4.2c0,0,2.2,0.8,2.5,0.9c0.3,0.1,1.5-1.5,1.5-1.5s-0.5-2.8-0.7-3
		C822.1,685.3,819,684.9,819,684.9z"/>
	<path class="st4" d="M788,669.4l-2.1,3.9c0,0,1.7,1.9,1.9,2.1c0.2,0.3,2.2-0.6,2.2-0.6s1-2.9,0.9-3.2S788,669.4,788,669.4z"/>
	<path class="st4" d="M826.6,700.7l-2.1,3.9c0,0,1.7,1.9,1.9,2.1c0.2,0.3,2.2-0.6,2.2-0.6s1-2.9,0.9-3.2S826.6,700.7,826.6,700.7z"
		/>
	<path class="st4" d="M798.5,644.1l-1.9,3.7c0,0,1.6,1.8,1.8,2c0.2,0.2,2.1-0.6,2.1-0.6s1-2.7,0.8-3
		C801.1,645.9,798.5,644.1,798.5,644.1z"/>
	<path class="st3" d="M801.8,664.3l0.1,4.2c0,0,2.2,0.8,2.5,0.9c0.3,0.1,1.5-1.5,1.5-1.5s-0.5-2.8-0.7-3
		C804.9,664.6,801.8,664.3,801.8,664.3z"/>
	<path class="st3" d="M810.5,705.7l0.1,4.4c0,0,2.4,0.8,2.7,0.9c0.3,0.1,1.7-1.6,1.7-1.6s-0.5-3-0.8-3.2
		C813.8,706,810.5,705.7,810.5,705.7z"/>
	<path class="st1" d="M796.6,632.5c0,0-1.3-7.2,4.5-7.2c5.8,0,3.9-12.5,8.8-11.1s0.6-8.8,10.9-4.3c10.3,4.5,3.4-2.2,10.6,0.1
		c7.2,2.2,16.9,2.5,19.2,8.6c2.3,6,10,10.1,11.7,15.2c1.7,5.2,2.4,7.9,0,13.7c-2.4,5.7,0.3,6.9-4,11s-4.5,7.5-7.6,8.5
		C847.7,667.9,805,650.3,796.6,632.5z"/>
	<path class="st5" d="M813.4,610.8c0,0,10.9-5.1,18.1-0.8s9.4,0.9,14.8,5.8s15.2,15.1,16.1,18c0.9,2.9,4.7,12.7,0,13.7
		c-4.7,1-4.9,4.5-7.3-1.5c-2.4-6,2.7-0.4-6.2-8.3c-9-7.9-5.4-2.4-11.7-7.4s-7-2.6-13.8-8.7c-6.8-6.1-7.5-1.1-10.5-4.2
		C809.9,614.2,810.1,612,813.4,610.8z"/>
	<path class="st2" d="M811,633.1l-1.1,4c0,0,1.6,1,1.8,1.2c0.2,0.1,1.7-1.3,1.7-1.3s0.4-2.8,0.3-3C813.5,633.8,811,633.1,811,633.1z
		"/>
	<path class="st2" d="M833.7,638.6l-3,2.9c0,0,0.8,1.7,1,1.9c0.1,0.2,2.1-0.2,2.1-0.2s1.8-2.2,1.8-2.4
		C835.5,640.5,833.7,638.6,833.7,638.6z"/>
	<path class="st3" d="M848.4,635l0.1,3.7c0,0,1.9,0.7,2.2,0.8s1.4-1.3,1.4-1.3s-0.4-2.5-0.7-2.7C851.2,635.3,848.4,635,848.4,635z"
		/>
	<path class="st4" d="M820.2,625l-1.7,3.2c0,0,1.4,1.5,1.6,1.8c0.2,0.2,1.8-0.5,1.8-0.5s0.9-2.4,0.7-2.6
		C822.5,626.6,820.2,625,820.2,625z"/>
	<path class="st4" d="M852,650.8l-1.7,3.2c0,0,1.4,1.5,1.6,1.8c0.2,0.2,1.8-0.5,1.8-0.5s0.9-2.4,0.7-2.6S852,650.8,852,650.8z"/>
	<path class="st3" d="M833.3,616.9l0.1,3.7c0,0,1.9,0.7,2.2,0.8s1.4-1.3,1.4-1.3s-0.4-2.5-0.7-2.7
		C836.1,617.2,833.3,616.9,833.3,616.9z"/>
	<path class="st3" d="M838.7,654.9l0.1,3.7c0,0,1.9,0.7,2.2,0.8c0.3,0.1,1.4-1.3,1.4-1.3s-0.4-2.5-0.7-2.7S838.7,654.9,838.7,654.9z
		"/>
</g>
</svg>
