<?xml version="1.0" encoding="utf-8"?>
<!-- Generator: Adobe Illustrator 27.7.0, SVG Export Plug-In . SVG Version: 6.00 Build 0)  -->
<svg version="1.1" id="레이어_1" xmlns="http://www.w3.org/2000/svg" xmlns:xlink="http://www.w3.org/1999/xlink" x="0px"
	 y="0px" viewBox="0 0 1080 1013.3" style="enable-background:new 0 0 1080 1013.3;" xml:space="preserve">
<style type="text/css">
	.st0{fill:#7EC433;stroke:#231815;stroke-width:8;stroke-miterlimit:10;}
	.st1{fill:#E2DFC5;stroke:#231815;stroke-width:7.9999;stroke-miterlimit:9.9999;}
	.st2{fill:#FFFFFF;}
	
		.st3{clip-path:url(#SVGID_00000036231766333139067020000012362962371375136903_);fill:#BAEAF7;stroke:#231815;stroke-width:8;stroke-linecap:round;stroke-linejoin:round;stroke-miterlimit:10;}
	.st4{fill:none;stroke:#231815;stroke-width:8;stroke-linecap:round;stroke-linejoin:round;stroke-miterlimit:10;}
	.st5{fill:#FF2E39;stroke:#231815;stroke-width:8;stroke-linecap:round;stroke-linejoin:round;stroke-miterlimit:10;}
</style>
<g id="소주">
	<g>
		<path class="st0" d="M801.7,662.9l10.5-58.2c0.4-2.1-1.3-4.1-3.4-4.1h-2c-3.4,0-6.8-0.7-9.9-2.1l-1.8-0.8c-2-0.9-4.3,0.2-4.8,2.3
			l-14.1,57.4c-12.7,0.3-23.9,9.2-26.7,22.2l-20.1,94.7c-2,9.4,4,18.6,13.4,20.6l33.4,7.1c9.4,2,18.6-4,20.6-13.4l20.1-94.7
			C819.8,681,813.1,668.3,801.7,662.9z"/>
		
			<rect x="746.3" y="699.9" transform="matrix(0.2076 -0.9782 0.9782 0.2076 -105.7221 1338.3319)" class="st1" width="53.8" height="69"/>
	</g>
	<g>
		<g>
			<path id="SVGID_1_" class="st2" d="M278.5,753.1l13,39.3c1.5,4.5,5.9,7.3,10.6,6.7l34.5-4.3c5.3-0.7,9.1-5.4,8.6-10.7l-3.9-42.3
				c-0.5-5.9-6.1-10-11.8-8.8c-9.6,2-25,4.8-42.9,7.2C280.4,740.9,276.5,747.2,278.5,753.1z"/>
		</g>
		<g>
			<defs>
				<path id="SVGID_00000117634342172821503500000003079493430647671740_" d="M278.5,753.1l13,39.3c1.5,4.5,5.9,7.3,10.6,6.7
					l34.5-4.3c5.3-0.7,9.1-5.4,8.6-10.7l-3.9-42.3c-0.5-5.9-6.1-10-11.8-8.8c-9.6,2-25,4.8-42.9,7.2
					C280.4,740.9,276.5,747.2,278.5,753.1z"/>
			</defs>
			<clipPath id="SVGID_00000032635603633163173350000007839275996220610976_">
				<use xlink:href="#SVGID_00000117634342172821503500000003079493430647671740_"  style="overflow:visible;"/>
			</clipPath>
			
				<path style="clip-path:url(#SVGID_00000032635603633163173350000007839275996220610976_);fill:#BAEAF7;stroke:#231815;stroke-width:8;stroke-linecap:round;stroke-linejoin:round;stroke-miterlimit:10;" d="
				M282.8,766c0,0-2.8-3.5,19.5,0c22.2,3.5,24.2-7.6,40.7-6.3l2.3,24.4c0,0,3.2,9.3-12.3,11.2s-30.8,3.8-30.8,3.8s-7.3,3.2-13.4-15
				C282.8,766,282.8,766,282.8,766z"/>
		</g>
		<g>
			<path id="SVGID_00000151544924656265264320000004360550095212567993_" class="st4" d="M278.5,753.1l13,39.3
				c1.5,4.5,5.9,7.3,10.6,6.7l34.5-4.3c5.3-0.7,9.1-5.4,8.6-10.7l-3.9-42.3c-0.5-5.9-6.1-10-11.8-8.8c-9.6,2-25,4.8-42.9,7.2
				C280.4,740.9,276.5,747.2,278.5,753.1z"/>
		</g>
	</g>
	<path class="st5" d="M551.3,496.5l-8.1,5.1c-2.4,1.5-5.3,1.5-7.7,0l-8.1-5.1c-3.3-2-4.7-6.4-3.5-10.2l0.5-1.6
		c1.1-3.4,4-5.7,7.3-5.7H547c3.3,0,6.2,2.3,7.3,5.7l0.5,1.6C556,490.1,554.6,494.4,551.3,496.5z"/>
</g>
</svg>
