<?xml version="1.0" encoding="utf-8"?>
<!-- Generator: Adobe Illustrator 27.7.0, SVG Export Plug-In . SVG Version: 6.00 Build 0)  -->
<svg version="1.1" id="레이어_1" xmlns="http://www.w3.org/2000/svg" xmlns:xlink="http://www.w3.org/1999/xlink" x="0px"
	 y="0px" viewBox="0 0 1080 1013.3" style="enable-background:new 0 0 1080 1013.3;" xml:space="preserve">
<style type="text/css">
	.st0{fill:#FFFFFF;}
	.st1{clip-path:url(#SVGID_00000163789118120489777980000003831747645688854401_);fill:#1147A5;}
	.st2{clip-path:url(#SVGID_00000033363286746179744990000018376211525204951972_);fill:#1147A5;}
	.st3{clip-path:url(#SVGID_00000054949231935346407620000010603923346433451142_);fill:#1147A5;}
	.st4{clip-path:url(#SVGID_00000070087922336689960710000014194375795934858368_);fill:#1147A5;}
	.st5{fill:none;stroke:#231815;stroke-width:8;stroke-linecap:round;stroke-linejoin:round;stroke-miterlimit:10;}
	.st6{fill:#FFFFFF;stroke:#231815;stroke-width:8;stroke-linecap:round;stroke-linejoin:round;stroke-miterlimit:10;}
</style>
<g id="상의">
	<g id="줄무늬티셔츠">
		<g>
			<path id="SVGID_00000059273420557483479470000002204751184900445881_" class="st0" d="M698.6,823.7l-3.5-47.4
				c0,0,60.4-34.4,63.4-44.4c3-10.1-11.3-27.3-26.7-49.8s-31.1-24.9-31.1-24.9s-88.3,20.4-124.4,19c-0.5,0-0.8,0.4-0.8,0.8
				c0.2,4.7-0.6,27.5-35,27c-34.6-0.5-38.2-22.7-38.6-27.1c0-0.4-0.4-0.7-0.8-0.7c-36.1,1.4-124.5-19-124.5-19s-15.7,2.4-31.1,24.9
				s-29.6,39.7-26.7,49.8c3,10.1,63.4,44.4,63.4,44.4l-3.4,47.1c-0.1,0.9,0.6,1.7,1.5,1.9c19.7,3.3,167,17.4,317.3,0.2
				C698.3,825.4,698.7,824.5,698.6,823.7z"/>
		</g>
		<g>
			<g>
				<g>
					<g>
						<defs>
							<path id="SVGID_1_" d="M698.6,823.7l-3.5-47.4c0,0,60.4-34.4,63.4-44.4c3-10.1-11.3-27.3-26.7-49.8s-31.1-24.9-31.1-24.9
								s-88.3,20.4-124.4,19c-0.5,0-0.8,0.4-0.8,0.8c0.2,4.7-0.6,27.5-35,27c-34.6-0.5-38.2-22.7-38.6-27.1c0-0.4-0.4-0.7-0.8-0.7
								c-36.1,1.4-124.5-19-124.5-19s-15.7,2.4-31.1,24.9s-29.6,39.7-26.7,49.8c3,10.1,63.4,44.4,63.4,44.4l-3.4,47.1
								c-0.1,0.9,0.6,1.7,1.5,1.9c19.7,3.3,167,17.4,317.3,0.2C698.3,825.4,698.7,824.5,698.6,823.7z"/>
						</defs>
						<clipPath id="SVGID_00000007394948821645893390000013160990748769546636_">
							<use xlink:href="#SVGID_1_"  style="overflow:visible;"/>
						</clipPath>
						<path style="clip-path:url(#SVGID_00000007394948821645893390000013160990748769546636_);fill:#1147A5;" d="M326.8,698.5
							c0,0,101.3,31.9,220.8,31.9s213.9-38.5,213.9-38.5l13.3,10c0,0-105.8,41.6-227,41.6s-252.4-39.6-252.4-39.6L326.8,698.5z"/>
					</g>
					<g>
						<defs>
							<path id="SVGID_00000065774041644230693060000018387535464712143522_" d="M698.6,823.7l-3.5-47.4c0,0,60.4-34.4,63.4-44.4
								c3-10.1-11.3-27.3-26.7-49.8s-31.1-24.9-31.1-24.9s-88.3,20.4-124.4,19c-0.5,0-0.8,0.4-0.8,0.8c0.2,4.7-0.6,27.5-35,27
								c-34.6-0.5-38.2-22.7-38.6-27.1c0-0.4-0.4-0.7-0.8-0.7c-36.1,1.4-124.5-19-124.5-19s-15.7,2.4-31.1,24.9
								s-29.6,39.7-26.7,49.8c3,10.1,63.4,44.4,63.4,44.4l-3.4,47.1c-0.1,0.9,0.6,1.7,1.5,1.9c19.7,3.3,167,17.4,317.3,0.2
								C698.3,825.4,698.7,824.5,698.6,823.7z"/>
						</defs>
						<clipPath id="SVGID_00000159459645367191465910000016191499732823633036_">
							<use xlink:href="#SVGID_00000065774041644230693060000018387535464712143522_"  style="overflow:visible;"/>
						</clipPath>
						<path style="clip-path:url(#SVGID_00000159459645367191465910000016191499732823633036_);fill:#1147A5;" d="M326.8,736.4
							c0,0,101.3,26.9,220.8,26.9s213.9-33.5,213.9-33.5l13.3,13c0,0-105.8,33.6-227,33.6s-252.4-34.6-252.4-34.6L326.8,736.4z"/>
					</g>
					<g>
						<defs>
							<path id="SVGID_00000130639266662859043190000015237674666212127874_" d="M698.6,823.7l-3.5-47.4c0,0,60.4-34.4,63.4-44.4
								c3-10.1-11.3-27.3-26.7-49.8s-31.1-24.9-31.1-24.9s-88.3,20.4-124.4,19c-0.5,0-0.8,0.4-0.8,0.8c0.2,4.7-0.6,27.5-35,27
								c-34.6-0.5-38.2-22.7-38.6-27.1c0-0.4-0.4-0.7-0.8-0.7c-36.1,1.4-124.5-19-124.5-19s-15.7,2.4-31.1,24.9
								s-29.6,39.7-26.7,49.8c3,10.1,63.4,44.4,63.4,44.4l-3.4,47.1c-0.1,0.9,0.6,1.7,1.5,1.9c19.7,3.3,167,17.4,317.3,0.2
								C698.3,825.4,698.7,824.5,698.6,823.7z"/>
						</defs>
						<clipPath id="SVGID_00000129907839485975268210000015229891746882824606_">
							<use xlink:href="#SVGID_00000130639266662859043190000015237674666212127874_"  style="overflow:visible;"/>
						</clipPath>
						<path style="clip-path:url(#SVGID_00000129907839485975268210000015229891746882824606_);fill:#1147A5;" d="M326.8,777.1
							c0,0,101.3,19.2,220.8,19.2s213.9-25.8,213.9-25.8l13.3,15c0,0-105.8,24.9-227,24.9s-252.4-25.9-252.4-25.9L326.8,777.1z"/>
					</g>
					<g>
						<defs>
							<path id="SVGID_00000079448073923881799690000015364054733102048912_" d="M698.6,823.7l-3.5-47.4c0,0,60.4-34.4,63.4-44.4
								c3-10.1-11.3-27.3-26.7-49.8s-31.1-24.9-31.1-24.9s-88.3,20.4-124.4,19c-0.5,0-0.8,0.4-0.8,0.8c0.2,4.7-0.6,27.5-35,27
								c-34.6-0.5-38.2-22.7-38.6-27.1c0-0.4-0.4-0.7-0.8-0.7c-36.1,1.4-124.5-19-124.5-19s-15.7,2.4-31.1,24.9
								s-29.6,39.7-26.7,49.8c3,10.1,63.4,44.4,63.4,44.4l-3.4,47.1c-0.1,0.9,0.6,1.7,1.5,1.9c19.7,3.3,167,17.4,317.3,0.2
								C698.3,825.4,698.7,824.5,698.6,823.7z"/>
						</defs>
						<clipPath id="SVGID_00000086665867244117877900000001601157137276637885_">
							<use xlink:href="#SVGID_00000079448073923881799690000015364054733102048912_"  style="overflow:visible;"/>
						</clipPath>
						<path style="clip-path:url(#SVGID_00000086665867244117877900000001601157137276637885_);fill:#1147A5;" d="M346.8,665.8
							c0,0,91.6,31.9,199.6,31.9s193.3-38.5,193.3-38.5l12,10c0,0-92.9,39.6-202.4,39.6s-230.8-37.6-230.8-37.6L346.8,665.8z"/>
					</g>
				</g>
			</g>
			<g>
				<path id="SVGID_00000064344044286617313800000017533698761611633086_" class="st5" d="M698.6,823.7l-3.5-47.4
					c0,0,60.4-34.4,63.4-44.4c3-10.1-11.3-27.3-26.7-49.8s-31.1-24.9-31.1-24.9s-88.3,20.4-124.4,19c-0.5,0-0.8,0.4-0.8,0.8
					c0.2,4.7-0.6,27.5-35,27c-34.6-0.5-38.2-22.7-38.6-27.1c0-0.4-0.4-0.7-0.8-0.7c-36.1,1.4-124.5-19-124.5-19s-15.7,2.4-31.1,24.9
					s-29.6,39.7-26.7,49.8c3,10.1,63.4,44.4,63.4,44.4l-3.4,47.1c-0.1,0.9,0.6,1.7,1.5,1.9c19.7,3.3,167,17.4,317.3,0.2
					C698.3,825.4,698.7,824.5,698.6,823.7z"/>
			</g>
		</g>
		<line class="st5" x1="382.2" y1="776.3" x2="384.3" y2="754.1"/>
		<line class="st5" x1="695.2" y1="776.3" x2="692.7" y2="754.1"/>
		<path class="st6" d="M486.5,676.2c0,0-0.4,43.1,53.6,43.1c55.3,0,52.7-43.1,52.7-43.1h-16.4c0,0,0.5,27.8-35.8,27.8
			S502,676.9,502,676.9L486.5,676.2z"/>
		<path class="st6" d="M319.2,724l-8,15.3c-1.1,2-0.6,4.5,1,6.1c8.1,7.7,33.5,30.3,69,44.6l1.8-21.8
			C382.9,768.2,337.4,740.4,319.2,724z"/>
		<path class="st6" d="M758.9,724l8,15.3c1.1,2,0.6,4.5-1,6.1c-8.1,7.7-33.5,30.3-69,44.6l-1.8-21.8
			C695.2,768.2,740.7,740.4,758.9,724z"/>
	</g>
</g>
</svg>
