<?xml version="1.0" encoding="utf-8"?>
<!-- Generator: Adobe Illustrator 27.7.0, SVG Export Plug-In . SVG Version: 6.00 Build 0)  -->
<svg version="1.1" id="레이어_1" xmlns="http://www.w3.org/2000/svg" xmlns:xlink="http://www.w3.org/1999/xlink" x="0px"
	 y="0px" viewBox="0 0 1080 1013.3" style="enable-background:new 0 0 1080 1013.3;" xml:space="preserve">
<style type="text/css">
	.st0{fill:#DDDCDB;stroke:#231815;stroke-width:8;stroke-linecap:round;stroke-linejoin:round;stroke-miterlimit:10;}
	.st1{fill:none;stroke:#231815;stroke-width:8;stroke-linecap:round;stroke-linejoin:round;stroke-miterlimit:10;}
	.st2{fill:#231815;}
</style>
<g id="레이어드">
	<g id="후드집업">
		<g>
			<path class="st0" d="M340.9,674.9c0,0-32.7,57.7-29.2,79c0,0,36.1,24.5,55.9,38.3c0,0-6,57.3-3.9,76.6c0.3,2.7-4.3,18.9,8.7,23.4
				c15.5,5.3,109.2,13.4,121.2,4.8c14.4-10.3,10.8-122.4,4.6-143S452,670.5,340.9,674.9z"/>
			<path class="st1" d="M367.2,795.8c0,0,1.3-24.6,2.4-41.3"/>
			<path class="st1" d="M463.3,724.5c0,0,0.6,48.2-0.1,58.9"/>
			<circle class="st2" cx="464" cy="784.3" r="8"/>
			<path class="st1" d="M366.4,868.7c0,0,63.7,14.7,134.2,8.5"/>
			<path class="st0" d="M498.2,754.1c0,0-1.8-48.9-88.6-100.7c-12.1-7.2-26.3-10.4-40.3-8.2c-17,2.7-35.5,13.3-36.5,46.6
				C332.9,691.8,437.7,682.9,498.2,754.1z"/>
		</g>
		<g>
			<path class="st0" d="M739.1,674.9c0,0,32.7,57.7,29.2,79c0,0-36.1,24.5-55.9,38.3c0,0,6,57.3,3.9,76.6
				c-0.3,2.7,4.3,18.9-8.7,23.4c-15.5,5.3-109.2,13.4-121.2,4.8c-14.4-10.3-10.8-122.4-4.6-143S628,670.5,739.1,674.9z"/>
			<path class="st1" d="M712.8,795.8c0,0-1.3-24.6-2.4-41.3"/>
			<path class="st1" d="M616.7,724.5c0,0-0.6,48.2,0.1,58.9"/>
			<circle class="st2" cx="616" cy="784.3" r="8"/>
			<path class="st1" d="M713.6,868.7c0,0-63.7,14.7-134.2,8.5"/>
			<path class="st0" d="M581.8,754.1c0,0,1.8-48.9,88.6-100.7c12.1-7.2,26.3-10.4,40.3-8.2c17,2.7,35.5,13.3,36.5,46.6
				C747.1,691.8,642.3,682.9,581.8,754.1z"/>
		</g>
	</g>
</g>
</svg>
