<?xml version="1.0" encoding="utf-8"?>
<!-- Generator: Adobe Illustrator 27.7.0, SVG Export Plug-In . SVG Version: 6.00 Build 0)  -->
<svg version="1.1" id="레이어_1" xmlns="http://www.w3.org/2000/svg" xmlns:xlink="http://www.w3.org/1999/xlink" x="0px"
	 y="0px" viewBox="0 0 1080 1013.3" style="enable-background:new 0 0 1080 1013.3;" xml:space="preserve">
<style type="text/css">
	.st0{fill:#DDDCDB;stroke:#231815;stroke-width:8;stroke-linecap:round;stroke-linejoin:round;stroke-miterlimit:10;}
	.st1{fill:#5F5468;stroke:#231815;stroke-width:8;stroke-linecap:round;stroke-linejoin:round;stroke-miterlimit:10;}
	.st2{fill:#C469FF;stroke:#231815;stroke-width:8;stroke-linecap:round;stroke-linejoin:round;stroke-miterlimit:10;}
	.st3{fill:none;stroke:#231815;stroke-width:8;stroke-linecap:round;stroke-linejoin:round;stroke-miterlimit:10;}
	.st4{fill:#231815;}
</style>
<g id="레이어드">
	<g id="후드티">
		<path class="st0" d="M743.7,658c0,0,35.8,37.7,7.3,72.7c-28.4,35-47.5-36.1-47.1-43.3S717.1,651.7,743.7,658z"/>
		<path class="st0" d="M336.8,658c0,0-35.8,37.7-7.3,72.7c28.4,35,47.5-36.1,47.1-43.3S363.4,651.7,336.8,658z"/>
		<path class="st1" d="M743.7,658c0,0,35.8,37.7,7.3,72.7c-28.4,35-47.5-36.1-47.1-43.3S717.1,651.7,743.7,658z"/>
		<path class="st1" d="M336.8,658c0,0-35.8,37.7-7.3,72.7c28.4,35,47.5-36.1,47.1-43.3S363.4,651.7,336.8,658z"/>
		<path class="st2" d="M713.9,874.1c2.6-19.2-10-78.4-10-78.4c21.3-5.2,70.9-42,70.9-42c-6.2-32.7-56.7-93.2-56.7-93.2l-89.3,25.8
			L555,709.4h-29.6l-73.8-23.1l-89.3-25.8c0,0-50.8,63.1-56.7,93.2c0,0,49.6,36.8,70.9,42c0,0-12.6,59.3-10,78.4
			C366.6,874.1,543.3,889.5,713.9,874.1z"/>
		<line class="st3" x1="480.7" y1="701.6" x2="479.6" y2="757.3"/>
		<circle class="st4" cx="479.6" cy="763.7" r="8.7"/>
		<line class="st3" x1="376.6" y1="795.7" x2="382.8" y2="761.8"/>
		<path class="st2" d="M544.6,711.1c0,0-61.3-22.2-94.2-44.4s-88.9-44.4-120.9,0c0,0,54.2,4.4,89.8,22.2
			C454.8,706.7,517,719.1,544.6,711.1z"/>
		<path class="st3" d="M425.7,851c0,0,0.4-32.2,0-35.8c9.1-12.4,30-31.8,30-31.8s71.1,5.3,169.2,0c0,0,20.9,19.3,30,31.8
			c-0.4,3.6,0,35.8,0,35.8S503.6,859.3,425.7,851z"/>
		<line class="st3" x1="599.8" y1="701.6" x2="600.9" y2="757.3"/>
		<circle class="st4" cx="600.9" cy="763.7" r="8.7"/>
		<line class="st3" x1="703.9" y1="795.7" x2="697.7" y2="761.8"/>
		<path class="st2" d="M535.9,711.1c0,0,61.3-22.2,94.2-44.4s88.9-44.4,120.9,0c0,0-54.2,4.4-89.8,22.2
			C625.7,706.7,563.5,719.1,535.9,711.1z"/>
	</g>
</g>
</svg>
