<?xml version="1.0" encoding="utf-8"?>
<!-- Generator: Adobe Illustrator 27.7.0, SVG Export Plug-In . SVG Version: 6.00 Build 0)  -->
<svg version="1.1" id="레이어_1" xmlns="http://www.w3.org/2000/svg" xmlns:xlink="http://www.w3.org/1999/xlink" x="0px"
	 y="0px" viewBox="0 0 1080 1013.3" style="enable-background:new 0 0 1080 1013.3;" xml:space="preserve">
<style type="text/css">
	.st0{fill:#FFFFFF;stroke:#231815;stroke-width:8;stroke-linecap:round;stroke-linejoin:round;stroke-miterlimit:10;}
	.st1{fill:#DDDCDB;}
</style>
<g id="머리장식">
	<g id="머리띠">
		<path class="st0" d="M310.8,442.8c9.9-25.8,66.4-152.9,215.5-160.3c13.5-0.7,24-12.7,22.1-26.2c-1.2-8.6-2.6-20.7-20.1-27
			c-44.6-16-221.2,40-232.8,199.4c0,0-3,14.2,7,17.8C305.9,447.8,309.6,446.1,310.8,442.8z"/>
		<path class="st0" d="M769.8,442.8c-9.9-25.8-66.4-152.9-215.5-160.3c-13.5-0.7-24-12.7-22.1-26.2c1.2-8.6,2.6-20.7,20.1-27
			c44.6-16,221.2,40,232.8,199.4c0,0,3,14.2-7,17.8C774.8,447.8,771.1,446.1,769.8,442.8z"/>
		<path class="st1" d="M511.3,252.4c-3.5-0.7-21.5-3.5-38,8.3c-0.5,0.4-1,0.9-1.4,1.5c-0.7,1.2-1.4,3.3,0.1,5c1.2,1.4,3,1.5,4.4,0.5
			c5.3-3.8,22.7-11.6,40.3-4.4c19.2,7.8-0.6-8-4.2-10.3C512,252.7,511.7,252.5,511.3,252.4z"/>
		<path class="st1" d="M566.6,252.4c3.5-0.7,21.5-3.5,38,8.3c0.5,0.4,1,0.9,1.4,1.5c0.7,1.2,1.4,3.3-0.1,5c-1.2,1.4-3,1.5-4.4,0.5
			c-5.3-3.8-22.7-11.6-40.3-4.4c-19.2,7.8,0.6-8,4.2-10.3C565.8,252.7,566.2,252.5,566.6,252.4z"/>
		<path class="st0" d="M539.1,238.1c0,0-8.6-87.8-68.9-106.4s-76.2,77.9,58.7,133.5L539.1,238.1z"/>
		<path class="st1" d="M548.7,257c0,0-33.1-68.8-70.1-76.8c-37.1-8,21.6,59.2,62.8,76.8C541.4,257,546.8,261,548.7,257z"/>
		<path class="st0" d="M540.4,238.1c0,0,8.6-87.8,68.9-106.4c60.3-18.5,76.2,77.9-58.7,133.5L540.4,238.1z"/>
		<path class="st1" d="M530.8,257c0,0,33.1-68.8,70.1-76.8c37.1-8-21.6,59.2-62.8,76.8C538.1,257,532.6,261,530.8,257z"/>
		<path class="st0" d="M523.4,228.5c0,0-15.3,5.1-11.7,18.4c3.6,13.3-2.1,27.6,20.3,30.2c22.4,2.7,32.2,0.9,35.7-19.6
			C571.2,237.1,573.3,215.5,523.4,228.5z"/>
	</g>
</g>
</svg>
