<?xml version="1.0" encoding="utf-8"?>
<!-- Generator: Adobe Illustrator 27.7.0, SVG Export Plug-In . SVG Version: 6.00 Build 0)  -->
<svg version="1.1" id="레이어_1" xmlns="http://www.w3.org/2000/svg" xmlns:xlink="http://www.w3.org/1999/xlink" x="0px"
	 y="0px" viewBox="0 0 1080 1013.3" style="enable-background:new 0 0 1080 1013.3;" xml:space="preserve">
<style type="text/css">
	.st0{fill:#222222;stroke:#231815;stroke-width:5;stroke-linecap:round;stroke-linejoin:round;stroke-miterlimit:10;}
	.st1{fill:#DDDCDB;stroke:#231815;stroke-width:5;stroke-linecap:round;stroke-linejoin:round;stroke-miterlimit:10;}
</style>
<g id="머리장식">
	<g id="핀3">
		<path class="st0" d="M378.2,365l-36.8-26.8c-2.1-1.5-2.5-4.4-1-6.5h0c1.5-2.1,4.4-2.5,6.5-1l36.8,26.8c2.1,1.5,2.5,4.4,1,6.5l0,0
			C383.2,366,380.3,366.5,378.2,365z"/>
		<path class="st1" d="M388.9,350.2l-36.8-26.8c-2.1-1.5-2.5-4.4-1-6.5l0,0c1.5-2.1,4.4-2.5,6.5-1l36.8,26.8c2.1,1.5,2.5,4.4,1,6.5
			l0,0C393.9,351.3,391,351.7,388.9,350.2z"/>
	</g>
</g>
</svg>
