<?xml version="1.0" encoding="utf-8"?>
<!-- Generator: Adobe Illustrator 27.7.0, SVG Export Plug-In . SVG Version: 6.00 Build 0)  -->
<svg version="1.1" id="레이어_1" xmlns="http://www.w3.org/2000/svg" xmlns:xlink="http://www.w3.org/1999/xlink" x="0px"
	 y="0px" viewBox="0 0 1080 1013.3" style="enable-background:new 0 0 1080 1013.3;" xml:space="preserve">
<style type="text/css">
	.st0{fill:#DDDCDB;stroke:#000000;stroke-width:8;stroke-miterlimit:10;}
</style>
<g id="머리장식">
	<g id="_x31_2">
		<path class="st0" d="M541.9,263.9c40.6,0,79.6,12,102.1,16.5c4.6,0.9,7-5.2,3.1-7.7c-17.3-11-47.6-25.4-87.1-25.4h-40
			c-39.5,0-69.8,14.5-87.1,25.4c-4,2.5-1.5,8.6,3.1,7.7c22.4-4.6,61.5-16.5,102.1-16.5H541.9z"/>
		<g>
			<path class="st0" d="M538.8,239.3c0,0,6.2-32.3-27.9-49.7c-34.1-17.4-67.5-40.6-67.5-40.6s-17.8,117.5,84.9,103.8
				C528.2,252.7,539.5,255.7,538.8,239.3z"/>
			<path d="M530.6,239l-23.2-20.9c-1.7-1.5-4.4-1.4-5.9,0.3l-0.2,0.3c-1.5,1.7-1.4,4.4,0.4,5.9l23.4,20.6c1.9,1.6,4.8,1.3,6.2-0.8
				l0,0C532.5,242.8,532.2,240.4,530.6,239z"/>
			<path class="st0" d="M541.2,239.3c0,0-6.2-32.3,27.9-49.7c34.1-17.4,67.5-40.6,67.5-40.6s17.8,117.5-84.9,103.8
				C551.8,252.7,540.5,255.7,541.2,239.3z"/>
			<path d="M549.4,239l23.2-20.9c1.7-1.5,4.4-1.4,5.9,0.3l0.2,0.3c1.5,1.7,1.4,4.4-0.4,5.9l-23.4,20.6c-1.9,1.6-4.8,1.3-6.2-0.8l0,0
				C547.5,242.8,547.8,240.4,549.4,239z"/>
			<path class="st0" d="M543,258.7h-3.5c-6.4,0-11.6-5.2-11.6-11.6v-10c0-6.4,5.2-11.6,11.6-11.6h3.5c6.4,0,11.6,5.2,11.6,11.6v10
				C554.6,253.5,549.4,258.7,543,258.7z"/>
		</g>
	</g>
</g>
</svg>
