<?xml version="1.0" encoding="utf-8"?>
<!-- Generator: Adobe Illustrator 27.7.0, SVG Export Plug-In . SVG Version: 6.00 Build 0)  -->
<svg version="1.1" id="레이어_1" xmlns="http://www.w3.org/2000/svg" xmlns:xlink="http://www.w3.org/1999/xlink" x="0px"
	 y="0px" viewBox="0 0 50 50" style="enable-background:new 0 0 50 50;" xml:space="preserve">
<style type="text/css">
	.st0{fill:#323232;}
</style>
<g>
	<path class="st0" d="M12.1,17.1c-1.9,3.7-1.8,9-1.6,11.8H8.8c-1.2,0-1.9,1.5-1.1,2.4l5.6,6.6c0.6,0.7,1.6,0.7,2.2,0l5.6-6.6
		c0.8-0.9,0.1-2.4-1.1-2.4h-1.4c-0.5-4-1.2-15.7,9.3-15.9c0,0,1.3-0.8-0.6-1.3C27.3,11.7,15.7,10.1,12.1,17.1z"/>
	<path class="st0" d="M37.9,32.9c1.9-3.7,1.8-9,1.6-11.8h1.6c1.2,0,1.9-1.5,1.1-2.4L36.6,12c-0.6-0.7-1.6-0.7-2.2,0l-5.6,6.6
		c-0.8,0.9-0.1,2.4,1.1,2.4h1.4c0.5,4,1.2,15.7-9.3,15.9c0,0-1.3,0.8,0.6,1.3C22.7,38.3,34.3,39.9,37.9,32.9z"/>
</g>
</svg>
