<?xml version="1.0" encoding="utf-8"?>
<!-- Generator: Adobe Illustrator 27.7.0, SVG Export Plug-In . SVG Version: 6.00 Build 0)  -->
<svg version="1.1" id="레이어_1" xmlns="http://www.w3.org/2000/svg" xmlns:xlink="http://www.w3.org/1999/xlink" x="0px"
	 y="0px" viewBox="0 0 50 50" style="enable-background:new 0 0 50 50;" xml:space="preserve">
<style type="text/css">
	.st0{fill:#323232;}
</style>
<g>
	<path class="st0" d="M35.6,9.3h-3.1v10.1H17.6V9.3H13c-1.9,0-3.5,1.6-3.5,3.5v24.4c0,1.9,1.6,3.5,3.5,3.5h24c1.9,0,3.5-1.6,3.5-3.5
		v-23c0-0.6-0.2-1.1-0.6-1.5l-2.7-2.8C36.8,9.5,36.2,9.3,35.6,9.3z M35.8,35.8c0,0.8-0.8,1.5-1.8,1.5H16c-1,0-1.8-0.7-1.8-1.5v-8.5
		c0-0.8,0.8-1.5,1.8-1.5h18c1,0,1.8,0.7,1.8,1.5V35.8z"/>
	<path class="st0" d="M29.6,18h-1.2c-0.8,0-1.5-0.7-1.5-1.5v-4.5c0-0.8,0.7-1.5,1.5-1.5h1.2c0.8,0,1.5,0.7,1.5,1.5v4.5
		C31.1,17.3,30.4,18,29.6,18z"/>
</g>
</svg>
