<?xml version="1.0" encoding="utf-8"?>
<!-- Generator: Adobe Illustrator 27.7.0, SVG Export Plug-In . SVG Version: 6.00 Build 0)  -->
<svg version="1.1" id="레이어_1" xmlns="http://www.w3.org/2000/svg" xmlns:xlink="http://www.w3.org/1999/xlink" x="0px"
	 y="0px" viewBox="0 0 1080 1013.3" style="enable-background:new 0 0 1080 1013.3;" xml:space="preserve">
<style type="text/css">
	.st0{fill:#C469FF;stroke:#231815;stroke-width:8;stroke-linecap:round;stroke-linejoin:round;stroke-miterlimit:10;}
	.st1{fill:none;stroke:#231815;stroke-width:8;stroke-linecap:round;stroke-linejoin:round;stroke-miterlimit:10;}
	.st2{fill:#231815;}
</style>
<g id="하의">
	<g id="편한바지">
		<path class="st0" d="M572.9,921.8l5.5,13.3c11.7,6.2,137.6,4.4,133.2-16.1s-13.8-93.3-13.8-93.3c-203.7,19.8-315.6,0-315.6,0
			s-9.3,72.8-13.8,93.3c-4.4,20.5,121.4,22.3,133.2,16.1l5.5-13.3H572.9z"/>
		<line class="st1" x1="499.1" y1="921.7" x2="580.9" y2="921.7"/>
		<path class="st0" d="M382.6,822.4l1.2-12.3c0.2-1.8,1.8-3.2,3.6-3.1c24.9,1.5,155,22.6,304.8,0.1c1.8-0.3,3.4,1.1,3.6,2.9
			l1.6,12.4c0.2,1.8-1,3.5-2.9,3.8c-21,3.1-141.5,18.9-309-0.1C383.7,825.9,382.4,824.3,382.6,822.4z"/>
		<g>
			<polyline class="st1" points="532,858.7 537.7,834.5 542.3,834.5 548,858.7 			"/>
			<circle class="st2" cx="529.8" cy="864.1" r="7.8"/>
			<circle class="st2" cx="550.2" cy="864.1" r="7.8"/>
		</g>
	</g>
</g>
</svg>
