<?xml version="1.0" encoding="utf-8"?>
<!-- Generator: Adobe Illustrator 27.7.0, SVG Export Plug-In . SVG Version: 6.00 Build 0)  -->
<svg version="1.1" id="레이어_1" xmlns="http://www.w3.org/2000/svg" xmlns:xlink="http://www.w3.org/1999/xlink" x="0px"
	 y="0px" viewBox="0 0 1080 1013.3" style="enable-background:new 0 0 1080 1013.3;" xml:space="preserve">
<style type="text/css">
	.st0{fill:#FFC0C0;stroke:#231815;stroke-width:8;stroke-linecap:round;stroke-linejoin:round;stroke-miterlimit:10;}
	.st1{fill:#FFFFFF;}
</style>
<g id="하의">
	<g id="잠옷_하의">
		<path class="st0" d="M547.7,930.7c3.6,14.2,4.9,12.4,9.1,17.6c4.2,5.1,15.8-1.1,24.2-0.2c8.4,1,10.7-3.2,26.1-0.9
			c15.4,2.4,23.3-1,36-0.1s14-2.7,27.8-3.6c13.8-0.9,24,4.9,29.9-5.3s-2.3-15.1,0.9-28.9c3.2-13.8-3.2-11.2-0.9-26.3s0-11.6,1-28.4
			c0.7-12.3-2.6-22.5-3.9-29.4c-0.5-2.6-2.8-4.2-5.5-4.3c-25.9-1.6-30.2,7.9-47.4,3.4c-15.5-4.1-17.8,5-38.2,2.3s-20.4,6.8-32.9,2.3
			c-12.4-4.4-31.1,2.2-41.8-1.8s-20.9,3.8-37.3-0.7s-25.3,4.5-44.4,0s-19.6-0.1-34.1-4.3c-9.5-2.8-23.7-2.9-30.2-2
			c-3.4,0.5-3.1,3.1-3.7,6.5c-1.3,7.5-4.4,16.4-3.7,28c1,16.9-1.3,13.3,1,28.4s-4,12.6-0.9,26.3c3.2,13.8-5.1,18.7,0.9,28.9
			c5.9,10.2,16.1,4.4,29.9,5.3c13.8,0.9,15.1,4.4,27.8,3.6c12.7-0.9,20.6,2.5,36,0.1s17.7,1.8,26.1,0.9c8.4-1,20.1,5.3,24.2,0.2
			c4.2-5.1,5.5-3.4,9.1-17.6c0,0,1.1-10.7,7.4-9.8S547.7,930.7,547.7,930.7z"/>
		<path class="st1" d="M437.7,906.2c-0.7-1.9-0.7-3.7-1.2-5.6s0-2.8-0.3-4.9c-0.3-2.1,0.8-3.6-0.6-4.6c-1.3-1-1.7-2.7-3-1
			c-1.2,1.7-2.7,1.4-2.8,2.9c-0.1,1.4-1.2,1.3-1.2,2.2s-1.2,1.6-1.9,1.3c-0.7-0.2-2-0.2-4,0.1c-2.1,0.3-2.1,0.3-3.4-1
			c-0.5-0.5-0.1-1.1-0.9-2.2c-1-1.3-1.8-1-2.7-2.6c-1-1.9-2.3-2.7-2.9-1.4c-0.7,1.3-1.8,1.9-1.7,4s-1.1,1.6-1,3.6s-2,2.1-1.7,5.1
			s-1.7,2.3-0.8,5.7c0.9,3.3-1.1,4.6,1.1,5.8c2.2,1.1,3.3,4,5.7,4.1c2.3,0.1,6,1.4,8.2,1.1s5.1-0.3,7.3-1c2.2-0.7,4-0.6,4.7-2.4
			s3.4-1.6,3.1-4.1C437.3,908.8,438.3,908.1,437.7,906.2z M413.1,896.8c0,0-0.1-3.6,0.6-3.6s2,2.3,2.2,2.9
			C416,896.7,413.1,896.8,413.1,896.8z M416.5,904.9c0-0.9,0.5-1.7,1-1.7s1,0.7,1,1.7s-0.5,1.7-1,1.7S416.5,905.9,416.5,904.9z
			 M428,912.8c-2.7,0-4-0.9-4.7-1.6c-1.2,1.7-4,1.1-5.1,0.9c-0.2,0-0.3-0.1-0.3-0.1l-0.1-1c0.1,0,0.3,0,0.6,0.1
			c0.9,0.2,3.2,0.7,4.1-0.5c-0.4-0.2-0.7-0.7-0.7-1.2c0-0.8,0.6-1.4,1.4-1.4s1.4,0.6,1.4,1.4c0,0.5-0.2,0.8-0.5,1.1
			c0.5,0.5,1.5,1.3,4.1,1.3v1C428.1,912.8,428,912.8,428,912.8z M428.1,906.6c-0.6,0-1-0.7-1-1.7s0.5-1.7,1-1.7s1,0.7,1,1.7
			S428.7,906.6,428.1,906.6z M433.9,897.9c0,0-2.4-0.6-3.2-1.1c0,0,1.5-2.7,2.6-2.5C434.3,894.5,433.9,897.9,433.9,897.9z"/>
		<path class="st1" d="M673.5,872.8c-0.7-1.9-0.7-3.7-1.2-5.6s0-2.8-0.3-4.9c-0.3-2.1,0.8-3.6-0.6-4.6c-1.3-1-1.7-2.7-3-1
			c-1.2,1.7-2.7,1.4-2.8,2.9c-0.1,1.4-1.2,1.3-1.2,2.2s-1.2,1.6-1.9,1.3c-0.7-0.2-2-0.2-4,0.1s-2.1,0.3-3.4-1
			c-0.5-0.5-0.1-1.1-0.9-2.2c-1-1.3-1.8-1-2.7-2.6c-1-1.9-2.3-2.7-2.9-1.4c-0.7,1.3-1.8,1.9-1.7,4s-1.1,1.6-1,3.6s-2,2.1-1.7,5.1
			s-1.7,2.3-0.8,5.7c0.9,3.3-1.1,4.6,1.1,5.8c2.2,1.1,3.3,4,5.7,4.1c2.3,0.1,6,1.4,8.2,1.1c2.2-0.3,5.1-0.3,7.3-1s4-0.6,4.7-2.4
			c0.7-1.9,3.4-1.6,3.1-4.1C673.2,875.3,674.2,874.6,673.5,872.8z M649,863.4c0,0-0.1-3.6,0.6-3.6c0.7,0,2,2.3,2.2,2.9
			C651.8,863.3,649,863.4,649,863.4z M652.4,871.5c0-0.9,0.5-1.7,1-1.7s1,0.7,1,1.7c0,0.9-0.5,1.7-1,1.7S652.4,872.4,652.4,871.5z
			 M663.8,879.3c-2.7,0-4-0.9-4.7-1.6c-1.2,1.7-4,1.1-5.1,0.9c-0.2,0-0.3-0.1-0.3-0.1l-0.1-1c0.1,0,0.3,0,0.6,0.1
			c0.9,0.2,3.2,0.7,4.1-0.5c-0.4-0.2-0.7-0.7-0.7-1.2c0-0.8,0.6-1.4,1.4-1.4s1.4,0.6,1.4,1.4c0,0.5-0.2,0.8-0.5,1.1
			c0.5,0.5,1.5,1.3,4.1,1.3v1C664,879.3,663.9,879.3,663.8,879.3z M664,873.1c-0.6,0-1-0.7-1-1.7c0-0.9,0.5-1.7,1-1.7s1,0.7,1,1.7
			C665,872.4,664.6,873.1,664,873.1z M669.8,864.4c0,0-2.4-0.6-3.2-1.1c0,0,1.5-2.7,2.6-2.5C670.2,861,669.8,864.4,669.8,864.4z"/>
		<path class="st1" d="M503.8,877.6c-0.9-2.4,0-3.3-1.1-5s-1.5-3.4-2.5-5.1c-1-1.7-0.6-2.7-1.4-4.7s0-3.6-1.6-4.3
			c-1.5-0.7-2.3-2.2-3.1-0.3c-0.8,1.9-2.3,2-2.1,3.4c0.2,1.4-0.9,1.6-0.7,2.4c0.2,0.9-0.8,1.8-1.5,1.7s-2,0.2-3.9,1s-2,0.7-3.5-0.2
			c-0.6-0.4-0.3-1.1-1.4-2c-1.2-1-2-0.6-3.3-1.9c-1.4-1.6-2.8-2.1-3.2-0.7c-0.3,1.4-1.3,2.2-0.7,4.3c0.6,2-0.7,1.8-0.2,3.7
			c0.6,1.9-1.5,2.5-0.5,5.4c1,2.8-1.1,2.7,0.5,5.7s0,4.7,2.4,5.4c2.4,0.6,4.2,3.2,6.5,2.7s6.2,0,8.3-0.8c2.1-0.8,4.9-1.5,6.9-2.6
			c2-1.2,3.8-1.4,4-3.4C501.9,880.3,504.7,880,503.8,877.6z M476.6,869c0,0-0.9-3.5-0.3-3.6c0.6-0.2,2.5,1.8,2.8,2.3
			S476.6,869,476.6,869z M483.1,877.5c-0.6,0.1-1.2-0.5-1.4-1.4c-0.2-0.9,0.1-1.7,0.6-1.9c0.6-0.1,1.2,0.5,1.4,1.4
			C484,876.6,483.7,877.4,483.1,877.5z M492.7,871.9c0.6-0.1,1.2,0.5,1.4,1.4c0.2,0.9-0.1,1.7-0.6,1.9c-0.6,0.1-1.2-0.5-1.4-1.4
			C491.9,872.8,492.1,872,492.7,871.9z M494.7,881.2c-2.7,0.6-4.1,0.1-4.9-0.5c-0.8,1.9-3.7,2-4.8,2c-0.2,0-0.3,0-0.3,0l-0.3-0.9
			c0.1-0.1,0.3-0.1,0.6-0.1c0.9,0,3.3-0.1,3.9-1.4c-0.5-0.1-0.9-0.5-1-1c-0.2-0.8,0.3-1.5,1.1-1.7c0.8-0.2,1.5,0.3,1.7,1.1
			c0.1,0.4,0,0.9-0.3,1.2c0.6,0.4,1.8,0.9,4.3,0.3l0.2,1C494.8,881.1,494.7,881.1,494.7,881.2z M493.8,865c0,0,0.9-2.9,1.9-3
			c1.1-0.1,1.4,3.3,1.4,3.3S494.6,865.3,493.8,865z"/>
		<path class="st1" d="M602,902.2c-0.3-1.9,0.4-2.8,0.3-4.9c0-2.1,1.3-3.4,0.1-4.6c-1.2-1.2-1.4-2.9-2.8-1.4
			c-1.5,1.5-2.9,1.1-3.2,2.5s-1.4,1.2-1.5,2c-0.1,0.9-1.4,1.4-2.1,1.1s-1.9-0.5-4-0.4c-2.1,0-2.1,0-3.2-1.5
			c-0.4-0.5,0.1-1.1-0.6-2.3c-0.8-1.4-1.7-1.3-2.3-3c-0.8-2-1.9-3-2.7-1.8s-2,1.6-2.2,3.7c-0.2,2.1-1.3,1.4-1.5,3.4
			s-2.3,1.8-2.4,4.8c-0.1,3-2,2.1-1.6,5.5s-1.7,4.4,0.3,5.9s2.7,4.4,5,4.9c2.3,0.4,5.7,2.3,8,2.2c2.2,0,5.1,0.4,7.4,0
			c2.3-0.4,4,0,5-1.8c0.9-1.8,3.6-1.1,3.6-3.6c0-2.6,1.2-3.1,0.7-5.1C602.1,905.9,602.3,904.1,602,902.2z M579.4,895.1
			c0,0,0.4-3.6,1-3.5c0.7,0.1,1.7,2.5,1.7,3.2C582.3,895.4,579.4,895.1,579.4,895.1z M581.7,903.7c0.1-0.9,0.7-1.6,1.2-1.5
			c0.6,0.1,0.9,0.9,0.8,1.8c-0.1,0.9-0.7,1.6-1.2,1.5S581.6,904.6,581.7,903.7z M592.2,913c-0.1,0-0.1,0-0.2,0
			c-2.7-0.4-3.9-1.4-4.4-2.2c-1.4,1.5-4.1,0.6-5.2,0.2c-0.1-0.1-0.3-0.1-0.3-0.1v-1c0.1,0,0.3,0,0.6,0.2c0.9,0.3,3.1,1.1,4.1,0.1
			c-0.4-0.3-0.6-0.8-0.5-1.3c0.1-0.8,0.8-1.3,1.6-1.2s1.3,0.8,1.2,1.6c-0.1,0.4-0.3,0.8-0.7,1c0.4,0.6,1.3,1.5,3.9,1.8L592.2,913z
			 M594.3,905.4c-0.1,0.9-0.7,1.6-1.2,1.5c-0.6-0.1-0.9-0.9-0.8-1.8c0.1-0.9,0.7-1.6,1.2-1.5S594.4,904.5,594.3,905.4z M599.9,899.1
			c0,0-2.3-0.9-3-1.5c0,0,1.9-2.4,2.9-2.1S599.9,899.1,599.9,899.1z"/>
	</g>
</g>
</svg>
