<?xml version="1.0" encoding="utf-8"?>
<!-- Generator: Adobe Illustrator 27.7.0, SVG Export Plug-In . SVG Version: 6.00 Build 0)  -->
<svg version="1.1" id="레이어_1" xmlns="http://www.w3.org/2000/svg" xmlns:xlink="http://www.w3.org/1999/xlink" x="0px"
	 y="0px" viewBox="0 0 1080 1013.3" style="enable-background:new 0 0 1080 1013.3;" xml:space="preserve">
<style type="text/css">
	.st0{fill:#DDDCDB;stroke:#231815;stroke-width:8;stroke-linecap:round;stroke-linejoin:round;stroke-miterlimit:10;}
	.st1{fill:#FFFFFF;stroke:#231815;stroke-width:8;stroke-linecap:round;stroke-linejoin:round;stroke-miterlimit:10;}
	.st2{fill:#BCBCBC;stroke:#231815;stroke-width:8;stroke-linecap:round;stroke-linejoin:round;stroke-miterlimit:10;}
	.st3{fill:#231815;}
	.st4{fill:none;stroke:#231815;stroke-width:4;stroke-linecap:round;stroke-linejoin:round;}
	.st5{fill:none;stroke:#231815;stroke-width:4;stroke-linecap:round;stroke-linejoin:round;stroke-dasharray:7.643,7.643;}
</style>
<g id="하의">
	<g id="청바지">
		<path class="st0" d="M696.3,826c0,0,5,50.5,2.1,109.2c0,0-59.9,12.4-97.2,13l-6.7-20.4H485.6l-6.7,20.4c-37.3-0.6-97.2-13-97.2-13
			c-3-58.7,2.1-109.2,2.1-109.2S530.8,840.8,696.3,826z"/>
		<line class="st1" x1="475.7" y1="926.9" x2="606.8" y2="926.9"/>
		<path class="st0" d="M382.5,846.3c0,0,153.9,20,315.1,0V826c0,0-159.4,14.5-313.8,0L382.5,846.3z"/>
		<rect x="525.6" y="831.7" class="st2" width="28.9" height="22.8"/>
		<rect x="536.4" y="839.1" class="st3" width="7.1" height="7.1"/>
		<path class="st0" d="M381,873.8c0,0,46,6.9,47.7-23l-46.2-4.5L381,873.8z"/>
		<g>
			<g>
				<path class="st4" d="M416.1,856.6c0,0-0.8,1.1-2.5,2.4"/>
				<path class="st5" d="M407,862.8c-2.9,1.2-6.6,2.2-11.1,2.5"/>
				<path class="st4" d="M392.1,865.5c-1.1,0-2.3-0.1-3.5-0.1"/>
			</g>
		</g>
		<path class="st0" d="M698.5,873.8c0,0-46,6.9-47.7-23l46.2-4.5L698.5,873.8z"/>
		<g>
			<g>
				<path class="st4" d="M663.4,856.6c0,0,0.8,1.1,2.5,2.4"/>
				<path class="st5" d="M672.5,862.8c2.9,1.2,6.6,2.2,11.1,2.5"/>
				<path class="st4" d="M687.5,865.5c1.1,0,2.3-0.1,3.5-0.1"/>
			</g>
		</g>
	</g>
</g>
</svg>
