<?xml version="1.0" encoding="utf-8"?>
<!-- Generator: Adobe Illustrator 27.7.0, SVG Export Plug-In . SVG Version: 6.00 Build 0)  -->
<svg version="1.1" id="레이어_1" xmlns="http://www.w3.org/2000/svg" xmlns:xlink="http://www.w3.org/1999/xlink" x="0px"
	 y="0px" viewBox="0 0 1080 1013.3" style="enable-background:new 0 0 1080 1013.3;" xml:space="preserve">
<style type="text/css">
	.st0{fill:#FFFFFF;stroke:#231815;stroke-width:8;stroke-linecap:round;stroke-linejoin:round;stroke-miterlimit:10;}
	.st1{fill:#DDDCDB;}
</style>
<g id="하의">
	<g id="고양이반바지">
		<g id="편한바지_00000181052778286467893950000005879388875701639053_">
			<path class="st0" d="M572.9,921.8l5.5,8.3c11.7,6.2,126.3,6.8,126.2-16.1c-0.1-21-6.8-88.3-6.8-88.3c-203.7,19.8-315.6,0-315.6,0
				s-6.7,67.3-6.8,88.3c-0.1,19.8,114.4,22.3,126.2,16.1l5.5-8.3H572.9z"/>
			<line class="st0" x1="498.9" y1="920.9" x2="580.8" y2="920.9"/>
		</g>
		<path class="st1" d="M431.4,857.6l2.8-5.9c1.1-1.6,3.6-1,3.9,0.9l1.6,9.8c0.9,1.6,1.4,3.4,1.4,5.2c0,7.1-7.4,12.9-16.4,12.9
			c-9.1,0-16.4-5.8-16.4-12.9c0-1.6,0.4-3.2,1.1-4.6l1.7-10.4c0.3-1.9,2.8-2.5,3.9-0.9l2.9,6C417.8,857.7,423.5,861.1,431.4,857.6z"
			/>
		<path class="st1" d="M512.6,881.8l2.8-5.9c1.1-1.6,3.6-1,3.9,0.9l1.6,9.8c0.9,1.6,1.4,3.4,1.4,5.2c0,7.1-7.4,12.9-16.4,12.9
			c-9.1,0-16.4-5.8-16.4-12.9c0-1.6,0.4-3.2,1.1-4.6l1.7-10.4c0.3-1.9,2.8-2.5,3.9-0.9l2.9,6C499,881.9,504.7,885.3,512.6,881.8z"/>
		<path class="st1" d="M592.6,857.6l2.8-5.9c1.1-1.6,3.6-1,3.9,0.9l1.6,9.8c0.9,1.6,1.4,3.4,1.4,5.2c0,7.1-7.4,12.9-16.4,12.9
			s-16.4-5.8-16.4-12.9c0-1.6,0.4-3.2,1.1-4.6l1.7-10.4c0.3-1.9,2.8-2.5,3.9-0.9l2.9,6C579,857.7,584.7,861.1,592.6,857.6z"/>
		<path class="st1" d="M664.3,881.8l2.8-5.9c1.1-1.6,3.6-1,3.9,0.9l1.6,9.8c0.9,1.6,1.4,3.4,1.4,5.2c0,7.1-7.4,12.9-16.4,12.9
			c-9.1,0-16.4-5.8-16.4-12.9c0-1.6,0.4-3.2,1.1-4.6l1.7-10.4c0.3-1.9,2.8-2.5,3.9-0.9l2.9,6C650.7,881.9,656.4,885.3,664.3,881.8z"
			/>
	</g>
</g>
</svg>
