<?xml version="1.0" encoding="utf-8"?>
<!-- Generator: Adobe Illustrator 27.7.0, SVG Export Plug-In . SVG Version: 6.00 Build 0)  -->
<svg version="1.1" id="레이어_1" xmlns="http://www.w3.org/2000/svg" xmlns:xlink="http://www.w3.org/1999/xlink" x="0px"
	 y="0px" viewBox="0 0 1080 1013.3" style="enable-background:new 0 0 1080 1013.3;" xml:space="preserve">
<style type="text/css">
	.st0{fill:#DDDCDB;stroke:#231815;stroke-width:8;stroke-linecap:round;stroke-linejoin:round;stroke-miterlimit:10;}
	.st1{opacity:0.15;}
	.st2{opacity:0.4;fill:#FFFFFF;}
	.st3{opacity:0.2;stroke:#231815;stroke-width:8;stroke-linecap:round;stroke-linejoin:round;stroke-miterlimit:10;}
	.st4{fill:none;stroke:#231815;stroke-width:8;stroke-linecap:round;stroke-linejoin:round;stroke-miterlimit:10;}
</style>
<g id="레이어드">
	<g id="니트조끼">
		<path class="st0" d="M709.2,824l-21.6-163.3c0,0-36,5.5-56.5,9.6c0,0-17.1,38.2-89.4,116.2h-2c-72.3-78-89.4-116.2-89.4-116.2
			c-20.5-4-56.5-9.6-56.5-9.6L372.2,824C372.2,824,589.4,842.7,709.2,824z"/>
		
			<rect x="388.6" y="772" transform="matrix(0.7071 0.7071 -0.7071 0.7071 682.868 -57.8133)" class="st1" width="45.3" height="46.8"/>
		
			<rect x="454.6" y="770.9" transform="matrix(0.7071 0.7071 -0.7071 0.7071 701.4398 -104.8378)" class="st1" width="45.3" height="46.8"/>
		
			<rect x="520.4" y="769.8" transform="matrix(0.7071 0.7071 -0.7071 0.7071 719.9245 -151.6418)" class="st1" width="45.3" height="46.8"/>
		
			<rect x="584.3" y="768.8" transform="matrix(0.7071 0.7071 -0.7071 0.7071 737.8893 -197.1293)" class="st1" width="45.3" height="46.8"/>
		
			<rect x="647.9" y="767.7" transform="matrix(0.7071 0.7071 -0.7071 0.7071 755.782 -242.4342)" class="st1" width="45.3" height="46.8"/>
		<path class="st2" d="M446.2,829.4c-0.4,0-0.8-0.1-1.1-0.4l-4.9-5c-0.6-0.6-0.6-1.5,0-2.1s1.5-0.6,2.1,0l4.9,5
			c0.6,0.6,0.6,1.5,0,2.1C447,829.3,446.6,829.4,446.2,829.4z M451.2,824.4c-0.4,0-0.8-0.1-1.1-0.4c-0.6-0.6-0.6-1.5,0-2.1l4.9-5
			c0.6-0.6,1.5-0.6,2.1,0s0.6,1.5,0,2.1l-4.9,5C452,824.3,451.6,824.4,451.2,824.4z M434.2,817.4c-0.4,0-0.8-0.1-1.1-0.4l-4.9-5
			c-0.6-0.6-0.6-1.5,0-2.1s1.5-0.6,2.1,0l4.9,5c0.6,0.6,0.6,1.5,0,2.1C435,817.3,434.6,817.4,434.2,817.4z M463.2,812.4
			c-0.4,0-0.8-0.1-1.1-0.4c-0.6-0.6-0.6-1.5,0-2.1l4.9-4.9c0.6-0.6,1.5-0.6,2.1,0s0.6,1.5,0,2.1l-4.9,4.9
			C464,812.3,463.6,812.4,463.2,812.4z M422.2,805.4c-0.4,0-0.8-0.1-1.1-0.4l-4.9-4.9c-0.6-0.6-0.6-1.5,0-2.1c0.6-0.6,1.5-0.6,2.1,0
			l4.9,4.9c0.6,0.6,0.6,1.5,0,2.1C422.9,805.2,422.6,805.4,422.2,805.4z M475.3,800.4c-0.4,0-0.8-0.1-1.1-0.4
			c-0.6-0.6-0.6-1.5,0-2.1l3-3c-0.4-0.6-0.4-1.4,0.1-2c0.6-0.6,1.5-0.6,2.1,0l2,2l-5.1,5.1C476,800.2,475.6,800.4,475.3,800.4z
			 M418.3,793.4c-0.4,0-0.8-0.1-1.1-0.4c-0.6-0.6-0.6-1.5,0-2.1l5-5c0.6-0.6,1.5-0.6,2.1,0s0.6,1.5,0,2.1l-5,5
			C419,793.2,418.7,793.4,418.3,793.4z M471.3,788.4c-0.4,0-0.8-0.1-1.1-0.4l-4.9-5c-0.6-0.6-0.6-1.5,0-2.1s1.5-0.6,2.1,0l4.9,5
			c0.6,0.6,0.6,1.5,0,2.1C472.1,788.2,471.7,788.4,471.3,788.4z M430.3,781.3c-0.4,0-0.8-0.1-1.1-0.4c-0.6-0.6-0.6-1.5,0-2.1l4.9-5
			c0.6-0.6,1.5-0.6,2.1,0s0.6,1.5,0,2.1l-4.9,5C431.1,781.2,430.7,781.3,430.3,781.3z M459.3,776.3c-0.4,0-0.8-0.1-1.1-0.4l-4.9-4.9
			c-0.6-0.6-0.6-1.5,0-2.1c0.6-0.6,1.5-0.6,2.1,0l4.9,4.9c0.6,0.6,0.6,1.5,0,2.1C460,776.2,459.7,776.3,459.3,776.3z M442.3,769.3
			c-0.4,0-0.8-0.1-1.1-0.4c-0.6-0.6-0.6-1.5,0-2.1l4.9-4.9c0.6-0.6,1.5-0.6,2.1,0s0.6,1.5,0,2.1l-4.9,4.9
			C443.1,769.2,442.7,769.3,442.3,769.3z"/>
		<path class="st2" d="M575.8,829.4c-0.4,0-0.8-0.1-1.1-0.4l-4.9-5c-0.6-0.6-0.6-1.5,0-2.1s1.5-0.6,2.1,0l4.9,5
			c0.6,0.6,0.6,1.5,0,2.1C576.6,829.3,576.2,829.4,575.8,829.4z M580.8,824.4c-0.4,0-0.8-0.1-1.1-0.4c-0.6-0.6-0.6-1.5,0-2.1l5-5
			c0.6-0.6,1.5-0.6,2.1,0s0.6,1.5,0,2.1l-5,5C581.6,824.3,581.2,824.4,580.8,824.4z M563.8,817.4c-0.4,0-0.8-0.1-1.1-0.4l-5-4.9
			c-0.6-0.6-0.6-1.5,0-2.1s1.5-0.6,2.1,0l5,4.9c0.6,0.6,0.6,1.5,0,2.1C564.6,817.3,564.2,817.4,563.8,817.4z M592.9,812.4
			c-0.4,0-0.8-0.1-1.1-0.4c-0.6-0.6-0.6-1.5,0-2.1l4.9-4.9c0.6-0.6,1.5-0.6,2.1,0s0.6,1.5,0,2.1l-4.9,4.9
			C593.6,812.3,593.2,812.4,592.9,812.4z M551.8,805.4c-0.4,0-0.8-0.1-1.1-0.4l-5-5c-0.6-0.6-0.6-1.5,0-2.1s1.5-0.6,2.1,0l5,5
			c0.6,0.6,0.6,1.5,0,2.1C552.6,805.2,552.2,805.4,551.8,805.4z M604.9,800.4c-0.4,0-0.8-0.1-1.1-0.4c-0.6-0.6-0.6-1.5,0-2.1l3-3
			c-0.4-0.6-0.4-1.4,0.1-2c0.6-0.6,1.5-0.6,2.1,0l2,2l-5.1,5.1C605.6,800.2,605.3,800.4,604.9,800.4z M547.9,793.4
			c-0.4,0-0.8-0.1-1.1-0.4c-0.6-0.6-0.6-1.5,0-2.1l5-5c0.6-0.6,1.5-0.6,2.1,0s0.6,1.5,0,2.1l-5,5
			C548.7,793.2,548.3,793.4,547.9,793.4z M600.9,788.4c-0.4,0-0.8-0.1-1.1-0.4l-5-5c-0.6-0.6-0.6-1.5,0-2.1s1.5-0.6,2.1,0l5,5
			c0.6,0.6,0.6,1.5,0,2.1C601.7,788.2,601.3,788.4,600.9,788.4z M559.9,781.3c-0.4,0-0.8-0.1-1.1-0.4c-0.6-0.6-0.6-1.5,0-2.1
			l4.9-4.9c0.6-0.6,1.5-0.6,2.1,0s0.6,1.5,0,2.1l-4.9,4.9C560.7,781.2,560.3,781.3,559.9,781.3z M588.9,776.3
			c-0.4,0-0.8-0.1-1.1-0.4l-5-5c-0.6-0.6-0.6-1.5,0-2.1s1.5-0.6,2.1,0l5,5c0.6,0.6,0.6,1.5,0,2.1
			C589.7,776.2,589.3,776.3,588.9,776.3z M571.9,769.3c-0.4,0-0.8-0.1-1.1-0.4c-0.6-0.6-0.6-1.5,0-2.1l5-5c0.6-0.6,1.5-0.6,2.1,0
			s0.6,1.5,0,2.1l-5,5C572.7,769.2,572.3,769.3,571.9,769.3z"/>
		<path class="st2" d="M638.1,829.4c-0.4,0-0.8-0.1-1.1-0.4l-4.9-5c-0.6-0.6-0.6-1.5,0-2.1s1.5-0.6,2.1,0l4.9,5
			c0.6,0.6,0.6,1.5,0,2.1C638.8,829.3,638.4,829.4,638.1,829.4z M643.1,824.4c-0.4,0-0.8-0.1-1.1-0.4c-0.6-0.6-0.6-1.5,0-2.1l5-5
			c0.6-0.6,1.5-0.6,2.1,0s0.6,1.5,0,2.1l-5,5C643.8,824.3,643.4,824.4,643.1,824.4z M626,817.4c-0.4,0-0.8-0.1-1.1-0.4l-5-4.9
			c-0.6-0.6-0.6-1.5,0-2.1s1.5-0.6,2.1,0l5,4.9c0.6,0.6,0.6,1.5,0,2.1C626.8,817.3,626.4,817.4,626,817.4z M655.1,812.4
			c-0.4,0-0.8-0.1-1.1-0.4c-0.6-0.6-0.6-1.5,0-2.1l4.9-4.9c0.6-0.6,1.5-0.6,2.1,0s0.6,1.5,0,2.1l-4.9,4.9
			C655.9,812.3,655.5,812.4,655.1,812.4z M614,805.4c-0.4,0-0.8-0.1-1.1-0.4l-5-5c-0.6-0.6-0.6-1.5,0-2.1s1.5-0.6,2.1,0l5,5
			c0.6,0.6,0.6,1.5,0,2.1C614.8,805.2,614.4,805.4,614,805.4z M667.1,800.4c-0.4,0-0.8-0.1-1.1-0.4c-0.6-0.6-0.6-1.5,0-2.1l3-3
			c-0.4-0.6-0.4-1.4,0.1-2c0.6-0.6,1.5-0.6,2.1,0l2,2l-5.1,5.1C667.9,800.2,667.5,800.4,667.1,800.4z M610.1,793.4
			c-0.4,0-0.8-0.1-1.1-0.4c-0.6-0.6-0.6-1.5,0-2.1l5-5c0.6-0.6,1.5-0.6,2.1,0s0.6,1.5,0,2.1l-5,5
			C610.9,793.2,610.5,793.4,610.1,793.4z M663.2,788.4c-0.4,0-0.8-0.1-1.1-0.4l-5-5c-0.6-0.6-0.6-1.5,0-2.1s1.5-0.6,2.1,0l5,5
			c0.6,0.6,0.6,1.5,0,2.1C663.9,788.2,663.5,788.4,663.2,788.4z M622.1,781.3c-0.4,0-0.8-0.1-1.1-0.4c-0.6-0.6-0.6-1.5,0-2.1
			l4.9-4.9c0.6-0.6,1.5-0.6,2.1,0s0.6,1.5,0,2.1l-4.9,4.9C622.9,781.2,622.5,781.3,622.1,781.3z M651.1,776.3
			c-0.4,0-0.8-0.1-1.1-0.4l-5-5c-0.6-0.6-0.6-1.5,0-2.1s1.5-0.6,2.1,0l5,5c0.6,0.6,0.6,1.5,0,2.1
			C651.9,776.2,651.5,776.3,651.1,776.3z M634.2,769.3c-0.4,0-0.8-0.1-1.1-0.4c-0.6-0.6-0.6-1.5,0-2.1l5-5c0.6-0.6,1.5-0.6,2.1,0
			s0.6,1.5,0,2.1l-5,5C634.9,769.2,634.5,769.3,634.2,769.3z"/>
		<path class="st2" d="M511.6,829.4c-0.4,0-0.8-0.1-1.1-0.4l-4.9-5c-0.6-0.6-0.6-1.5,0-2.1s1.5-0.6,2.1,0l4.9,5
			c0.6,0.6,0.6,1.5,0,2.1C512.4,829.3,512,829.4,511.6,829.4z M516.6,824.4c-0.4,0-0.8-0.1-1.1-0.4c-0.6-0.6-0.6-1.5,0-2.1l4.9-5
			c0.6-0.6,1.5-0.6,2.1,0s0.6,1.5,0,2.1l-4.9,5C517.4,824.3,517,824.4,516.6,824.4z M499.6,817.4c-0.4,0-0.8-0.1-1.1-0.4l-4.9-5
			c-0.6-0.6-0.6-1.5,0-2.1s1.5-0.6,2.1,0l4.9,5c0.6,0.6,0.6,1.5,0,2.1C500.4,817.3,500,817.4,499.6,817.4z M528.7,812.4
			c-0.4,0-0.8-0.1-1.1-0.4c-0.6-0.6-0.6-1.5,0-2.1l4.9-5c0.6-0.6,1.5-0.6,2.1,0s0.6,1.5,0,2.1l-4.9,5
			C529.4,812.3,529,812.4,528.7,812.4z M487.6,805.4c-0.4,0-0.8-0.1-1.1-0.4l-4.9-4.9c-0.6-0.6-0.6-1.5,0-2.1c0.6-0.6,1.5-0.6,2.1,0
			l4.9,4.9c0.6,0.6,0.6,1.5,0,2.1C488.4,805.2,488,805.4,487.6,805.4z M540.7,800.4c-0.4,0-0.8-0.1-1.1-0.4c-0.6-0.6-0.6-1.5,0-2.1
			l3-3c-0.4-0.6-0.4-1.4,0.1-2c0.6-0.6,1.5-0.6,2.1,0l2,2l-5.1,5.1C541.4,800.2,541.1,800.4,540.7,800.4z M483.7,793.4
			c-0.4,0-0.8-0.1-1.1-0.4c-0.6-0.6-0.6-1.5,0-2.1l4.9-5c0.6-0.6,1.5-0.6,2.1,0s0.6,1.5,0,2.1l-4.9,5
			C484.5,793.2,484.1,793.4,483.7,793.4z M536.7,788.4c-0.4,0-0.8-0.1-1.1-0.4l-4.9-5c-0.6-0.6-0.6-1.5,0-2.1s1.5-0.6,2.1,0l4.9,5
			c0.6,0.6,0.6,1.5,0,2.1C537.5,788.2,537.1,788.4,536.7,788.4z M495.7,781.3c-0.4,0-0.8-0.1-1.1-0.4c-0.6-0.6-0.6-1.5,0-2.1
			l4.9-4.9c0.6-0.6,1.5-0.6,2.1,0s0.6,1.5,0,2.1l-4.9,4.9C496.5,781.2,496.1,781.3,495.7,781.3z M524.7,776.3
			c-0.4,0-0.8-0.1-1.1-0.4l-5-5c-0.6-0.6-0.6-1.5,0-2.1s1.5-0.6,2.1,0l5,5c0.6,0.6,0.6,1.5,0,2.1
			C525.5,776.2,525.1,776.3,524.7,776.3z M507.7,769.3c-0.4,0-0.8-0.1-1.1-0.4c-0.6-0.6-0.6-1.5,0-2.1l4.9-4.9
			c0.6-0.6,1.5-0.6,2.1,0s0.6,1.5,0,2.1l-4.9,4.9C508.5,769.2,508.1,769.3,507.7,769.3z"/>
		<path class="st0" d="M372.2,824l-3.2,24c0,0,235.1,23.6,343.7,0l-3.5-24C709.2,824,635.5,842.7,372.2,824z"/>
		<path class="st0" d="M450.4,670.3l30.3,3.6c0,0,39.5,59.5,60.6,86.1c0,0,41.7-57.6,58-86.2l31.8-3.5c0,0-46.5,88.6-89.8,121.7
			C541.2,792,489.9,743.9,450.4,670.3z"/>
		<path class="st3" d="M372.2,824l-3.2,24c0,0,235.1,23.6,343.7,0l-3.5-24C709.2,824,635.5,842.7,372.2,824z"/>
		<path class="st3" d="M450.4,670.3l30.3,3.6c0,0,39.5,59.5,60.6,86.1c0,0,41.7-57.6,58-86.2l31.8-3.5c0,0-46.5,88.6-89.8,121.7
			C541.2,792,489.9,743.9,450.4,670.3z"/>
		<path class="st4" d="M372.2,824l-3.2,24c0,0,235.1,23.6,343.7,0l-3.5-24C709.2,824,635.5,842.7,372.2,824z"/>
		<path class="st4" d="M450.4,670.3l30.3,3.6c0,0,39.5,59.5,60.6,86.1c0,0,41.7-57.6,58-86.2l31.8-3.5c0,0-46.5,88.6-89.8,121.7
			C541.2,792,489.9,743.9,450.4,670.3z"/>
	</g>
</g>
</svg>
