<?xml version="1.0" encoding="utf-8"?>
<!-- Generator: Adobe Illustrator 27.7.0, SVG Export Plug-In . SVG Version: 6.00 Build 0)  -->
<svg version="1.1" id="레이어_1" xmlns="http://www.w3.org/2000/svg" xmlns:xlink="http://www.w3.org/1999/xlink" x="0px"
	 y="0px" viewBox="0 0 800 800" style="enable-background:new 0 0 800 800;" xml:space="preserve">
<style type="text/css">
	.st0{fill:#FFC0C0;stroke:#231815;stroke-width:8;stroke-linecap:round;stroke-linejoin:round;stroke-miterlimit:10;}
	.st1{fill:none;stroke:#231815;stroke-width:8;stroke-linecap:round;stroke-linejoin:round;stroke-miterlimit:10;}
	.st2{fill:#FF8080;}
</style>
<g id="잠옷_하의">
	<path class="st0" d="M561.7,431.7c3.2-13.8-3.2-11.2-0.9-26.3c0,0-1.6-12.6,0.1-22.2s-1.5-10.6,0-21.8c1.5-11.3-3.6-9.5-1.2-19.6
		c2.4-10.1-1.8-19.5-1.8-19.5c-0.5-2.6-2.8-4.2-5.5-4.3c-25.9-1.6-30.2,7.9-47.4,3.4c-15.5-4.1-17.8,5-38.2,2.3s-20.4,6.8-32.9,2.3
		c-12.4-4.4-31.1,2.2-41.8-1.8s-20.9,3.8-37.3-0.7s-25.3,4.5-44.4,0s-19.6-0.1-34.1-4.3c-9.5-2.8-23.7-2.9-30.2-2
		c-3.4,0.5-3.1,3.1-3.7,6.5c0,0-3.5,8.9-2.4,16.6c1.2,7.7-4.3,14.8-0.2,21.9s-3.3,12-1.5,17.4c1.8,5.4-2.5,17.9,1.4,25.7
		c6.8,13.7-4,12.6-0.9,26.3c0,0-4.1,9.2,1.2,23.4c5.3,14.2,0,16,8,21.3c8,5.3,27.1-1.3,42.7,3.6s16.2,3.3,25.3,2.2
		s26.6,2.7,27.7-5.8c1.1-8.4,7.8-8.9,11.8-14.7s2.3-13.9,12.1-13.6c0,0,13.3-3.3,27.1-0.2c13.8,3.1,16.9-5.6,26.7-2.6
		c9.8,3,23.4-2.8,31.9,11c8.5,13.8,3.2,10.3,9.6,16.9c6.4,6.6,6,8,22.9,8s28.4-4.9,38.2-2.7c9.8,2.2,9.3-0.4,21.8-1.1
		c12.5-0.7,9.8-3.3,13.8-15.8C563.6,449.3,561.2,434.5,561.7,431.7z"/>
	<path class="st1" d="M341.2,444.5c0,0,12.2,1.7,32.9,2.6"/>
	<path class="st1" d="M466.8,443.6c0,0-9.6,5.1-26,3.8"/>
	<path class="st2" d="M278.3,358c0,0-6.4,7.4,0,16.2c6.4,8.8,4.2,12.9,13.7,12.7c9.9-0.3,17.8,3.5,19.9-8.3
		c2.2-11.8,3.1-18.8-0.8-21.4c-7.7-5.2-16.2-10.1-24.6-4.7C278.3,358,278.3,358,278.3,358z"/>
	<path class="st2" d="M276.6,427.9c0,0-7.9,4.3-5.1,13.9c2.8,9.6-0.4,12.5,8.1,15.3c8.8,3,14.5,8.7,20.1-0.7
		c5.6-9.4,8.6-15.1,6-18.6c-5.2-6.9-11.1-13.9-20.1-11.9C276.6,427.9,276.6,427.9,276.6,427.9z"/>
	<path class="st2" d="M357.2,384.9c0,0-7.9,4.3-5.1,13.9c2.8,9.6-0.4,12.5,8.1,15.3c8.8,3,14.5,8.7,20.1-0.7
		c5.6-9.4,8.6-15.1,6-18.6c-5.2-6.9-11.1-13.9-20.1-11.9C357.2,384.9,357.2,384.9,357.2,384.9z"/>
	<path class="st2" d="M495.7,401.2c0,0-9,3.2-8.2,13.9s-3.1,13.2,5,17.7c8.4,4.7,13.1,11.7,20.8,2.7c7.8-9.1,12.1-14.6,10.1-18.7
		c-3.8-8.3-8.4-16.6-18.1-16.1C495.7,401.2,495.7,401.2,495.7,401.2z"/>
	<path class="st2" d="M512,337.1c0,0-9,3.2-8.2,13.9c0.8,10.7-3.1,13.2,5,17.7c8.4,4.7,13.1,11.7,20.8,2.7
		c7.8-9.1,12.1-14.6,10.1-18.7c-3.8-8.3-8.4-16.6-18.1-16.1C512,337.1,512,337.1,512,337.1z"/>
	<path class="st2" d="M430.9,355.6c0,0-9,3.2-8.2,13.9c0.8,10.7-3.1,13.2,5,17.7c8.4,4.7,13.1,11.7,20.8,2.7
		c7.8-9.1,12.1-14.6,10.1-18.7c-3.8-8.3-8.4-16.6-18.1-16.1C430.9,355.6,430.9,355.6,430.9,355.6z"/>
</g>
</svg>
