<?xml version="1.0" encoding="utf-8"?>
<!-- Generator: Adobe Illustrator 27.7.0, SVG Export Plug-In . SVG Version: 6.00 Build 0)  -->
<svg version="1.1" id="레이어_1" xmlns="http://www.w3.org/2000/svg" xmlns:xlink="http://www.w3.org/1999/xlink" x="0px"
	 y="0px" viewBox="0 0 800 800" style="enable-background:new 0 0 800 800;" xml:space="preserve">
<style type="text/css">
	.st0{fill:#79BCF2;stroke:#231815;stroke-width:8;stroke-linecap:round;stroke-linejoin:round;stroke-miterlimit:10;}
	.st1{fill:#FFFFFF;stroke:#231815;stroke-width:8;stroke-linecap:round;stroke-linejoin:round;stroke-miterlimit:10;}
	.st2{fill:none;stroke:#231815;stroke-width:8;stroke-linecap:round;stroke-linejoin:round;stroke-miterlimit:10;}
	
		.st3{fill:none;stroke:#231815;stroke-width:5;stroke-linecap:round;stroke-linejoin:round;stroke-miterlimit:10;stroke-dasharray:8,15;}
</style>
<g>
	<path class="st0" d="M334.1,391.8l-3.8-128.4l-35.3-4.3v132.7c0,0-39.7,0.6-56.7-2.6c0,0-24.8,70.5,1.9,142.5c0,0,52.5,13.3,97.7,8
		c0,0,9-3.3,8.7-17.1h106.8c-0.3,13.8,8.7,17.1,8.7,17.1c45.3,5.3,97.7-8,97.7-8c26.7-72,1.9-142.5,1.9-142.5
		c-17,3.3-56.7,2.6-56.7,2.6V259.1l-35.3,4.3l-3.8,128.4H334.1z"/>
	<line class="st1" x1="338.3" y1="522.5" x2="460.9" y2="522.5"/>
	<circle class="st1" cx="314.3" cy="385" r="9.5"/>
	<circle class="st1" cx="485.1" cy="385" r="9.5"/>
	<g>
		<path class="st2" d="M446.7,486.3c4.3,0,8.1-4.6,8.4-10.8c0-0.3,0-0.7,0-1.1v-38.5c0-7.4-4.2-13.5-9.3-13.5h-90.7
			c-5.2-0.1-9.4,5.8-9.4,13.4v37.6c0,0.4,0,0.7,0,1.1c0.4,6.4,4.2,11.1,8.6,11.1L446.7,486.3z"/>
		<line class="st3" x1="350" y1="436.9" x2="450.5" y2="436.9"/>
	</g>
</g>
</svg>
