<?xml version="1.0" encoding="utf-8"?>
<!-- Generator: Adobe Illustrator 27.7.0, SVG Export Plug-In . SVG Version: 6.00 Build 0)  -->
<svg version="1.1" id="레이어_1" xmlns="http://www.w3.org/2000/svg" xmlns:xlink="http://www.w3.org/1999/xlink" x="0px"
	 y="0px" viewBox="0 0 800 800" style="enable-background:new 0 0 800 800;" xml:space="preserve">
<style type="text/css">
	.st0{fill:#443537;stroke:#231815;stroke-width:8;stroke-linecap:round;stroke-linejoin:round;stroke-miterlimit:10;}
	.st1{fill:#D18F97;}
	.st2{opacity:0.4;fill:#FFFFFF;enable-background:new    ;}
	.st3{fill:#D18F97;stroke:#231815;stroke-width:8;stroke-linecap:round;stroke-linejoin:round;stroke-miterlimit:10;}
</style>
<g id="레이어드">
	<g id="니트조끼">
		<path class="st0" d="M568.3,464.4l-21.6-163.3c0,0-36,5.5-56.5,9.6c0,0-17.1,38.2-89.4,116.2h-2c-72.3-78-89.4-116.2-89.4-116.2
			c-20.5-4-56.5-9.6-56.5-9.6l-21.6,163.3C231.4,464.4,448.6,483.1,568.3,464.4z"/>
		
			<rect x="247" y="413.2" transform="matrix(0.7071 -0.7071 0.7071 0.7071 -229.011 318.8506)" class="st1" width="46.8" height="45.3"/>
		
			<rect x="313" y="412" transform="matrix(0.7071 -0.7071 0.7071 0.7071 -208.7962 365.1774)" class="st1" width="46.8" height="45.3"/>
		
			<rect x="378.8" y="411" transform="matrix(0.7071 -0.7071 0.7071 0.7071 -188.8611 411.401)" class="st1" width="46.8" height="45.3"/>
		
			<rect x="442.7" y="410" transform="matrix(0.7071 -0.7071 0.7071 0.7071 -169.4155 456.2782)" class="st1" width="46.8" height="45.3"/>
		
			<rect x="506.2" y="408.8" transform="matrix(0.7071 -0.7071 0.7071 0.7071 -149.9938 500.8792)" class="st1" width="46.8" height="45.3"/>
		<path class="st2" d="M305.4,469.8c-0.4,0-0.8-0.1-1.1-0.4l-4.9-5c-0.6-0.6-0.6-1.5,0-2.1s1.5-0.6,2.1,0l4.9,5
			c0.6,0.6,0.6,1.5,0,2.1C306.1,469.7,305.8,469.8,305.4,469.8z M310.4,464.8c-0.4,0-0.8-0.1-1.1-0.4c-0.6-0.6-0.6-1.5,0-2.1l4.9-5
			c0.6-0.6,1.5-0.6,2.1,0s0.6,1.5,0,2.1l-4.9,5C311.1,464.7,310.8,464.8,310.4,464.8z M293.4,457.8c-0.4,0-0.8-0.1-1.1-0.4l-4.9-5
			c-0.6-0.6-0.6-1.5,0-2.1s1.5-0.6,2.1,0l4.9,5c0.6,0.6,0.6,1.5,0,2.1C294.1,457.7,293.8,457.8,293.4,457.8z M322.4,452.8
			c-0.4,0-0.8-0.1-1.1-0.4c-0.6-0.6-0.6-1.5,0-2.1l4.9-4.9c0.6-0.6,1.5-0.6,2.1,0s0.6,1.5,0,2.1l-4.9,4.9
			C323.1,452.7,322.8,452.8,322.4,452.8z M281.4,445.8c-0.4,0-0.8-0.1-1.1-0.4l-4.9-4.9c-0.6-0.6-0.6-1.5,0-2.1s1.5-0.6,2.1,0
			l4.9,4.9c0.6,0.6,0.6,1.5,0,2.1C282,445.6,281.8,445.8,281.4,445.8z M334.4,440.8c-0.4,0-0.8-0.1-1.1-0.4c-0.6-0.6-0.6-1.5,0-2.1
			l3-3c-0.4-0.6-0.4-1.4,0.1-2c0.6-0.6,1.5-0.6,2.1,0l2,2l-5.1,5.1C335.1,440.6,334.8,440.8,334.4,440.8z M277.4,433.8
			c-0.4,0-0.8-0.1-1.1-0.4c-0.6-0.6-0.6-1.5,0-2.1l5-5c0.6-0.6,1.5-0.6,2.1,0s0.6,1.5,0,2.1l-5,5
			C278.1,433.6,277.9,433.8,277.4,433.8z M330.4,428.8c-0.4,0-0.8-0.1-1.1-0.4l-4.9-5c-0.6-0.6-0.6-1.5,0-2.1s1.5-0.6,2.1,0l4.9,5
			c0.6,0.6,0.6,1.5,0,2.1C331.2,428.6,330.9,428.8,330.4,428.8z M289.4,421.7c-0.4,0-0.8-0.1-1.1-0.4c-0.6-0.6-0.6-1.5,0-2.1l4.9-5
			c0.6-0.6,1.5-0.6,2.1,0s0.6,1.5,0,2.1l-4.9,5C290.2,421.6,289.9,421.7,289.4,421.7z M318.4,416.7c-0.4,0-0.8-0.1-1.1-0.4l-4.9-4.9
			c-0.6-0.6-0.6-1.5,0-2.1s1.5-0.6,2.1,0l4.9,4.9c0.6,0.6,0.6,1.5,0,2.1C319.1,416.6,318.9,416.7,318.4,416.7z M301.4,409.7
			c-0.4,0-0.8-0.1-1.1-0.4c-0.6-0.6-0.6-1.5,0-2.1l4.9-4.9c0.6-0.6,1.5-0.6,2.1,0s0.6,1.5,0,2.1l-4.9,4.9
			C302.2,409.6,301.9,409.7,301.4,409.7z"/>
		<path class="st2" d="M434.9,469.8c-0.4,0-0.8-0.1-1.1-0.4l-4.9-5c-0.6-0.6-0.6-1.5,0-2.1s1.5-0.6,2.1,0l4.9,5
			c0.6,0.6,0.6,1.5,0,2.1C435.7,469.7,435.4,469.8,434.9,469.8z M439.9,464.8c-0.4,0-0.8-0.1-1.1-0.4c-0.6-0.6-0.6-1.5,0-2.1l5-5
			c0.6-0.6,1.5-0.6,2.1,0s0.6,1.5,0,2.1l-5,5C440.7,464.7,440.4,464.8,439.9,464.8z M422.9,457.8c-0.4,0-0.8-0.1-1.1-0.4l-5-4.9
			c-0.6-0.6-0.6-1.5,0-2.1s1.5-0.6,2.1,0l5,4.9c0.6,0.6,0.6,1.5,0,2.1C423.7,457.7,423.4,457.8,422.9,457.8z M452.1,452.8
			c-0.4,0-0.8-0.1-1.1-0.4c-0.6-0.6-0.6-1.5,0-2.1l4.9-4.9c0.6-0.6,1.5-0.6,2.1,0s0.6,1.5,0,2.1l-4.9,4.9
			C452.7,452.7,452.4,452.8,452.1,452.8z M410.9,445.8c-0.4,0-0.8-0.1-1.1-0.4l-5-5c-0.6-0.6-0.6-1.5,0-2.1s1.5-0.6,2.1,0l5,5
			c0.6,0.6,0.6,1.5,0,2.1C411.7,445.6,411.4,445.8,410.9,445.8z M464.1,440.8c-0.4,0-0.8-0.1-1.1-0.4c-0.6-0.6-0.6-1.5,0-2.1l3-3
			c-0.4-0.6-0.4-1.4,0.1-2c0.6-0.6,1.5-0.6,2.1,0l2,2l-5.1,5.1C464.7,440.6,464.4,440.8,464.1,440.8z M407.1,433.8
			c-0.4,0-0.8-0.1-1.1-0.4c-0.6-0.6-0.6-1.5,0-2.1l5-5c0.6-0.6,1.5-0.6,2.1,0s0.6,1.5,0,2.1l-5,5
			C407.9,433.6,407.4,433.8,407.1,433.8z M460.1,428.8c-0.4,0-0.8-0.1-1.1-0.4l-5-5c-0.6-0.6-0.6-1.5,0-2.1s1.5-0.6,2.1,0l5,5
			c0.6,0.6,0.6,1.5,0,2.1C460.9,428.6,460.4,428.8,460.1,428.8z M419.1,421.7c-0.4,0-0.8-0.1-1.1-0.4c-0.6-0.6-0.6-1.5,0-2.1
			l4.9-4.9c0.6-0.6,1.5-0.6,2.1,0s0.6,1.5,0,2.1l-4.9,4.9C419.9,421.6,419.4,421.7,419.1,421.7z M448.1,416.7
			c-0.4,0-0.8-0.1-1.1-0.4l-5-5c-0.6-0.6-0.6-1.5,0-2.1s1.5-0.6,2.1,0l5,5c0.6,0.6,0.6,1.5,0,2.1
			C448.9,416.6,448.4,416.7,448.1,416.7z M431.1,409.7c-0.4,0-0.8-0.1-1.1-0.4c-0.6-0.6-0.6-1.5,0-2.1l5-5c0.6-0.6,1.5-0.6,2.1,0
			s0.6,1.5,0,2.1l-5,5C431.9,409.6,431.4,409.7,431.1,409.7z"/>
		<path class="st2" d="M497.2,469.8c-0.4,0-0.8-0.1-1.1-0.4l-4.9-5c-0.6-0.6-0.6-1.5,0-2.1s1.5-0.6,2.1,0l4.9,5
			c0.6,0.6,0.6,1.5,0,2.1C497.9,469.7,497.6,469.8,497.2,469.8z M502.2,464.8c-0.4,0-0.8-0.1-1.1-0.4c-0.6-0.6-0.6-1.5,0-2.1l5-5
			c0.6-0.6,1.5-0.6,2.1,0s0.6,1.5,0,2.1l-5,5C502.9,464.7,502.6,464.8,502.2,464.8z M485.1,457.8c-0.4,0-0.8-0.1-1.1-0.4l-5-4.9
			c-0.6-0.6-0.6-1.5,0-2.1s1.5-0.6,2.1,0l5,4.9c0.6,0.6,0.6,1.5,0,2.1C485.9,457.7,485.6,457.8,485.1,457.8z M514.2,452.8
			c-0.4,0-0.8-0.1-1.1-0.4c-0.6-0.6-0.6-1.5,0-2.1l4.9-4.9c0.6-0.6,1.5-0.6,2.1,0s0.6,1.5,0,2.1l-4.9,4.9
			C515.1,452.7,514.7,452.8,514.2,452.8z M473.1,445.8c-0.4,0-0.8-0.1-1.1-0.4l-5-5c-0.6-0.6-0.6-1.5,0-2.1s1.5-0.6,2.1,0l5,5
			c0.6,0.6,0.6,1.5,0,2.1C473.9,445.6,473.6,445.8,473.1,445.8z M526.2,440.8c-0.4,0-0.8-0.1-1.1-0.4c-0.6-0.6-0.6-1.5,0-2.1l3-3
			c-0.4-0.6-0.4-1.4,0.1-2c0.6-0.6,1.5-0.6,2.1,0l2,2l-5.1,5.1C527.1,440.6,526.7,440.8,526.2,440.8z M469.2,433.8
			c-0.4,0-0.8-0.1-1.1-0.4c-0.6-0.6-0.6-1.5,0-2.1l5-5c0.6-0.6,1.5-0.6,2.1,0s0.6,1.5,0,2.1l-5,5
			C470.1,433.6,469.6,433.8,469.2,433.8z M522.3,428.8c-0.4,0-0.8-0.1-1.1-0.4l-5-5c-0.6-0.6-0.6-1.5,0-2.1s1.5-0.6,2.1,0l5,5
			c0.6,0.6,0.6,1.5,0,2.1C523.1,428.6,522.7,428.8,522.3,428.8z M481.2,421.7c-0.4,0-0.8-0.1-1.1-0.4c-0.6-0.6-0.6-1.5,0-2.1
			l4.9-4.9c0.6-0.6,1.5-0.6,2.1,0s0.6,1.5,0,2.1l-4.9,4.9C482.1,421.6,481.6,421.7,481.2,421.7z M510.2,416.7
			c-0.4,0-0.8-0.1-1.1-0.4l-5-5c-0.6-0.6-0.6-1.5,0-2.1s1.5-0.6,2.1,0l5,5c0.6,0.6,0.6,1.5,0,2.1
			C511.1,416.6,510.6,416.7,510.2,416.7z M493.4,409.7c-0.4,0-0.8-0.1-1.1-0.4c-0.6-0.6-0.6-1.5,0-2.1l5-5c0.6-0.6,1.5-0.6,2.1,0
			s0.6,1.5,0,2.1l-5,5C494.1,409.6,493.6,409.7,493.4,409.7z"/>
		<path class="st2" d="M370.8,469.8c-0.4,0-0.8-0.1-1.1-0.4l-4.9-5c-0.6-0.6-0.6-1.5,0-2.1s1.5-0.6,2.1,0l4.9,5
			c0.6,0.6,0.6,1.5,0,2.1C371.6,469.7,371.1,469.8,370.8,469.8z M375.7,464.8c-0.4,0-0.8-0.1-1.1-0.4c-0.6-0.6-0.6-1.5,0-2.1l4.9-5
			c0.6-0.6,1.5-0.6,2.1,0s0.6,1.5,0,2.1l-4.9,5C376.6,464.7,376.1,464.8,375.7,464.8z M358.8,457.8c-0.4,0-0.8-0.1-1.1-0.4l-4.9-5
			c-0.6-0.6-0.6-1.5,0-2.1s1.5-0.6,2.1,0l4.9,5c0.6,0.6,0.6,1.5,0,2.1C359.5,457.7,359.1,457.8,358.8,457.8z M387.9,452.8
			c-0.4,0-0.8-0.1-1.1-0.4c-0.6-0.6-0.6-1.5,0-2.1l4.9-5c0.6-0.6,1.5-0.6,2.1,0s0.6,1.5,0,2.1l-4.9,5
			C388.6,452.7,388.1,452.8,387.9,452.8z M346.8,445.8c-0.4,0-0.8-0.1-1.1-0.4l-4.9-4.9c-0.6-0.6-0.6-1.5,0-2.1s1.5-0.6,2.1,0
			l4.9,4.9c0.6,0.6,0.6,1.5,0,2.1C347.5,445.6,347.1,445.8,346.8,445.8z M399.9,440.8c-0.4,0-0.8-0.1-1.1-0.4
			c-0.6-0.6-0.6-1.5,0-2.1l3-3c-0.4-0.6-0.4-1.4,0.1-2c0.6-0.6,1.5-0.6,2.1,0l2,2l-5.1,5.1C400.6,440.6,400.2,440.8,399.9,440.8z
			 M342.9,433.8c-0.4,0-0.8-0.1-1.1-0.4c-0.6-0.6-0.6-1.5,0-2.1l4.9-5c0.6-0.6,1.5-0.6,2.1,0s0.6,1.5,0,2.1l-4.9,5
			C343.6,433.6,343.2,433.8,342.9,433.8z M395.9,428.8c-0.4,0-0.8-0.1-1.1-0.4l-4.9-5c-0.6-0.6-0.6-1.5,0-2.1s1.5-0.6,2.1,0l4.9,5
			c0.6,0.6,0.6,1.5,0,2.1C396.6,428.6,396.2,428.8,395.9,428.8z M354.9,421.7c-0.4,0-0.8-0.1-1.1-0.4c-0.6-0.6-0.6-1.5,0-2.1
			l4.9-4.9c0.6-0.6,1.5-0.6,2.1,0s0.6,1.5,0,2.1l-4.9,4.9C355.6,421.6,355.2,421.7,354.9,421.7z M383.9,416.7
			c-0.4,0-0.8-0.1-1.1-0.4l-5-5c-0.6-0.6-0.6-1.5,0-2.1s1.5-0.6,2.1,0l5,5c0.6,0.6,0.6,1.5,0,2.1
			C384.6,416.6,384.2,416.7,383.9,416.7z M366.9,409.7c-0.4,0-0.8-0.1-1.1-0.4c-0.6-0.6-0.6-1.5,0-2.1l4.9-4.9
			c0.6-0.6,1.5-0.6,2.1,0s0.6,1.5,0,2.1l-4.9,4.9C367.6,409.6,367.2,409.7,366.9,409.7z"/>
		<path class="st3" d="M231.4,464.4l-3.2,24c0,0,235.1,23.6,343.7,0l-3.5-24C568.3,464.4,494.6,483.1,231.4,464.4z"/>
		<path class="st3" d="M309.5,310.7l30.3,3.6c0,0,39.5,59.5,60.6,86.1c0,0,41.7-57.6,58-86.2l31.8-3.5c0,0-46.5,88.6-89.8,121.7
			C400.4,432.4,349,384.3,309.5,310.7z"/>
	</g>
</g>
</svg>
