<?xml version="1.0" encoding="utf-8"?>
<!-- Generator: Adobe Illustrator 27.7.0, SVG Export Plug-In . SVG Version: 6.00 Build 0)  -->
<svg version="1.1" id="레이어_1" xmlns="http://www.w3.org/2000/svg" xmlns:xlink="http://www.w3.org/1999/xlink" x="0px"
	 y="0px" viewBox="0 0 800 800" style="enable-background:new 0 0 800 800;" xml:space="preserve">
<style type="text/css">
	.st0{fill:#DDDCDB;stroke:#231815;stroke-width:8;stroke-linecap:round;stroke-linejoin:round;stroke-miterlimit:10;}
	.st1{fill:#5F5468;stroke:#231815;stroke-width:8;stroke-linecap:round;stroke-linejoin:round;stroke-miterlimit:10;}
	.st2{fill:#C469FF;stroke:#231815;stroke-width:8;stroke-linecap:round;stroke-linejoin:round;stroke-miterlimit:10;}
	.st3{fill:none;stroke:#231815;stroke-width:8;stroke-linecap:round;stroke-linejoin:round;stroke-miterlimit:10;}
	.st4{fill:#231815;}
</style>
<g id="레이어드">
	<g id="후드티">
		<path class="st0" d="M603.5,297c0,0,35.8,37.7,7.3,72.7c-28.4,35-47.5-36.1-47.1-43.3S576.9,290.7,603.5,297z"/>
		<path class="st0" d="M196.6,297c0,0-35.8,37.7-7.3,72.7c28.4,35,47.5-36.1,47.1-43.3S223.2,290.7,196.6,297z"/>
		<path class="st1" d="M603.5,297c0,0,35.8,37.7,7.3,72.7c-28.4,35-47.5-36.1-47.1-43.3S576.9,290.7,603.5,297z"/>
		<path class="st1" d="M196.6,297c0,0-35.8,37.7-7.3,72.7c28.4,35,47.5-36.1,47.1-43.3S223.2,290.7,196.6,297z"/>
		<path class="st2" d="M573.7,513.1c2.6-19.2-10-78.4-10-78.4c21.3-5.2,70.9-42,70.9-42c-6.2-32.7-56.7-93.2-56.7-93.2l-89.3,25.8
			l-73.8,23.1h-29.6l-73.8-23.1l-89.3-25.8c0,0-50.8,63.1-56.7,93.2c0,0,49.6,36.8,70.9,42c0,0-12.6,59.3-10,78.4
			C226.4,513.1,403.1,528.5,573.7,513.1z"/>
		<line class="st3" x1="340.5" y1="340.6" x2="339.4" y2="396.3"/>
		<circle class="st4" cx="339.4" cy="402.7" r="8.7"/>
		<line class="st3" x1="236.4" y1="434.7" x2="242.6" y2="400.8"/>
		<path class="st2" d="M404.4,350.1c0,0-61.3-22.2-94.2-44.4s-88.9-44.4-120.9,0c0,0,54.2,4.4,89.8,22.2
			C314.6,345.7,376.8,358.1,404.4,350.1z"/>
		<path class="st3" d="M285.5,490c0,0,0.4-32.2,0-35.8c9.1-12.4,30-31.8,30-31.8s71.1,5.3,169.2,0c0,0,20.9,19.3,30,31.8
			c-0.4,3.6,0,35.8,0,35.8S363.4,498.3,285.5,490z"/>
		<line class="st3" x1="459.6" y1="340.6" x2="460.7" y2="396.3"/>
		<circle class="st4" cx="460.7" cy="402.7" r="8.7"/>
		<line class="st3" x1="563.7" y1="434.7" x2="557.5" y2="400.8"/>
		<path class="st2" d="M395.7,350.1c0,0,61.3-22.2,94.2-44.4s88.9-44.4,120.9,0c0,0-54.2,4.4-89.8,22.2
			C485.5,345.7,423.3,358.1,395.7,350.1z"/>
	</g>
</g>
</svg>
