<?xml version="1.0" encoding="utf-8"?>
<!-- Generator: Adobe Illustrator 27.7.0, SVG Export Plug-In . SVG Version: 6.00 Build 0)  -->
<svg version="1.1" id="레이어_1" xmlns="http://www.w3.org/2000/svg" xmlns:xlink="http://www.w3.org/1999/xlink" x="0px"
	 y="0px" viewBox="0 0 800 800" style="enable-background:new 0 0 800 800;" xml:space="preserve">
<style type="text/css">
	.st0{fill:#435E1D;}
	.st1{fill:#FFC973;}
	.st2{fill:#FF7676;}
	.st3{opacity:0.68;fill:#FFFFFF;stroke:#000000;stroke-width:8;stroke-miterlimit:10;enable-background:new    ;}
	.st4{fill:none;stroke:#000000;stroke-width:8;stroke-miterlimit:10;}
</style>
<g id="꽃1">
	<g>
		<g>
			<path class="st0" d="M410.2,404.9c1,2.5,0.8,5.5-0.9,7.7l-93.2,120c-4.5,5.9-9.7,5.8-14.3,5.5c-1.1,0.1-2.3-0.2-3.3-0.1l-6.1,0.3
				c-3.2,0.2-6.3-1.8-7.4-4.7c-1-2.5-0.8-5.5,0.9-7.7l102.7-129c2.4-3.2,7.2-4,10.5-1.4l8.8,6.3
				C408.7,402.2,409.6,403.4,410.2,404.9z"/>
			<path d="M289.1,531.2c-0.4-0.9-0.3-1.7,0.4-2.7l102.7-129c1-1.1,2.4-1.3,3.5-0.4l8.8,6.3c0.4,0.2,0.7,0.8,0.8,1.1
				c0.4,0.9,0.3,1.7-0.4,2.7l-93.2,120c-3.9,4.9-7.7,3.5-14,3.5l-6.1,0.3C290.5,532.9,289.5,532.2,289.1,531.2 M279.7,535.1
				c2.1,5,7,8.1,12.1,7.9l6.1-0.3c1.1-0.1,2.1-0.1,3,0.2c4.9,0.2,12.3,0.4,18.5-7.6l93.2-120c2.9-3.8,3.5-8.4,1.7-12.8
				c-0.9-2.2-2.4-4.1-4.5-5.5l-8.8-6.3c-5.7-3.9-13.3-3-17.7,2.5l-102.7,129C278.5,526,278,531,279.7,535.1L279.7,535.1z"/>
		</g>
		<g>
			<path class="st1" d="M466.3,363.5c0.9,2.2,0.9,4.8,0.4,7.2c-4.1,14.2-14.1,38.9-33.1,44.5c-11.1,3.5-23.2,0-36-10.6
				c-7.3-6.2-12.5-12.5-15.1-18.8c-7.9-19.2,5-38.8,35.7-54.4c2.7-1.5,5.9-1.7,8.6-0.6c2.7,1.1,5,3.1,6.1,5.9
				c0.1,0.3,0.4,0.9,0.5,1.3c1.4,5.3,2.7,13.6,0.9,22.8c6.8-3.2,15-5.5,24.5-3.8C462.1,357.8,464.9,360,466.3,363.5z"/>
			<path d="M387.5,383.8c-9.6-23.3,20.1-41.4,33.2-47.9c3-1.6,6.6-0.1,7.7,2.7c0.1,0.3,0.1,0.3,0.3,0.6c2.3,8.2,3.9,23.8-7.3,37.6
				c0,0,16-18.3,36.9-14.8c2,0.3,3.2,1.6,3.9,3.2c0.5,1.3,0.7,2.6,0.2,4c-4.9,16.7-22.6,63-60.8,31.7
				C393.9,394.7,389.7,389.1,387.5,383.8 M378.1,387.6c3,7.2,8.4,14.2,16.6,20.7c13.9,11.5,27.7,15.4,40.8,11.5
				c21.2-6.5,32-33,36.4-48.1c1.2-3.4,0.7-7.3-0.7-10.7c-2.1-5-6.4-8.4-11.5-9.2c-7.1-1.1-13.5-0.7-19.4,1c0.2-6.7-0.6-12.2-2-16.5
				c-0.3-0.6-0.5-1.3-0.8-1.9c-1.7-4.1-4.8-7.2-9.1-8.7c-4-1.7-8.6-1.2-12.6,0.8C382.7,343.5,369,365.6,378.1,387.6L378.1,387.6z"/>
		</g>
		<g>
			<path class="st1" d="M453.4,345.6c0.6,1.6,0.8,3.7,0.4,5.4c-4.5,19.5-15.2,53.3-33.6,59.4c-7.5,2.3-15,0.3-22.6-5.8
				c-3.9-3.2-6.8-6.7-8.4-10.5c-2.1-5-2-10.2,0.2-15.5c7-16.9,35.8-30.9,52.6-37.4C446.6,338.9,451.6,341.2,453.4,345.6z"/>
			<path d="M394.2,392c-8.4-20.4,33.6-39.9,50-46.3c1.9-0.8,4.1,0.1,4.9,2c0.3,0.6,0.2,1.4,0.1,2.1c-4.5,19.5-20.2,74.1-47.8,50.9
				C397.6,397.6,395.4,394.9,394.2,392 M384.8,395.9L384.8,395.9c1.8,4.4,5.1,8.9,9.6,12.6c11.2,9.4,21,9,27.4,6.7
				c19.7-6.6,31-38.1,36.9-63c0.7-2.8,0.6-5.7-0.6-8.6c-2.8-6.9-10.8-10.2-18.2-7.6c-21.1,8.7-47.7,22.6-55.1,40.3
				C382.4,382.9,382.2,389.6,384.8,395.9L384.8,395.9z"/>
		</g>
	</g>
	<g>
		<path class="st0" d="M379.2,381.3c0.8,1.9,0.6,4.2-0.1,5.9l-61.5,138.9c-3,7.1-7.6,8.3-12.3,9.5c-0.6,0.3-1.7,0.3-2.6,0.7
			l-5.9,1.7c-3.6,1.1-7.7-0.9-9.3-4.6c-0.8-1.9-0.6-4.2,0.1-5.9l67.5-150.2c1.8-3.7,6.2-5.5,9.7-4l10.1,3.9
			C377,377.8,378.4,379.4,379.2,381.3z"/>
		<path d="M292.1,531.5c-0.3-0.6-0.2-1.4,0-1.8l67.5-150.2c0.6-1.3,2.1-2,3.5-1.4l10.1,3.9c0.8,0.1,1,0.7,1.3,1.3
			c0.3,0.6,0.2,1.4,0.1,2.1l-61.5,138.9c-2.4,5.8-5.4,5.5-11.4,7.2l-5.9,1.7C294,533.3,292.6,532.7,292.1,531.5 M282.7,535.3
			c2.5,6,8.9,9.2,15.2,7.4l5.9-1.7c0.9-0.4,1.7-0.3,2.3-0.6c5-1.3,11.6-3,15.5-12.3l61.5-138.9c1.3-3.1,1.6-6.9,0.3-10
			c-1.3-3.1-3.8-5.8-7-7.1l-10.1-3.9c-6.5-2.5-13.4,0.4-16.3,6.7L283,525.3C281.7,528.4,281.4,532.2,282.7,535.3L282.7,535.3z"/>
	</g>
	<g>
		<path class="st2" d="M424.2,328.2c0.6,1.6,0.9,3,0.9,4.8c-0.6,14.6-4.4,41.1-21.1,51.3c-10,6-22.4,5.5-37.4-1.5
			c-11.5-5.6-19.2-12.7-22.7-21.2c-8.8-21.4,11.7-43.8,25.1-55.2c2.4-2.1,5.7-3.1,8.9-2.6c3.2,0.5,5.8,2.4,7.4,5.4
			c1.1,1.8,1.9,3.6,2.6,5.5c1.8,4.4,3.4,10,3.8,16.4c5.7-4.9,13.6-8.9,22.9-9.4C418.5,321.4,422.5,324.2,424.2,328.2z"/>
		<path d="M348.1,359.5c-7.9-19.2,13.5-40.5,23.4-49.3c2.8-2.2,6.7-1.6,8.3,1.4c1,1.4,1.6,3,2.4,4.9c3.4,8.2,5.7,20.1-0.6,33.3
			c0,0,11.2-21.9,32.3-23.2c2.5-0.3,4.2,1.2,5.1,3.4c0.3,0.6,0.3,1.7,0.3,2.5c-0.6,17.2-6.7,66.7-51.6,45.1
			C357.1,372.4,350.9,366.1,348.1,359.5 M338.7,363.4c3.9,9.4,12.4,17.7,25.2,23.8c16.5,7.9,30.6,8.3,42.1,1.4
			c19.1-11.6,23-39.6,23.9-55.4c0.2-2.3-0.4-4.6-1.3-6.8c-2.6-6.3-8.6-10.1-15.3-9.5c-7.2,0.4-13.3,2.5-18.6,5.8
			c-0.8-3.7-1.8-7-2.9-9.8c-0.8-1.9-1.7-4.1-2.8-5.8c-2.4-4.1-6.2-7-11-8c-4.8-1-9.3,0.5-13.2,3.6
			C351.1,315,328.8,339.2,338.7,363.4L338.7,363.4z"/>
	</g>
	<g>
		<path class="st2" d="M407.1,313.6c0.4,0.9,0.6,2.3,0.7,3.4c0.2,20.1-1.8,55.5-18.4,66c-6.7,4.2-14.5,4.1-23.3-0.3
			c-6.5-3.2-10.7-7.3-12.9-12.7c-8.4-20.4,21.8-46.1,40.7-60.1c2.3-1.7,5-2.1,7.6-1.3C403.9,309.4,406.1,311.1,407.1,313.6z"/>
		<path d="M357.9,368c-7.4-17.9,25.6-44,38.8-53.8c1.9-1.5,4.6-0.4,5.4,1.5c0.1,0.3,0.4,0.9,0.2,1.4c0.2,20.1-1.8,76.8-34.2,60.7
			C363,375.1,359.4,371.8,357.9,368 M348.5,371.9L348.5,371.9c2.6,6.3,7.7,11.5,15.4,15c12.9,6.4,22.4,3.6,28.3,0.1
			c17.7-11.3,21.1-44.3,20.7-70.3c0-1.8-0.4-3.5-1-5.1c-1.7-4.1-5-6.8-8.9-8.1c-4.2-1.2-8.5-0.2-11.9,2.3
			C366.5,323.7,339.3,349.6,348.5,371.9L348.5,371.9z"/>
	</g>
	<g>
		<path class="st0" d="M439,438.3c1.3,3.1,0.3,6.9-2.5,9.1L314.7,538c-6,4.3-11.5,2.5-16.1,1.1c-1.2-0.2-2.5-0.8-3.7-1l-6.1-1.5
			c-1.6-0.4-3.2-1.6-4-3.5c-2.2-5.3,4.9-11.2,7.2-12.9l128.5-94.1c3.4-2.5,8.1-1.8,10.6,1.5l6.8,8.6
			C438.5,437,438.7,437.7,439,438.3L439,438.3z"/>
		<path d="M289.5,531.4c-0.5-1.3,3.9-5.7,5.4-6.6l128.5-94.1c1.1-0.8,2.6-0.7,3.5,0.4l6.8,8.6c0.1,0.3,0.1,0.3,0.3,0.6
			c0.4,0.9,0.1,2.1-1,3l-121.9,90.6c-5.1,3.6-9.3,0.5-15.5-1L289.5,531.4C290,531.6,289.5,531.4,289.5,531.4 M280.1,535.3
			c1.3,3.1,4.2,5.6,7.4,6.5l6.1,1.5c1.2,0.2,2.1,0.6,3.3,0.9c4.8,1.7,12.7,4,20.6-1.8l121.9-90.6c4.8-3.5,6.3-9.6,4.1-14.9
			c-0.5-1.3-1.2-2.1-2.1-3.2l-6.8-8.6c-4.5-5.5-12.2-6.4-17.5-2.3l-128.5,94.1C285.2,519.2,276.6,526.8,280.1,535.3L280.1,535.3z"/>
	</g>
	<g>
		<path class="st2" d="M504.1,412.6c1.3,3.1,1,6.9-0.7,9.9c-7.8,12.4-24,33.8-43.6,34.1c-11.6,0.4-22.4-6.2-31.6-19.7
			c-2.8-4-5.2-8.2-6.7-11.9c-4.1-10.1-3.8-19,0.3-27c8.7-16.4,32.3-23.2,45.5-26.1c5.1-1,10.2,1.7,12.1,6.1c0.5,1.3,0.7,2.6,0.6,4.2
			c0.1,5.5-0.9,14-5.1,22.3c7.6-1.3,16.1-1.1,24.8,3C501.2,408.3,503.2,410.4,504.1,412.6z"/>
		<g>
			<path d="M425.7,422.8c-13.1-31.7,26.5-42.9,42.4-46.1c2.8-0.4,5.1,0.8,6.2,3.3c0.3,0.6,0.5,1.3,0.5,2
				c-0.2,8.5-2.7,23.9-17.1,34.3c0,0,20.5-13.6,39.3-4.4c1.3,0.6,2,1.4,2.6,2.6c0.6,1.6,0.4,3.5-0.4,5.3c-9,14.7-38.5,54.8-67,14
				C428.9,429.9,427.1,426.3,425.7,422.8 M416.2,426.7c1.7,4.1,4.3,8.5,7.3,13.2c10.5,14.8,22.8,22.2,35.9,22
				c22.1-0.7,39.7-23.3,47.8-36.6c2.6-4.4,3.3-9.8,1.4-14.5c-1.4-3.5-4.1-6.4-7.7-7.9c-6.5-3.2-12.8-4.3-19-4.3
				c1.8-6.3,2.4-12,2.4-16.4c-0.1-2.1-0.3-4.3-1.1-6.2c-2.8-6.9-10.3-10.8-17.8-9.2c-14.2,2.9-39.5,10.4-49.2,28.7
				C413.3,401.8,410.4,412.6,416.2,426.7L416.2,426.7z"/>
		</g>
	</g>
	<g>
		<path class="st2" d="M496.6,392.5c1,2.5,0.7,5.2-0.6,7.6c-9.7,17.6-28.6,47.4-48.4,48.6c-7.9,0.3-14.7-3.5-20.2-11.5
			c-1.5-1.9-2.4-4.1-3.3-6.3c-2.7-6.6-2.4-13,0.9-18.4c9.4-16.4,43.3-22.6,62.2-24.9C491.4,387,495.1,388.8,496.6,392.5z"/>
		<g>
			<path d="M428.7,428.5c-10.6-25.8,40.3-34.2,59-36.1c1.7-0.3,3.3,0.9,3.8,2.1c0.4,0.9,0.5,2-0.2,3c-9.7,17.6-39.3,66.2-59.7,36.3
				C430.6,432.2,429.5,430.4,428.7,428.5 M419.3,432.4L419.3,432.4c1,2.5,2.4,4.9,4,7.2c8.3,12,18,14.3,24.4,13.8
				c20.9-0.9,40.2-28.3,52.5-51c2.1-3.8,2.3-7.9,0.6-12c-2.3-5.7-8.2-9.1-14.5-8.4c-24.6,2.8-55.9,9.8-66,27.2
				C416.4,416.4,416.1,424.6,419.3,432.4L419.3,432.4z"/>
		</g>
	</g>
	<g>
		<path class="st0" d="M421.9,343.2c0.9,2.2,0.7,4.5-0.3,6.4l-68.9,135.3c-3.4,6.9-9.9,11.8-17.3,13.4l-6,1.4
			c-3.7,0.8-7.4-1-8.8-4.5c-0.9-2.2-0.7-4.5,0.3-6.4l77.6-150.7c1.8-3.7,6.3-5.2,10-3.4l10,4.7C419.8,340,421.2,341.6,421.9,343.2z"
			/>
		<path d="M325.3,493.2c-0.3-0.6-0.2-1.4,0.2-2.3l77.6-150.7c0.6-1.3,2.3-1.7,3.6-1.1l10,4.7c0.4,0.2,1,0.7,1.3,1.3s0.2,1.4-0.2,2.3
			l-68.9,135.3c-2.8,5.6-7.9,9.5-13.9,10.9l-6,1.4C326.8,495.1,325.6,494.1,325.3,493.2 M315.8,497.1c2.3,5.7,8.5,9,14.5,7.6l6-1.4
			c9.1-1.9,16.6-7.9,20.9-16.3l68.9-135.3c1.6-3.2,1.8-7.3,0.3-10.8c-1.2-2.8-3.6-5.1-6.4-6.6l-10-4.7c-6.3-2.9-13.7-0.2-16.7,5.8
			l-77.6,150.7C314.2,489.6,314.4,493.6,315.8,497.1L315.8,497.1z"/>
	</g>
	<g>
		<path class="st2" d="M469.8,292.6c0.6,1.6,1.1,3.6,0.7,5.2c-1.4,14.5-6.3,40.8-24.2,50c-10.3,5.3-22.9,4.3-37.2-3.8
			c-10.9-5.8-17.8-12.9-21-20.7c-9.6-23.3,15.9-46.2,27.3-55c2.4-2.1,5.8-2.8,9.1-1.9c3.2,0.5,5.6,2.8,7.2,5.9
			c0.4,0.9,0.8,1.9,1.2,2.8c2.2,5.3,3.8,12,3.9,19.3c6-4.3,13.9-8.3,23.5-8.2C464.2,286.1,468.1,288.5,469.8,292.6z"/>
		<path d="M392.7,321.4c-8.2-19.8,15.2-40.8,25.7-49.2c2.8-2.2,6.8-1.3,8.5,2c0.4,0.9,0.6,1.6,1,2.5c3.4,8.2,6.3,21.6-1.4,35.9
			c0,0,12.2-21.2,33.4-21.5c2.1-0.1,3.9,1.3,4.6,3.2c0.4,0.9,0.5,2,0.4,2.8c-1.7,17.2-10.3,66-53.9,42.4
			C401.2,334,395.3,327.6,392.7,321.4 M383.3,325.2c3.8,9.1,11.7,16.9,23.1,23.2c16.1,8.8,30.2,10,41.9,3.7
			c19.7-10.3,25.4-38.4,26.7-54c0.4-2.7-0.1-5.5-1-7.7c-2.5-6-8.1-9.9-14.2-9.6c-7.3,0.1-13.6,1.9-18.9,4.9
			c-0.6-4.2-1.7-8.5-3.5-12.9c-0.4-0.9-0.9-2.2-1.3-3.1c-2.1-4.3-6-7.5-10.5-8.5c-4.5-1.1-9.6-0.1-13.5,3
			C386.3,284.3,375.6,306.7,383.3,325.2L383.3,325.2z"/>
	</g>
	<g>
		<path class="st2" d="M453.5,277.2c0.5,1.3,0.6,2.3,0.8,3.7c-0.9,20.2-4.8,55.3-21.8,64.8c-6.8,3.9-14.4,3.4-23.1-1.5
			c-5.8-3.5-10-7.3-12.1-12.3c-8.7-21.1,23.5-45.7,43.5-58.7c2.4-1.3,4.8-1.6,7.2-1.1C450.7,272.9,452.5,274.7,453.5,277.2z"/>
		<g>
			<path d="M402.1,330c-7.5-18.2,27.4-43.3,41.6-52.4c2.1-1.2,4.6-0.4,5.4,1.5c0.3,0.6,0.4,0.9,0.3,1.7
				c-0.9,20.2-5.9,76.7-37.5,58.8C406.4,336.7,403.6,333.4,402.1,330 M392.7,333.9L392.7,333.9c2.5,6,7.1,11,14.2,14.8
				c12.9,7.2,22.2,4.8,28.2,1.6c18.3-10.1,23.4-43.1,24.6-68.9c0.3-2-0.2-4-0.9-5.9c-1.6-3.8-4.5-6.6-8.7-7.8
				c-3.9-1.3-8.3-0.6-11.8,1.6C411.9,285.9,383.1,310.6,392.7,333.9L392.7,333.9z"/>
		</g>
	</g>
	<g>
		<path class="st0" d="M467.9,383.4c1.3,3.1,0.4,6.4-2,8.5L353,493.6c-5.6,5.2-13.5,7.4-21.2,6.5l-6.2-0.8c-2.7-0.4-4.9-2-5.9-4.5
			c-1.3-3.1-0.4-6.4,2-8.5l126.2-113c3.3-2.8,7.8-2.5,10.8,0.3l7.7,7.9C466.8,381.6,467.5,382.5,467.9,383.4L467.9,383.4z"/>
		<path d="M324.2,492.5c-0.4-0.9-0.1-2.1,0.7-2.8l126.2-113c1.1-0.8,2.6-0.7,3.7,0l7.7,7.9c0.1,0.3,0.6,0.5,0.7,0.8
			c0.4,0.9,0.1,2.1-0.7,2.8L349.6,489.8c-4.6,4.1-10.8,5.9-17,5.2l-6.2-0.8C325.5,493.8,324.6,493.5,324.2,492.5 M314.8,496.4
			c1.7,4.1,5.6,7.3,9.8,7.7l6.2,0.8c9,1.4,18.5-1.4,25.1-7.8l112.9-101.6c4.1-3.5,5.3-9.5,3.3-14.2c-0.6-1.6-1.5-2.7-2.8-4l-7.7-7.9
			c-4.7-5.1-12.4-5.2-17.9-0.7l-126.2,113C314.4,485.5,312.7,491.4,314.8,496.4L314.8,496.4z"/>
	</g>
	<g>
		<path class="st2" d="M530.2,351.9c1.2,2.8,1.1,6.2-0.4,9c-6.6,13.4-20.6,35.7-40.5,38.3c-11.5,1.4-22.7-4.3-33.4-16.8
			c-4.3-5.2-7.5-10.1-9.6-15.2c-3.5-8.5-3.6-16.9,0.1-24.7c7.6-16.4,30-25.2,42.5-28.9c5.3-1.4,10.7,1.1,12.8,6.1
			c0.4,0.9,0.5,2,0.7,3.4c0.5,5.7,0.2,13.9-3.2,22.6c7.3-1.9,15.9-2.5,24.8,0.4C526.9,347.3,529.2,349.3,530.2,351.9z"/>
		<path d="M451.2,365.3c-11.5-28,24.6-42.1,39.2-46.7c3-0.9,5.7,0.6,6.8,3.1c0.3,0.6,0.4,0.9,0.3,1.7c0.6,8.6-0.4,24.1-14,35.5
			c0,0,19.1-15.2,39-8c1.3,0.6,2.5,1.6,3,2.8c0.6,1.6,0.5,3.1-0.2,4.9c-7.5,15.6-33.4,58.2-65.5,20.3
			C455.6,374.1,452.9,369.4,451.2,365.3 M441.8,369.1c2.2,5.3,5.6,10.9,10.5,16.6c11.9,13.8,24.4,20.1,38.1,18.5
			c22-2.8,37.2-26.7,44.1-41c2-4.1,2.2-9,0.5-13.1c-1.7-4.1-4.8-7.2-9-8.4c-6.5-2.5-13.3-3-19.3-2.3c1.4-6.5,1.2-12.3,0.9-16.5
			c-0.3-1.7-0.5-3.1-1.2-4.7c-3.1-7.5-11.2-11.2-19.2-9c-13.4,4-37.1,13.4-45.8,31.7C437.7,349.5,437.6,359.1,441.8,369.1
			L441.8,369.1z"/>
	</g>
	<g>
		<path class="st2" d="M520.8,332.6c0.9,2.2,0.7,4.5-0.2,6.7c-7.9,18.3-24.2,50-43.7,52.9c-7.7,1-14.9-2.3-21.2-9.6
			c-2.2-2.8-4-5.3-5.2-8.2c-2.5-6-2.3-11.9,0.6-17.2c8.7-16.4,40.9-25.7,59.2-29.5C515,326.5,519.1,328.5,520.8,332.6z"/>
		<g>
			<path d="M455.6,372.3c-9.7-23.6,38.1-35.9,56.4-39.8c2-0.5,3.6,0.7,4.1,2c0.4,0.9,0.3,1.7,0.1,2.9c-7.9,18.3-33.1,69.5-55.9,41.8
				C457.7,376.6,456.5,374.5,455.6,372.3 M446.1,376.2l9.4-3.9L446.1,376.2L446.1,376.2c1.3,3.1,3.3,6.3,5.7,9.4
				c9.4,11.2,19.1,12.4,25.7,11.5c20.8-3,37.2-31.9,47.7-55.6c1.5-3.5,1.4-7.2,0-10.7c-2.6-6.3-9.1-9.5-15.5-8.3
				c-23.7,5-53.5,14.7-62.9,32.1C443.4,361.5,443.2,368.9,446.1,376.2L446.1,376.2z"/>
		</g>
	</g>
	<g>
		<path class="st0" d="M415.7,407.5c1,2.5,0.5,5.7-1.2,7.8l-96.5,117.3c-4.7,5.6-10.3,5.3-14.4,5.2c-1.1,0.1-2.3-0.2-3.3-0.1l-6.2,0
			c-2.6,0-4.8-1.7-5.8-4.2c-1.4-3.5-0.5-10.1,1.7-12.8L394,398.7c2.7-3.3,7.3-3.7,10.6-1.1l8.7,6.7
			C414.3,405.1,415.1,406.2,415.7,407.5L415.7,407.5z"/>
		<path d="M292.6,531.6c-0.8-1.9-0.1-6.6,0.9-7.7l104.3-121.6c1-1.1,2.4-1.3,3.5-0.4l8.7,6.7c0.4,0.2,0.7,0.8,0.8,1.1
			c0.4,0.9,0.3,1.7-0.4,2.7l-96.3,116.8c-3.9,4.9-7.9,3.2-14.1,3.2l-6.2,0C293.3,532.5,292.8,532.3,292.6,531.6 M283.1,535.5
			c1.8,4.4,5.9,7.1,10.6,7l6.2,0c1.1-0.1,2.1-0.1,3,0.2c4.5,0.3,12.4,0.8,18.8-7l96.5-117.3c2.9-3.8,3.8-8.6,2-13
			c-0.9-2.2-2.3-3.8-4-5.3l-8.7-6.7c-5.3-4-13.2-3.4-17.5,2.1L285.9,517.1l0,0l0,0C282.2,521.6,280.9,530.2,283.1,535.5L283.1,535.5
			z"/>
	</g>
	<g>
		<path class="st2" d="M472.7,367.5c1,2.5,1,5.1,0.2,7.6c-4.5,14-15,38.5-34.1,43.8c-11.2,3.1-23.1-0.8-35.6-11.4
			c-6.9-6-11.6-12.1-14.2-18.4c-8-19.5,5.5-39.4,36.8-54.5c2.8-1.2,5.7-1.3,8.4-0.1c2.7,1.1,5,3.1,6,5.6c0.3,0.6,0.4,0.9,0.6,1.6
			c1.1,5.4,2.3,13.7,0.2,22.7c6.8-3.2,15.3-4.8,24.5-3.1C468.7,362.1,471.4,364.3,472.7,367.5z"/>
		<path d="M393.5,386.8c-9.8-23.9,20.9-41.3,34-47.8c3-1.6,6.2,0,7.4,2.8c0.1,0.3,0.3,0.6,0.4,0.9c2,8.4,3.3,24-8.5,37.3
			c0,0,16.5-17.8,37.3-13.9c1.6,0.4,3.2,1.6,3.9,3.2c0.5,1.3,0.7,2.6,0.2,4c-5.3,16.5-24.2,62.5-61.6,29.8
			C399.9,397.8,395.7,392.1,393.5,386.8 M384.1,390.7c2.8,6.9,8.3,13.9,15.7,20.4c13.8,12,27.3,16.3,40.2,12.9
			c21.5-5.9,32.8-31.9,37.6-47.1c1-3.7,1-7.4-0.6-11.2c-1.9-4.7-6-8.2-11.1-9c-6.9-1.6-13.6-1-19.2,0.6c0.3-6.4-0.6-12.2-1.7-16.6
			c-0.3-0.6-0.3-1.7-0.6-2.3c-1.7-4.1-4.8-7.2-8.7-8.6c-4-1.7-8.6-1.2-12.7,0.4C389.4,346.3,374.9,368.4,384.1,390.7L384.1,390.7z"
			/>
	</g>
	<g>
		<path class="st2" d="M460.5,349.3c0.8,1.9,0.8,3.7,0.5,5.7c-5.2,19.4-16.4,53.1-35.1,58.5c-7.5,2.3-15.1,0-22.5-6.5
			c-3.6-3.3-6.4-6.6-7.9-10.3c-2.1-5-2.1-10.5,0.2-15.5c7.3-17,36.8-30.2,53.4-36.3C453.8,342.9,458.8,345.2,460.5,349.3z"/>
		<g>
			<path d="M400.1,394.7c-8.5-20.7,34.3-39.1,50.7-45.5c1.9-0.8,3.8,0.3,4.6,2.2c0.3,0.6,0.3,1.7,0.3,2.5
				c-5.2,19.4-22.3,73.5-49.4,49.7C403.2,400.5,401.3,397.6,400.1,394.7 M390.7,398.6L390.7,398.6c1.8,4.4,4.9,8.3,9,12.1
				c11,9.8,20.8,9.4,27.3,7.5c19.9-6,32.1-37.1,38.7-62.2c0.7-2.8,0.4-6.1-0.7-8.9c-2.8-6.9-10.5-10.4-17.4-7.5
				c-21.6,8.2-48.8,21.6-56.3,39C388.3,385.7,388.1,392.3,390.7,398.6L390.7,398.6z"/>
		</g>
	</g>
	<path class="st3" d="M289.2,544.1c8.9-0.7,99.1-14.7,207.7-89.2c4.8-3.5,0.5-11.2-5.3-10.3c-13.7,1.6-45.8-1.4-62.9-7.2
		c-5.1-1.6-10.5-0.5-14.5,3c-16.3,14-48.8,44.7-89.6,74.4c-2.9,1.9-35.9,26.2-34.9,23.2c6.5-18.1,45.2-91,77.6-139.2
		c2.6-3.6,2.6-8,0.6-12c-5.1-9.7-21.8-35.1-20.2-58.9c0.3-4.5-5.5-8-8.4-4.3c-24.3,32.1-51.2,108.6-56.3,215.8
		C283.2,540.3,287.7,543.9,289.2,544.1z"/>
	<path class="st4" d="M289.2,544.1c8.9-0.7,99.1-14.7,207.7-89.2c4.8-3.5,0.5-11.2-5.3-10.3c-13.7,1.6-45.8-1.4-62.9-7.2
		c-5.1-1.6-10.5-0.5-14.5,3c-16.3,14-48.8,44.7-89.6,74.4c-2.9,1.9-35.9,26.2-34.9,23.2c6.5-18.1,45.2-91,77.6-139.2
		c2.6-3.6,2.6-8,0.6-12c-5.1-9.7-21.8-35.1-20.2-58.9c0.3-4.5-5.5-8-8.4-4.3c-24.3,32.1-51.2,108.6-56.3,215.8
		C283.2,540.3,287.7,543.9,289.2,544.1z"/>
</g>
</svg>
