<?xml version="1.0" encoding="utf-8"?>
<!-- Generator: Adobe Illustrator 27.7.0, SVG Export Plug-In . SVG Version: 6.00 Build 0)  -->
<svg version="1.1" id="레이어_1" xmlns="http://www.w3.org/2000/svg" xmlns:xlink="http://www.w3.org/1999/xlink" x="0px"
	 y="0px" viewBox="0 0 800 800" style="enable-background:new 0 0 800 800;" xml:space="preserve">
<style type="text/css">
	.st0{fill:#435E1D;}
	.st1{fill:#FFC973;}
</style>
<g id="꽃2">
	<g>
		<g>
			<path class="st0" d="M411.1,403.7c1,2.5,0.8,5.5-0.9,7.7l-93.2,120c-4.9,6-11.8,9.6-19.8,10l-6.1,0.3c-3.2,0.2-6.3-1.8-7.4-4.7
				c-1-2.5-0.8-5.5,0.9-7.7l104.6-133.5c2.7-3.3,7.2-4,10.5-1.4l8.8,6.3C409.6,401,410.5,402.1,411.1,403.7z"/>
			<path d="M288.2,534.4c-0.4-0.9-0.3-1.7,0.4-2.7l104.6-133.5c1-1.1,2.4-1.3,3.5-0.4l8.8,6.3c0.4,0.2,0.7,0.8,0.8,1.1
				c0.4,0.9,0.3,1.7-0.4,2.7l-93.2,120c-3.9,4.9-9.6,8-15.8,8l-6.1,0.3C289.6,536,288.6,535.3,288.2,534.4 M278.7,538.3
				c2.1,5,7,8.1,12.1,7.9l6.1-0.3c9.2-0.1,17.9-4.8,23.4-11.8l93.2-120c2.9-3.8,3.5-8.4,1.7-12.8c-0.9-2.2-2.4-4.1-4.5-5.5l-8.8-6.3
				c-5.7-3.9-13.3-3-17.7,2.5L279.7,525.4C277.6,529.2,277.1,534.2,278.7,538.3L278.7,538.3z"/>
		</g>
		<g>
			<path class="st1" d="M467.2,362.2c0.9,2.2,0.9,4.8,0.4,7.2c-4.1,14.2-14.1,38.9-33.1,44.5c-11.1,3.5-23.2,0-36-10.6
				c-7.3-6.2-12.5-12.5-15.1-18.8c-7.9-19.2,5-38.8,35.7-54.4c2.7-1.5,5.9-1.7,8.6-0.6c2.7,1.1,5,3.1,6.1,5.9
				c0.1,0.3,0.4,0.9,0.5,1.3c1.4,5.3,2.7,13.6,0.9,22.8c6.8-3.2,15-5.5,24.5-3.8C463,356.6,465.8,358.7,467.2,362.2z"/>
			<path d="M388.4,382.5c-9.6-23.3,20.1-41.4,33.2-47.9c3-1.6,6.6-0.1,7.7,2.7c0.1,0.3,0.1,0.3,0.3,0.6c2.3,8.2,3.9,23.8-7.3,37.6
				c0,0,16-18.3,36.9-14.8c2,0.3,3.2,1.6,3.9,3.2c0.5,1.3,0.7,2.6,0.2,4c-4.9,16.7-22.6,63-60.8,31.7
				C394.8,393.5,390.6,387.8,388.4,382.5 M379,386.4c3,7.2,8.4,14.2,16.6,20.7c13.9,11.5,27.7,15.4,40.8,11.5
				c21.2-6.5,32-33,36.4-48.1c1.2-3.4,0.7-7.3-0.7-10.7c-2.1-5-6.4-8.4-11.5-9.2c-7.1-1.1-13.5-0.7-19.4,1c0.2-6.7-0.6-12.2-2-16.5
				c-0.3-0.6-0.5-1.3-0.8-1.9c-1.7-4.1-4.8-7.2-9.1-8.7c-4-1.7-8.6-1.2-12.6,0.8C383.6,342.2,370,364.4,379,386.4L379,386.4z"/>
		</g>
		<g>
			<path class="st1" d="M454.3,344.3c0.6,1.6,0.8,3.7,0.4,5.4c-4.5,19.5-15.2,53.3-33.6,59.4c-7.5,2.3-15,0.3-22.6-5.8
				c-3.9-3.2-6.8-6.7-8.4-10.5c-2.1-5-2-10.2,0.2-15.5c7-16.9,35.8-30.9,52.6-37.4C447.5,337.6,452.5,339.9,454.3,344.3z"/>
			<path d="M395.2,390.8c-8.4-20.4,33.6-39.9,50-46.3c1.9-0.8,4.1,0.1,4.9,2c0.3,0.6,0.2,1.4,0.1,2.1c-4.5,19.5-20.2,74.1-47.8,50.9
				C398.6,396.3,396.3,393.6,395.2,390.8 M385.7,394.6L385.7,394.6c1.8,4.4,5.1,8.9,9.6,12.6c11.2,9.4,21,9,27.4,6.7
				c19.7-6.6,31-38.1,36.9-63c0.7-2.8,0.6-5.7-0.6-8.6c-2.8-6.9-10.8-10.2-18.2-7.6c-21.1,8.7-47.7,22.6-55.1,40.3
				C383.3,381.7,383.1,388.4,385.7,394.6L385.7,394.6z"/>
		</g>
	</g>
	<g>
		<g>
			<g>
				<path class="st0" d="M380.1,380.1c0.8,1.9,0.6,4.2-0.1,5.9l-61.5,138.9c-3,7.1-9.3,12.3-16.5,14.5l-5.9,1.7
					c-3.6,1.1-7.7-0.9-9.3-4.6c-0.8-1.9-0.6-4.2,0.1-5.9l69.4-154.6c1.8-3.7,6.2-5.5,9.7-4l10.1,3.9
					C377.9,376.5,379.3,378.2,380.1,380.1z"/>
				<path d="M291.2,534.6c-0.3-0.6-0.2-1.4,0-1.8l69.4-154.6c0.6-1.3,2.1-2,3.5-1.4l10.1,3.9c0.8,0.1,1,0.7,1.3,1.3s0.2,1.4,0.1,2.1
					L314,523c-2.4,5.8-7.3,10-13.2,11.7l-5.9,1.7C293,536.4,291.7,535.9,291.2,534.6 M281.8,538.5c2.5,6,8.9,9.2,15.2,7.4l5.9-1.7
					c8.9-2.6,16.2-8.9,20-17.4l61.5-138.9c1.3-3.1,1.6-6.9,0.3-10c-1.3-3.1-3.8-5.8-7-7.1l-10.1-3.9c-6.5-2.5-13.4,0.4-16.3,6.7
					L282,528.5C280.8,531.6,280.5,535.4,281.8,538.5L281.8,538.5z"/>
			</g>
			<g>
				<path class="st1" d="M425.1,327c0.6,1.6,0.9,3,0.9,4.8c-0.6,14.6-4.4,41.1-21.1,51.3c-10,6-22.4,5.5-37.4-1.5
					c-11.5-5.6-19.2-12.7-22.7-21.2c-8.8-21.4,11.7-43.8,25.1-55.2c2.4-2.1,5.7-3.1,8.9-2.6c3.2,0.5,5.8,2.4,7.4,5.4
					c1.1,1.8,1.9,3.6,2.6,5.5c1.8,4.4,3.4,10,3.8,16.4c5.7-4.9,13.6-8.9,22.9-9.4C419.4,320.1,423.4,322.9,425.1,327z"/>
				<path d="M349.1,358.3c-7.9-19.2,13.5-40.5,23.4-49.3c2.8-2.2,6.7-1.6,8.3,1.4c1,1.4,1.6,3,2.4,4.9c3.4,8.2,5.7,20.1-0.6,33.3
					c0,0,11.2-21.9,32.3-23.2c2.5-0.3,4.2,1.2,5.1,3.4c0.3,0.6,0.3,1.7,0.3,2.5c-0.6,17.2-6.7,66.7-51.6,45.1
					C358,371.1,351.8,364.9,349.1,358.3 M339.6,362.2c3.9,9.4,12.4,17.7,25.2,23.8c16.5,7.9,30.6,8.3,42.1,1.4
					c19.1-11.6,23-39.6,23.9-55.4c0.2-2.3-0.4-4.6-1.3-6.8c-2.6-6.3-8.6-10.1-15.3-9.5c-7.2,0.4-13.3,2.5-18.6,5.8
					c-0.8-3.7-1.8-7-2.9-9.8c-0.8-1.9-1.7-4.1-2.8-5.8c-2.4-4.1-6.2-7-11-8c-4.8-1-9.3,0.5-13.2,3.6
					C352,313.7,329.7,338,339.6,362.2L339.6,362.2z"/>
			</g>
			<g>
				<path class="st1" d="M408.1,312.3c0.4,0.9,0.6,2.3,0.7,3.4c0.2,20.1-1.8,55.5-18.4,66c-6.7,4.2-14.5,4.1-23.3-0.3
					c-6.5-3.2-10.7-7.3-12.9-12.7c-8.4-20.4,21.8-46.1,40.7-60.1c2.3-1.7,5-2.1,7.6-1.3C404.9,308.1,407,309.8,408.1,312.3z"/>
				<path d="M358.8,366.8c-7.4-17.9,25.6-44,38.8-53.8c1.9-1.5,4.6-0.4,5.4,1.5c0.1,0.3,0.4,0.9,0.2,1.4
					c0.2,20.1-1.8,76.8-34.2,60.7C363.9,373.8,360.4,370.5,358.8,366.8 M349.4,370.6L349.4,370.6c2.6,6.3,7.7,11.5,15.4,15
					c12.9,6.4,22.4,3.6,28.3,0.1c17.7-11.3,21.1-44.3,20.7-70.3c0-1.8-0.4-3.5-1-5.1c-1.7-4.1-5-6.8-8.9-8.1
					c-4.2-1.2-8.5-0.2-11.9,2.3C367.4,322.4,340.2,348.3,349.4,370.6L349.4,370.6z"/>
			</g>
		</g>
		<g>
			<g>
				<path class="st0" d="M439.9,437c1.3,3.1,0.3,6.9-2.5,9.1l-121.9,90.6c-6.1,4.7-14,6.1-21.7,4.5l-6.1-1.5c-1.6-0.4-3.2-1.6-4-3.5
					c-2.2-5.3,4.9-11.2,7.2-12.9l130.4-98.5c3.4-2.5,8.1-1.8,10.6,1.5l6.8,8.6C439.4,435.8,439.7,436.4,439.9,437L439.9,437z"/>
				<path d="M288.6,534.6c-0.5-1.3,3.9-5.7,5.4-6.6l130.4-98.5c1.1-0.8,2.6-0.7,3.5,0.4l6.8,8.6c0.1,0.3,0.1,0.3,0.3,0.6
					c0.4,0.9,0.1,2.1-1,3l-121.9,90.6c-5.1,3.6-11.2,5-17.3,3.5L288.6,534.6C289.1,534.8,288.6,534.6,288.6,534.6 M279.2,538.5
					c1.3,3.1,4.2,5.6,7.4,6.5l6.1,1.5c9,2.2,18.4,0.1,25.8-5.1l121.9-90.6c4.8-3.5,6.3-9.6,4.1-14.9c-0.5-1.3-1.2-2.1-2.1-3.2
					l-6.8-8.6c-4.5-5.5-12.2-6.4-17.5-2.3l-130.4,98.5C284.3,522.4,275.7,530,279.2,538.5L279.2,538.5z"/>
			</g>
			<g>
				<path class="st1" d="M505.1,411.3c1.3,3.1,1,6.9-0.7,9.9c-7.8,12.4-24,33.8-43.6,34.1c-11.6,0.4-22.4-6.2-31.6-19.7
					c-2.8-4-5.2-8.2-6.7-11.9c-4.1-10.1-3.8-19,0.3-27c8.7-16.4,32.3-23.2,45.5-26.1c5.1-1,10.2,1.7,12.1,6.1
					c0.5,1.3,0.7,2.6,0.6,4.2c0.1,5.5-0.9,14-5.1,22.3c7.6-1.3,16.1-1.1,24.8,3C502.2,407,504.1,409.1,505.1,411.3z"/>
				<path d="M426.6,421.6c-13.1-31.7,26.5-42.9,42.4-46.1c2.8-0.4,5.1,0.8,6.2,3.3c0.3,0.6,0.5,1.3,0.5,2
					c-0.2,8.5-2.7,23.9-17.1,34.3c0,0,20.5-13.6,39.3-4.4c1.3,0.6,2,1.4,2.6,2.6c0.6,1.6,0.4,3.5-0.4,5.3c-9,14.7-38.5,54.8-67,14
					C429.9,428.7,428,425,426.6,421.6 M417.2,425.4c1.7,4.1,4.3,8.5,7.3,13.2c10.5,14.8,22.8,22.2,35.9,22
					c22.1-0.7,39.7-23.3,47.8-36.6c2.6-4.4,3.3-9.8,1.4-14.5c-1.4-3.5-4.1-6.4-7.7-7.9c-6.5-3.2-12.8-4.3-19-4.3
					c1.8-6.3,2.4-12,2.4-16.4c-0.1-2.1-0.3-4.3-1.1-6.2c-2.8-6.9-10.3-10.8-17.8-9.2c-14.2,2.9-39.5,10.4-49.2,28.7
					C414.3,400.5,411.3,411.3,417.2,425.4L417.2,425.4z"/>
			</g>
			<g>
				<path class="st1" d="M497.5,391.3c1,2.5,0.7,5.2-0.6,7.6c-9.7,17.6-28.6,47.4-48.4,48.6c-7.9,0.3-14.7-3.5-20.2-11.5
					c-1.5-1.9-2.4-4.1-3.3-6.3c-2.7-6.6-2.4-13,0.9-18.4c9.4-16.4,43.3-22.6,62.2-24.9C492.3,385.7,496,387.5,497.5,391.3z"/>
				<path d="M429.7,427.3c-10.6-25.8,40.3-34.2,59-36.1c1.7-0.3,3.3,0.9,3.8,2.1c0.4,0.9,0.5,2-0.2,3c-9.7,17.6-39.3,66.2-59.7,36.3
					C431.5,430.9,430.4,429.2,429.7,427.3 M420.2,431.2L420.2,431.2c1,2.5,2.4,4.9,4,7.2c8.3,12,18,14.3,24.4,13.8
					c20.9-0.9,40.2-28.3,52.5-51c2.1-3.8,2.3-7.9,0.6-12c-2.3-5.7-8.2-9.1-14.5-8.4c-24.6,2.8-55.9,9.8-66,27.2
					C417.3,415.1,417,423.3,420.2,431.2L420.2,431.2z"/>
			</g>
		</g>
		<g>
			<g>
				<path class="st0" d="M422.8,341.9c0.9,2.2,0.7,4.5-0.3,6.4l-68.9,135.3c-3.4,6.9-9.9,11.8-17.3,13.4l-6,1.4
					c-3.7,0.8-7.4-1-8.8-4.5c-0.9-2.2-0.7-4.5,0.3-6.4l77.6-150.7c1.8-3.7,6.3-5.2,10-3.4l10,4.7
					C420.8,338.7,422.2,340.3,422.8,341.9z"/>
				<path d="M326.2,491.9c-0.3-0.6-0.2-1.4,0.2-2.3L404,339c0.6-1.3,2.3-1.7,3.6-1.1l10,4.7c0.4,0.2,1,0.7,1.3,1.3s0.2,1.4-0.2,2.3
					l-68.9,135.3c-2.8,5.6-7.9,9.5-13.9,10.9l-6,1.4C327.7,493.9,326.6,492.9,326.2,491.9 M316.7,495.8c2.3,5.7,8.5,9,14.5,7.6
					l6-1.4c9.1-1.9,16.6-7.9,20.9-16.3l68.9-135.3c1.6-3.2,1.8-7.3,0.3-10.8c-1.2-2.8-3.6-5.1-6.4-6.6l-10-4.7
					c-6.3-2.9-13.7-0.2-16.7,5.8l-77.6,150.7C315.2,488.4,315.3,492.4,316.7,495.8L316.7,495.8z"/>
			</g>
			<g>
				<path class="st1" d="M470.7,291.3c0.6,1.6,1.1,3.6,0.7,5.2c-1.4,14.5-6.3,40.8-24.2,50c-10.3,5.3-22.9,4.3-37.2-3.8
					c-10.9-5.8-17.8-12.9-21-20.7c-9.6-23.3,15.9-46.2,27.3-55c2.4-2.1,5.8-2.8,9.1-1.9c3.2,0.5,5.6,2.8,7.2,5.9
					c0.4,0.9,0.8,1.9,1.2,2.8c2.2,5.3,3.8,12,3.9,19.3c6-4.3,13.9-8.3,23.5-8.2C465.1,284.8,469,287.2,470.7,291.3z"/>
				<path d="M393.6,320.1c-8.2-19.8,15.2-40.8,25.7-49.2c2.8-2.2,6.8-1.3,8.5,2c0.4,0.9,0.6,1.6,1,2.5c3.4,8.2,6.3,21.6-1.4,35.9
					c0,0,12.2-21.2,33.4-21.5c2.1-0.1,3.9,1.3,4.6,3.2c0.4,0.9,0.5,2,0.4,2.8c-1.7,17.2-10.3,66-53.9,42.4
					C402.2,332.8,396.2,326.4,393.6,320.1 M384.2,324c3.8,9.1,11.7,16.9,23.1,23.2c16.1,8.8,30.2,10,41.9,3.7
					c19.7-10.3,25.4-38.4,26.7-54c0.4-2.7-0.1-5.5-1-7.7c-2.5-6-8.1-9.9-14.2-9.6c-7.3,0.1-13.6,1.9-18.9,4.9
					c-0.6-4.2-1.7-8.5-3.5-12.9c-0.4-0.9-0.9-2.2-1.3-3.1c-2.1-4.3-6-7.5-10.5-8.5c-4.5-1.1-9.6-0.1-13.5,3
					C387.2,283,376.6,305.4,384.2,324L384.2,324z"/>
			</g>
			<g>
				<path class="st1" d="M454.5,275.9c0.5,1.3,0.6,2.3,0.8,3.7c-0.9,20.2-4.8,55.3-21.8,64.8c-6.8,3.9-14.4,3.4-23.1-1.5
					c-5.8-3.5-10-7.3-12.1-12.3c-8.5-20.7,23.5-45.7,43.5-58.7c2.4-1.3,4.8-1.6,7.2-1.1C451.6,271.6,453.4,273.4,454.5,275.9z"/>
				<path d="M403.1,328.7c-7.5-18.2,27.4-43.3,41.6-52.4c2.1-1.2,4.6-0.4,5.4,1.5c0.3,0.6,0.4,0.9,0.3,1.7
					c-0.9,20.2-5.9,76.7-37.5,58.8C407.3,335.4,404.5,332.2,403.1,328.7 M393.6,332.6L393.6,332.6c2.5,6,7.1,11,14.2,14.8
					c12.9,7.2,22.2,4.8,28.2,1.6c18.3-10.1,23.4-43.1,24.6-68.9c0.3-2-0.2-4-0.9-5.9c-1.6-3.8-4.5-6.6-8.7-7.8
					c-3.9-1.3-8.3-0.6-11.8,1.6C412.8,284.6,384.1,309.3,393.6,332.6L393.6,332.6z"/>
			</g>
		</g>
		<g>
			<g>
				<path class="st0" d="M468.8,382.1c1.3,3.1,0.4,6.4-2,8.5L353.9,492.3c-5.6,5.2-13.5,7.4-21.2,6.5l-6.2-0.8
					c-2.7-0.4-4.9-2-5.9-4.5c-1.3-3.1-0.4-6.4,2-8.5l126.2-113c3.3-2.8,7.8-2.5,10.8,0.3l7.7,7.9
					C467.7,380.4,468.4,381.2,468.8,382.1L468.8,382.1z"/>
				<path d="M325.2,491.2c-0.4-0.9-0.1-2.1,0.7-2.8l126.2-113c1.1-0.8,2.6-0.7,3.7,0l7.7,7.9c0.1,0.3,0.6,0.5,0.7,0.8
					c0.4,0.9,0.1,2.1-0.7,2.8L350.5,488.5c-4.6,4.1-10.8,5.9-17,5.2l-6.2-0.8C326.4,492.6,325.5,492.2,325.2,491.2 M315.7,495.1
					c1.7,4.1,5.6,7.3,9.8,7.7l6.2,0.8c9,1.4,18.5-1.4,25.1-7.8l112.9-101.6c4.1-3.5,5.3-9.5,3.3-14.2c-0.6-1.6-1.5-2.7-2.8-4
					l-7.7-7.9c-4.7-5.1-12.4-5.2-17.9-0.7l-126.2,113C315.3,484.3,313.7,490.1,315.7,495.1L315.7,495.1z"/>
			</g>
			<g>
				<path class="st1" d="M531.1,350.6c1.2,2.8,1.1,6.2-0.4,9c-6.6,13.4-20.6,35.7-40.5,38.3c-11.5,1.4-22.7-4.3-33.4-16.8
					c-4.3-5.2-7.5-10.1-9.6-15.2c-3.5-8.5-3.6-16.9,0.1-24.7c7.6-16.4,30-25.2,42.5-28.9c5.3-1.4,10.7,1.1,12.8,6.1
					c0.4,0.9,0.5,2,0.7,3.4c0.5,5.7,0.2,13.9-3.2,22.6c7.3-1.9,15.9-2.5,24.8,0.4C527.8,346.1,530.1,348.1,531.1,350.6z"/>
				<path d="M452.1,364c-11.5-28,24.6-42.1,39.2-46.7c3-0.9,5.7,0.6,6.8,3.1c0.3,0.6,0.4,0.9,0.3,1.7c0.6,8.6-0.4,24.1-14,35.5
					c0,0,19.1-15.2,39-8c1.3,0.6,2.5,1.6,3,2.8c0.6,1.6,0.5,3.1-0.2,4.9c-7.5,15.6-33.4,58.2-65.5,20.3
					C456.5,372.9,453.8,368.1,452.1,364 M442.7,367.9c2.2,5.3,5.6,10.9,10.5,16.6c11.9,13.8,24.4,20.1,38.1,18.5
					c22-2.8,37.2-26.7,44.1-41c2-4.1,2.2-9,0.5-13.1s-4.8-7.2-9-8.4c-6.5-2.5-13.3-3-19.3-2.3c1.4-6.5,1.2-12.3,0.9-16.5
					c-0.3-1.7-0.5-3.1-1.2-4.7c-3.1-7.5-11.2-11.2-19.2-9c-13.4,4-37.1,13.4-45.8,31.7C438.7,348.2,438.6,357.8,442.7,367.9
					L442.7,367.9z"/>
			</g>
			<g>
				<path class="st1" d="M521.7,331.3c0.9,2.2,0.7,4.5-0.2,6.7c-7.9,18.3-24.2,50-43.7,52.9c-7.7,1-14.9-2.3-21.2-9.6
					c-2.2-2.8-4-5.3-5.2-8.2c-2.5-6-2.3-11.9,0.6-17.2c8.7-16.4,40.9-25.7,59.2-29.5C515.9,325.2,520.1,327.2,521.7,331.3z"/>
				<path d="M456.5,371c-9.7-23.6,38.1-35.9,56.4-39.8c2-0.5,3.6,0.7,4.1,2c0.4,0.9,0.3,1.7,0.1,2.9c-7.9,18.3-33.1,69.5-55.9,41.8
					C458.6,375.3,457.4,373.2,456.5,371 M447.1,374.9l9.4-3.9L447.1,374.9L447.1,374.9c1.3,3.1,3.3,6.3,5.7,9.4
					c9.4,11.2,19.1,12.4,25.7,11.5c20.8-3,37.2-31.9,47.7-55.6c1.5-3.5,1.4-7.2,0-10.7c-2.6-6.3-9.1-9.5-15.5-8.3
					c-23.7,5-53.5,14.7-62.9,32.1C444.3,360.2,444.1,367.7,447.1,374.9L447.1,374.9z"/>
			</g>
		</g>
		<g>
			<g>
				<path class="st0" d="M416.6,406.2c1,2.5,0.5,5.7-1.2,7.8l-96.5,117.3c-4.9,6-12.3,9.5-19.9,9.7l-6.2,0c-3.2,0.2-6-2-7.1-4.8
					c-1-2.5-0.5-5.7,1.2-7.8l107.9-130.8c2.7-3.3,7.3-3.7,10.6-1.1l8.7,6.7C415.2,403.8,416.1,404.9,416.6,406.2L416.6,406.2z"/>
				<path d="M290.3,534.3c-0.4-0.9-0.3-1.7,0.4-2.7l108-130.5c1-1.1,2.4-1.3,3.5-0.4l8.7,6.7c0.4,0.2,0.7,0.8,0.8,1.1
					c0.4,0.9,0.3,1.7-0.4,2.7L315,528.1c-3.9,4.9-9.7,7.7-16,7.7l-6.2,0C291.7,535.9,290.7,535.2,290.3,534.3 M280.9,538.1
					c1.9,4.7,6.6,7.9,12.1,7.9l6.2,0c9.2-0.1,17.8-4,23.7-11.2l96.5-117.3c2.9-3.8,3.8-8.6,2-13c-0.9-2.2-2.3-3.8-4-5.3l-8.7-6.7
					c-5.5-4.4-13.2-3.4-17.5,2.1l-108,130.5C279.9,528.6,279.1,533.7,280.9,538.1L280.9,538.1z"/>
			</g>
			<g>
				<path class="st1" d="M473.6,366.2c1,2.5,1,5.1,0.2,7.6c-4.5,14-15,38.5-34.1,43.8c-11.2,3.1-23.1-0.8-35.6-11.4
					c-6.9-6-11.6-12.1-14.2-18.4c-8-19.5,5.5-39.4,36.8-54.5c2.8-1.2,5.7-1.3,8.4-0.1c2.7,1.1,5,3.1,6,5.6c0.3,0.6,0.4,0.9,0.6,1.6
					c1.1,5.4,2.3,13.7,0.2,22.7c6.8-3.2,15.3-4.8,24.5-3.1C469.6,360.9,472.3,363,473.6,366.2z"/>
				<path d="M394.5,385.5c-9.8-23.9,20.9-41.3,34-47.8c3-1.6,6.2,0,7.4,2.8c0.1,0.3,0.3,0.6,0.4,0.9c2,8.4,3.3,24-8.5,37.3
					c0,0,16.5-17.8,37.3-13.9c1.6,0.4,3.2,1.6,3.9,3.2c0.5,1.3,0.7,2.6,0.2,4c-5.3,16.5-24.2,62.5-61.6,29.8
					C400.8,396.5,396.7,390.9,394.5,385.5 M385,389.4c2.8,6.9,8.3,13.9,15.7,20.4c13.8,12,27.3,16.3,40.2,12.9
					c21.5-5.9,32.8-31.9,37.6-47.1c1-3.7,1-7.4-0.6-11.2c-1.9-4.7-6-8.2-11.1-9c-6.9-1.6-13.6-1-19.2,0.6c0.3-6.4-0.6-12.2-1.7-16.6
					c-0.3-0.6-0.3-1.7-0.6-2.3c-1.7-4.1-4.8-7.2-8.7-8.6c-4-1.7-8.6-1.2-12.7,0.4C390.3,345,375.9,367.1,385,389.4L385,389.4z"/>
			</g>
			<g>
				<path class="st1" d="M461.4,348.1c0.8,1.9,0.8,3.7,0.5,5.7c-5.2,19.4-16.4,53.1-35.1,58.5c-7.5,2.3-15.1,0-22.5-6.5
					c-3.6-3.3-6.4-6.6-7.9-10.3c-2.1-5-2.1-10.5,0.2-15.5c7.3-17,36.8-30.2,53.4-36.3C454.7,341.6,459.7,344,461.4,348.1z"/>
				<path d="M401.1,393.5c-8.5-20.7,34.3-39.1,50.7-45.5c1.9-0.8,3.8,0.3,4.6,2.2c0.3,0.6,0.2,1.4,0.3,2.5
					c-5.2,19.4-22.3,73.5-49.4,49.7C404.1,399.2,402.2,396.3,401.1,393.5 M391.6,397.4L391.6,397.4c1.8,4.4,4.9,8.3,9,12.1
					c11,9.8,20.8,9.4,27.3,7.5c19.9-6,32.1-37.1,38.7-62.2c0.7-2.8,0.4-6.1-0.7-8.9c-2.8-6.9-10.5-10.4-17.4-7.5
					c-21.6,8.2-48.8,21.6-56.3,39C389.2,384.4,389,391.1,391.6,397.4L391.6,397.4z"/>
			</g>
		</g>
	</g>
</g>
</svg>
