<?xml version="1.0" encoding="utf-8"?>
<!-- Generator: Adobe Illustrator 27.7.0, SVG Export Plug-In . SVG Version: 6.00 Build 0)  -->
<svg version="1.1" id="레이어_1" xmlns="http://www.w3.org/2000/svg" xmlns:xlink="http://www.w3.org/1999/xlink" x="0px"
	 y="0px" viewBox="0 0 1080 1013.3" style="enable-background:new 0 0 1080 1013.3;" xml:space="preserve">
<style type="text/css">
	.st0{fill:#DDDCDB;stroke:#231815;stroke-width:8;stroke-linecap:round;stroke-linejoin:round;stroke-miterlimit:10;}
	.st1{fill:none;stroke:#231815;stroke-width:8;stroke-linecap:round;stroke-linejoin:round;stroke-miterlimit:10;}
</style>
<g id="가방">
	<g id="가방2">
		<path class="st0" d="M407.1,667.5c21.3,22.4,124.7,127.2,225.9,166.2l5.2-18.4c0,0-72.2-15.8-208.8-147.3l-20.6-3.8
			C407,664,405.8,666.2,407.1,667.5z"/>
		<g>
			<path class="st0" d="M629.5,756.2c-13.5,8-17,27.2-7.7,42.8s27.7,21.8,41.2,13.8s17-27.2,7.7-42.8S643,748.2,629.5,756.2z
				 M653.3,796.5c-6.7,4-15.9,0.9-20.5-6.9c-4.6-7.8-2.9-17.3,3.8-21.3s15.9-0.9,20.5,6.9C661.8,783,660.1,792.5,653.3,796.5z"/>
			<path class="st0" d="M725.4,864.4l-47.1,27.9c-7.5,4.4-17,2.8-22.7-3.7l-50.7-58.9c-7.3-8.4-5.1-21.4,4.4-27.1l70.6-41.8
				c9.6-5.7,22-1.3,25.9,9.1l27.3,72.8C736.1,850.9,732.8,860,725.4,864.4z"/>
			<line class="st1" x1="606.5" y1="830.7" x2="705.9" y2="771.9"/>
			<line class="st1" x1="623.1" y1="849" x2="714.5" y2="794.9"/>
			<line class="st1" x1="636.7" y1="864.7" x2="721.4" y2="814.5"/>
			<line class="st1" x1="651.3" y1="881.4" x2="728.8" y2="835.5"/>
			<line class="st1" x1="606.3" y1="805.3" x2="627.6" y2="818.2"/>
			<line class="st1" x1="623.5" y1="795.1" x2="644.9" y2="808"/>
			<line class="st1" x1="640.7" y1="784.9" x2="662.1" y2="797.8"/>
			<line class="st1" x1="657.9" y1="774.8" x2="679.3" y2="787.6"/>
			<line class="st1" x1="688.1" y1="783.7" x2="689.1" y2="808.7"/>
			<line class="st1" x1="670.9" y1="793.9" x2="671.9" y2="818.8"/>
			<line class="st1" x1="653.7" y1="804.1" x2="654.6" y2="829"/>
			<line class="st1" x1="636.4" y1="814.3" x2="637.4" y2="839.2"/>
			<line class="st1" x1="715.3" y1="818.1" x2="716.3" y2="843"/>
			<line class="st1" x1="698.1" y1="828.3" x2="699.1" y2="853.2"/>
			<line class="st1" x1="680.9" y1="838.5" x2="681.9" y2="863.4"/>
			<line class="st1" x1="664.1" y1="848.4" x2="665.1" y2="873.4"/>
			<line class="st1" x1="646.9" y1="858.6" x2="647.6" y2="878.3"/>
			<line class="st1" x1="619.6" y1="824.2" x2="620.4" y2="844.5"/>
			<line class="st1" x1="705.3" y1="773.5" x2="706.4" y2="799.7"/>
			<line class="st1" x1="675.1" y1="764.6" x2="696.5" y2="777.4"/>
			<line class="st1" x1="637.9" y1="840.3" x2="658" y2="852"/>
			<line class="st1" x1="655.2" y1="830" x2="675.3" y2="841.8"/>
			<line class="st1" x1="672.5" y1="819.8" x2="692.6" y2="831.5"/>
			<line class="st1" x1="673.8" y1="868.1" x2="695.4" y2="881.6"/>
			<line class="st1" x1="656.9" y1="878.1" x2="676.7" y2="890.4"/>
			<line class="st1" x1="691" y1="857.9" x2="712.7" y2="871.3"/>
			<line class="st1" x1="709.4" y1="847" x2="730.4" y2="860"/>
			<line class="st1" x1="689.8" y1="809.5" x2="709.9" y2="821.3"/>
		</g>
	</g>
</g>
</svg>
