<?xml version="1.0" encoding="utf-8"?>
<!-- Generator: Adobe Illustrator 27.7.0, SVG Export Plug-In . SVG Version: 6.00 Build 0)  -->
<svg version="1.1" id="레이어_1" xmlns="http://www.w3.org/2000/svg" xmlns:xlink="http://www.w3.org/1999/xlink" x="0px"
	 y="0px" viewBox="0 0 1080 1013.3" style="enable-background:new 0 0 1080 1013.3;" xml:space="preserve">
<style type="text/css">
	.st0{fill:#DDDCDB;stroke:#231815;stroke-width:8;stroke-linecap:round;stroke-linejoin:round;stroke-miterlimit:10;}
	.st1{fill:#FFFFFF;}
	.st2{fill:#DDDCDB;}
</style>
<g id="상의">
	<g id="잠옷_상의">
		<path class="st0" d="M395.7,659.1c1.3-2,6.2-5.3,20.4,0c14.2,5.3,15-3.1,29.9,4c15,7.1,6.5,6.7,6.5,21.8c0,15.1,0.4,13.3-3.6,34.7
			c-4,21.3-1.4,17.8-2.3,28.4c-0.9,10.7-39.5,6.7-45.3,0c-5.8-6.7-13.3,7.6-11.1-2.7c2.2-10.2-5.2-16.4-0.4-26.2
			c4.8-9.8-0.5-13.8,1.3-23.6s-1.3-15.6,3.1-20.9C398.8,669.3,391.9,665.2,395.7,659.1z"/>
		<path class="st0" d="M679.7,659.1c-1.3-2-6.2-5.3-20.4,0c-14.2,5.3-15-3.1-29.9,4c-15,7.1-6.5,6.7-6.5,21.8
			c0,15.1-0.4,13.3,3.6,34.7c4,21.3,1.4,17.8,2.3,28.4c0.9,10.7,39.5,6.7,45.3,0c5.8-6.7,13.3,7.6,11.1-2.7s5.2-16.4,0.4-26.2
			c-4.8-9.8,0.5-13.8-1.3-23.6s1.3-15.6-3.1-20.9C676.6,669.3,683.5,665.2,679.7,659.1z"/>
		<path class="st0" d="M687.4,720c0,0-12.6-10.9-38.4-2.8s-10.2-1.9-36.4,3.8c-26.2,5.7-21.4-8.2-45.3,0c-21.8,7.4-38.9,1-38.9,1
			c-32-9.7-32.7,9.6-50.9-0.2c-18.2-9.8-27.6,10.2-50.7,0c-23.1-10.2-38.5,0-38.5,0s-4,11.2-1.6,28.5c2.4,17.4-6.2,23.3-4.4,47.9
			s-5.3,36.1-1.5,43.6c3.9,7.4,20.1-3,43.3,4.7c23.1,7.7,27.1-6.2,49.4,0c22.3,6.2,17.9-8,56.1,0.9s24.9-10.4,56,0
			c31.1,10.4,31.4-9.8,65.2-3.3c33.8,6.5,27.3-4.4,45,2.1c0,0,6.5-2.7,4.1-16.9s1.2-26.4-3.6-39.4c-4.7-13,0.2-20.9-3.9-32.6
			C685.9,738.4,688.9,731.7,687.4,720z"/>
		<g>
			<path class="st1" d="M422.3,751.2c-0.5-0.4-0.2-1.1-1.1-2.1c-1.1-1.1-2-0.8-3-2.3c-1.2-1.7-2.6-2.4-3.1-1
				c-0.5,1.4-1.5,2.1-1.2,4.2c0.4,2.1-0.9,1.7-0.6,3.7c0.4,2-1.7,2.3-1,5.3c0.7,2.9-1.4,2.5-0.1,5.7c1.3,3.2-0.5,4.7,1.8,5.6
				c2.3,0.9,3.8,3.6,6.1,3.4c2.3-0.2,6.1,0.7,8.3,0.1c2.2-0.6,5-1,7.2-1.9c2.1-0.9,3.9-1,4.3-3c0.4-2,3.2-2,2.6-4.5
				c-0.6-2.5,0.3-3.3-0.6-5.1c-0.9-1.8-1.1-3.6-1.9-5.4c-0.8-1.8-0.3-2.8-0.9-4.8c-0.6-2.1,0.3-3.6-1.1-4.5s-2.1-2.4-3.1-0.6
				c-1,1.8-2.5,1.8-2.4,3.2c0.1,1.4-1,1.5-0.9,2.4c0.1,0.9-1,1.7-1.7,1.6c-0.7-0.1-2,0-4,0.6C423.8,752.3,423.8,752.3,422.3,751.2z"
				/>
			<path class="st2" d="M416.4,753c0,0-0.6-3.6,0.1-3.7c0.7-0.1,2.3,2,2.5,2.6C419.3,752.5,416.4,753,416.4,753z"/>
			<path class="st2" d="M433.9,750.8c0,0,1.2-2.8,2.2-2.8c1.1,0,1,3.5,1,3.5S434.7,751.2,433.9,750.8z"/>
			
				<ellipse transform="matrix(0.9923 -0.1238 0.1238 0.9923 -90.8969 58.0739)" class="st2" cx="421.9" cy="760.5" rx="1" ry="1.7"/>
			
				<ellipse transform="matrix(0.9923 -0.1238 0.1238 0.9923 -90.6541 59.3633)" class="st2" cx="432.4" cy="759.2" rx="1" ry="1.7"/>
			<circle class="st2" cx="428" cy="764.2" r="1.4"/>
			<path class="st2" d="M433.2,766.9c-2.7,0.3-4.1-0.4-4.8-1c-1,1.8-3.9,1.6-5,1.5c-0.2,0-0.3,0-0.3,0l-0.2-1c0.1,0,0.3,0,0.6,0
				c1,0.1,3.6,0.3,4.1-1.2c0.1-0.3,0.3-0.4,0.6-0.5c0.3,0,0.5,0,0.7,0.2c0.4,0.5,1.6,1.3,4.4,0.9l0.1,1
				C433.3,766.9,433.2,766.9,433.2,766.9z"/>
		</g>
		<g>
			<path class="st1" d="M509.3,762c-0.5-0.4-0.2-1.1-1.1-2.1c-1.1-1.1-2-0.8-3-2.3c-1.2-1.7-2.6-2.4-3.1-1c-0.5,1.4-1.5,2.1-1.2,4.2
				s-0.9,1.7-0.6,3.7c0.4,2-1.7,2.3-1,5.3c0.7,2.9-1.4,2.5-0.1,5.7s-0.5,4.7,1.8,5.6s3.8,3.6,6.1,3.4c2.3-0.2,6.1,0.7,8.3,0.1
				c2.2-0.6,5-1,7.2-1.9c2.1-0.9,3.9-1,4.3-3c0.4-2,3.2-2,2.6-4.5s0.3-3.3-0.6-5.1c-0.9-1.8-1.1-3.6-1.9-5.4
				c-0.8-1.8-0.3-2.8-0.9-4.8c-0.6-2.1,0.3-3.6-1.1-4.5c-1.4-0.8-2.1-2.4-3.1-0.6c-1,1.8-2.5,1.8-2.4,3.2c0.1,1.4-1,1.5-0.9,2.4
				c0.1,0.9-1,1.7-1.7,1.6c-0.7-0.1-2,0-4,0.6C510.8,763.1,510.7,763.1,509.3,762z"/>
			<path class="st2" d="M503.4,763.8c0,0-0.6-3.6,0.1-3.7c0.7-0.1,2.3,2,2.5,2.6C506.2,763.3,503.4,763.8,503.4,763.8z"/>
			<path class="st2" d="M520.9,761.6c0,0,1.2-2.8,2.2-2.8s1,3.5,1,3.5S521.7,762,520.9,761.6z"/>
			
				<ellipse transform="matrix(0.9923 -0.1238 0.1238 0.9923 -91.5651 68.9238)" class="st2" cx="508.8" cy="771.3" rx="1" ry="1.7"/>
			<ellipse transform="matrix(0.9923 -0.1238 0.1238 0.9923 -91.3223 70.2132)" class="st2" cx="519.3" cy="770" rx="1" ry="1.7"/>
			<circle class="st2" cx="515" cy="775" r="1.4"/>
			<path class="st2" d="M520.1,777.7c-2.7,0.3-4.1-0.4-4.8-1c-1,1.8-3.9,1.6-5,1.5c-0.2,0-0.3,0-0.3,0l-0.2-1c0.1,0,0.3,0,0.6,0
				c1,0.1,3.6,0.3,4.1-1.2c0.1-0.3,0.3-0.4,0.6-0.5c0.3,0,0.5,0,0.7,0.2c0.4,0.5,1.6,1.3,4.4,0.9l0.1,1
				C520.2,777.7,520.2,777.7,520.1,777.7z"/>
		</g>
		<g>
			<path class="st1" d="M642.7,749.2c-0.5-0.4-0.2-1.1-1.1-2.1c-1.1-1.1-2-0.8-3-2.3c-1.2-1.7-2.6-2.4-3.1-1
				c-0.5,1.4-1.5,2.1-1.2,4.2c0.4,2.1-0.9,1.7-0.6,3.7c0.4,2-1.7,2.3-1,5.3s-1.4,2.5-0.1,5.7c1.3,3.2-0.5,4.7,1.8,5.6
				c2.3,0.9,3.8,3.6,6.1,3.4c2.3-0.2,6.1,0.7,8.3,0.1s5-1,7.2-1.9c2.1-0.9,3.9-1,4.3-3c0.4-2,3.2-2,2.6-4.5
				c-0.6-2.5,0.3-3.3-0.6-5.1s-1.1-3.6-1.9-5.4c-0.8-1.8-0.3-2.8-0.9-4.8s0.3-3.6-1.1-4.5c-1.4-0.8-2.1-2.4-3.1-0.6
				c-1,1.8-2.5,1.8-2.4,3.2c0.1,1.4-1,1.5-0.9,2.4c0.1,0.9-1,1.7-1.7,1.6c-0.7-0.1-2,0-4,0.6C644.2,750.4,644.2,750.3,642.7,749.2z"
				/>
			<path class="st2" d="M636.8,751c0,0-0.6-3.6,0.1-3.7c0.7-0.1,2.3,2,2.5,2.6S636.8,751,636.8,751z"/>
			<path class="st2" d="M654.3,748.9c0,0,1.2-2.8,2.2-2.8c1.1,0,1,3.5,1,3.5S655.1,749.3,654.3,748.9z"/>
			
				<ellipse transform="matrix(0.9923 -0.1238 0.1238 0.9923 -88.9634 85.3407)" class="st2" cx="642.2" cy="758.5" rx="1" ry="1.7"/>
			
				<ellipse transform="matrix(0.9923 -0.1238 0.1238 0.9923 -88.7205 86.6301)" class="st2" cx="652.7" cy="757.2" rx="1" ry="1.7"/>
			<circle class="st2" cx="648.4" cy="762.3" r="1.4"/>
			<path class="st2" d="M653.5,765c-2.7,0.3-4.1-0.4-4.8-1c-1,1.8-3.9,1.6-5,1.5c-0.2,0-0.3,0-0.3,0l-0.2-1c0.1,0,0.3,0,0.6,0
				c1,0.1,3.6,0.3,4.1-1.2c0.1-0.3,0.3-0.4,0.6-0.5c0.3,0,0.5,0,0.7,0.2c0.4,0.5,1.6,1.3,4.4,0.9l0.1,1
				C653.7,765,653.6,765,653.5,765z"/>
		</g>
		<g>
			<path class="st1" d="M459.9,799.4c-0.4-0.5,0-1.2-0.7-2.3c-0.8-1.4-1.7-1.2-2.5-2.9c-0.8-1.9-2-2.9-2.8-1.7
				c-0.8,1.3-1.9,1.7-2,3.8s-1.3,1.4-1.3,3.4c-0.1,2-2.2,1.9-2.1,4.9c0.1,3-1.9,2.2-1.3,5.6s-1.5,4.5,0.6,5.8
				c2.1,1.3,2.9,4.3,5.3,4.6s5.8,2,8.1,1.9c2.2-0.1,5.1,0.1,7.4-0.3c2.3-0.5,4-0.2,4.9-2s3.6-1.2,3.5-3.8c-0.1-2.6,1-3.1,0.5-5.1
				c-0.5-1.9-0.4-3.7-0.7-5.6c-0.4-1.9,0.3-2.8,0.1-4.9s1.1-3.5-0.1-4.6c-1.2-1.1-1.5-2.8-2.9-1.3c-1.4,1.5-2.8,1.2-3.1,2.6
				c-0.2,1.4-1.3,1.2-1.4,2.1c-0.1,0.9-1.4,1.4-2,1.2s-1.9-0.4-4-0.3S461,800.7,459.9,799.4z"/>
			<path class="st2" d="M453.7,799.8c0,0,0.2-3.6,0.9-3.5c0.7,0.1,1.8,2.5,1.9,3.1C456.6,800,453.7,799.8,453.7,799.8z"/>
			<path class="st2" d="M471.3,801.5c0,0,1.7-2.5,2.8-2.3c1,0.3,0.3,3.6,0.3,3.6S472,802.1,471.3,801.5z"/>
			
				<ellipse transform="matrix(9.289795e-02 -0.9957 0.9957 9.289795e-02 -389.9435 1188.6581)" class="st2" cx="457.4" cy="808.3" rx="1.7" ry="1"/>
			
				<ellipse transform="matrix(9.289795e-02 -0.9957 0.9957 9.289795e-02 -381.3678 1200.0365)" class="st2" cx="467.9" cy="809.3" rx="1.7" ry="1"/>
			<circle class="st2" cx="462.6" cy="813.3" r="1.4"/>
			<path class="st2" d="M467,817.1c-2.7-0.3-3.9-1.2-4.5-2c-1.3,1.6-4.1,0.7-5.2,0.4c-0.2,0-0.3-0.1-0.3-0.1l0-1
				c0.1,0,0.3,0,0.6,0.1c0.9,0.3,3.5,1.1,4.3-0.3c0.1-0.2,0.4-0.4,0.7-0.4c0.3,0,0.5,0.2,0.6,0.4c0.3,0.6,1.2,1.6,4.1,1.8l-0.1,1
				C467.1,817.1,467.1,817.1,467,817.1z"/>
		</g>
		<g>
			<path class="st1" d="M640.1,804.2c-0.4-0.5,0-1.2-0.7-2.3c-0.8-1.4-1.7-1.2-2.5-2.9c-0.8-1.9-2-2.9-2.8-1.7
				c-0.8,1.3-1.9,1.7-2,3.8c-0.1,2.1-1.3,1.4-1.3,3.4c-0.1,2-2.2,1.9-2.1,4.9s-1.9,2.2-1.3,5.6s-1.5,4.5,0.6,5.8
				c2.1,1.3,2.9,4.3,5.3,4.6s5.8,2,8.1,1.9c2.2-0.1,5.1,0.1,7.4-0.3s4-0.2,4.9-2c0.8-1.8,3.6-1.2,3.5-3.8c-0.1-2.6,1-3.1,0.5-5.1
				c-0.5-1.9-0.4-3.7-0.7-5.6c-0.4-1.9,0.3-2.8,0.1-4.9c-0.1-2.1,1.1-3.5-0.1-4.6c-1.2-1.1-1.5-2.8-2.9-1.3
				c-1.4,1.5-2.8,1.2-3.1,2.6c-0.2,1.4-1.3,1.2-1.4,2.1c-0.1,0.9-1.4,1.4-2,1.2s-1.9-0.4-4-0.3C641.3,805.6,641.2,805.6,640.1,804.2
				z"/>
			<path class="st2" d="M633.9,804.7c0,0,0.2-3.6,0.9-3.5c0.7,0.1,1.8,2.5,1.9,3.1S633.9,804.7,633.9,804.7z"/>
			<path class="st2" d="M651.5,806.3c0,0,1.7-2.5,2.8-2.3c1,0.3,0.3,3.6,0.3,3.6S652.2,806.9,651.5,806.3z"/>
			
				<ellipse transform="matrix(9.289795e-02 -0.9957 0.9957 9.289795e-02 -231.2648 1372.4532)" class="st2" cx="637.6" cy="813.1" rx="1.7" ry="1"/>
			
				<ellipse transform="matrix(9.289795e-02 -0.9957 0.9957 9.289795e-02 -222.6891 1383.8317)" class="st2" cx="648.1" cy="814.1" rx="1.7" ry="1"/>
			<circle class="st2" cx="642.8" cy="818.1" r="1.4"/>
			<path class="st2" d="M647.2,821.9c-2.7-0.3-3.9-1.2-4.5-2c-1.3,1.6-4.1,0.7-5.2,0.4c-0.2,0-0.3-0.1-0.3-0.1l0-1
				c0.1,0,0.3,0,0.6,0.1c0.9,0.3,3.5,1.1,4.3-0.3c0.1-0.2,0.4-0.4,0.7-0.4c0.3,0,0.5,0.2,0.6,0.4c0.3,0.6,1.2,1.6,4.1,1.8l-0.1,1
				C647.4,821.9,647.3,821.9,647.2,821.9z"/>
		</g>
		<g>
			<path class="st1" d="M577.9,777.9c-0.5-0.5-0.1-1.1-0.9-2.2c-1-1.3-1.8-1-2.7-2.6c-1-1.9-2.3-2.7-2.9-1.4c-0.7,1.3-1.8,1.9-1.7,4
				c0.1,2.1-1.1,1.6-1,3.6c0.1,2-2,2.1-1.7,5.1s-1.7,2.3-0.8,5.7c0.9,3.3-1.1,4.6,1.1,5.8s3.3,4,5.7,4.1c2.3,0.1,6,1.4,8.2,1.1
				s5.1-0.3,7.3-1s4-0.6,4.7-2.4c0.7-1.9,3.4-1.6,3.1-4.1c-0.3-2.6,0.7-3.2,0-5.1c-0.7-1.9-0.7-3.7-1.2-5.6c-0.6-1.9,0-2.8-0.3-4.9
				c-0.3-2.1,0.8-3.6-0.6-4.6s-1.7-2.7-3-1c-1.2,1.7-2.7,1.4-2.8,2.9c-0.1,1.4-1.2,1.3-1.2,2.2c0,0.9-1.2,1.6-1.9,1.3
				c-0.7-0.2-2-0.2-4,0.1C579.3,779.3,579.2,779.2,577.9,777.9z"/>
			<path class="st2" d="M571.8,779c0,0-0.1-3.6,0.6-3.6c0.7,0,2,2.3,2.2,2.9S571.8,779,571.8,779z"/>
			<path class="st2" d="M589.5,779c0,0,1.5-2.7,2.6-2.5s0.6,3.6,0.6,3.6S590.2,779.5,589.5,779z"/>
			<ellipse class="st2" cx="576.3" cy="787.1" rx="1" ry="1.7"/>
			<ellipse class="st2" cx="586.9" cy="787.1" rx="1" ry="1.7"/>
			<circle class="st2" cx="581.9" cy="791.6" r="1.4"/>
			<path class="st2" d="M586.7,794.9c-2.7,0-4-0.9-4.7-1.6c-1.2,1.7-4,1.1-5.1,0.9c-0.2,0-0.3-0.1-0.3-0.1l-0.1-1
				c0.1,0,0.3,0,0.6,0.1c1,0.2,3.5,0.7,4.2-0.7c0.1-0.2,0.4-0.4,0.6-0.4c0.3,0,0.5,0.1,0.7,0.3c0.4,0.5,1.4,1.5,4.2,1.4l0,1
				C586.8,794.9,586.8,794.9,586.7,794.9z"/>
		</g>
	</g>
</g>
</svg>
