<?xml version="1.0" encoding="utf-8"?>
<!-- Generator: Adobe Illustrator 27.7.0, SVG Export Plug-In . SVG Version: 6.00 Build 0)  -->
<svg version="1.1" id="레이어_1" xmlns="http://www.w3.org/2000/svg" xmlns:xlink="http://www.w3.org/1999/xlink" x="0px"
	 y="0px" viewBox="0 0 1080 1013.3" style="enable-background:new 0 0 1080 1013.3;" xml:space="preserve">
<style type="text/css">
	.st0{fill:#FFFFFF;stroke:#231815;stroke-width:8;stroke-linecap:round;stroke-linejoin:round;stroke-miterlimit:10;}
	.st1{fill:#DDDCDB;stroke:#231815;stroke-width:8;stroke-linecap:round;stroke-linejoin:round;stroke-miterlimit:10;}
	.st2{fill:none;stroke:#231815;stroke-width:8;stroke-linecap:round;stroke-linejoin:round;stroke-miterlimit:10;}
	.st3{display:none;}
	
		.st4{display:inline;fill:#FF5562;stroke:#231815;stroke-width:8;stroke-linecap:round;stroke-linejoin:round;stroke-miterlimit:10;}
	.st5{display:inline;fill:none;stroke:#231815;stroke-width:8;stroke-linecap:round;stroke-linejoin:round;stroke-miterlimit:10;}
	.st6{display:inline;fill:#231815;}
	
		.st7{display:inline;fill:#FFAD46;stroke:#231815;stroke-width:8;stroke-linecap:round;stroke-linejoin:round;stroke-miterlimit:10;}
</style>
<g id="상의">
	<g id="원피스2">
		<g>
			<path class="st0" d="M320.7,727.4c0,0-17.6,14.5,0,26.4c0,0,9.8,4.5,18.2-4.9c0,0-10.1,11.4,0,19.7s21.8-4.5,21.8-4.5
				s-10.5,11.6,5.2,20.5s27-5,17.2-20.4C373.3,748.7,343.1,715.6,320.7,727.4z"/>
			<path class="st0" d="M758.9,727.4c0,0,17.6,14.5,0,26.4c0,0-9.8,4.5-18.2-4.9c0,0,10.1,11.4,0,19.7s-21.8-4.5-21.8-4.5
				s10.5,11.6-5.2,20.5s-27-5-17.2-20.4C706.4,748.7,736.5,715.6,758.9,727.4z"/>
			<path class="st0" d="M711.3,883.2c-64.1-41.9-144.1,2.6-172.7,20.8C510,885.7,433,841.3,368.9,883.2c0,0-13.1,20.7,8.7,30.4
				s28.3-9.5,28.3-9.5s-5.8,20.1,18.7,21s25.8-20.9,25.8-20.9s-2,24,23,25.4c23.3,1.2,25.2-14.5,25.4-16.7
				c-0.1,2.2-3.5,18.9,21,18.9c12.7,0,15.2-10.7,18.9-12.7c3.7,2,4.4,12.7,18.2,12.7c24.5,0,21.7-16.7,21.6-18.9
				c0.2,2.2,2.1,17.9,25.4,16.7c25-1.3,23-25.4,23-25.4s1.3,21.8,25.8,20.9s18.7-21,18.7-21s9.6,19.2,31.3,9.5
				S711.3,883.2,711.3,883.2z"/>
		</g>
		<g id="원피스1_00000117638764275284508700000005230172597488701351_">
			<path class="st1" d="M577.5,676.2c102.4-7.4,128.7-21.4,128.7-21.4s24.2,31.8,53.7,71.6c2.8,3.8,0,9.3-3.9,12
				c-14.4,10.3-47,33.4-63.1,43c0,0,11,64,23.5,107.6c0,0-21.8,19.4-64.3,19.3c-18.9,0-37.7,1.5-56.4,4.1
				c-11.2,1.5-22.3,1.3-31.8,0.4c-16.4-1.5-32.9-1.9-49.3-0.7c-10.4,0.8-20.3,0.3-28.7-0.8c-18.8-2.3-37.7-3.5-56.6-3.1
				c-44.2,0.9-63.9-19.3-63.9-19.3c12.4-43.6,20.5-107.6,20.5-107.6c-15.9-9.5-48.1-32.3-62.7-42.7c-4.1-2.9-7-8.7-4-12.8
				c29.4-39.6,53.4-71.2,53.4-71.2s26.3,14,128.7,21.4c0,0,1.3,22.9,39.5,22.9C575,699.1,577.5,676.2,577.5,676.2z"/>
			<line class="st2" x1="385.7" y1="781.4" x2="389.3" y2="750.6"/>
			<line class="st2" x1="692.9" y1="781.4" x2="689.4" y2="750.6"/>
			<path class="st2" d="M539.2,701c0.3-0.6-0.3-1.3-1-1.1c-6.9,2.1-32.2,10.6-25,25C520.5,739.4,535.7,708.5,539.2,701z"/>
			<path class="st2" d="M540.5,700.5c-0.2-0.5,0.2-1,0.7-0.8c6.2,1.8,32.8,10.4,25.5,25.1C559.2,739.7,543.6,707.3,540.5,700.5z"/>
			<path class="st2" d="M532.3,754.4c0,0,1.8-39.9,7.2-54.3c0.2-0.4,0.8-0.4,0.9,0.1c1.8,7.4,9.5,41.4,8.5,70.3"/>
		</g>
	</g>
	<g id="원피스3_00000023963204721163846140000007561430833735811756_" class="st3">
		<path class="st4" d="M581.8,715l2-39.6c74.7-2.8,118.9-20.1,118.9-20.1s34.7,37.5,67.5,90.1c1.7,2.8,1.1,6.4-1.5,8.3
			c-12,9.1-48.3,33.4-73.1,43.9c0,0,21.7,75.9,30.6,104.4c0,0-49.1,23.5-186.1,23.5S353.4,902,353.4,902
			c8.9-28.4,30.6-104.4,30.6-104.4c-24.8-10.4-61.2-34.8-73.1-43.9c-2.6-2-3.2-5.6-1.5-8.3c32.8-52.6,67.5-90.1,67.5-90.1
			s44.2,17.3,118.9,20.1l2,39.6c0,5.1,4.1,9.2,9.2,9.2h65.8C577.7,724.1,581.8,720,581.8,715z"/>
		<path class="st5" d="M477.8,674.4l2,53c0,7.4,6,13.4,13.4,13.4h93c7.4,0,13.4-6,13.4-13.4l2-53"/>
		<line class="st5" x1="540.1" y1="740.7" x2="540.1" y2="925.4"/>
		<circle class="st6" cx="572.1" cy="776.1" r="6.9"/>
		<circle class="st6" cx="572.1" cy="828.6" r="6.9"/>
		<circle class="st6" cx="572.1" cy="881.2" r="6.9"/>
		<line class="st5" x1="384" y1="797.6" x2="400.9" y2="747.1"/>
		<line class="st5" x1="695.5" y1="797.6" x2="678.6" y2="747.1"/>
	</g>
	<g id="원피스3" class="st3">
		<path class="st7" d="M581.8,715l2-39.6c74.7-2.8,118.9-20.1,118.9-20.1s34.7,37.5,67.5,90.1c1.7,2.8,1.1,6.4-1.5,8.3
			c-12,9.1-48.3,33.4-73.1,43.9c0,0,21.7,75.9,30.6,104.4c0,0-49.1,23.5-186.1,23.5S353.4,902,353.4,902
			c8.9-28.4,30.6-104.4,30.6-104.4c-24.8-10.4-61.2-34.8-73.1-43.9c-2.6-2-3.2-5.6-1.5-8.3c32.8-52.6,67.5-90.1,67.5-90.1
			s44.2,17.3,118.9,20.1l2,39.6c0,5.1,4.1,9.2,9.2,9.2h65.8C577.7,724.1,581.8,720,581.8,715z"/>
		<path class="st5" d="M477.8,674.4l2,53c0,7.4,6,13.4,13.4,13.4h93c7.4,0,13.4-6,13.4-13.4l2-53"/>
		<line class="st5" x1="540.1" y1="740.7" x2="540.1" y2="925.4"/>
		<circle class="st6" cx="572.1" cy="776.1" r="6.9"/>
		<circle class="st6" cx="572.1" cy="828.6" r="6.9"/>
		<circle class="st6" cx="572.1" cy="881.2" r="6.9"/>
		<line class="st5" x1="384" y1="797.6" x2="400.9" y2="747.1"/>
		<line class="st5" x1="695.5" y1="797.6" x2="678.6" y2="747.1"/>
	</g>
</g>
</svg>
