<?xml version="1.0" encoding="utf-8"?>
<!-- Generator: Adobe Illustrator 27.7.0, SVG Export Plug-In . SVG Version: 6.00 Build 0)  -->
<svg version="1.1" id="레이어_1" xmlns="http://www.w3.org/2000/svg" xmlns:xlink="http://www.w3.org/1999/xlink" x="0px"
	 y="0px" viewBox="0 0 1080 1013.3" style="enable-background:new 0 0 1080 1013.3;" xml:space="preserve">
<style type="text/css">
	.st0{fill:#DDDCDB;stroke:#231815;stroke-width:8;stroke-linecap:round;stroke-linejoin:round;stroke-miterlimit:10;}
	.st1{fill:none;stroke:#231815;stroke-width:8;stroke-linecap:round;stroke-linejoin:round;stroke-miterlimit:10;}
	.st2{fill:#231815;}
	.st3{display:none;}
	
		.st4{display:inline;fill:#FFAD46;stroke:#231815;stroke-width:8;stroke-linecap:round;stroke-linejoin:round;stroke-miterlimit:10;}
	.st5{display:inline;fill:none;stroke:#231815;stroke-width:8;stroke-linecap:round;stroke-linejoin:round;stroke-miterlimit:10;}
	.st6{display:inline;fill:#231815;}
</style>
<g id="상의">
	<g id="원피스3_00000023963204721163846140000007561430833735811756_">
		<path class="st0" d="M581.8,715l2-39.6c74.7-2.8,118.9-20.1,118.9-20.1s34.7,37.5,67.5,90.1c1.7,2.8,1.1,6.4-1.5,8.3
			c-12,9.1-48.3,33.4-73.1,43.9c0,0,21.7,75.9,30.6,104.4c0,0-49.1,23.5-186.1,23.5S353.4,902,353.4,902
			c8.9-28.4,30.6-104.4,30.6-104.4c-24.8-10.4-61.2-34.8-73.1-43.9c-2.6-2-3.2-5.6-1.5-8.3c32.8-52.6,67.5-90.1,67.5-90.1
			s44.2,17.3,118.9,20.1l2,39.6c0,5.1,4.1,9.2,9.2,9.2h65.8C577.7,724.1,581.8,720,581.8,715z"/>
		<path class="st1" d="M477.8,674.4l2,53c0,7.4,6,13.4,13.4,13.4h93c7.4,0,13.4-6,13.4-13.4l2-53"/>
		<line class="st1" x1="540.1" y1="740.7" x2="540.1" y2="925.4"/>
		<circle class="st2" cx="572.1" cy="776.1" r="6.9"/>
		<circle class="st2" cx="572.1" cy="828.6" r="6.9"/>
		<circle class="st2" cx="572.1" cy="881.2" r="6.9"/>
		<line class="st1" x1="384" y1="797.6" x2="400.9" y2="747.1"/>
		<line class="st1" x1="695.5" y1="797.6" x2="678.6" y2="747.1"/>
	</g>
	<g id="원피스3" class="st3">
		<path class="st4" d="M581.8,715l2-39.6c74.7-2.8,118.9-20.1,118.9-20.1s34.7,37.5,67.5,90.1c1.7,2.8,1.1,6.4-1.5,8.3
			c-12,9.1-48.3,33.4-73.1,43.9c0,0,21.7,75.9,30.6,104.4c0,0-49.1,23.5-186.1,23.5S353.4,902,353.4,902
			c8.9-28.4,30.6-104.4,30.6-104.4c-24.8-10.4-61.2-34.8-73.1-43.9c-2.6-2-3.2-5.6-1.5-8.3c32.8-52.6,67.5-90.1,67.5-90.1
			s44.2,17.3,118.9,20.1l2,39.6c0,5.1,4.1,9.2,9.2,9.2h65.8C577.7,724.1,581.8,720,581.8,715z"/>
		<path class="st5" d="M477.8,674.4l2,53c0,7.4,6,13.4,13.4,13.4h93c7.4,0,13.4-6,13.4-13.4l2-53"/>
		<line class="st5" x1="540.1" y1="740.7" x2="540.1" y2="925.4"/>
		<circle class="st6" cx="572.1" cy="776.1" r="6.9"/>
		<circle class="st6" cx="572.1" cy="828.6" r="6.9"/>
		<circle class="st6" cx="572.1" cy="881.2" r="6.9"/>
		<line class="st5" x1="384" y1="797.6" x2="400.9" y2="747.1"/>
		<line class="st5" x1="695.5" y1="797.6" x2="678.6" y2="747.1"/>
	</g>
</g>
</svg>
