<?xml version="1.0" encoding="utf-8"?>
<!-- Generator: Adobe Illustrator 27.7.0, SVG Export Plug-In . SVG Version: 6.00 Build 0)  -->
<svg version="1.1" id="레이어_1" xmlns="http://www.w3.org/2000/svg" xmlns:xlink="http://www.w3.org/1999/xlink" x="0px"
	 y="0px" viewBox="0 0 1080 1013.3" style="enable-background:new 0 0 1080 1013.3;" xml:space="preserve">
<style type="text/css">
	.st0{clip-path:url(#SVGID_00000134970806966106277960000009541424105385702588_);fill:#DDDCDB;}
	.st1{fill:#FFFFFF;stroke:#231815;stroke-width:8;stroke-linecap:round;stroke-linejoin:round;stroke-miterlimit:10;}
</style>
<g id="상의">
	<g id="줄무늬티셔츠">
		<g>
			<defs>
				<path id="SVGID_1_" d="M698.6,823.7l-3.5-47.4c0,0,60.4-34.4,63.4-44.4c3-10.1-11.3-27.3-26.7-49.8
					c-15.4-22.5-31.1-24.9-31.1-24.9s-88.3,20.4-124.4,19c-0.5,0-0.8,0.4-0.8,0.8c0.2,4.7-0.6,27.5-35,27
					c-34.6-0.5-38.2-22.7-38.6-27.1c0-0.4-0.4-0.7-0.8-0.7c-36.1,1.4-124.5-19-124.5-19s-15.7,2.4-31.1,24.9
					c-15.4,22.5-29.6,39.7-26.7,49.8c3,10.1,63.4,44.4,63.4,44.4l-3.4,47.1c-0.1,0.9,0.6,1.7,1.5,1.9c19.7,3.3,167,17.4,317.3,0.2
					C698.3,825.4,698.7,824.5,698.6,823.7z"/>
			</defs>
			<use xlink:href="#SVGID_1_"  style="overflow:visible;fill:#FFFFFF;"/>
			<clipPath id="SVGID_00000096744581302285704920000000034813253836682401_">
				<use xlink:href="#SVGID_1_"  style="overflow:visible;"/>
			</clipPath>
			<path style="clip-path:url(#SVGID_00000096744581302285704920000000034813253836682401_);fill:#DDDCDB;" d="M346.8,665.8
				c0,0,91.6,31.9,199.6,31.9s193.3-38.5,193.3-38.5l12,10c0,0-92.9,39.6-202.4,39.6s-230.8-37.6-230.8-37.6L346.8,665.8z"/>
			<path style="clip-path:url(#SVGID_00000096744581302285704920000000034813253836682401_);fill:#DDDCDB;" d="M326.8,698.5
				c0,0,101.3,31.9,220.8,31.9s213.9-38.5,213.9-38.5l13.3,10c0,0-105.8,41.6-227,41.6s-252.4-39.6-252.4-39.6L326.8,698.5z"/>
			<path style="clip-path:url(#SVGID_00000096744581302285704920000000034813253836682401_);fill:#DDDCDB;" d="M326.8,736.4
				c0,0,101.3,26.9,220.8,26.9s213.9-33.5,213.9-33.5l13.3,13c0,0-105.8,33.6-227,33.6s-252.4-34.6-252.4-34.6L326.8,736.4z"/>
			<path style="clip-path:url(#SVGID_00000096744581302285704920000000034813253836682401_);fill:#DDDCDB;" d="M326.8,777.1
				c0,0,101.3,19.2,220.8,19.2s213.9-25.8,213.9-25.8l13.3,15c0,0-105.8,24.9-227,24.9s-252.4-25.9-252.4-25.9L326.8,777.1z"/>
			
				<use xlink:href="#SVGID_1_"  style="overflow:visible;fill:none;stroke:#231815;stroke-width:8;stroke-linecap:round;stroke-linejoin:round;stroke-miterlimit:10;"/>
		</g>
		<line class="st1" x1="382.2" y1="776.3" x2="384.3" y2="754.1"/>
		<line class="st1" x1="695.2" y1="776.3" x2="692.7" y2="754.1"/>
		<path class="st1" d="M486.5,676.2c0,0-0.4,43.1,53.6,43.1c55.3,0,52.7-43.1,52.7-43.1l-16.4,0c0,0,0.5,27.8-35.8,27.8
			s-38.6-27.1-38.6-27.1L486.5,676.2z"/>
		<path class="st1" d="M319.2,724l-8,15.3c-1.1,2-0.6,4.5,1,6.1c8.1,7.7,33.5,30.3,69,44.6l1.8-21.8
			C382.9,768.2,337.4,740.4,319.2,724z"/>
		<path class="st1" d="M758.9,724l8,15.3c1.1,2,0.6,4.5-1,6.1c-8.1,7.7-33.5,30.3-69,44.6l-1.8-21.8
			C695.2,768.2,740.7,740.4,758.9,724z"/>
	</g>
</g>
</svg>
