<?xml version="1.0" encoding="utf-8"?>
<!-- Generator: Adobe Illustrator 27.7.0, SVG Export Plug-In . SVG Version: 6.00 Build 0)  -->
<svg version="1.1" id="레이어_1" xmlns="http://www.w3.org/2000/svg" xmlns:xlink="http://www.w3.org/1999/xlink" x="0px"
	 y="0px" viewBox="0 0 1080 1013.3" style="enable-background:new 0 0 1080 1013.3;" xml:space="preserve">
<style type="text/css">
	.st0{fill:#DDDCDB;stroke:#231815;stroke-width:8;stroke-linecap:round;stroke-linejoin:round;stroke-miterlimit:10;}
	.st1{fill:#FFFFFF;stroke:#231815;stroke-width:8;stroke-linecap:round;stroke-linejoin:round;stroke-miterlimit:10;}
	.st2{fill:#231815;}
</style>
<g id="상의">
	<g id="숏셔츠">
		<g>
			<path class="st0" d="M540.1,831.1v-96c-11.6-33.3-59.5-61.2-59.5-61.2c-30.2-1.8-99.4-16.4-99.4-16.4
				c-12-0.2-29.7,24.5-29.8,24.6c-33.8,51.9-31.7,56.8-31.7,56.8c12.4,11.9,63.4,37.4,63.4,37.4c2-6.8-5.2,35.7,0.6,47.6
				C383.8,823.9,504.6,835.4,540.1,831.1z"/>
			<path class="st1" d="M541.2,735.1"/>
			<path class="st0" d="M457,671.3l18.8,31c3,5,8.5,7.9,14.3,7.6c8.6-0.4,22.6-0.2,38.6,3.8c0,0-15.8-23.4-33.7-35.2
				c-4-2.7-8.7-4.2-13.5-4.8L457,671.3z"/>
			<path class="st0" d="M540.7,831.1v-96c11.6-33.3,59.5-61.2,59.5-61.2c30.2-1.8,99.4-16.4,99.4-16.4c12-0.2,29.7,24.5,29.8,24.6
				c33.8,51.9,31.7,56.8,31.7,56.8c-12.4,11.9-63.4,37.4-63.4,37.4c-2-6.8,5.2,35.7-0.6,47.6C697,823.9,576.2,835.4,540.7,831.1z"/>
			<path class="st0" d="M623.8,671.3l-18.8,31c-3,5-8.5,7.9-14.3,7.6c-8.6-0.4-22.6-0.2-38.6,3.8c0,0,15.8-23.4,33.7-35.2
				c4-2.7,8.7-4.2,13.5-4.8L623.8,671.3z"/>
			<g>
				<circle class="st2" cx="568.1" cy="744" r="4.9"/>
				<circle class="st2" cx="568.1" cy="776.1" r="4.9"/>
				<circle class="st2" cx="568.1" cy="808.3" r="4.9"/>
			</g>
		</g>
		<path class="st1" d="M384.2,776.3c-0.9-2.1,3.3-23.2,2.4-32.4"/>
		<path class="st1" d="M697.4,776.3c0.9-2.1-3.3-23.2-2.4-32.4"/>
	</g>
</g>
</svg>
