<?xml version="1.0" encoding="utf-8"?>
<!-- Generator: Adobe Illustrator 27.7.0, SVG Export Plug-In . SVG Version: 6.00 Build 0)  -->
<svg version="1.1" id="위치" xmlns="http://www.w3.org/2000/svg" xmlns:xlink="http://www.w3.org/1999/xlink" x="0px" y="0px"
	 viewBox="0 0 450 450" style="enable-background:new 0 0 450 450;" xml:space="preserve">
<style type="text/css">
	.st0{display:none;fill:#FFE7DF;stroke:#000000;stroke-width:6;stroke-miterlimit:10;}
	.st1{fill:none;stroke:#B7B7B7;stroke-width:9;stroke-miterlimit:10;}
</style>
<g>
	<path id="귀_1_" class="st0" d="M376.6,315.1c27,0,50.5,1.4,54.8-47.2s-36.8-47.6-36.8-47.6H57.1c0,0-41.1-1.2-36.8,47.6
		c4.3,48.7,27.8,47.2,54.8,47.2H376.6z"/>
</g>
<line class="st1" x1="85.3" y1="246" x2="87" y2="177.4"/>
<path class="st1" d="M369.2,399.3l-5.7-153.1h69.8C433.3,83.4,307.9,58.9,278,57.9c-1.8-0.1-1.4,1.4-1.4,3.3
	c-0.1,10.7-5.8,43.7-50.7,43.7h-3c-44.8,0-50.6-33-50.7-43.7c0-1.9,0.4-3.3-1.4-3.3C141,58.9,15.6,83.4,15.6,246.2h69.8l-5.7,153.1
	H369.2L369.2,399.3z"/>
<line class="st1" x1="361.8" y1="177.4" x2="363.5" y2="246"/>
<path class="st1" d="M299.2,60.5c0,0,4.2,67.1-73.1,67.1h-3.3c-77.3,0-73.1-67.1-73.1-67.1"/>
<line class="st1" x1="16.5" y1="223.6" x2="85.7" y2="223.6"/>
<line class="st1" x1="363.5" y1="223.6" x2="432.5" y2="223.6"/>
</svg>
