<?xml version="1.0" encoding="utf-8"?>
<!-- Generator: Adobe Illustrator 27.7.0, SVG Export Plug-In . SVG Version: 6.00 Build 0)  -->
<svg version="1.1" id="위치" xmlns="http://www.w3.org/2000/svg" xmlns:xlink="http://www.w3.org/1999/xlink" x="0px" y="0px"
	 viewBox="0 0 450 450" style="enable-background:new 0 0 450 450;" xml:space="preserve">
<style type="text/css">
	.st0{display:none;}
	.st1{display:inline;fill:#FFE7DF;stroke:#000000;stroke-width:6;stroke-miterlimit:10;}
	.st2{display:none;fill:none;stroke:#5D5D5D;stroke-width:9;stroke-miterlimit:10;}
	.st3{fill:none;stroke:#B7B7B7;stroke-width:9;stroke-miterlimit:10;}
</style>
<g class="st0">
	<path id="귀_1_" class="st1" d="M376.6,315.1c27,0,50.5,1.4,54.8-47.2s-36.8-47.6-36.8-47.6H57.1c0,0-41.1-1.2-36.8,47.6
		c4.3,48.7,27.8,47.2,54.8,47.2H376.6z"/>
</g>
<line class="st2" x1="85.3" y1="261" x2="87" y2="192.4"/>
<path class="st2" d="M369.2,404.3l-5.7-143.1h69.8C433.3,98.4,307.9,73.9,278,72.9c-1.8-0.1-1.4,1.4-1.4,3.3
	c-0.1,10.7-5.8,43.7-50.7,43.7h-3c-44.8,0-50.6-33-50.7-43.7c0-1.9,0.4-3.3-1.4-3.3C141,73.9,15.6,98.4,15.6,261.2h69.8l-5.7,143.1
	L369.2,404.3L369.2,404.3z"/>
<line class="st2" x1="361.8" y1="192.4" x2="363.5" y2="261"/>
<path class="st2" d="M291.6,74.4c0,0,3.8,60.3-65.7,60.3h-3c-69.5,0-65.7-60.3-65.7-60.3"/>
<line class="st2" x1="15.9" y1="245.7" x2="85.7" y2="245.7"/>
<line class="st2" x1="363.5" y1="245.7" x2="433.3" y2="245.7"/>
<polyline class="st3" points="90.4,210.2 90.4,80 107.3,80 107.3,197.6 "/>
<polyline class="st3" points="359.1,210.1 359.1,80 342.2,80 342.2,197.6 "/>
<path class="st3" d="M225.1,215.2c83.5-66.8,139.1,0,139.1,0l31.2,193H225.1h-0.7H54.1l31.2-193c0,0,55.6-66.8,139.1,0L225.1,215.2
	L225.1,215.2z"/>
</svg>
