<?xml version="1.0" encoding="utf-8"?>
<!-- Generator: Adobe Illustrator 27.7.0, SVG Export Plug-In . SVG Version: 6.00 Build 0)  -->
<svg version="1.1" id="위치" xmlns="http://www.w3.org/2000/svg" xmlns:xlink="http://www.w3.org/1999/xlink" x="0px" y="0px"
	 viewBox="0 0 450 450" style="enable-background:new 0 0 450 450;" xml:space="preserve">
<style type="text/css">
	.st0{display:none;fill:#FFE7DF;stroke:#000000;stroke-width:6;stroke-miterlimit:10;}
	.st1{fill:none;stroke:#5D5D5D;stroke-width:14;stroke-miterlimit:10;}
</style>
<g>
	<path id="귀_1_" class="st0" d="M376.6,315.1c27,0,50.5,1.4,54.8-47.2s-36.8-47.6-36.8-47.6H57.1c0,0-41.1-1.2-36.8,47.6
		c4.3,48.7,27.8,47.2,54.8,47.2H376.6z"/>
</g>
<path class="st1" d="M383.1,70.6H225.8H68.4L31.6,399.7h166.9l24.1-163.3c0.7-3.4,5.5-3.4,6.3,0L253,399.7h166.9L383.1,70.6z"/>
<line class="st1" x1="64.4" y1="101.6" x2="386.6" y2="101.6"/>
<path class="st1" d="M123.6,101.6c0,0-4.3,65.8-66.4,65.8"/>
<path class="st1" d="M328,101.6c0,0,4.3,65.8,66.4,65.8"/>
</svg>
