<?xml version="1.0" encoding="utf-8"?>
<!-- Generator: Adobe Illustrator 27.7.0, SVG Export Plug-In . SVG Version: 6.00 Build 0)  -->
<svg version="1.1" id="레이어_1" xmlns="http://www.w3.org/2000/svg" xmlns:xlink="http://www.w3.org/1999/xlink" x="0px"
	 y="0px" viewBox="0 0 800 800" style="enable-background:new 0 0 800 800;" xml:space="preserve">
<style type="text/css">
	.st0{fill:#FFFFFF;stroke:#231815;stroke-width:8;stroke-linecap:round;stroke-linejoin:round;stroke-miterlimit:10;}
	.st1{fill:#FFFFFF;}
	.st2{clip-path:url(#SVGID_00000163034563808831264950000011826082236081152150_);fill:#5D5D5D;}
	.st3{fill:none;stroke:#231815;stroke-width:8;stroke-linecap:round;stroke-linejoin:round;stroke-miterlimit:10;}
	.st4{fill:#FFA1A2;}
	.st5{fill:#231815;}
	.st6{fill:#FFA1A2;stroke:#231815;stroke-width:8;stroke-linecap:round;stroke-linejoin:round;stroke-miterlimit:10;}
</style>
<g>
	<path class="st0" d="M566.4,623.3"/>
	<g>
		<g>
			<path id="SVGID_1_" class="st1" d="M538.5,629.3c25.1-4.9,49-15.2,69.4-30.7c9.4-7.1,17.8-15.1,25.3-24.5
				c33.3-42.2-0.3-94.3-0.3-150.9c0-79.5-47.3-144.6-100.4-172.7c-4.1-2.1-8-4-11.9-5.8c-7-14.8-25.9-54.2-41.5-80.7
				c-7-11.9-25.1-10.3-29.8,2.6l-18.7,51.8l-9.2-14.2l-10,14.1c-3.8-0.1-7.4-0.5-11.2-0.5c-4.3,0-8.5,0.4-12.8,0.6l-10-14.2
				l-9.1,14.1l-18.6-51.7c-4.7-13-22.8-14.6-29.8-2.6c-15.8,26.9-35,67-41.8,81.3c-4.2,1.9-8.2,4-11.9,6.2
				c-52.1,28.1-98.6,93.2-98.6,171.7c0,56-33.9,107.8-1.2,149.8c8.7,11.2,19,20.4,30.4,28.5c20.9,14.8,44.8,24.9,69.9,30.2
				C313.9,641.9,410.3,654.4,538.5,629.3z"/>
		</g>
		<g>
			<defs>
				<path id="SVGID_00000016033368632051002320000012244174312168035977_" d="M538.5,629.3c25.1-4.9,49-15.2,69.4-30.7
					c9.4-7.1,17.8-15.1,25.3-24.5c33.3-42.2-0.3-94.3-0.3-150.9c0-79.5-47.3-144.6-100.4-172.7c-4.1-2.1-8-4-11.9-5.8
					c-7-14.8-25.9-54.2-41.5-80.7c-7-11.9-25.1-10.3-29.8,2.6l-18.7,51.8l-9.2-14.2l-10,14.1c-3.8-0.1-7.4-0.5-11.2-0.5
					c-4.3,0-8.5,0.4-12.8,0.6l-10-14.2l-9.1,14.1l-18.6-51.7c-4.7-13-22.8-14.6-29.8-2.6c-15.8,26.9-35,67-41.8,81.3
					c-4.2,1.9-8.2,4-11.9,6.2c-52.1,28.1-98.6,93.2-98.6,171.7c0,56-33.9,107.8-1.2,149.8c8.7,11.2,19,20.4,30.4,28.5
					c20.9,14.8,44.8,24.9,69.9,30.2C313.9,641.9,410.3,654.4,538.5,629.3z"/>
			</defs>
			<clipPath id="SVGID_00000103950594952355349630000005101497017601014422_">
				<use xlink:href="#SVGID_00000016033368632051002320000012244174312168035977_"  style="overflow:visible;"/>
			</clipPath>
			<path style="clip-path:url(#SVGID_00000103950594952355349630000005101497017601014422_);fill:#5D5D5D;" d="M387.4,218.5
				c0,0-29,134.9-209.1,140.2C20.6,363.4,283.7,81.4,344.1,120.5S387.4,218.5,387.4,218.5z"/>
		</g>
		<g>
			<path id="SVGID_00000117646389032897341730000011976798465289179040_" class="st3" d="M538.5,629.3c25.1-4.9,49-15.2,69.4-30.7
				c9.4-7.1,17.8-15.1,25.3-24.5c33.3-42.2-0.3-94.3-0.3-150.9c0-79.5-47.3-144.6-100.4-172.7c-4.1-2.1-8-4-11.9-5.8
				c-7-14.8-25.9-54.2-41.5-80.7c-7-11.9-25.1-10.3-29.8,2.6l-18.7,51.8l-9.2-14.2l-10,14.1c-3.8-0.1-7.4-0.5-11.2-0.5
				c-4.3,0-8.5,0.4-12.8,0.6l-10-14.2l-9.1,14.1l-18.6-51.7c-4.7-13-22.8-14.6-29.8-2.6c-15.8,26.9-35,67-41.8,81.3
				c-4.2,1.9-8.2,4-11.9,6.2c-52.1,28.1-98.6,93.2-98.6,171.7c0,56-33.9,107.8-1.2,149.8c8.7,11.2,19,20.4,30.4,28.5
				c20.9,14.8,44.8,24.9,69.9,30.2C313.9,641.9,410.3,654.4,538.5,629.3z"/>
		</g>
	</g>
	<line class="st3" x1="399.4" y1="497.5" x2="399.4" y2="468.4"/>
	<polyline class="st3" points="434.8,514.9 399.6,497.5 363.9,514.9 	"/>
	<g>
		<ellipse class="st4" cx="271.4" cy="478.3" rx="34.7" ry="27.7"/>
		<ellipse class="st4" cx="528.7" cy="478.3" rx="34.7" ry="27.7"/>
	</g>
	<g>
		<line class="st3" x1="316.7" y1="453.7" x2="265.7" y2="450.2"/>
		<line class="st3" x1="317.8" y1="477.8" x2="271.2" y2="488.2"/>
	</g>
	<g>
		<line class="st3" x1="482" y1="453.7" x2="533" y2="450.2"/>
		<line class="st3" x1="480.9" y1="477.8" x2="527.5" y2="488.2"/>
	</g>
	<g>
		<path class="st5" d="M351.9,420.2c0,10.1-6.6,18.2-14.7,18.2s-14.7-8.2-14.7-18.2s6.6-8.2,14.7-8.2S351.9,410.1,351.9,420.2z"/>
		<path class="st5" d="M447.2,420.2c0,10.1,6.6,18.2,14.7,18.2s14.7-8.2,14.7-18.2s-6.6-8.2-14.7-8.2S447.2,410.1,447.2,420.2z"/>
	</g>
	<path class="st3" d="M448.4,390.4c0,0,17.8,1.8,32.5-8.5"/>
	<path class="st6" d="M411.3,463.9l-8.1,5.1c-2.4,1.5-5.3,1.5-7.7,0l-8.1-5.1c-3.3-2-4.7-6.4-3.5-10.2l0.5-1.6
		c1.1-3.4,4-5.7,7.3-5.7H407c3.3,0,6.2,2.3,7.3,5.7l0.5,1.6C416.1,457.5,414.6,461.8,411.3,463.9z"/>
	<path class="st4" d="M331.3,194.6l-14,22c-1.1,1.8-0.2,4,1.7,4.1l22.2,0.7c1.9,0.1,3.4-2.1,2.7-3.9l-8.2-22.7
		C335.1,192.8,332.5,192.7,331.3,194.6z"/>
	<path class="st4" d="M468.4,194.6l14,22c1.1,1.8,0.2,4-1.7,4.1l-22.2,0.7c-1.9,0.1-3.4-2.1-2.7-3.9l8.2-22.7
		C464.6,192.8,467.2,192.7,468.4,194.6z"/>
</g>
</svg>
