<?xml version="1.0" encoding="utf-8"?>
<!-- Generator: Adobe Illustrator 27.7.0, SVG Export Plug-In . SVG Version: 6.00 Build 0)  -->
<svg version="1.1" id="레이어_1" xmlns="http://www.w3.org/2000/svg" xmlns:xlink="http://www.w3.org/1999/xlink" x="0px"
	 y="0px" viewBox="0 0 800 800" style="enable-background:new 0 0 800 800;" xml:space="preserve">
<style type="text/css">
	.st0{fill:#FFFFFF;stroke:#231815;stroke-width:8;stroke-linecap:round;stroke-linejoin:round;stroke-miterlimit:10;}
	.st1{fill:none;stroke:#231815;stroke-width:8;stroke-linecap:round;stroke-linejoin:round;stroke-miterlimit:10;}
</style>
<g id="상의">
	<g id="기본티셔츠_00000121261539712335499180000004176309679766640043_">
		<path class="st0" d="M559.9,478.2l-3.5-47.4c0,0,60.4-34.4,63.4-44.4c3-10.1-11.3-27.3-26.7-49.8S562,311.7,562,311.7
			s-88.3,20.4-124.4,19c-0.5,0-0.8,0.4-0.8,0.8c0.2,4.7-0.6,27.5-35,27c-34.6-0.5-38.2-22.7-38.6-27.1c0-0.4-0.4-0.7-0.8-0.7
			c-36.1,1.4-124.5-19-124.5-19s-15.7,2.4-31.1,24.9s-29.6,39.7-26.7,49.8c3,10.1,63.4,44.4,63.4,44.4l-3.4,47.1
			c-0.1,0.9,0.6,1.7,1.5,1.9c19.7,3.3,167,17.4,317.3,0.2C559.6,479.9,560,479,559.9,478.2z"/>
		<line class="st1" x1="243.5" y1="430.8" x2="245.6" y2="408.6"/>
		<line class="st1" x1="556.5" y1="430.8" x2="554" y2="408.6"/>
	</g>
</g>
</svg>
