<?xml version="1.0" encoding="utf-8"?>
<!-- Generator: Adobe Illustrator 27.7.0, SVG Export Plug-In . SVG Version: 6.00 Build 0)  -->
<svg version="1.1" id="레이어_1" xmlns="http://www.w3.org/2000/svg" xmlns:xlink="http://www.w3.org/1999/xlink" x="0px"
	 y="0px" viewBox="0 0 1080 1013.3" style="enable-background:new 0 0 1080 1013.3;" xml:space="preserve">
<style type="text/css">
	.st0{fill:#FFFFFF;stroke:#231815;stroke-width:8;stroke-linecap:round;stroke-linejoin:round;stroke-miterlimit:10;}
	.st1{fill:#FFA1A2;}
	.st2{fill:#FFFFFF;}
	.st3{clip-path:url(#SVGID_00000172420587911840248700000010307455480672106424_);fill:#FFCECE;}
	.st4{fill:none;stroke:#231815;stroke-width:8;stroke-linecap:round;stroke-linejoin:round;stroke-miterlimit:10;}
	.st5{fill:#231815;}
	.st6{fill:#FFA1A2;stroke:#231815;stroke-width:8;stroke-linecap:round;stroke-linejoin:round;stroke-miterlimit:10;}
</style>
<g>
	<g>
		<path class="st0" d="M386.2,644.3L374,658.7c-12.9,14.7-38.9,47.7-59.3,94.9c-18.5,42.8,51.6,83.1,73.7,22
			c0,0-15.7,107.1,5.2,176.4c0,0,6.7,17.3,46.9,17.3s20-40.9,39.7-47.6H600c19.8,6.8-0.4,47.6,39.7,47.6c40.2,0,46.9-17.3,46.9-17.3
			c21-69.3,5.2-176.4,5.2-176.4c22.2,61,92.2,20.8,73.7-22c-20.3-47.1-46.3-80.1-59.2-94.8c0,0-11.3-13.3-11.3-13.4L386.2,644.3z"/>
		<path class="st1" d="M547.1,876.4h-22.3c-28.4,0-51.4-23-51.4-51.4v-11.7c0-28.4,23-51.4,51.4-51.4h22.3c28.4,0,51.4,23,51.4,51.4
			V825C598.5,853.3,575.5,876.4,547.1,876.4z"/>
		<path class="st0" d="M458.7,919.7c0,0,4.8,2,27.4,2s96.6,3.4,135.2-2.7"/>
	</g>
	<g>
		<g>
			<g>
				<path id="SVGID_1_" class="st2" d="M677.6,662.1c23.4-5.2,45.8-14.4,65.5-27.9c11.2-7.7,21.4-16.4,30-27.4
					c33.3-42.2-0.3-94.3-0.3-150.9c0-79.5-47.3-144.6-100.4-172.7c-4.1-2.1-8-4-11.9-5.8c0,0,1.3-54.2-14.3-80.7
					c-7-11.9-16.3-11.4-29.8,2.6l-45.9,51.8l-9.2-14.2l-10,14.1c-3.8-0.1-7.4-0.5-11.2-0.5c-4.3,0-8.5,0.4-12.8,0.6l-10-14.2
					l-9.1,14.1l-45.8-51.7c-12.3-12.6-22.8-14.6-29.8-2.6C416.8,223.6,418,278,418,278c-4.2,1.9-8.2,4-11.9,6.2
					c-52.1,28.1-98.6,93.2-98.6,171.7c0,56-33.9,107.8-1.2,149.8c8.7,11.2,19,20.2,30.4,28c20.4,14,43.5,23.6,67.7,28.7
					C454.2,673,559.6,688.3,677.6,662.1z"/>
			</g>
			<g>
				<defs>
					<path id="SVGID_00000100372736834952736760000002982115336304491160_" d="M677.6,662.1c23.4-5.2,45.8-14.4,65.5-27.9
						c11.2-7.7,21.4-16.4,30-27.4c33.3-42.2-0.3-94.3-0.3-150.9c0-79.5-47.3-144.6-100.4-172.7c-4.1-2.1-8-4-11.9-5.8
						c0,0,1.3-54.2-14.3-80.7c-7-11.9-16.3-11.4-29.8,2.6l-45.9,51.8l-9.2-14.2l-10,14.1c-3.8-0.1-7.4-0.5-11.2-0.5
						c-4.3,0-8.5,0.4-12.8,0.6l-10-14.2l-9.1,14.1l-45.8-51.7c-12.3-12.6-22.8-14.6-29.8-2.6C416.8,223.6,418,278,418,278
						c-4.2,1.9-8.2,4-11.9,6.2c-52.1,28.1-98.6,93.2-98.6,171.7c0,56-33.9,107.8-1.2,149.8c8.7,11.2,19,20.2,30.4,28
						c20.4,14,43.5,23.6,67.7,28.7C454.2,673,559.6,688.3,677.6,662.1z"/>
				</defs>
				<clipPath id="SVGID_00000106115402649227840360000015312719316388805050_">
					<use xlink:href="#SVGID_00000100372736834952736760000002982115336304491160_"  style="overflow:visible;"/>
				</clipPath>
				<path style="clip-path:url(#SVGID_00000106115402649227840360000015312719316388805050_);fill:#FFCECE;" d="M527.4,250.9
					c0,0-29,134.9-209.1,140.2c-157.7,4.7,105.4-277.4,165.8-238.2S527.4,250.9,527.4,250.9z"/>
			</g>
			<g>
				<path id="SVGID_00000062186905032790719750000018411701498820584085_" class="st4" d="M677.6,662.1
					c23.4-5.2,45.8-14.4,65.5-27.9c11.2-7.7,21.4-16.4,30-27.4c33.3-42.2-0.3-94.3-0.3-150.9c0-79.5-47.3-144.6-100.4-172.7
					c-4.1-2.1-8-4-11.9-5.8c0,0,1.3-54.2-14.3-80.7c-7-11.9-16.3-11.4-29.8,2.6l-45.9,51.8l-9.2-14.2l-10,14.1
					c-3.8-0.1-7.4-0.5-11.2-0.5c-4.3,0-8.5,0.4-12.8,0.6l-10-14.2l-9.1,14.1l-45.8-51.7c-12.3-12.6-22.8-14.6-29.8-2.6
					C416.8,223.6,418,278,418,278c-4.2,1.9-8.2,4-11.9,6.2c-52.1,28.1-98.6,93.2-98.6,171.7c0,56-33.9,107.8-1.2,149.8
					c8.7,11.2,19,20.2,30.4,28c20.4,14,43.5,23.6,67.7,28.7C454.2,673,559.6,688.3,677.6,662.1z"/>
			</g>
		</g>
		<line class="st4" x1="539.3" y1="530.1" x2="539.3" y2="501"/>
		<path class="st4" d="M580.2,530.1l-12.7,4.8c-6.6,2.5-13.9,2.1-20.2-1l-7.7-3.8l-8,3.9c-6.3,3.1-13.5,3.4-20.1,1l-13-4.9"/>
		<ellipse class="st1" cx="411.3" cy="510.9" rx="34.7" ry="27.7"/>
		<ellipse class="st1" cx="668.6" cy="510.9" rx="34.7" ry="27.7"/>
		<g>
			<line class="st4" x1="456.6" y1="517.3" x2="405.7" y2="520.8"/>
			<line class="st4" x1="457.8" y1="493.2" x2="411.2" y2="482.8"/>
		</g>
		<g>
			<line class="st4" x1="622" y1="517.3" x2="673" y2="520.8"/>
			<line class="st4" x1="620.9" y1="493.2" x2="667.4" y2="482.8"/>
		</g>
		<g>
			<path class="st5" d="M587.1,466.2c0-10.1,6.6-18.3,14.7-18.3s14.7,8.2,14.7,18.3c0,10.1-6.6,8.3-14.7,8.3
				S587.1,476.3,587.1,466.2z"/>
			<path class="st5" d="M491.9,466.2c0-10.1-6.6-18.3-14.7-18.3s-14.7,8.2-14.7,18.3c0,10.1,6.6,8.3,14.7,8.3
				S491.9,476.3,491.9,466.2z"/>
		</g>
		<path class="st4" d="M625.3,421.7c0,0-16.8-27.5-36.6-1.3"/>
		<path class="st6" d="M551.3,496.5l-8.1,5.1c-2.4,1.5-5.3,1.5-7.7,0l-8.1-5.1c-3.3-2-4.7-6.4-3.5-10.2l0.5-1.6
			c1.1-3.4,4-5.7,7.3-5.7H547c3.3,0,6.2,2.3,7.3,5.7l0.5,1.6C556,490.1,554.6,494.4,551.3,496.5z"/>
		<g>
			<path class="st1" d="M448.1,226.7l-3,25.8c-0.2,2.1,1.6,3.7,3.3,3l20.4-8.7c1.8-0.7,2.2-3.3,0.8-4.7L452.2,225
				C450.7,223.5,448.4,224.5,448.1,226.7z"/>
			<path class="st1" d="M631.8,226.7l3,25.8c0.2,2.1-1.6,3.7-3.3,3l-20.4-8.7c-1.8-0.7-2.2-3.3-0.8-4.7l17.4-17.1
				C629.2,223.5,631.6,224.5,631.8,226.7z"/>
		</g>
		<path class="st0" d="M528,597.4c0,0,12.7,5.3,24.8,0"/>
		<path class="st6" d="M516.3,536.2l17.4,27.5c3.2,3.7,9.1,3.5,12.2-0.3l15.2-27c0,0-11.3,0.2-21.5-6.3
			C539.5,530.1,527,538.6,516.3,536.2z"/>
	</g>
</g>
</svg>
