<?xml version="1.0" encoding="utf-8"?>
<!-- Generator: Adobe Illustrator 27.7.0, SVG Export Plug-In . SVG Version: 6.00 Build 0)  -->
<svg version="1.1" id="레이어_1" xmlns="http://www.w3.org/2000/svg" xmlns:xlink="http://www.w3.org/1999/xlink" x="0px"
	 y="0px" viewBox="0 0 800 800" style="enable-background:new 0 0 800 800;" xml:space="preserve">
<style type="text/css">
	.st0{fill:#D6CFCE;stroke:#231815;stroke-width:8;stroke-linecap:round;stroke-linejoin:round;stroke-miterlimit:10;}
	.st1{fill:#F4F2F2;}
	.st2{fill:#231815;}
	.st3{fill:#898989;stroke:#231815;stroke-width:7.9996;stroke-linecap:round;stroke-linejoin:round;stroke-miterlimit:9.9994;}
	.st4{fill:#231815;stroke:#231815;stroke-width:8;stroke-linecap:round;stroke-linejoin:round;stroke-miterlimit:10;}
	.st5{fill:#FFC0C0;stroke:#231815;stroke-width:8;stroke-linecap:round;stroke-linejoin:round;stroke-miterlimit:10;}
</style>
<g id="셀카봉">
	<g>
		<path class="st0" d="M483.7,344.5l-180.9-52c-6.6-1.9-10.5-8.8-8.6-15.4l28-97.7c1.9-6.6,8.8-10.5,15.4-8.6l180.9,52
			c6.6,1.9,10.5,8.8,8.6,15.4l-28,97.7C497.2,342.6,490.3,346.4,483.7,344.5z"/>
		<path class="st1" d="M491.5,280.9L456,270.7c-3.9-1.1-6.1-5.1-5-9l9.6-33.4c1.1-3.9,5.1-6.1,9-5l35.5,10.2c3.9,1.1,6.1,5.1,5,9
			l-9.6,33.4C499.4,279.8,495.4,282,491.5,280.9z"/>
		<circle class="st2" cx="472.4" cy="240" r="8.6"/>
		<circle class="st2" cx="494.2" cy="246.2" r="8.6"/>
		<circle class="st2" cx="477.9" cy="261.6" r="8.6"/>
	</g>
	
		<rect x="232.5" y="425.8" transform="matrix(0.276 -0.9612 0.9612 0.276 -163.946 656.411)" class="st3" width="242.5" height="22.5"/>
	<path class="st4" d="M302,627l-5.3-1.5c-5.5-1.6-8.6-7.3-7.1-12.7l32.2-112.2c1.6-5.5,7.3-8.6,12.7-7.1l5.3,1.5
		c5.5,1.6,8.6,7.3,7.1,12.7l-32.2,112.2C313.2,625.4,307.5,628.5,302,627z"/>
	<path class="st5" d="M400.6,340.2L364,329.7c-7.1-2-11.2-9.4-9.1-16.5l37.6-130.8c2-7.1,9.4-11.2,16.5-9.1l36.6,10.5
		c7.1,2,11.2,9.4,9.1,16.5l-37.6,130.8C415.1,338.1,407.7,342.2,400.6,340.2z"/>
</g>
</svg>
