<?xml version="1.0" encoding="utf-8"?>
<!-- Generator: Adobe Illustrator 27.7.0, SVG Export Plug-In . SVG Version: 6.00 Build 0)  -->
<svg version="1.1" id="레이어_1" xmlns="http://www.w3.org/2000/svg" xmlns:xlink="http://www.w3.org/1999/xlink" x="0px"
	 y="0px" viewBox="0 0 800 800" style="enable-background:new 0 0 800 800;" xml:space="preserve">
<style type="text/css">
	.st0{fill:#9E7E6C;stroke:#231815;stroke-width:8;stroke-linecap:round;stroke-linejoin:round;stroke-miterlimit:10;}
	.st1{fill:#E4A073;stroke:#231815;stroke-width:8;stroke-linecap:round;stroke-linejoin:round;stroke-miterlimit:10;}
	.st2{fill:#F4DBCE;stroke:#231815;stroke-width:8;stroke-linecap:round;stroke-linejoin:round;stroke-miterlimit:10;}
</style>
<g id="머리장식">
	<g id="밀짚모자">
		<path class="st0" d="M117.2,508c5.1,5.6,29.4,20.4,49.9,33.5l2.7-45.9c0,0-30.3,5.1-51.6,9.4C116.8,505.2,116.2,506.9,117.2,508z"
			/>
		<path class="st0" d="M682.8,508c-5.1,5.6-29.4,20.4-49.9,33.5l-2.7-45.9c0,0,30.3,5.1,51.6,9.4C683.2,505.2,683.8,506.9,682.8,508
			z"/>
		<polyline class="st1" points="190,405.5 190,448 399.8,448 400.2,448 610,448 610,405.5 		"/>
		<path class="st1" d="M684.6,501L610,405.7c-92.6-12-202.5-12.4-209.8-12.4l0,0c0,0-0.1,0-0.2,0c-0.1,0-0.2,0-0.2,0l0,0
			c-7.3,0-117.3,0.4-209.8,12.4L115.4,501c-2.2,3.2,0.6,7.5,4.2,6.5c27-8.2,116-26.8,280.4-26.8s253.4,18.6,280.4,26.8
			C684,508.5,686.8,504.2,684.6,501z"/>
		<path class="st1" d="M188.1,405.7c0,0-8-147.1,209.3-147.1s215.8,146.9,215.8,146.9L188.1,405.7z"/>
		<path class="st2" d="M192.7,375l-15.6,49.8c0,0,137.9-33.4,445.8,0L607.3,375C607.4,375,392.2,333.5,192.7,375z"/>
	</g>
</g>
</svg>
