<?xml version="1.0" encoding="utf-8"?>
<!-- Generator: Adobe Illustrator 27.7.0, SVG Export Plug-In . SVG Version: 6.00 Build 0)  -->
<svg version="1.1" id="레이어_1" xmlns="http://www.w3.org/2000/svg" xmlns:xlink="http://www.w3.org/1999/xlink" x="0px"
	 y="0px" viewBox="0 0 800 800" style="enable-background:new 0 0 800 800;" xml:space="preserve">
<style type="text/css">
	.st0{fill:#FFFFFF;stroke:#231815;stroke-width:8;stroke-linecap:round;stroke-linejoin:round;stroke-miterlimit:10;}
	.st1{fill:none;stroke:#231815;stroke-width:8;stroke-linecap:round;stroke-linejoin:round;stroke-miterlimit:10;}
	.st2{fill:#FFC82C;}
</style>
<g id="하의">
	<g id="고양이반바지">
		<g id="편한바지_00000181052778286467893950000005879388875701639053_">
			<path class="st0" d="M432.9,442.1l5.5,8.3c11.7,6.2,126.3,6.8,126.2-16.1c-0.1-21-6.8-88.3-6.8-88.3c-203.7,19.8-315.6,0-315.6,0
				s-6.7,67.3-6.8,88.3c-0.1,19.8,114.4,22.3,126.2,16.1l5.5-8.3H432.9z"/>
			<line class="st1" x1="358.9" y1="441.2" x2="440.8" y2="441.2"/>
		</g>
		<path class="st2" d="M291.4,377.9l2.8-5.9c1.1-1.6,3.6-1,3.9,0.9l1.6,9.8c0.9,1.6,1.4,3.4,1.4,5.2c0,7.1-7.4,12.9-16.4,12.9
			c-9.1,0-16.4-5.8-16.4-12.9c0-1.6,0.4-3.2,1.1-4.6l1.7-10.4c0.3-1.9,2.8-2.5,3.9-0.9l2.9,6C277.8,378,283.5,381.4,291.4,377.9z"/>
		<path class="st2" d="M372.6,402.1l2.8-5.9c1.1-1.6,3.6-1,3.9,0.9l1.6,9.8c0.9,1.6,1.4,3.4,1.4,5.2c0,7.1-7.4,12.9-16.4,12.9
			c-9.1,0-16.4-5.8-16.4-12.9c0-1.6,0.4-3.2,1.1-4.6l1.7-10.4c0.3-1.9,2.8-2.5,3.9-0.9l2.9,6C359,402.2,364.7,405.6,372.6,402.1z"/>
		<path class="st2" d="M452.6,377.9l2.8-5.9c1.1-1.6,3.6-1,3.9,0.9l1.6,9.8c0.9,1.6,1.4,3.4,1.4,5.2c0,7.1-7.4,12.9-16.4,12.9
			s-16.4-5.8-16.4-12.9c0-1.6,0.4-3.2,1.1-4.6l1.7-10.4c0.3-1.9,2.8-2.5,3.9-0.9l2.9,6C439,378,444.7,381.4,452.6,377.9z"/>
		<path class="st2" d="M524.3,402.1l2.8-5.9c1.1-1.6,3.6-1,3.9,0.9l1.6,9.8c0.9,1.6,1.4,3.4,1.4,5.2c0,7.1-7.4,12.9-16.4,12.9
			c-9.1,0-16.4-5.8-16.4-12.9c0-1.6,0.4-3.2,1.1-4.6l1.7-10.4c0.3-1.9,2.8-2.5,3.9-0.9l2.9,6C510.7,402.2,516.4,405.6,524.3,402.1z"
			/>
	</g>
</g>
</svg>
