<?xml version="1.0" encoding="utf-8"?>
<!-- Generator: Adobe Illustrator 27.7.0, SVG Export Plug-In . SVG Version: 6.00 Build 0)  -->
<svg version="1.1" id="레이어_1" xmlns="http://www.w3.org/2000/svg" xmlns:xlink="http://www.w3.org/1999/xlink" x="0px"
	 y="0px" viewBox="0 0 800 800" style="enable-background:new 0 0 800 800;" xml:space="preserve">
<style type="text/css">
	.st0{fill:#FFC0C0;stroke:#231815;stroke-width:8;stroke-linecap:round;stroke-linejoin:round;stroke-miterlimit:10;}
	.st1{fill:#FFFFFF;}
	.st2{fill:#DDDCDB;}
</style>
<g id="상의">
	<g id="잠옷_상의">
		<path class="st0" d="M255.7,305.8c1.3-2,6.2-5.3,20.4,0c14.2,5.3,15-3.1,29.9,4c15,7.1,6.5,6.7,6.5,21.8s0.4,13.3-3.6,34.7
			c-4,21.3-1.4,17.8-2.3,28.4c-0.9,10.7-39.5,6.7-45.3,0s-13.3,7.6-11.1-2.7c2.2-10.2-5.2-16.4-0.4-26.2c4.8-9.8-0.5-13.8,1.3-23.6
			s-1.3-15.6,3.1-20.9C258.8,316,251.9,311.9,255.7,305.8z"/>
		<path class="st0" d="M539.7,305.8c-1.3-2-6.2-5.3-20.4,0s-15-3.1-29.9,4c-15,7.1-6.5,6.7-6.5,21.8s-0.4,13.3,3.6,34.7
			c4,21.3,1.4,17.8,2.3,28.4c0.9,10.7,39.5,6.7,45.3,0s13.3,7.6,11.1-2.7s5.2-16.4,0.4-26.2s0.5-13.8-1.3-23.6s1.3-15.6-3.1-20.9
			C536.6,316,543.5,311.9,539.7,305.8z"/>
		<path class="st0" d="M547.4,366.7c0,0-12.6-10.9-38.4-2.8s-10.2-1.9-36.4,3.8s-21.4-8.2-45.3,0c-21.8,7.4-38.9,1-38.9,1
			c-32-9.7-32.7,9.6-50.9-0.2c-18.2-9.8-27.6,10.2-50.7,0s-38.5,0-38.5,0s-4,11.2-1.6,28.5c2.4,17.4-6.2,23.3-4.4,47.9
			s-5.3,36.1-1.5,43.6c3.9,7.4,20.1-3,43.3,4.7c23.1,7.7,27.1-6.2,49.4,0s17.9-8,56.1,0.9s24.9-10.4,56,0s31.4-9.8,65.2-3.3
			s27.3-4.4,45,2.1c0,0,6.5-2.7,4.1-16.9s1.2-26.4-3.6-39.4c-4.7-13,0.2-20.9-3.9-32.6C545.9,385.1,548.9,378.4,547.4,366.7z"/>
		<path class="st1" d="M302.5,411.1c-0.6-2.5,0.3-3.3-0.6-5.1s-1.1-3.6-1.9-5.4c-0.8-1.8-0.3-2.8-0.9-4.8c-0.6-2.1,0.3-3.6-1.1-4.5
			s-2.1-2.4-3.1-0.6c-1,1.8-2.5,1.8-2.4,3.2s-1,1.5-0.9,2.4s-1,1.7-1.7,1.6c-0.7-0.1-2,0-4,0.6c-2.1,0.5-2.1,0.5-3.6-0.6
			c-0.5-0.4-0.2-1.1-1.1-2.1c-1.1-1.1-2-0.8-3-2.3c-1.2-1.7-2.6-2.4-3.1-1s-1.5,2.1-1.2,4.2c0.4,2.1-0.9,1.7-0.6,3.7
			c0.4,2-1.7,2.3-1,5.3c0.7,2.9-1.4,2.5-0.1,5.7s-0.5,4.7,1.8,5.6c2.3,0.9,3.8,3.6,6.1,3.4c2.3-0.2,6.1,0.7,8.3,0.1
			c2.2-0.6,5-1,7.2-1.9c2.1-0.9,3.9-1,4.3-3C300.3,413.6,303.1,413.6,302.5,411.1z M276.4,399.7c0,0-0.6-3.6,0.1-3.7
			c0.7-0.1,2.3,2,2.5,2.6C279.3,399.2,276.4,399.7,276.4,399.7z M282.1,408.9c-0.5,0.1-1.1-0.6-1.2-1.6c-0.1-0.9,0.2-1.7,0.8-1.8
			c0.5-0.1,1.1,0.6,1.2,1.6C283,408,282.7,408.8,282.1,408.9z M293.2,413.6c-2.7,0.3-4.1-0.4-4.8-1c-1,1.8-3.9,1.6-5,1.5
			c-0.2,0-0.3,0-0.3,0l-0.2-1c0.1,0,0.3,0,0.6,0c0.9,0.1,3.2,0.3,3.9-0.9c-0.5-0.2-0.8-0.7-0.8-1.3c0-0.8,0.6-1.4,1.4-1.4
			s1.4,0.6,1.4,1.4c0,0.3-0.1,0.6-0.3,0.9c0.5,0.5,1.8,1.1,4.2,0.7l0.1,1C293.3,413.6,293.2,413.6,293.2,413.6z M292.6,407.6
			c-0.5,0.1-1.1-0.6-1.2-1.6c-0.1-0.9,0.2-1.7,0.8-1.8c0.5-0.1,1.1,0.6,1.2,1.6C293.5,406.7,293.2,407.5,292.6,407.6z M297.1,398.2
			c0,0-2.4-0.3-3.2-0.7c0,0,1.2-2.8,2.2-2.8C297.2,394.7,297.1,398.2,297.1,398.2z"/>
		<path class="st1" d="M389.5,421.9c-0.6-2.5,0.3-3.3-0.6-5.1c-0.9-1.8-1.1-3.6-1.9-5.4c-0.8-1.8-0.3-2.8-0.9-4.8
			c-0.6-2.1,0.3-3.6-1.1-4.5c-1.4-0.8-2.1-2.4-3.1-0.6c-1,1.8-2.5,1.8-2.4,3.2s-1,1.5-0.9,2.4s-1,1.7-1.7,1.6c-0.7-0.1-2,0-4,0.6
			c-2.1,0.5-2.2,0.5-3.6-0.6c-0.5-0.4-0.2-1.1-1.1-2.1c-1.1-1.1-2-0.8-3-2.3c-1.2-1.7-2.6-2.4-3.1-1s-1.5,2.1-1.2,4.2
			s-0.9,1.7-0.6,3.7c0.4,2-1.7,2.3-1,5.3c0.7,2.9-1.4,2.5-0.1,5.7s-0.5,4.7,1.8,5.6s3.8,3.6,6.1,3.4c2.3-0.2,6.1,0.7,8.3,0.1
			c2.2-0.6,5-1,7.2-1.9c2.1-0.9,3.9-1,4.3-3C387.3,424.4,390.1,424.4,389.5,421.9z M363.4,410.5c0,0-0.6-3.6,0.1-3.7
			c0.7-0.1,2.3,2,2.5,2.6C366.2,410,363.4,410.5,363.4,410.5z M369,419.7c-0.5,0.1-1.1-0.6-1.2-1.6c-0.1-0.9,0.2-1.7,0.8-1.8
			c0.5-0.1,1.1,0.6,1.2,1.6C369.9,418.8,369.6,419.6,369,419.7z M380.1,424.4c-2.7,0.3-4.1-0.4-4.8-1c-1,1.8-3.9,1.6-5,1.5
			c-0.2,0-0.3,0-0.3,0l-0.2-1c0.1,0,0.3,0,0.6,0c0.9,0.1,3.3,0.3,4-1c-0.5-0.2-0.8-0.7-0.8-1.2c0-0.8,0.6-1.4,1.4-1.4
			s1.4,0.6,1.4,1.4c0,0.4-0.1,0.7-0.4,0.9c0.6,0.5,1.8,1,4.2,0.7l0.1,1C380.2,424.4,380.2,424.4,380.1,424.4z M379.5,418.4
			c-0.5,0.1-1.1-0.6-1.2-1.6c-0.1-0.9,0.2-1.7,0.8-1.8s1.1,0.6,1.2,1.6C380.4,417.5,380.1,418.3,379.5,418.4z M380.9,408.3
			c0,0,1.2-2.8,2.2-2.8s1,3.5,1,3.5S381.7,408.7,380.9,408.3z"/>
		<path class="st1" d="M522.9,409.1c-0.6-2.5,0.3-3.3-0.6-5.1s-1.1-3.6-1.9-5.4c-0.8-1.8-0.3-2.8-0.9-4.8s0.3-3.6-1.1-4.5
			c-1.4-0.8-2.1-2.4-3.1-0.6c-1,1.8-2.5,1.8-2.4,3.2s-1,1.5-0.9,2.4s-1,1.7-1.7,1.6c-0.7-0.1-2,0-4,0.6c-2.1,0.6-2.1,0.5-3.6-0.6
			c-0.5-0.4-0.2-1.1-1.1-2.1c-1.1-1.1-2-0.8-3-2.3c-1.2-1.7-2.6-2.4-3.1-1s-1.5,2.1-1.2,4.2c0.4,2.1-0.9,1.7-0.6,3.7
			c0.4,2-1.7,2.3-1,5.3s-1.4,2.5-0.1,5.7c1.3,3.2-0.5,4.7,1.8,5.6c2.3,0.9,3.8,3.6,6.1,3.4c2.3-0.2,6.1,0.7,8.3,0.1s5-1,7.2-1.9
			c2.1-0.9,3.9-1,4.3-3C520.7,411.6,523.5,411.6,522.9,409.1z M496.8,397.7c0,0-0.6-3.6,0.1-3.7c0.7-0.1,2.3,2,2.5,2.6
			S496.8,397.7,496.8,397.7z M502.4,406.9c-0.5,0.1-1.1-0.6-1.2-1.6c-0.1-0.9,0.2-1.7,0.8-1.8c0.5-0.1,1.1,0.6,1.2,1.6
			C503.3,406,503,406.8,502.4,406.9z M513.5,411.7c-2.7,0.3-4.1-0.4-4.8-1c-1,1.8-3.9,1.6-5,1.5c-0.2,0-0.3,0-0.3,0l-0.2-1
			c0.1,0,0.3,0,0.6,0c0.9,0.1,3.3,0.3,4-1c-0.5-0.2-0.8-0.7-0.8-1.2c0-0.8,0.6-1.4,1.4-1.4s1.4,0.6,1.4,1.4c0,0.4-0.1,0.7-0.4,0.9
			c0.6,0.5,1.8,1,4.2,0.7l0.1,1C513.7,411.7,513.6,411.7,513.5,411.7z M512.9,405.6c-0.5,0.1-1.1-0.6-1.2-1.6
			c-0.1-0.9,0.2-1.7,0.8-1.8c0.5-0.1,1.1,0.6,1.2,1.6C513.8,404.7,513.5,405.5,512.9,405.6z M517.5,396.3c0,0-2.4-0.3-3.2-0.7
			c0,0,1.2-2.8,2.2-2.8C517.6,392.8,517.5,396.3,517.5,396.3z"/>
		<path class="st1" d="M337.5,458c-0.5-1.9-0.4-3.7-0.7-5.6c-0.4-1.9,0.3-2.8,0.1-4.9c-0.2-2.1,1.1-3.5-0.1-4.6s-1.5-2.8-2.9-1.3
			s-2.8,1.2-3.1,2.6c-0.2,1.4-1.3,1.2-1.4,2.1c-0.1,0.9-1.4,1.4-2,1.2s-1.9-0.4-4-0.3c-2.1,0.1-2.4,0.2-3.5-1.1
			c-0.4-0.5,0-1.2-0.7-2.3c-0.8-1.4-1.7-1.2-2.5-2.9c-0.8-1.9-2-2.9-2.8-1.7c-0.8,1.3-1.9,1.7-2,3.8s-1.3,1.4-1.3,3.4
			c-0.1,2-2.2,1.9-2.1,4.9s-1.9,2.2-1.3,5.6c0.6,3.4-1.5,4.5,0.6,5.8s2.9,4.3,5.3,4.6s5.8,2,8.1,1.9c2.2-0.1,5.1,0.1,7.4-0.3
			c2.3-0.5,4-0.2,4.9-2s3.6-1.2,3.5-3.8C336.9,460.5,338,460,337.5,458z M313.7,446.5c0,0,0.2-3.6,0.9-3.5s1.8,2.5,1.9,3.1
			C316.6,446.7,313.7,446.5,313.7,446.5z M316.4,454.9c0.1-0.9,0.6-1.7,1.2-1.6c0.5,0.1,0.9,0.9,0.8,1.8c-0.1,0.9-0.6,1.7-1.2,1.6
			C316.7,456.7,316.3,455.9,316.4,454.9z M327.2,463.7c-0.1,0.1-0.1,0.1-0.2,0.1c-2.7-0.3-3.9-1.2-4.5-2c-1.3,1.6-4.1,0.7-5.2,0.4
			c-0.2,0-0.3-0.1-0.3-0.1v-1c0.1,0,0.3,0,0.6,0.1c0.8,0.3,3.2,1,4.1-0.1c-0.3-0.3-0.5-0.6-0.5-1.1c0-0.8,0.6-1.4,1.4-1.4
			s1.4,0.6,1.4,1.4c0,0.5-0.3,0.9-0.6,1.2c0.4,0.6,1.4,1.4,3.9,1.5L327.2,463.7z M328.9,456.1c-0.1,0.9-0.6,1.7-1.2,1.6
			c-0.5-0.1-0.9-0.9-0.8-1.8c0.1-0.9,0.6-1.7,1.2-1.6C328.6,454.4,329,455.2,328.9,456.1z M334.4,449.5c0,0-2.4-0.7-3.1-1.3
			c0,0,1.7-2.5,2.8-2.3C335.1,446.2,334.4,449.5,334.4,449.5z"/>
		<path class="st1" d="M517.7,462.8c-0.5-1.9-0.4-3.7-0.7-5.6c-0.4-1.9,0.3-2.8,0.1-4.9c-0.1-2.1,1.1-3.5-0.1-4.6
			c-1.2-1.1-1.5-2.8-2.9-1.3s-2.8,1.2-3.1,2.6c-0.2,1.4-1.3,1.2-1.4,2.1c-0.1,0.9-1.4,1.4-2,1.2s-1.9-0.4-4-0.3
			c-2.3,0.3-2.4,0.3-3.5-1.1c-0.4-0.5,0-1.2-0.7-2.3c-0.8-1.4-1.7-1.2-2.5-2.9c-0.8-1.9-2-2.9-2.8-1.7c-0.8,1.3-1.9,1.7-2,3.8
			s-1.3,1.4-1.3,3.4c-0.1,2-2.2,1.9-2.1,4.9s-1.9,2.2-1.3,5.6s-1.5,4.5,0.6,5.8s2.9,4.3,5.3,4.6s5.8,2,8.1,1.9
			c2.2-0.1,5.1,0.1,7.4-0.3s4-0.2,4.9-2c0.8-1.8,3.6-1.2,3.5-3.8S518.2,464.8,517.7,462.8z M493.9,451.4c0,0,0.2-3.6,0.9-3.5
			s1.8,2.5,1.9,3.1S493.9,451.4,493.9,451.4z M496.6,459.7c0.1-0.9,0.6-1.7,1.2-1.6c0.5,0.1,0.9,0.9,0.8,1.8
			c-0.1,0.9-0.6,1.7-1.2,1.6C496.9,461.5,496.5,460.7,496.6,459.7z M507.4,468.5c0,0.1-0.1,0.1-0.2,0.1c-2.7-0.3-3.9-1.2-4.5-2
			c-1.3,1.6-4.1,0.7-5.2,0.4c-0.2,0-0.3-0.1-0.3-0.1v-1c0.1,0,0.3,0,0.6,0.1c0.8,0.3,3.2,1,4.1-0.1c-0.3-0.3-0.5-0.6-0.5-1.1
			c0-0.8,0.6-1.4,1.4-1.4s1.4,0.6,1.4,1.4c0,0.5-0.3,0.9-0.6,1.2c0.4,0.6,1.4,1.4,3.9,1.5L507.4,468.5z M509.1,460.9
			c-0.1,0.9-0.6,1.7-1.2,1.6c-0.5-0.1-0.9-0.9-0.8-1.8s0.6-1.7,1.2-1.6S509.2,460,509.1,460.9z M514.6,454.3c0,0-2.4-0.7-3.1-1.3
			c0,0,1.7-2.5,2.8-2.3C515.3,451,514.6,454.3,514.6,454.3z"/>
		<g>
			<path class="st1" d="M437.9,424.6c-0.5-0.5-0.1-1.1-0.9-2.2c-1-1.3-1.8-1-2.7-2.6c-1-1.9-2.3-2.7-2.9-1.4c-0.7,1.3-1.8,1.9-1.7,4
				s-1.1,1.6-1,3.6s-2,2.1-1.7,5.1s-1.7,2.3-0.8,5.7c0.9,3.3-1.1,4.6,1.1,5.8s3.3,4,5.7,4.1c2.3,0.1,6,1.4,8.2,1.1s5.1-0.3,7.3-1
				s4-0.6,4.7-2.4c0.7-1.9,3.4-1.6,3.1-4.1c-0.3-2.6,0.7-3.2,0-5.1c-0.7-1.9-0.7-3.7-1.2-5.6c-0.6-1.9,0-2.8-0.3-4.9
				c-0.3-2.1,0.8-3.6-0.6-4.6s-1.7-2.7-3-1c-1.2,1.7-2.7,1.4-2.8,2.9c-0.1,1.4-1.2,1.3-1.2,2.2s-1.2,1.6-1.9,1.3
				c-0.7-0.2-2-0.2-4,0.1C439.3,426,439.2,425.9,437.9,424.6z"/>
			<path class="st2" d="M431.8,425.7c0,0-0.1-3.6,0.6-3.6c0.7,0,2,2.3,2.2,2.9S431.8,425.7,431.8,425.7z"/>
			<path class="st2" d="M449.5,425.7c0,0,1.5-2.7,2.6-2.5s0.6,3.6,0.6,3.6S450.2,426.2,449.5,425.7z"/>
			<ellipse class="st2" cx="436.3" cy="433.8" rx="1" ry="1.7"/>
			<ellipse class="st2" cx="446.9" cy="433.8" rx="1" ry="1.7"/>
			<circle class="st2" cx="441.9" cy="438.3" r="1.4"/>
			<path class="st2" d="M446.7,441.6c-2.7,0-4-0.9-4.7-1.6c-1.2,1.7-4,1.1-5.1,0.9c-0.2,0-0.3-0.1-0.3-0.1l-0.1-1
				c0.1,0,0.3,0,0.6,0.1c1,0.2,3.5,0.7,4.2-0.7c0.1-0.2,0.4-0.4,0.6-0.4c0.3,0,0.5,0.1,0.7,0.3c0.4,0.5,1.4,1.5,4.2,1.4v1
				C446.8,441.6,446.8,441.6,446.7,441.6z"/>
		</g>
	</g>
</g>
</svg>
