<?xml version="1.0" encoding="utf-8"?>
<!-- Generator: Adobe Illustrator 27.7.0, SVG Export Plug-In . SVG Version: 6.00 Build 0)  -->
<svg version="1.1" id="레이어_1" xmlns="http://www.w3.org/2000/svg" xmlns:xlink="http://www.w3.org/1999/xlink" x="0px"
	 y="0px" viewBox="0 0 1080 1013.3" style="enable-background:new 0 0 1080 1013.3;" xml:space="preserve">
<style type="text/css">
	.st0{fill:#FFFFFF;stroke:#231815;stroke-width:8;stroke-linecap:round;stroke-linejoin:round;stroke-miterlimit:10;}
	.st1{fill:none;stroke:#231815;stroke-width:8;stroke-linecap:round;stroke-linejoin:round;stroke-miterlimit:10;}
	.st2{fill:#79BCF2;stroke:#231815;stroke-width:8;stroke-linecap:round;stroke-linejoin:round;stroke-miterlimit:10;}
	.st3{fill:#FFFFFF;stroke:#231815;stroke-width:5;stroke-linecap:round;stroke-linejoin:round;stroke-miterlimit:10;}
	.st4{fill:#231815;}
</style>
<g id="상의">
	<g id="마린룩상의">
		<g id="기본티셔츠_00000089533764154699341310000009440075627525161610_">
			<path class="st0" d="M698.6,823.7l-3.5-47.4c0,0,60.4-34.4,63.4-44.4c3-10.1-11.3-27.3-26.7-49.8s-31.1-24.9-31.1-24.9
				s-78.3,20.4-114.4,19c-0.5,0-0.8,0.4-0.8,0.8c0.2,4.7-10.6,40.4-45,39.9c-34.6-0.5-48.2-35.6-48.6-40c0-0.4-0.4-0.7-0.8-0.7
				c-36.1,1.4-114.5-19-114.5-19s-15.7,2.4-31.1,24.9s-29.6,39.7-26.7,49.8c3,10.1,63.4,44.4,63.4,44.4l-3.4,47.1
				c-0.1,0.9,0.6,1.7,1.5,1.9c19.7,3.3,167,17.4,317.3,0.2C698.3,825.4,698.7,824.5,698.6,823.7z"/>
			<line class="st1" x1="382.2" y1="776.3" x2="384.3" y2="754.1"/>
			<line class="st1" x1="695.2" y1="776.3" x2="692.7" y2="754.1"/>
		</g>
		<g>
			<path class="st2" d="M498.9,676.9c0,0,11.3,27.7,37.4,54.4c0,0-67.6,3.6-117.4-64.6C418.9,666.7,461.1,674.1,498.9,676.9z"/>
			<path class="st3" d="M434.2,669.2c0,0,36.6,46.8,92.5,51.3l-9.4-11.9c0,0-30.8-2.3-67.4-37.1L434.2,669.2z"/>
		</g>
		<g>
			<path class="st2" d="M579.1,676.9c0,0-11.3,27.7-37.4,54.4c0,0,67.6,3.6,117.4-64.6C659.1,666.7,616.9,674.1,579.1,676.9z"/>
			<path class="st3" d="M643.8,669.2c0,0-36.6,46.8-92.5,51.3l9.4-11.9c0,0,30.8-2.3,67.4-37.1L643.8,669.2z"/>
		</g>
		<g>
			<path class="st2" d="M536.8,743.4c0,0-34.1,12.1-19.6,41.9C517.2,785.3,549.6,771.8,536.8,743.4z"/>
			
				<ellipse transform="matrix(0.4229 -0.9062 0.9062 0.4229 -380.1724 917.5515)" class="st4" cx="530.3" cy="757.3" rx="11.5" ry="1.7"/>
		</g>
		<g>
			<path class="st2" d="M543,744.3c0,0-14.1,33.3,17.7,42.7C560.7,787,572.5,754,543,744.3z"/>
			
				<ellipse transform="matrix(0.9242 -0.382 0.382 0.9242 -248.0806 267.1572)" class="st4" cx="548.8" cy="758.4" rx="1.7" ry="11.5"/>
		</g>
		<path class="st2" d="M541.2,729.4h-5.1c-2.4,0-4.6,1.3-5.8,3.3l-2.5,4.4c-1.2,2.1-1.2,4.6,0,6.7l2.5,4.4c1.2,2.1,3.4,3.3,5.8,3.3
			h5.1c2.4,0,4.6-1.3,5.8-3.3l2.5-4.4c1.2-2.1,1.2-4.6,0-6.7l-2.5-4.4C545.8,730.7,543.6,729.4,541.2,729.4z"/>
	</g>
</g>
</svg>
