<?xml version="1.0" encoding="utf-8"?>
<!-- Generator: Adobe Illustrator 27.7.0, SVG Export Plug-In . SVG Version: 6.00 Build 0)  -->
<svg version="1.1" id="레이어_1" xmlns="http://www.w3.org/2000/svg" xmlns:xlink="http://www.w3.org/1999/xlink" x="0px"
	 y="0px" viewBox="0 0 800 800" style="enable-background:new 0 0 800 800;" xml:space="preserve">
<style type="text/css">
	.st0{fill:#FFFFFF;stroke:#231815;stroke-width:8;stroke-linecap:round;stroke-linejoin:round;stroke-miterlimit:10;}
	.st1{fill:none;stroke:#231815;stroke-width:8;stroke-linecap:round;stroke-linejoin:round;stroke-miterlimit:10;}
	.st2{fill:#79BCF2;stroke:#231815;stroke-width:8;stroke-linecap:round;stroke-linejoin:round;stroke-miterlimit:10;}
	.st3{fill:#FFFFFF;stroke:#231815;stroke-width:5;stroke-linecap:round;stroke-linejoin:round;stroke-miterlimit:10;}
	.st4{fill:#231815;}
</style>
<g id="상의">
	<g id="마린룩상의">
		<g id="기본티셔츠_00000089533764154699341310000009440075627525161610_">
			<path class="st0" d="M559.9,478.2l-3.5-47.4c0,0,60.4-34.4,63.4-44.4c3-10.1-11.3-27.3-26.7-49.8S562,311.7,562,311.7
				s-78.3,20.4-114.4,19c-0.5,0-0.8,0.4-0.8,0.8c0.2,4.7-10.6,40.4-45,39.9c-34.6-0.5-48.2-35.6-48.6-40c0-0.4-0.4-0.7-0.8-0.7
				c-36.1,1.4-114.5-19-114.5-19s-15.7,2.4-31.1,24.9s-29.6,39.7-26.7,49.8c3,10.1,63.4,44.4,63.4,44.4l-3.4,47.1
				c-0.1,0.9,0.6,1.7,1.5,1.9c19.7,3.3,167,17.4,317.3,0.2C559.6,479.9,560,479,559.9,478.2z"/>
			<line class="st1" x1="243.5" y1="430.8" x2="245.6" y2="408.6"/>
			<line class="st1" x1="556.5" y1="430.8" x2="554" y2="408.6"/>
		</g>
		<g>
			<path class="st2" d="M360.2,331.4c0,0,11.3,27.7,37.4,54.4c0,0-67.6,3.6-117.4-64.6C280.2,321.2,322.4,328.6,360.2,331.4z"/>
			<path class="st3" d="M295.5,323.7c0,0,36.6,46.8,92.5,51.3l-9.4-11.9c0,0-30.8-2.3-67.4-37.1L295.5,323.7z"/>
		</g>
		<g>
			<path class="st2" d="M440.4,331.4c0,0-11.3,27.7-37.4,54.4c0,0,67.6,3.6,117.4-64.6C520.4,321.2,478.2,328.6,440.4,331.4z"/>
			<path class="st3" d="M505.1,323.7c0,0-36.6,46.8-92.5,51.3l9.4-11.9c0,0,30.8-2.3,67.4-37.1L505.1,323.7z"/>
		</g>
		<g>
			<path class="st2" d="M398.1,397.9c0,0-34.1,12.1-19.6,41.9C378.5,439.8,410.9,426.3,398.1,397.9z"/>
			
				<ellipse transform="matrix(0.4229 -0.9062 0.9062 0.4229 -147.0417 592.5544)" class="st4" cx="391.7" cy="411.7" rx="11.5" ry="1.7"/>
		</g>
		<g>
			<path class="st2" d="M404.3,398.8c0,0-14.1,33.3,17.7,42.7C422,441.5,433.8,408.5,404.3,398.8z"/>
			
				<ellipse transform="matrix(0.9242 -0.382 0.382 0.9242 -126.6158 187.9893)" class="st4" cx="410.2" cy="412.9" rx="1.7" ry="11.5"/>
		</g>
		<path class="st2" d="M402.5,383.9h-5.1c-2.4,0-4.6,1.3-5.8,3.3l-2.5,4.4c-1.2,2.1-1.2,4.6,0,6.7l2.5,4.4c1.2,2.1,3.4,3.3,5.8,3.3
			h5.1c2.4,0,4.6-1.3,5.8-3.3l2.5-4.4c1.2-2.1,1.2-4.6,0-6.7l-2.5-4.4C407.1,385.2,404.9,383.9,402.5,383.9z"/>
	</g>
</g>
</svg>
