<?xml version="1.0" encoding="utf-8"?>
<!-- Generator: Adobe Illustrator 27.7.0, SVG Export Plug-In . SVG Version: 6.00 Build 0)  -->
<svg version="1.1" id="레이어_1" xmlns="http://www.w3.org/2000/svg" xmlns:xlink="http://www.w3.org/1999/xlink" x="0px"
	 y="0px" viewBox="0 0 1080 1013.3" style="enable-background:new 0 0 1080 1013.3;" xml:space="preserve">
<style type="text/css">
	.st0{fill:#FFC82C;stroke:#231815;stroke-width:8;stroke-linecap:round;stroke-linejoin:round;stroke-miterlimit:10;}
	.st1{fill:#FFFFFF;stroke:#231815;stroke-width:8;stroke-linecap:round;stroke-linejoin:round;stroke-miterlimit:10;}
	.st2{fill:#323232;}
	.st3{fill:none;stroke:#231815;stroke-width:8;stroke-linecap:round;stroke-linejoin:round;stroke-miterlimit:10;}
</style>
<g id="상의">
	<g id="원피스1">
		<path class="st0" d="M577.5,676.2c102.4-7.4,128.7-21.4,128.7-21.4s22.2,31.8,51.7,71.6c2.8,3.8,2,9.3-1.9,12
			c-14.4,10.3-47,33.4-63.1,43c0,0,11,79,23.5,122.6c0,0-32.4,28.8-95,16.1c-35.2,16.9-84.4,3.2-84.4,3.2
			c-40.4,11.2-79.5-3.2-79.5-3.2c-62.7,12.7-95-16.1-95-16.1c12.4-43.6,23.5-122.6,23.5-122.6c-15.9-9.5-48.1-32.3-62.7-42.7
			c-4.1-2.9-5-8.7-2-12.8c29.4-39.6,51.4-71.2,51.4-71.2s26.3,14,128.7,21.4c0,0,22.8,42.3,36.7,42.1
			C559.2,717.8,577.5,676.2,577.5,676.2z"/>
		<g>
			<path class="st1" d="M501.2,675.7c0,0,9.4,22,36.3,42.4c1.7,1.3,1.6,3.8-0.2,4.9c-7.2,4.5-25.2,12.3-50,0.2
				c-32.7-16-21.5-50.8-21.1-50.3S463.9,672.8,501.2,675.7z"/>
			<path class="st1" d="M576.1,675.7c0,0-9.4,22-36.3,42.4c-1.7,1.3-1.6,3.8,0.2,4.9c7.2,4.5,25.2,12.3,50,0.2
				c32.7-16,21.5-50.8,21.1-50.3S613.4,672.8,576.1,675.7z"/>
		</g>
		<circle class="st2" cx="539.6" cy="750.6" r="5.7"/>
		<circle class="st2" cx="539.6" cy="775.6" r="5.7"/>
		<line class="st3" x1="385.7" y1="781.4" x2="389.3" y2="750.6"/>
		<line class="st3" x1="692.9" y1="781.4" x2="689.4" y2="750.6"/>
	</g>
</g>
</svg>
