<?xml version="1.0" encoding="utf-8"?>
<!-- Generator: Adobe Illustrator 27.7.0, SVG Export Plug-In . SVG Version: 6.00 Build 0)  -->
<svg version="1.1" id="레이어_1" xmlns="http://www.w3.org/2000/svg" xmlns:xlink="http://www.w3.org/1999/xlink" x="0px"
	 y="0px" viewBox="0 0 1080 1013.3" style="enable-background:new 0 0 1080 1013.3;" xml:space="preserve">
<style type="text/css">
	.st0{fill:#FFFFFF;stroke:#231815;stroke-width:8;stroke-linecap:round;stroke-linejoin:round;stroke-miterlimit:10;}
	.st1{fill:#323232;}
	.st2{fill:none;stroke:#231815;stroke-width:8;stroke-linecap:round;stroke-linejoin:round;stroke-miterlimit:10;}
</style>
<g id="상의">
	<g id="원피스1">
		<path class="st0" d="M577.5,676.2c102.4-7.4,128.7-21.4,128.7-21.4s22.2,31.8,51.7,71.6c2.8,3.8,2,9.3-1.9,12
			c-14.4,10.3-47,33.4-63.1,43c0,0,1,10,13.5,53.6c0,0-22.4,28.8-85,16.1c-35.2,16.9-84.4,3.2-84.4,3.2
			c-40.4,11.2-79.5-3.2-79.5-3.2c-62.7,12.7-85-16.1-85-16.1c12.4-43.6,13.5-53.6,13.5-53.6c-15.9-9.5-48.1-32.3-62.7-42.7
			c-4.1-2.9-5-8.7-2-12.8c29.4-39.6,51.4-71.2,51.4-71.2s26.3,14,128.7,21.4c0,0,22.8,29.8,36.7,29.6
			C559.2,705.3,577.5,676.2,577.5,676.2z"/>
		<g>
			<path class="st0" d="M512.9,676.5c0,0,6.5,15.1,25,29.2c1.2,0.9,1.1,2.6-0.1,3.4c-5,3.1-17.3,8.5-34.4,0.1
				c-22.5-11-14.8-35-14.5-34.6C489.1,674.9,487.2,674.5,512.9,676.5z"/>
			<path class="st0" d="M564.4,676.5c0,0-6.5,15.1-25,29.2c-1.2,0.9-1.1,2.6,0.1,3.4c5,3.1,17.3,8.5,34.4,0.1
				c22.5-11,14.8-35,14.5-34.6C588.2,674.9,590.1,674.5,564.4,676.5z"/>
		</g>
		<circle class="st1" cx="539.6" cy="734.3" r="5.7"/>
		<circle class="st1" cx="539.6" cy="759.3" r="5.7"/>
		<line class="st2" x1="385.7" y1="781.4" x2="389.3" y2="750.6"/>
		<line class="st2" x1="692.9" y1="781.4" x2="689.4" y2="750.6"/>
	</g>
</g>
</svg>
