<?xml version="1.0" encoding="utf-8"?>
<!-- Generator: Adobe Illustrator 27.7.0, SVG Export Plug-In . SVG Version: 6.00 Build 0)  -->
<svg version="1.1" id="레이어_1" xmlns="http://www.w3.org/2000/svg" xmlns:xlink="http://www.w3.org/1999/xlink" x="0px"
	 y="0px" viewBox="0 0 800 800" style="enable-background:new 0 0 800 800;" xml:space="preserve">
<style type="text/css">
	.st0{fill:#5D5D5D;stroke:#231815;stroke-width:8;stroke-linecap:round;stroke-linejoin:round;stroke-miterlimit:10;}
	.st1{display:none;}
	
		.st2{display:inline;fill:#5D5D5D;stroke:#231815;stroke-width:8;stroke-linecap:round;stroke-linejoin:round;stroke-miterlimit:10;}
	.st3{display:inline;}
	.st4{fill:#5D5D5D;}
</style>
<g id="하의">
	<g id="치마">
		<path class="st0" d="M397,442.8C514,446.7,579,413.4,579,413.4L556.8,341c-149.5,14.7-313.6,0-313.6,0l-22.3,72.4
			c0,0,65,33.3,182.1,29.4L397,442.8L397,442.8z"/>
		<path class="st0" d="M297,348.3l-9.2,78.7c-0.5,4.1,2.2,7.8,6.2,8.7c10,2.1,30.8,5.5,63.7,7.1c4.5,0.2,8.2-3.3,8.3-7.8l1.6-84.3
			c0-1.7-1.3-3.2-3.1-3.2l-63.7-2.5C299,344.9,297.3,346.4,297,348.3z"/>
		<path class="st0" d="M507.2,348.3l9.1,78.5c0.5,4.1-2.3,7.9-6.4,8.7c-10.3,2-31.7,5.4-63.4,7.1c-4.5,0.2-8.3-3.3-8.4-7.8
			l-1.6-84.2c0-1.7,1.3-3.2,3.1-3.2l63.7-2.5C505.3,344.9,507,346.4,507.2,348.3z"/>
	</g>
	<g id="잠옷_하의" class="st1">
		<path class="st2" d="M407.2,445.7c3.6,14.2,4.9,12.4,9.1,17.6c4.2,5.1,15.8-1.1,24.2-0.2c8.4,1,10.7-3.2,26.1-0.9
			c15.4,2.4,23.3-1,36-0.1s14-2.7,27.8-3.6c13.8-0.9,24,4.9,29.9-5.3s-2.3-15.1,0.9-28.9c3.2-13.8-3.2-11.2-0.9-26.3s0-11.6,1-28.4
			c0.7-12.3-2.6-22.5-3.9-29.4c-0.5-2.6-2.8-4.2-5.5-4.3c-25.9-1.6-30.2,7.9-47.4,3.4c-15.5-4.1-17.8,5-38.2,2.3s-20.4,6.8-32.9,2.3
			c-12.4-4.4-31.1,2.2-41.8-1.8s-20.9,3.8-37.3-0.7c-16.4-4.5-25.3,4.5-44.4,0c-19.1-4.5-19.6-0.1-34.1-4.3
			c-9.5-2.8-23.7-2.9-30.2-2c-3.4,0.5-3.1,3.1-3.7,6.5c-1.3,7.5-4.4,16.4-3.7,28c1,16.9-1.3,13.3,1,28.4s-4,12.6-0.9,26.3
			c3.2,13.8-5.1,18.7,0.9,28.9c5.9,10.2,16.1,4.4,29.9,5.3c13.8,0.9,15.1,4.4,27.8,3.6c12.7-0.9,20.6,2.5,36,0.1
			c15.4-2.4,17.7,1.8,26.1,0.9c8.4-1,20.1,5.3,24.2,0.2c4.2-5.1,5.5-3.4,9.1-17.6c0,0,1.1-10.7,7.4-9.8S407.2,445.7,407.2,445.7z"/>
		<g class="st3">
			<path class="st4" d="M278.8,410.8c-0.5-0.5-0.1-1.1-0.9-2.2c-1-1.3-1.8-1-2.7-2.6c-1-1.9-2.3-2.7-2.9-1.4c-0.7,1.3-1.8,1.9-1.7,4
				s-1.1,1.6-1,3.6c0.1,2-2,2.1-1.7,5.1s-1.7,2.3-0.8,5.7c0.9,3.3-1.1,4.6,1.1,5.8s3.3,4,5.7,4.1c2.3,0.1,6,1.4,8.2,1.1
				c2.2-0.3,5.1-0.3,7.3-1s4-0.6,4.7-2.4c0.7-1.9,3.4-1.6,3.1-4.1c-0.3-2.6,0.7-3.2,0-5.1c-0.7-1.9-0.7-3.7-1.2-5.6
				c-0.6-1.9,0-2.8-0.3-4.9c-0.3-2.1,0.8-3.6-0.6-4.6c-1.3-1-1.7-2.7-3-1c-1.2,1.7-2.7,1.4-2.8,2.9s-1.2,1.3-1.2,2.2
				s-1.2,1.6-1.9,1.3c-0.7-0.2-2-0.2-4,0.1C280,412.1,280,412,278.8,410.8z"/>
			<path class="st4" d="M272.7,411.8c0,0-0.1-3.6,0.6-3.6s2,2.3,2.2,2.9C275.5,411.7,272.7,411.8,272.7,411.8z"/>
			<path class="st4" d="M290.2,411.8c0,0,1.5-2.7,2.6-2.5c1.1,0.2,0.6,3.6,0.6,3.6S291,412.3,290.2,411.8z"/>
			<ellipse class="st4" cx="277" cy="419.9" rx="1" ry="1.7"/>
			<ellipse class="st4" cx="287.7" cy="419.9" rx="1" ry="1.7"/>
			<circle class="st4" cx="282.8" cy="424.4" r="1.4"/>
			<path class="st4" d="M287.5,427.8c-2.7,0-4-0.9-4.7-1.6c-1.2,1.7-4,1.1-5.1,0.9c-0.2,0-0.3-0.1-0.3-0.1l-0.1-1
				c0.1,0,0.3,0,0.6,0.1c1,0.2,3.5,0.7,4.2-0.7c0.1-0.2,0.4-0.4,0.6-0.4c0.3,0,0.5,0.1,0.7,0.3c0.4,0.5,1.4,1.5,4.2,1.4v1
				C287.7,427.8,287.5,427.8,287.5,427.8z"/>
		</g>
		<g class="st3">
			<path class="st4" d="M514.6,377.3c-0.5-0.5-0.1-1.1-0.9-2.2c-1-1.3-1.8-1-2.7-2.6c-1-1.9-2.3-2.7-2.9-1.4c-0.7,1.3-1.8,1.9-1.7,4
				s-1.1,1.6-1,3.6s-2,2.1-1.7,5.1s-1.7,2.3-0.8,5.7c0.9,3.3-1.1,4.6,1.1,5.8s3.3,4,5.7,4.1c2.3,0.1,6,1.4,8.2,1.1s5.1-0.3,7.3-1
				s4-0.6,4.7-2.4c0.7-1.9,3.4-1.6,3.1-4.1c-0.3-2.6,0.7-3.2,0-5.1c-0.7-1.9-0.7-3.7-1.2-5.6c-0.6-1.9,0-2.8-0.3-4.9
				c-0.3-2.1,0.8-3.6-0.6-4.6c-1.3-1-1.7-2.7-3-1c-1.2,1.7-2.7,1.4-2.8,2.9c-0.1,1.4-1.2,1.3-1.2,2.2s-1.2,1.6-1.9,1.3
				c-0.7-0.2-2-0.2-4,0.1C516,378.6,515.8,378.6,514.6,377.3z"/>
			<path class="st4" d="M508.5,378.4c0,0-0.1-3.6,0.6-3.6c0.7,0,2,2.3,2.2,2.9C511.3,378.3,508.5,378.4,508.5,378.4z"/>
			<path class="st4" d="M526.1,378.4c0,0,1.5-2.7,2.6-2.5s0.6,3.6,0.6,3.6S526.8,378.9,526.1,378.4z"/>
			<ellipse class="st4" cx="513" cy="386.5" rx="1" ry="1.7"/>
			<ellipse class="st4" cx="523.5" cy="386.5" rx="1" ry="1.7"/>
			<circle class="st4" cx="518.5" cy="390.9" r="1.4"/>
			<path class="st4" d="M523.3,394.3c-2.7,0-4-0.9-4.7-1.6c-1.2,1.7-4,1.1-5.1,0.9c-0.2,0-0.3-0.1-0.3-0.1l-0.1-1
				c0.1,0,0.3,0,0.6,0.1c1,0.2,3.5,0.7,4.2-0.7c0.1-0.2,0.4-0.4,0.6-0.4c0.3,0,0.5,0.1,0.7,0.3c0.4,0.5,1.4,1.5,4.2,1.4v1
				C523.5,394.3,523.5,394.3,523.3,394.3z"/>
		</g>
		<g class="st3">
			<path class="st4" d="M341.8,381.6c-0.6-0.4-0.3-1.1-1.4-2c-1.2-1-2-0.6-3.3-1.9c-1.4-1.6-2.8-2.1-3.2-0.7
				c-0.3,1.4-1.3,2.2-0.7,4.3s-0.7,1.8-0.2,3.7c0.6,1.9-1.5,2.5-0.5,5.4c1,2.8-1.1,2.7,0.5,5.7c1.6,3,0,4.7,2.4,5.4
				c2.4,0.6,4.2,3.2,6.5,2.7c2.3-0.4,6.2,0,8.3-0.8c2.1-0.8,4.9-1.5,6.9-2.6c2-1.2,3.8-1.4,4-3.4s3-2.3,2.1-4.7
				c-0.9-2.4,0-3.3-1.1-5c-1.1-1.7-1.5-3.4-2.5-5.1c-1-1.7-0.6-2.7-1.4-4.7s0-3.6-1.6-4.3c-1.5-0.7-2.3-2.2-3.1-0.3
				c-0.8,1.9-2.3,2-2.1,3.4c0.2,1.4-0.9,1.6-0.7,2.4c0.2,0.9-0.8,1.8-1.5,1.7s-2,0.2-3.9,1C343.5,382.6,343.3,382.5,341.8,381.6z"/>
			<path class="st4" d="M336.2,384c0,0-0.9-3.5-0.3-3.6c0.6-0.2,2.5,1.8,2.8,2.3S336.2,384,336.2,384z"/>
			<path class="st4" d="M353.3,380c0,0,0.9-2.9,1.9-3c1.1-0.1,1.4,3.3,1.4,3.3S354.2,380.3,353.3,380z"/>
			<ellipse transform="matrix(0.974 -0.2265 0.2265 0.974 -79.6476 87.7015)" class="st4" cx="342.3" cy="390.9" rx="1" ry="1.7"/>
			<ellipse transform="matrix(0.974 -0.2265 0.2265 0.974 -78.8363 89.9721)" class="st4" cx="352.6" cy="388.5" rx="1" ry="1.7"/>
			<circle class="st4" cx="348.8" cy="394" r="1.4"/>
			<path class="st4" d="M354.2,396.2c-2.7,0.6-4.1,0.1-4.9-0.5c-0.8,1.9-3.7,2-4.8,2c-0.2,0-0.3,0-0.3,0l-0.3-0.9
				c0.1-0.1,0.3-0.1,0.6-0.1c1,0,3.6-0.1,4-1.6c0.1-0.3,0.3-0.5,0.5-0.6c0.3-0.1,0.5,0,0.7,0.2c0.5,0.4,1.7,1.1,4.4,0.4l0.2,1
				C354.3,396.1,354.2,396.1,354.2,396.2z"/>
		</g>
		<g class="st3">
			<path class="st4" d="M445.1,409.9c-0.4-0.5,0.1-1.1-0.6-2.3c-0.8-1.4-1.7-1.3-2.3-3c-0.8-2-1.9-3-2.7-1.8s-2,1.6-2.2,3.7
				c-0.2,2.1-1.3,1.4-1.5,3.4s-2.3,1.8-2.4,4.8c-0.1,3-2,2.1-1.6,5.5s-1.7,4.4,0.3,5.9c2,1.4,2.7,4.4,5,4.9s5.7,2.3,8,2.2
				c2.2,0,5.1,0.4,7.4,0c2.3-0.4,4,0,5-1.8c0.9-1.8,3.6-1.1,3.6-3.6c0-2.6,1.2-3.1,0.7-5.1c-0.4-2-0.2-3.7-0.5-5.7
				c-0.3-1.9,0.4-2.8,0.3-4.9c0-2.1,1.3-3.4,0.1-4.6c-1.2-1.2-1.4-2.9-2.8-1.4c-1.5,1.5-2.9,1.1-3.2,2.5s-1.4,1.2-1.5,2
				c-0.1,0.9-1.4,1.4-2.1,1.1s-1.9-0.5-4-0.4C446.3,411.4,446.2,411.4,445.1,409.9z"/>
			<path class="st4" d="M439,410.1c0,0,0.4-3.6,1-3.5c0.7,0.1,1.7,2.5,1.7,3.2C441.8,410.4,439,410.1,439,410.1z"/>
			<path class="st4" d="M456.5,412.6c0,0,1.9-2.4,2.9-2.1c1,0.3,0.1,3.6,0.1,3.6S457.1,413.2,456.5,412.6z"/>
			
				<ellipse transform="matrix(0.1378 -0.9905 0.9905 0.1378 -33.3164 799.3057)" class="st4" cx="442.4" cy="418.8" rx="1.7" ry="1"/>
			
				<ellipse transform="matrix(0.1378 -0.9905 0.9905 0.1378 -25.8184 811.0047)" class="st4" cx="452.9" cy="420.3" rx="1.7" ry="1"/>
			<circle class="st4" cx="447.2" cy="424" r="1.4"/>
			<path class="st4" d="M451.5,428c-2.7-0.4-3.9-1.4-4.4-2.2c-1.4,1.5-4.1,0.6-5.2,0.2c-0.1-0.1-0.3-0.1-0.3-0.1v-1
				c0.1,0,0.3,0,0.6,0.2c0.9,0.3,3.4,1.2,4.3-0.1c0.1-0.2,0.4-0.4,0.7-0.3c0.3,0,0.5,0.2,0.6,0.4c0.3,0.6,1.2,1.6,4,2l-0.1,1
				C451.6,428,451.6,428,451.5,428z"/>
		</g>
	</g>
</g>
</svg>
