<?xml version="1.0" encoding="utf-8"?>
<!-- Generator: Adobe Illustrator 27.7.0, SVG Export Plug-In . SVG Version: 6.00 Build 0)  -->
<svg version="1.1" id="레이어_1" xmlns="http://www.w3.org/2000/svg" xmlns:xlink="http://www.w3.org/1999/xlink" x="0px"
	 y="0px" viewBox="0 0 800 800" style="enable-background:new 0 0 800 800;" xml:space="preserve">
<style type="text/css">
	.st0{fill:#DB1D1D;stroke:#231815;stroke-width:8;stroke-linecap:round;stroke-linejoin:round;stroke-miterlimit:10;}
	.st1{fill:none;stroke:#231815;stroke-width:8;stroke-linecap:round;stroke-linejoin:round;stroke-miterlimit:10;}
	.st2{fill:#231815;}
	.st3{display:none;}
	
		.st4{display:inline;fill:#FFAD46;stroke:#231815;stroke-width:8;stroke-linecap:round;stroke-linejoin:round;stroke-miterlimit:10;}
	.st5{display:inline;fill:none;stroke:#231815;stroke-width:8;stroke-linecap:round;stroke-linejoin:round;stroke-miterlimit:10;}
	.st6{display:inline;fill:#231815;}
</style>
<g id="상의">
	<g id="원피스3_00000023963204721163846140000007561430833735811756_">
		<path class="st0" d="M442,324.6l2-39.6c74.7-2.8,118.9-20.1,118.9-20.1s34.7,37.5,67.5,90.1c1.7,2.8,1.1,6.4-1.5,8.3
			c-12,9.1-48.3,33.4-73.1,43.9c0,0,21.7,75.9,30.6,104.4c0,0-49.1,23.5-186.1,23.5s-186.7-23.5-186.7-23.5
			c8.9-28.4,30.6-104.4,30.6-104.4c-24.8-10.4-61.2-34.8-73.1-43.9c-2.6-2-3.2-5.6-1.5-8.3c32.8-52.6,67.5-90.1,67.5-90.1
			S281.3,282.2,356,285l2,39.6c0,5.1,4.1,9.2,9.2,9.2H433C437.9,333.7,442,329.6,442,324.6z"/>
		<path class="st1" d="M338,284l2,53c0,7.4,6,13.4,13.4,13.4h93c7.4,0,13.4-6,13.4-13.4l2-53"/>
		<line class="st1" x1="400.3" y1="350.3" x2="400.3" y2="535"/>
		<circle class="st2" cx="432.3" cy="385.7" r="6.9"/>
		<circle class="st2" cx="432.3" cy="438.2" r="6.9"/>
		<circle class="st2" cx="432.3" cy="490.8" r="6.9"/>
		<line class="st1" x1="244.2" y1="407.2" x2="261.1" y2="356.7"/>
		<line class="st1" x1="555.7" y1="407.2" x2="538.8" y2="356.7"/>
	</g>
	<g id="원피스3" class="st3">
		<path class="st4" d="M442,324.6l2-39.6c74.7-2.8,118.9-20.1,118.9-20.1s34.7,37.5,67.5,90.1c1.7,2.8,1.1,6.4-1.5,8.3
			c-12,9.1-48.3,33.4-73.1,43.9c0,0,21.7,75.9,30.6,104.4c0,0-49.1,23.5-186.1,23.5s-186.7-23.5-186.7-23.5
			c8.9-28.4,30.6-104.4,30.6-104.4c-24.8-10.4-61.2-34.8-73.1-43.9c-2.6-2-3.2-5.6-1.5-8.3c32.8-52.6,67.5-90.1,67.5-90.1
			S281.3,282.2,356,285l2,39.6c0,5.1,4.1,9.2,9.2,9.2H433C437.9,333.7,442,329.6,442,324.6z"/>
		<path class="st5" d="M338,284l2,53c0,7.4,6,13.4,13.4,13.4h93c7.4,0,13.4-6,13.4-13.4l2-53"/>
		<line class="st5" x1="400.3" y1="350.3" x2="400.3" y2="535"/>
		<circle class="st6" cx="432.3" cy="385.7" r="6.9"/>
		<circle class="st6" cx="432.3" cy="438.2" r="6.9"/>
		<circle class="st6" cx="432.3" cy="490.8" r="6.9"/>
		<line class="st5" x1="244.2" y1="407.2" x2="261.1" y2="356.7"/>
		<line class="st5" x1="555.7" y1="407.2" x2="538.8" y2="356.7"/>
	</g>
</g>
</svg>
