<?xml version="1.0" encoding="utf-8"?>
<!-- Generator: Adobe Illustrator 27.7.0, SVG Export Plug-In . SVG Version: 6.00 Build 0)  -->
<svg version="1.1" id="레이어_1" xmlns="http://www.w3.org/2000/svg" xmlns:xlink="http://www.w3.org/1999/xlink" x="0px"
	 y="0px" viewBox="0 0 800 800" style="enable-background:new 0 0 800 800;" xml:space="preserve">
<style type="text/css">
	.st0{fill:#FFC0C0;stroke:#231815;stroke-width:8;stroke-linecap:round;stroke-linejoin:round;stroke-miterlimit:10;}
	.st1{fill:#FFFFFF;}
</style>
<g id="하의">
	<g id="잠옷_하의">
		<path class="st0" d="M407.5,445.7c3.6,14.2,4.9,12.4,9.1,17.6c4.2,5.1,15.8-1.1,24.2-0.2c8.4,1,10.7-3.2,26.1-0.9
			c15.4,2.4,23.3-1,36-0.1s14-2.7,27.8-3.6c13.8-0.9,24,4.9,29.9-5.3s-2.3-15.1,0.9-28.9c3.2-13.8-3.2-11.2-0.9-26.3s0-11.6,1-28.4
			c0.7-12.3-2.6-22.5-3.9-29.4c-0.5-2.6-2.8-4.2-5.5-4.3c-25.9-1.6-30.2,7.9-47.4,3.4c-15.5-4.1-17.8,5-38.2,2.3s-20.4,6.8-32.9,2.3
			c-12.4-4.4-31.1,2.2-41.8-1.8s-20.9,3.8-37.3-0.7s-25.3,4.5-44.4,0s-19.6-0.1-34.1-4.3c-9.5-2.8-23.7-2.9-30.2-2
			c-3.4,0.5-3.1,3.1-3.7,6.5c-1.3,7.5-4.4,16.4-3.7,28c1,16.9-1.3,13.3,1,28.4s-4,12.6-0.9,26.3c3.2,13.8-5.1,18.7,0.9,28.9
			c5.9,10.2,16.1,4.4,29.9,5.3c13.8,0.9,15.1,4.4,27.8,3.6c12.7-0.9,20.6,2.5,36,0.1s17.7,1.8,26.1,0.9c8.4-1,20.1,5.3,24.2,0.2
			c4.2-5.1,5.5-3.4,9.1-17.6c0,0,1.1-10.7,7.4-9.8S407.5,445.7,407.5,445.7z"/>
		<path class="st1" d="M297.5,421.2c-0.7-1.9-0.7-3.7-1.2-5.6s0-2.8-0.3-4.9c-0.3-2.1,0.8-3.6-0.6-4.6c-1.3-1-1.7-2.7-3-1
			c-1.2,1.7-2.7,1.4-2.8,2.9c-0.1,1.4-1.2,1.3-1.2,2.2s-1.2,1.6-1.9,1.3c-0.7-0.2-2-0.2-4,0.1c-2.1,0.3-2.1,0.3-3.4-1
			c-0.5-0.5-0.1-1.1-0.9-2.2c-1-1.3-1.8-1-2.7-2.6c-1-1.9-2.3-2.7-2.9-1.4c-0.7,1.3-1.8,1.9-1.7,4s-1.1,1.6-1,3.6s-2,2.1-1.7,5.1
			s-1.7,2.3-0.8,5.7c0.9,3.3-1.1,4.6,1.1,5.8c2.2,1.1,3.3,4,5.7,4.1c2.3,0.1,6,1.4,8.2,1.1s5.1-0.3,7.3-1c2.2-0.7,4-0.6,4.7-2.4
			s3.4-1.6,3.1-4.1C297.1,423.8,298.1,423.1,297.5,421.2z M272.9,411.8c0,0-0.1-3.6,0.6-3.6s2,2.3,2.2,2.9
			C275.8,411.7,272.9,411.8,272.9,411.8z M276.3,419.9c0-0.9,0.5-1.7,1-1.7s1,0.7,1,1.7s-0.5,1.7-1,1.7S276.3,420.9,276.3,419.9z
			 M287.8,427.8c-2.7,0-4-0.9-4.7-1.6c-1.2,1.7-4,1.1-5.1,0.9c-0.2,0-0.3-0.1-0.3-0.1l-0.1-1c0.1,0,0.3,0,0.6,0.1
			c0.9,0.2,3.2,0.7,4.1-0.5c-0.4-0.2-0.7-0.7-0.7-1.2c0-0.8,0.6-1.4,1.4-1.4s1.4,0.6,1.4,1.4c0,0.5-0.2,0.8-0.5,1.1
			c0.5,0.5,1.5,1.3,4.1,1.3v1C287.9,427.8,287.8,427.8,287.8,427.8z M287.9,421.6c-0.6,0-1-0.7-1-1.7s0.5-1.7,1-1.7s1,0.7,1,1.7
			S288.5,421.6,287.9,421.6z M293.7,412.9c0,0-2.4-0.6-3.2-1.1c0,0,1.5-2.7,2.6-2.5C294.1,409.5,293.7,412.9,293.7,412.9z"/>
		<path class="st1" d="M533.3,387.8c-0.7-1.9-0.7-3.7-1.2-5.6s0-2.8-0.3-4.9c-0.3-2.1,0.8-3.6-0.6-4.6c-1.3-1-1.7-2.7-3-1
			c-1.2,1.7-2.7,1.4-2.8,2.9c-0.1,1.4-1.2,1.3-1.2,2.2s-1.2,1.6-1.9,1.3c-0.7-0.2-2-0.2-4,0.1s-2.1,0.3-3.4-1
			c-0.5-0.5-0.1-1.1-0.9-2.2c-1-1.3-1.8-1-2.7-2.6c-1-1.9-2.3-2.7-2.9-1.4c-0.7,1.3-1.8,1.9-1.7,4s-1.1,1.6-1,3.6s-2,2.1-1.7,5.1
			s-1.7,2.3-0.8,5.7c0.9,3.3-1.1,4.6,1.1,5.8c2.2,1.1,3.3,4,5.7,4.1c2.3,0.1,6,1.4,8.2,1.1c2.2-0.3,5.1-0.3,7.3-1s4-0.6,4.7-2.4
			c0.7-1.9,3.4-1.6,3.1-4.1C533,390.3,534,389.6,533.3,387.8z M508.8,378.4c0,0-0.1-3.6,0.6-3.6c0.7,0,2,2.3,2.2,2.9
			C511.6,378.3,508.8,378.4,508.8,378.4z M512.2,386.5c0-0.9,0.5-1.7,1-1.7s1,0.7,1,1.7c0,0.9-0.5,1.7-1,1.7
			S512.2,387.4,512.2,386.5z M523.6,394.3c-2.7,0-4-0.9-4.7-1.6c-1.2,1.7-4,1.1-5.1,0.9c-0.2,0-0.3-0.1-0.3-0.1l-0.1-1
			c0.1,0,0.3,0,0.6,0.1c0.9,0.2,3.2,0.7,4.1-0.5c-0.4-0.2-0.7-0.7-0.7-1.2c0-0.8,0.6-1.4,1.4-1.4s1.4,0.6,1.4,1.4
			c0,0.5-0.2,0.8-0.5,1.1c0.5,0.5,1.5,1.3,4.1,1.3v1C523.8,394.3,523.7,394.3,523.6,394.3z M523.8,388.1c-0.6,0-1-0.7-1-1.7
			c0-0.9,0.5-1.7,1-1.7s1,0.7,1,1.7C524.8,387.4,524.4,388.1,523.8,388.1z M529.6,379.4c0,0-2.4-0.6-3.2-1.1c0,0,1.5-2.7,2.6-2.5
			C530,376,529.6,379.4,529.6,379.4z"/>
		<path class="st1" d="M363.6,392.6c-0.9-2.4,0-3.3-1.1-5s-1.5-3.4-2.5-5.1c-1-1.7-0.6-2.7-1.4-4.7s0-3.6-1.6-4.3
			c-1.5-0.7-2.3-2.2-3.1-0.3c-0.8,1.9-2.3,2-2.1,3.4c0.2,1.4-0.9,1.6-0.7,2.4c0.2,0.9-0.8,1.8-1.5,1.7s-2,0.2-3.9,1s-2,0.7-3.5-0.2
			c-0.6-0.4-0.3-1.1-1.4-2c-1.2-1-2-0.6-3.3-1.9c-1.4-1.6-2.8-2.1-3.2-0.7c-0.3,1.4-1.3,2.2-0.7,4.3c0.6,2-0.7,1.8-0.2,3.7
			c0.6,1.9-1.5,2.5-0.5,5.4c1,2.8-1.1,2.7,0.5,5.7s0,4.7,2.4,5.4c2.4,0.6,4.2,3.2,6.5,2.7s6.2,0,8.3-0.8c2.1-0.8,4.9-1.5,6.9-2.6
			c2-1.2,3.8-1.4,4-3.4C361.7,395.3,364.5,395,363.6,392.6z M336.4,384c0,0-0.9-3.5-0.3-3.6c0.6-0.2,2.5,1.8,2.8,2.3
			S336.4,384,336.4,384z M342.9,392.5c-0.6,0.1-1.2-0.5-1.4-1.4c-0.2-0.9,0.1-1.7,0.6-1.9c0.6-0.1,1.2,0.5,1.4,1.4
			C343.8,391.6,343.5,392.4,342.9,392.5z M352.5,386.9c0.6-0.1,1.2,0.5,1.4,1.4c0.2,0.9-0.1,1.7-0.6,1.9c-0.6,0.1-1.2-0.5-1.4-1.4
			C351.7,387.8,351.9,387,352.5,386.9z M354.5,396.2c-2.7,0.6-4.1,0.1-4.9-0.5c-0.8,1.9-3.7,2-4.8,2c-0.2,0-0.3,0-0.3,0l-0.3-0.9
			c0.1-0.1,0.3-0.1,0.6-0.1c0.9,0,3.3-0.1,3.9-1.4c-0.5-0.1-0.9-0.5-1-1c-0.2-0.8,0.3-1.5,1.1-1.7c0.8-0.2,1.5,0.3,1.7,1.1
			c0.1,0.4,0,0.9-0.3,1.2c0.6,0.4,1.8,0.9,4.3,0.3l0.2,1C354.6,396.1,354.5,396.1,354.5,396.2z M353.6,380c0,0,0.9-2.9,1.9-3
			c1.1-0.1,1.4,3.3,1.4,3.3S354.4,380.3,353.6,380z"/>
		<path class="st1" d="M461.8,417.2c-0.3-1.9,0.4-2.8,0.3-4.9c0-2.1,1.3-3.4,0.1-4.6c-1.2-1.2-1.4-2.9-2.8-1.4
			c-1.5,1.5-2.9,1.1-3.2,2.5s-1.4,1.2-1.5,2c-0.1,0.9-1.4,1.4-2.1,1.1s-1.9-0.5-4-0.4c-2.1,0-2.1,0-3.2-1.5
			c-0.4-0.5,0.1-1.1-0.6-2.3c-0.8-1.4-1.7-1.3-2.3-3c-0.8-2-1.9-3-2.7-1.8s-2,1.6-2.2,3.7c-0.2,2.1-1.3,1.4-1.5,3.4
			s-2.3,1.8-2.4,4.8c-0.1,3-2,2.1-1.6,5.5s-1.7,4.4,0.3,5.9s2.7,4.4,5,4.9c2.3,0.4,5.7,2.3,8,2.2c2.2,0,5.1,0.4,7.4,0
			c2.3-0.4,4,0,5-1.8c0.9-1.8,3.6-1.1,3.6-3.6c0-2.6,1.2-3.1,0.7-5.1C461.9,420.9,462.1,419.1,461.8,417.2z M439.2,410.1
			c0,0,0.4-3.6,1-3.5c0.7,0.1,1.7,2.5,1.7,3.2C442.1,410.4,439.2,410.1,439.2,410.1z M441.5,418.7c0.1-0.9,0.7-1.6,1.2-1.5
			c0.6,0.1,0.9,0.9,0.8,1.8c-0.1,0.9-0.7,1.6-1.2,1.5S441.4,419.6,441.5,418.7z M452,428c-0.1,0-0.1,0-0.2,0
			c-2.7-0.4-3.9-1.4-4.4-2.2c-1.4,1.5-4.1,0.6-5.2,0.2c-0.1-0.1-0.3-0.1-0.3-0.1v-1c0.1,0,0.3,0,0.6,0.2c0.9,0.3,3.1,1.1,4.1,0.1
			c-0.4-0.3-0.6-0.8-0.5-1.3c0.1-0.8,0.8-1.3,1.6-1.2s1.3,0.8,1.2,1.6c-0.1,0.4-0.3,0.8-0.7,1c0.4,0.6,1.3,1.5,3.9,1.8L452,428z
			 M454.1,420.4c-0.1,0.9-0.7,1.6-1.2,1.5c-0.6-0.1-0.9-0.9-0.8-1.8c0.1-0.9,0.7-1.6,1.2-1.5S454.2,419.5,454.1,420.4z M459.7,414.1
			c0,0-2.3-0.9-3-1.5c0,0,1.9-2.4,2.9-2.1S459.7,414.1,459.7,414.1z"/>
	</g>
</g>
</svg>
