<?xml version="1.0" encoding="utf-8"?>
<!-- Generator: Adobe Illustrator 27.7.0, SVG Export Plug-In . SVG Version: 6.00 Build 0)  -->
<svg version="1.1" id="레이어_1" xmlns="http://www.w3.org/2000/svg" xmlns:xlink="http://www.w3.org/1999/xlink" x="0px"
	 y="0px" viewBox="0 0 800 800" style="enable-background:new 0 0 800 800;" xml:space="preserve">
<style type="text/css">
	.st0{fill:#FFFFFF;stroke:#231815;stroke-width:8;stroke-linecap:round;stroke-linejoin:round;stroke-miterlimit:10;}
	.st1{fill:#FFC0C0;}
</style>
<g id="머리장식">
	<g id="머리띠">
		<path class="st0" d="M170.5,554.7c9.9-25.8,66.4-152.9,215.5-160.3c13.5-0.7,24-12.7,22.1-26.2c-1.2-8.6-2.6-20.7-20.1-27
			c-44.6-16-221.2,40-232.8,199.4c0,0-3,14.2,7,17.8C165.6,559.7,169.3,558,170.5,554.7z"/>
		<path class="st0" d="M629.5,554.7c-9.9-25.8-66.4-152.9-215.5-160.3c-13.5-0.7-24-12.7-22.1-26.2c1.2-8.6,2.6-20.7,20.1-27
			c44.6-16,221.2,40,232.8,199.4c0,0,3,14.2-7,17.8C634.5,559.7,630.8,558,629.5,554.7z"/>
		<path class="st1" d="M371,364.3c-3.5-0.7-21.5-3.5-38,8.3c-0.5,0.4-1,0.9-1.4,1.5c-0.7,1.2-1.4,3.3,0.1,5c1.2,1.4,3,1.5,4.4,0.5
			c5.3-3.8,22.7-11.6,40.3-4.4c19.2,7.8-0.6-8-4.2-10.3C371.7,364.6,371.4,364.4,371,364.3z"/>
		<path class="st1" d="M426.3,364.3c3.5-0.7,21.5-3.5,38,8.3c0.5,0.4,1,0.9,1.4,1.5c0.7,1.2,1.4,3.3-0.1,5c-1.2,1.4-3,1.5-4.4,0.5
			c-5.3-3.8-22.7-11.6-40.3-4.4c-19.2,7.8,0.6-8,4.2-10.3C425.5,364.6,425.9,364.4,426.3,364.3z"/>
		<path class="st0" d="M398.8,350c0,0-8.6-87.8-68.9-106.4s-76.2,77.9,58.7,133.5L398.8,350z"/>
		<path class="st1" d="M408.4,368.9c0,0-33.1-68.8-70.1-76.8c-37.1-8,21.6,59.2,62.8,76.8C401.1,368.9,406.5,372.9,408.4,368.9z"/>
		<path class="st0" d="M400.1,350c0,0,8.6-87.8,68.9-106.4c60.3-18.5,76.2,77.9-58.7,133.5L400.1,350z"/>
		<path class="st1" d="M390.5,368.9c0,0,33.1-68.8,70.1-76.8c37.1-8-21.6,59.2-62.8,76.8C397.8,368.9,392.3,372.9,390.5,368.9z"/>
		<path class="st0" d="M383.1,340.4c0,0-15.3,5.1-11.7,18.4s-2.1,27.6,20.3,30.2c22.4,2.7,32.2,0.9,35.7-19.6
			C430.9,349,433,327.4,383.1,340.4z"/>
	</g>
</g>
</svg>
