<?xml version="1.0" encoding="utf-8"?>
<!-- Generator: Adobe Illustrator 27.7.0, SVG Export Plug-In . SVG Version: 6.00 Build 0)  -->
<svg version="1.1" id="레이어_1" xmlns="http://www.w3.org/2000/svg" xmlns:xlink="http://www.w3.org/1999/xlink" x="0px"
	 y="0px" viewBox="0 0 1080 1013.3" style="enable-background:new 0 0 1080 1013.3;" xml:space="preserve">
<style type="text/css">
	.st0{fill:#FFFFFF;stroke:#231815;stroke-width:8;stroke-linecap:round;stroke-linejoin:round;stroke-miterlimit:10;}
	.st1{fill:#FFA1A2;}
	.st2{fill:#FFFFFF;}
	.st3{clip-path:url(#SVGID_00000026853285758592417650000007626048833036930184_);fill:#FFE2A8;}
	.st4{clip-path:url(#SVGID_00000155116776946198504270000006318152457188988298_);fill:#FFE2A8;}
	.st5{fill:none;stroke:#231815;stroke-width:8;stroke-linecap:round;stroke-linejoin:round;stroke-miterlimit:10;}
	.st6{fill:#FFA1A2;stroke:#231815;stroke-width:8;stroke-linecap:round;stroke-linejoin:round;stroke-miterlimit:10;}
	.st7{fill:#231815;}
</style>
<g>
	<g>
		<path class="st0" d="M386.2,644.3L374,658.7c-12.9,14.7-38.9,47.7-59.3,94.9c-18.5,42.8,51.6,83.1,73.7,22
			c0,0-15.7,107.1,5.2,176.4c0,0,6.7,17.3,46.9,17.3s20-40.9,39.7-47.6H600c19.8,6.8-0.4,47.6,39.7,47.6c40.2,0,46.9-17.3,46.9-17.3
			c21-69.3,5.2-176.4,5.2-176.4c22.2,61,92.2,20.8,73.7-22c-20.3-47.1-46.3-80.1-59.2-94.8c0,0-11.3-13.3-11.3-13.4L386.2,644.3z"/>
		<path class="st1" d="M547.1,856.4h-22.3c-28.4,0-51.4-23-51.4-51.4v-11.7c0-28.4,23-51.4,51.4-51.4h22.3c28.4,0,51.4,23,51.4,51.4
			V805C598.5,833.3,575.5,856.4,547.1,856.4z"/>
		<path class="st0" d="M458.7,919.7c0,0,4.8,2,27.4,2s96.6,3.4,135.2-2.7"/>
	</g>
	<g>
		<g>
			<g>
				<path id="SVGID_1_" class="st2" d="M678.8,661.8c23.1-4.6,45.1-13.8,64.3-27.3c11.2-7.9,21.4-16.9,30-27.9
					c33.3-42.2-0.3-94.3-0.3-150.9c0-8.8-0.6-17.4-1.7-25.8c16.9-11.2,39.4-27.5,55.3-44.2c9.6-10.1,6.7-25.8-7.1-28.4l-78.2-9.3
					c-17.2-26.9-39.8-48.4-63.9-62.3v-0.1c0,0-43.7-26.2-105.7-33.4l-1-1.2l-9.2-14.2l-9.8,13.8c-3.7-0.2-7.5-0.3-11.3-0.3l0,0h-0.1
					c-4.4,0-8.7,0.1-13,0.3l-9.8-13.9l-9.1,14.1l-1,1.5c-39.4,4.9-71.2,17.2-88.8,25.5H418c-4,1.9-7.8,3.8-11.4,5.9
					c-2.2,1.2-3.4,1.9-3.4,1.9v0.1c-24.1,13.7-46.7,35.3-64,62.3l-78.5,9.3c-13.8,2.6-16.7,18.3-7.1,28.4
					c13.9,14.5,38.6,33.2,55.5,44.4c-1.1,8.4-1.7,16.9-1.7,25.6c0,56-33.9,107.8-1.2,149.8c8.7,11.2,19,20.4,30.4,28.5
					c20.4,14.4,43.7,24.3,68.1,29.4C452.8,673.4,553.5,687,678.8,661.8z"/>
			</g>
			<g>
				<g>
					<defs>
						<path id="SVGID_00000079481977832756093940000015517156514700843427_" d="M678.8,661.8c23.1-4.6,45.1-13.8,64.3-27.3
							c11.2-7.9,21.4-16.9,30-27.9c33.3-42.2-0.3-94.3-0.3-150.9c0-8.8-0.6-17.4-1.7-25.8c16.9-11.2,39.4-27.5,55.3-44.2
							c9.6-10.1,6.7-25.8-7.1-28.4l-78.2-9.3c-17.2-26.9-39.8-48.4-63.9-62.3v-0.1c0,0-43.7-26.2-105.7-33.4l-1-1.2l-9.2-14.2
							l-9.8,13.8c-3.7-0.2-7.5-0.3-11.3-0.3l0,0h-0.1c-4.4,0-8.7,0.1-13,0.3l-9.8-13.9l-9.1,14.1l-1,1.5
							c-39.4,4.9-71.2,17.2-88.8,25.5H418c-4,1.9-7.8,3.8-11.4,5.9c-2.2,1.2-3.4,1.9-3.4,1.9v0.1c-24.1,13.7-46.7,35.3-64,62.3
							l-78.5,9.3c-13.8,2.6-16.7,18.3-7.1,28.4c13.9,14.5,38.6,33.2,55.5,44.4c-1.1,8.4-1.7,16.9-1.7,25.6
							c0,56-33.9,107.8-1.2,149.8c8.7,11.2,19,20.4,30.4,28.5c20.4,14.4,43.7,24.3,68.1,29.4C452.8,673.4,553.5,687,678.8,661.8z"/>
					</defs>
					<clipPath id="SVGID_00000035505980588457669140000018332428375664254095_">
						<use xlink:href="#SVGID_00000079481977832756093940000015517156514700843427_"  style="overflow:visible;"/>
					</clipPath>
					<path style="clip-path:url(#SVGID_00000035505980588457669140000018332428375664254095_);fill:#FFE2A8;" d="M376.6,304.5
						c0,0,12.1,111.5-69.8,164.7c-77.2,50.2-174.7-146.9-76.9-161.1S376.6,304.5,376.6,304.5z"/>
				</g>
			</g>
			<g>
				<g>
					<defs>
						<path id="SVGID_00000155139108312491521970000005993657372258119065_" d="M678.8,661.8c23.1-4.6,45.1-13.8,64.3-27.3
							c11.2-7.9,21.4-16.9,30-27.9c33.3-42.2-0.3-94.3-0.3-150.9c0-8.8-0.6-17.4-1.7-25.8c16.9-11.2,39.4-27.5,55.3-44.2
							c9.6-10.1,6.7-25.8-7.1-28.4l-78.2-9.3c-17.2-26.9-39.8-48.4-63.9-62.3v-0.1c0,0-43.7-26.2-105.7-33.4l-1-1.2l-9.2-14.2
							l-9.8,13.8c-3.7-0.2-7.5-0.3-11.3-0.3l0,0h-0.1c-4.4,0-8.7,0.1-13,0.3l-9.8-13.9l-9.1,14.1l-1,1.5
							c-39.4,4.9-71.2,17.2-88.8,25.5H418c-4,1.9-7.8,3.8-11.4,5.9c-2.2,1.2-3.4,1.9-3.4,1.9v0.1c-24.1,13.7-46.7,35.3-64,62.3
							l-78.5,9.3c-13.8,2.6-16.7,18.3-7.1,28.4c13.9,14.5,38.6,33.2,55.5,44.4c-1.1,8.4-1.7,16.9-1.7,25.6
							c0,56-33.9,107.8-1.2,149.8c8.7,11.2,19,20.4,30.4,28.5c20.4,14.4,43.7,24.3,68.1,29.4C452.8,673.4,553.5,687,678.8,661.8z"/>
					</defs>
					<clipPath id="SVGID_00000018933632151607009160000012896876960293477297_">
						<use xlink:href="#SVGID_00000155139108312491521970000005993657372258119065_"  style="overflow:visible;"/>
					</clipPath>
					<path style="clip-path:url(#SVGID_00000018933632151607009160000012896876960293477297_);fill:#FFE2A8;" d="M296.1,527.8
						c0,0,51.1,38.1,26.8,103.9S239.6,569.7,296.1,527.8z"/>
				</g>
			</g>
			<g>
				<path id="SVGID_00000047739905961866554620000009408248884324152727_" class="st5" d="M678.8,661.8
					c23.1-4.6,45.1-13.8,64.3-27.3c11.2-7.9,21.4-16.9,30-27.9c33.3-42.2-0.3-94.3-0.3-150.9c0-8.8-0.6-17.4-1.7-25.8
					c16.9-11.2,39.4-27.5,55.3-44.2c9.6-10.1,6.7-25.8-7.1-28.4l-78.2-9.3c-17.2-26.9-39.8-48.4-63.9-62.3v-0.1
					c0,0-43.7-26.2-105.7-33.4l-1-1.2l-9.2-14.2l-9.8,13.8c-3.7-0.2-7.5-0.3-11.3-0.3l0,0h-0.1c-4.4,0-8.7,0.1-13,0.3l-9.8-13.9
					l-9.1,14.1l-1,1.5c-39.4,4.9-71.2,17.2-88.8,25.5H418c-4,1.9-7.8,3.8-11.4,5.9c-2.2,1.2-3.4,1.9-3.4,1.9v0.1
					c-24.1,13.7-46.7,35.3-64,62.3l-78.5,9.3c-13.8,2.6-16.7,18.3-7.1,28.4c13.9,14.5,38.6,33.2,55.5,44.4
					c-1.1,8.4-1.7,16.9-1.7,25.6c0,56-33.9,107.8-1.2,149.8c8.7,11.2,19,20.4,30.4,28.5c20.4,14.4,43.7,24.3,68.1,29.4
					C452.8,673.4,553.5,687,678.8,661.8z"/>
			</g>
		</g>
		<line class="st5" x1="539.3" y1="529.9" x2="539.3" y2="500.8"/>
		<ellipse class="st1" cx="411.3" cy="510.8" rx="34.7" ry="27.7"/>
		<ellipse class="st1" cx="668.6" cy="510.8" rx="34.7" ry="27.7"/>
		<line class="st5" x1="611.9" y1="513.7" x2="654" y2="542"/>
		<line class="st5" x1="623.5" y1="492.3" x2="669" y2="506.4"/>
		<line class="st5" x1="467.8" y1="513.7" x2="425.7" y2="542"/>
		<line class="st5" x1="456.3" y1="492.3" x2="410.7" y2="506.4"/>
		<path class="st6" d="M551.3,496.3l-8.1,5.1c-2.4,1.5-5.3,1.5-7.7,0l-8.1-5.1c-3.3-2-4.7-6.4-3.5-10.2l0.5-1.6
			c1.1-3.4,4-5.7,7.3-5.7H547c3.3,0,6.2,2.3,7.3,5.7l0.5,1.6C556,489.9,554.5,494.3,551.3,496.3z"/>
		<path class="st5" d="M590.9,431.4c0,0,13.5,8.9,30.4,11.1"/>
		<ellipse class="st7" cx="480.7" cy="457.7" rx="21.9" ry="21.4"/>
		<ellipse class="st2" cx="486.5" cy="454.4" rx="7.6" ry="7.4"/>
		<path class="st2" d="M476.2,463.4c0,2.1-1.8,3.8-3.9,3.8s-3.9-1.7-3.9-3.8s1.8-3.8,3.9-3.8S476.2,461.3,476.2,463.4z"/>
		<ellipse class="st2" cx="483.9" cy="467.3" rx="4.2" ry="1.9"/>
		<ellipse class="st7" cx="598.5" cy="457.7" rx="21.9" ry="21.4"/>
		<ellipse class="st2" cx="592.8" cy="454.4" rx="7.6" ry="7.4"/>
		<ellipse class="st2" cx="607" cy="463.4" rx="3.9" ry="3.8"/>
		<ellipse class="st2" cx="595.4" cy="467.3" rx="4.2" ry="1.9"/>
		<path class="st5" d="M588.9,544.2c0,0-1.6-13.6-31.8-10.1c0,0-14.4,1.3-17.1-1.5h-1.3c-2.7,2.8-17.1,1.5-17.1,1.5
			c-30.2-3.4-31.8,10.1-31.8,10.1"/>
		<path class="st1" d="M288.2,381.9l19.7,17.5c1.6,1.4,4,0.9,4.4-0.9l4.7-21.2c0.4-1.8-1.5-3.7-3.5-3.3l-24.4,3.8
			C287.1,378,286.5,380.4,288.2,381.9z"/>
		<path class="st1" d="M788.6,381.9L769,399.4c-1.6,1.4-4,0.9-4.4-0.9l-4.7-21.2c-0.4-1.8,1.5-3.7,3.5-3.3l24.4,3.8
			C789.8,378,790.3,380.4,788.6,381.9z"/>
	</g>
</g>
</svg>
