<?xml version="1.0" encoding="utf-8"?>
<!-- Generator: Adobe Illustrator 27.7.0, SVG Export Plug-In . SVG Version: 6.00 Build 0)  -->
<svg version="1.1" id="레이어_1" xmlns="http://www.w3.org/2000/svg" xmlns:xlink="http://www.w3.org/1999/xlink" x="0px"
	 y="0px" viewBox="0 0 800 800" style="enable-background:new 0 0 800 800;" xml:space="preserve">
<style type="text/css">
	.st0{fill:#FFFFFF;}
	.st1{clip-path:url(#SVGID_00000093154035111737625180000018152686917064118961_);fill:#FFE2A8;}
	.st2{clip-path:url(#SVGID_00000105427189083948957890000015474279685460267692_);fill:#FFE2A8;}
	.st3{fill:none;stroke:#231815;stroke-width:8;stroke-linecap:round;stroke-linejoin:round;stroke-miterlimit:10;}
	.st4{fill:#FFA1A2;}
	.st5{fill:#FFA1A2;stroke:#231815;stroke-width:8;stroke-linecap:round;stroke-linejoin:round;stroke-miterlimit:10;}
	.st6{fill:#231815;}
</style>
<g>
	<g>
		<g>
			<path id="SVGID_1_" class="st0" d="M538.8,605.4c23.1-4.6,45.1-13.8,64.3-27.3c11.2-7.9,21.4-16.9,30-27.9
				c33.3-42.2-0.3-94.3-0.3-150.9c0-8.8-0.6-17.4-1.7-25.8c16.9-11.2,39.4-27.5,55.3-44.2c9.6-10.1,6.7-25.8-7.1-28.4l-78.2-9.3
				c-17.2-26.9-39.8-48.4-63.9-62.3v-0.1c0,0-43.7-26.2-105.7-33.4l-1-1.2l-9.2-14.2l-9.8,13.8c-3.7-0.2-7.5-0.3-11.3-0.3l0,0h-0.1
				c-4.4,0-8.7,0.1-13,0.3l-9.8-13.9l-9.1,14.1l-1,1.5c-39.4,4.9-71.2,17.2-88.8,25.5H278c-4,1.9-7.8,3.8-11.4,5.9
				c-2.2,1.2-3.4,1.9-3.4,1.9v0.1c-24.1,13.7-46.7,35.3-64,62.3l-78.5,9.3c-13.8,2.6-16.7,18.3-7.1,28.4
				c13.9,14.5,38.6,33.2,55.5,44.4c-1.1,8.4-1.7,16.9-1.7,25.6c0,56-33.9,107.8-1.2,149.8c8.7,11.2,19,20.4,30.4,28.5
				c20.4,14.4,43.7,24.3,68.1,29.4C312.8,617,413.5,630.5,538.8,605.4z"/>
		</g>
		<g>
			<defs>
				<path id="SVGID_00000071543690715688923390000018070004952810312620_" d="M538.8,605.4c23.1-4.6,45.1-13.8,64.3-27.3
					c11.2-7.9,21.4-16.9,30-27.9c33.3-42.2-0.3-94.3-0.3-150.9c0-8.8-0.6-17.4-1.7-25.8c16.9-11.2,39.4-27.5,55.3-44.2
					c9.6-10.1,6.7-25.8-7.1-28.4l-78.2-9.3c-17.2-26.9-39.8-48.4-63.9-62.3v-0.1c0,0-43.7-26.2-105.7-33.4l-1-1.2l-9.2-14.2
					l-9.8,13.8c-3.7-0.2-7.5-0.3-11.3-0.3l0,0h-0.1c-4.4,0-8.7,0.1-13,0.3l-9.8-13.9l-9.1,14.1l-1,1.5
					c-39.4,4.9-71.2,17.2-88.8,25.5H278c-4,1.9-7.8,3.8-11.4,5.9c-2.2,1.2-3.4,1.9-3.4,1.9v0.1c-24.1,13.7-46.7,35.3-64,62.3
					l-78.5,9.3c-13.8,2.6-16.7,18.3-7.1,28.4c13.9,14.5,38.6,33.2,55.5,44.4c-1.1,8.4-1.7,16.9-1.7,25.6c0,56-33.9,107.8-1.2,149.8
					c8.7,11.2,19,20.4,30.4,28.5c20.4,14.4,43.7,24.3,68.1,29.4C312.8,617,413.5,630.5,538.8,605.4z"/>
			</defs>
			<clipPath id="SVGID_00000056397801338732721310000016232060247290485159_">
				<use xlink:href="#SVGID_00000071543690715688923390000018070004952810312620_"  style="overflow:visible;"/>
			</clipPath>
			<path style="clip-path:url(#SVGID_00000056397801338732721310000016232060247290485159_);fill:#FFE2A8;" d="M236.6,248.1
				c0,0,12.1,111.5-69.8,164.7C89.6,463-7.9,265.9,89.9,251.7S236.6,248.1,236.6,248.1z"/>
		</g>
		<g>
			<defs>
				<path id="SVGID_00000065053029111538657150000000825313476818916016_" d="M538.8,605.4c23.1-4.6,45.1-13.8,64.3-27.3
					c11.2-7.9,21.4-16.9,30-27.9c33.3-42.2-0.3-94.3-0.3-150.9c0-8.8-0.6-17.4-1.7-25.8c16.9-11.2,39.4-27.5,55.3-44.2
					c9.6-10.1,6.7-25.8-7.1-28.4l-78.2-9.3c-17.2-26.9-39.8-48.4-63.9-62.3v-0.1c0,0-43.7-26.2-105.7-33.4l-1-1.2l-9.2-14.2
					l-9.8,13.8c-3.7-0.2-7.5-0.3-11.3-0.3l0,0h-0.1c-4.4,0-8.7,0.1-13,0.3l-9.8-13.9l-9.1,14.1l-1,1.5
					c-39.4,4.9-71.2,17.2-88.8,25.5H278c-4,1.9-7.8,3.8-11.4,5.9c-2.2,1.2-3.4,1.9-3.4,1.9v0.1c-24.1,13.7-46.7,35.3-64,62.3
					l-78.5,9.3c-13.8,2.6-16.7,18.3-7.1,28.4c13.9,14.5,38.6,33.2,55.5,44.4c-1.1,8.4-1.7,16.9-1.7,25.6c0,56-33.9,107.8-1.2,149.8
					c8.7,11.2,19,20.4,30.4,28.5c20.4,14.4,43.7,24.3,68.1,29.4C312.8,617,413.5,630.5,538.8,605.4z"/>
			</defs>
			<clipPath id="SVGID_00000113315844098051414640000004094263673894452109_">
				<use xlink:href="#SVGID_00000065053029111538657150000000825313476818916016_"  style="overflow:visible;"/>
			</clipPath>
			<path style="clip-path:url(#SVGID_00000113315844098051414640000004094263673894452109_);fill:#FFE2A8;" d="M156.1,471.4
				c0,0,51.1,38.1,26.8,103.9S99.6,513.3,156.1,471.4z"/>
		</g>
		<g>
			<path id="SVGID_00000104683324836441544860000006297722617808946080_" class="st3" d="M538.8,605.4c23.1-4.6,45.1-13.8,64.3-27.3
				c11.2-7.9,21.4-16.9,30-27.9c33.3-42.2-0.3-94.3-0.3-150.9c0-8.8-0.6-17.4-1.7-25.8c16.9-11.2,39.4-27.5,55.3-44.2
				c9.6-10.1,6.7-25.8-7.1-28.4l-78.2-9.3c-17.2-26.9-39.8-48.4-63.9-62.3v-0.1c0,0-43.7-26.2-105.7-33.4l-1-1.2l-9.2-14.2
				l-9.8,13.8c-3.7-0.2-7.5-0.3-11.3-0.3l0,0h-0.1c-4.4,0-8.7,0.1-13,0.3l-9.8-13.9l-9.1,14.1l-1,1.5c-39.4,4.9-71.2,17.2-88.8,25.5
				H278c-4,1.9-7.8,3.8-11.4,5.9c-2.2,1.2-3.4,1.9-3.4,1.9v0.1c-24.1,13.7-46.7,35.3-64,62.3l-78.5,9.3
				c-13.8,2.6-16.7,18.3-7.1,28.4c13.9,14.5,38.6,33.2,55.5,44.4c-1.1,8.4-1.7,16.9-1.7,25.6c0,56-33.9,107.8-1.2,149.8
				c8.7,11.2,19,20.4,30.4,28.5c20.4,14.4,43.7,24.3,68.1,29.4C312.8,617,413.5,630.5,538.8,605.4z"/>
		</g>
	</g>
	<line class="st3" x1="399.3" y1="473.4" x2="399.3" y2="444.3"/>
	<ellipse class="st4" cx="271.3" cy="454.3" rx="34.7" ry="27.7"/>
	<ellipse class="st4" cx="528.6" cy="454.3" rx="34.7" ry="27.7"/>
	<line class="st3" x1="471.9" y1="457.2" x2="514" y2="485.5"/>
	<line class="st3" x1="483.5" y1="435.9" x2="529" y2="449.9"/>
	<line class="st3" x1="327.8" y1="457.2" x2="285.7" y2="485.5"/>
	<line class="st3" x1="316.3" y1="435.9" x2="270.7" y2="449.9"/>
	<path class="st5" d="M411.3,439.9l-8.1,5.1c-2.4,1.5-5.3,1.5-7.7,0l-8.1-5.1c-3.3-2-4.7-6.4-3.5-10.2l0.5-1.6
		c1.1-3.4,4-5.7,7.3-5.7H407c3.3,0,6.2,2.3,7.3,5.7l0.5,1.6C416,433.5,414.5,437.8,411.3,439.9z"/>
	<path class="st3" d="M450.9,375c0,0,13.5,8.9,30.4,11.1"/>
	<ellipse class="st6" cx="340.7" cy="401.3" rx="21.9" ry="21.4"/>
	<ellipse class="st0" cx="346.5" cy="397.9" rx="7.6" ry="7.4"/>
	<path class="st0" d="M336.2,407c0,2.1-1.8,3.8-3.9,3.8s-3.9-1.7-3.9-3.8c0-2.1,1.8-3.8,3.9-3.8S336.2,404.9,336.2,407z"/>
	<ellipse class="st0" cx="343.9" cy="410.8" rx="4.2" ry="1.9"/>
	<ellipse class="st6" cx="458.5" cy="401.3" rx="21.9" ry="21.4"/>
	<ellipse class="st0" cx="452.8" cy="397.9" rx="7.6" ry="7.4"/>
	<ellipse class="st0" cx="467" cy="407" rx="3.9" ry="3.8"/>
	<ellipse class="st0" cx="455.4" cy="410.8" rx="4.2" ry="1.9"/>
	<path class="st3" d="M448.9,487.8c0,0-1.6-13.6-31.8-10.1c0,0-14.4,1.3-17.1-1.5h-1.3c-2.7,2.8-17.1,1.5-17.1,1.5
		c-30.2-3.4-31.8,10.1-31.8,10.1"/>
	<path class="st4" d="M148.2,325.5l19.7,17.5c1.6,1.4,4,0.9,4.4-0.9l4.7-21.2c0.4-1.8-1.5-3.7-3.5-3.3l-24.4,3.8
		C147.1,321.5,146.5,324,148.2,325.5z"/>
	<path class="st4" d="M648.6,325.5L629,342.9c-1.6,1.4-4,0.9-4.4-0.9l-4.7-21.2c-0.4-1.8,1.5-3.7,3.5-3.3l24.4,3.8
		C649.8,321.5,650.3,324,648.6,325.5z"/>
</g>
</svg>
