<?xml version="1.0" encoding="utf-8"?>
<!-- Generator: Adobe Illustrator 27.7.0, SVG Export Plug-In . SVG Version: 6.00 Build 0)  -->
<svg version="1.1" id="레이어_1" xmlns="http://www.w3.org/2000/svg" xmlns:xlink="http://www.w3.org/1999/xlink" x="0px"
	 y="0px" viewBox="0 0 1080 1013.3" style="enable-background:new 0 0 1080 1013.3;" xml:space="preserve">
<style type="text/css">
	.st0{fill:#DDDCDB;stroke:#231815;stroke-width:8;stroke-linecap:round;stroke-linejoin:round;stroke-miterlimit:10;}
	.st1{fill:none;stroke:#231815;stroke-width:8;stroke-linecap:round;stroke-linejoin:round;stroke-miterlimit:10;}
	.st2{fill:#231815;}
</style>
<g id="가방">
	<g id="가방1">
		<path class="st0" d="M407.1,667.5c21.3,22.4,124.7,127.2,225.9,166.2l5.2-18.4c0,0-72.2-15.8-208.8-147.3l-20.6-3.8
			C407,664,405.8,666.2,407.1,667.5z"/>
		<g>
			<path class="st0" d="M610.9,819.9l16.4,41c4.8,12,18.1,18.1,30.3,13.9L707,858c12-4.1,18.8-16.7,15.6-28.9l-10.9-42.3
				c-1-4-5.2-6.3-9.2-5l-87.3,28.7C611.4,811.8,609.4,816.1,610.9,819.9z"/>
			<path class="st1" d="M645.9,833.2L615.8,817c-2.9-1.6-2.5-5.8,0.6-6.8L702,782c3.1-1,5.9,2.1,4.6,5l-12.7,29.5
				c-3.9,9.1-11.7,16.1-21.1,19.2l0,0C663.8,838.5,654.1,837.6,645.9,833.2z"/>
			<circle class="st2" cx="668.1" cy="820.9" r="5.5"/>
		</g>
	</g>
</g>
</svg>
