<?xml version="1.0" encoding="utf-8"?>
<!-- Generator: Adobe Illustrator 27.7.0, SVG Export Plug-In . SVG Version: 6.00 Build 0)  -->
<svg version="1.1" id="레이어_1" xmlns="http://www.w3.org/2000/svg" xmlns:xlink="http://www.w3.org/1999/xlink" x="0px"
	 y="0px" viewBox="0 0 500 500" style="enable-background:new 0 0 500 500;" xml:space="preserve">
<style type="text/css">
	.st0{fill:#E4A073;stroke:#231815;stroke-width:8;stroke-linecap:round;stroke-linejoin:round;stroke-miterlimit:10;}
	.st1{fill:none;stroke:#231815;stroke-width:8;stroke-linecap:round;stroke-linejoin:round;stroke-miterlimit:10;}
</style>
<g id="가방">
	<g id="가방2">
		<path class="st0" d="M86.7,138c21.3,22.4,124.7,127.2,225.9,166.2l5.2-18.4c0,0-72.2-15.8-208.8-147.3l-20.6-3.8
			C86.6,134.5,85.4,136.7,86.7,138z"/>
		<g>
			<path class="st0" d="M309.1,226.7c-13.5,8-17,27.2-7.7,42.8s27.7,21.8,41.2,13.8s17-27.2,7.7-42.8S322.6,218.7,309.1,226.7z
				 M332.9,267c-6.7,4-15.9,0.9-20.5-6.9c-4.6-7.8-2.9-17.3,3.8-21.3s15.9-0.9,20.5,6.9C341.4,253.5,339.7,263,332.9,267z"/>
			<path class="st0" d="M405,334.9l-47.1,27.9c-7.5,4.4-17,2.8-22.7-3.7l-50.7-58.9c-7.3-8.4-5.1-21.4,4.4-27.1l70.6-41.8
				c9.6-5.7,22-1.3,25.9,9.1l27.3,72.8C415.7,321.4,412.4,330.5,405,334.9z"/>
			<line class="st1" x1="286.1" y1="301.2" x2="385.5" y2="242.4"/>
			<line class="st1" x1="302.7" y1="319.5" x2="394.1" y2="265.4"/>
			<line class="st1" x1="316.3" y1="335.2" x2="401" y2="285"/>
			<line class="st1" x1="330.9" y1="351.9" x2="408.4" y2="306"/>
			<line class="st1" x1="285.9" y1="275.8" x2="307.2" y2="288.7"/>
			<line class="st1" x1="303.1" y1="265.6" x2="324.5" y2="278.5"/>
			<line class="st1" x1="320.3" y1="255.4" x2="341.7" y2="268.3"/>
			<line class="st1" x1="337.5" y1="245.3" x2="358.9" y2="258.1"/>
			<line class="st1" x1="367.7" y1="254.2" x2="368.7" y2="279.2"/>
			<line class="st1" x1="350.5" y1="264.4" x2="351.5" y2="289.3"/>
			<line class="st1" x1="333.3" y1="274.6" x2="334.2" y2="299.5"/>
			<line class="st1" x1="316" y1="284.8" x2="317" y2="309.7"/>
			<line class="st1" x1="394.9" y1="288.6" x2="395.9" y2="313.5"/>
			<line class="st1" x1="377.7" y1="298.8" x2="378.7" y2="323.7"/>
			<line class="st1" x1="360.5" y1="309" x2="361.5" y2="333.9"/>
			<line class="st1" x1="343.7" y1="318.9" x2="344.7" y2="343.9"/>
			<line class="st1" x1="326.5" y1="329.1" x2="327.2" y2="348.8"/>
			<line class="st1" x1="299.2" y1="294.7" x2="300" y2="315"/>
			<line class="st1" x1="384.9" y1="244" x2="386" y2="270.2"/>
			<line class="st1" x1="354.7" y1="235.1" x2="376.1" y2="247.9"/>
			<line class="st1" x1="317.5" y1="310.8" x2="337.6" y2="322.5"/>
			<line class="st1" x1="334.8" y1="300.5" x2="354.9" y2="312.3"/>
			<line class="st1" x1="352.1" y1="290.3" x2="372.2" y2="302"/>
			<line class="st1" x1="353.4" y1="338.6" x2="375" y2="352.1"/>
			<line class="st1" x1="336.5" y1="348.6" x2="356.3" y2="360.9"/>
			<line class="st1" x1="370.6" y1="328.4" x2="392.3" y2="341.8"/>
			<line class="st1" x1="389" y1="317.5" x2="410" y2="330.5"/>
			<line class="st1" x1="369.4" y1="280" x2="389.5" y2="291.8"/>
		</g>
	</g>
</g>
</svg>
