<?xml version="1.0" encoding="utf-8"?>
<!-- Generator: Adobe Illustrator 27.7.0, SVG Export Plug-In . SVG Version: 6.00 Build 0)  -->
<svg version="1.1" id="레이어_1" xmlns="http://www.w3.org/2000/svg" xmlns:xlink="http://www.w3.org/1999/xlink" x="0px"
	 y="0px" viewBox="0 0 800 800" style="enable-background:new 0 0 800 800;" xml:space="preserve">
<style type="text/css">
	.st0{fill:#FFC82C;stroke:#231815;stroke-width:12;stroke-linecap:round;stroke-linejoin:round;stroke-miterlimit:10;}
	.st1{fill:#FFFFFF;stroke:#231815;stroke-width:12;stroke-linecap:round;stroke-linejoin:round;stroke-miterlimit:10;}
</style>
<g id="머리장식">
	<g id="핀1">
		<g>
			<path class="st0" d="M476.5,475c0,0-29.7-38.6-85-63.7c-55.3-25.1-86.5-22.8-93.2,13.6c-6.9,36.3,41.7,53.7,89.1,56
				C434.8,483.4,481.1,480.3,476.5,475z"/>
			<path class="st1" d="M404.3,451.9c0,0-15.4-10.5-29.2-16.9s-21.8-5.6-23.5,3.3c-1.8,9.2,10.5,13.6,22.5,14.1
				C385.9,453.2,405.3,453.2,404.3,451.9z"/>
		</g>
		<g>
			<path class="st0" d="M502.1,415.1c0,0-24.8-42-76.8-73.2s-83.2-32.8-94.2,2.6s35.1,58.4,81.9,66
				C459.8,418.7,506.2,421.2,502.1,415.1z"/>
			<path class="st1" d="M433.2,383.9c0,0-14.1-12.3-27.1-20.2c-13.1-7.9-21-8.2-23.8,0.8c-2.8,9,9,14.6,20.7,16.6
				C414.8,382.8,434.2,385.4,433.2,383.9z"/>
		</g>
	</g>
</g>
</svg>
