<?xml version="1.0" encoding="utf-8"?>
<!-- Generator: Adobe Illustrator 27.7.0, SVG Export Plug-In . SVG Version: 6.00 Build 0)  -->
<svg version="1.1" id="레이어_1" xmlns="http://www.w3.org/2000/svg" xmlns:xlink="http://www.w3.org/1999/xlink" x="0px"
	 y="0px" viewBox="0 0 1080 1013.3" style="enable-background:new 0 0 1080 1013.3;" xml:space="preserve">
<style type="text/css">
	.st0{fill:#FFFFFF;stroke:#231815;stroke-width:8;stroke-linecap:round;stroke-linejoin:round;stroke-miterlimit:10;}
</style>
<g id="하의">
	<g id="마린룩하의">
		<path class="st0" d="M588.6,922.7L588.6,922.7c3.3,7.5,11.3,11.7,19.3,10.2c20.6-3.7,52.2-10.8,73.3-15.7
			c12.8-3,21.5-14.8,20.5-27.9c-3-38.3-5.8-69.3-5.8-69.3c-167.7,11.6-311.9,0-311.9,0s-2.8,31-5.8,69.3c-1,13.1,7.7,25,20.5,27.9
			c21.1,4.9,52.7,12,73.3,15.7c8,1.4,16-2.8,19.3-10.2l0,0H588.6z"/>
		<path class="st0" d="M483.7,920.9c0,0,16.4,1.8,56.4,1.8s55.8-0.7,55.8-0.7"/>
	</g>
</g>
</svg>
