<?xml version="1.0" encoding="utf-8"?>
<!-- Generator: Adobe Illustrator 27.7.0, SVG Export Plug-In . SVG Version: 6.00 Build 0)  -->
<svg version="1.1" id="레이어_1" xmlns="http://www.w3.org/2000/svg" xmlns:xlink="http://www.w3.org/1999/xlink" x="0px"
	 y="0px" viewBox="0 0 800 800" style="enable-background:new 0 0 800 800;" xml:space="preserve">
<style type="text/css">
	.st0{fill:none;stroke:#231815;stroke-width:8;stroke-linecap:round;stroke-linejoin:round;stroke-miterlimit:10;}
	.st1{fill:#79BCF2;stroke:#231815;stroke-width:8;stroke-linecap:round;stroke-linejoin:round;stroke-miterlimit:10;}
	.st2{fill:#79BCF2;stroke:#231815;stroke-width:7.9999;stroke-linecap:round;stroke-linejoin:round;stroke-miterlimit:9.9999;}
	.st3{fill:#FFFFFF;}
</style>
<path class="st0" d="M275.6,696.2c0,0,16.6-22.6,36.6-143.9c6.5-39.4,4-87.5,51-192.4"/>
<path class="st1" d="M356.1,354.7c0,0-31.5,14.1-3.2,14.7c0,0,4.2,13.8,13,3.6c0,0,16.9,14.8,4.7-13.8L356.1,354.7z"/>
<ellipse transform="matrix(0.2141 -0.9768 0.9768 0.2141 87.1466 577.7078)" class="st2" cx="402.6" cy="234.7" rx="131.3" ry="121.3"/>
<path class="st3" d="M469.4,225.4c0,0,8.4,53.3-32.5,75c0,0,4.3,20.6,22.8,8.4C478.2,296.7,512.1,226.3,469.4,225.4z"/>
<path class="st3" d="M430.1,321.9c-1.7-7.7-10.6-11.1-17.4-7.2c-4.4,2.5-7.4,6.4-2.1,11.8C418.8,335,432.4,332,430.1,321.9z"/>
</svg>
