<?xml version="1.0" encoding="utf-8"?>
<!-- Generator: Adobe Illustrator 27.7.0, SVG Export Plug-In . SVG Version: 6.00 Build 0)  -->
<svg version="1.1" id="레이어_1" xmlns="http://www.w3.org/2000/svg" xmlns:xlink="http://www.w3.org/1999/xlink" x="0px"
	 y="0px" viewBox="0 0 1080 1013.3" style="enable-background:new 0 0 1080 1013.3;" xml:space="preserve">
<style type="text/css">
	.st0{fill:#FF5562;stroke:#231815;stroke-width:8;stroke-linecap:round;stroke-linejoin:round;stroke-miterlimit:10;}
	.st1{fill:#FFFFFF;stroke:#231815;stroke-width:4;stroke-linecap:round;stroke-linejoin:round;stroke-miterlimit:10;}
</style>
<g id="머리장식">
	<g id="핀1">
		<g>
			<path class="st0" d="M393.9,353.7c0,0-11.6-15.1-33.2-24.9s-33.8-8.9-36.4,5.3c-2.7,14.2,16.3,21,34.8,21.9
				C377.6,357,395.7,355.8,393.9,353.7z"/>
			<path class="st1" d="M365.7,344.7c0,0-6-4.1-11.4-6.6s-8.5-2.2-9.2,1.3c-0.7,3.6,4.1,5.3,8.8,5.5
				C358.5,345.2,366.1,345.2,365.7,344.7z"/>
		</g>
		<g>
			<path class="st0" d="M403.9,330.3c0,0-9.7-16.4-30-28.6s-32.5-12.8-36.8,1s13.7,22.8,32,25.8
				C387.4,331.7,405.5,332.7,403.9,330.3z"/>
			<path class="st1" d="M377,318.1c0,0-5.5-4.8-10.6-7.9s-8.2-3.2-9.3,0.3s3.5,5.7,8.1,6.5C369.8,317.7,377.4,318.7,377,318.1z"/>
		</g>
	</g>
</g>
</svg>
