<?xml version="1.0" encoding="utf-8"?>
<!-- Generator: Adobe Illustrator 27.7.0, SVG Export Plug-In . SVG Version: 6.00 Build 0)  -->
<svg version="1.1" id="레이어_1" xmlns="http://www.w3.org/2000/svg" xmlns:xlink="http://www.w3.org/1999/xlink" x="0px"
	 y="0px" viewBox="0 0 800 800" style="enable-background:new 0 0 800 800;" xml:space="preserve">
<style type="text/css">
	.st0{fill:#79BCF2;stroke:#231815;stroke-width:8;stroke-linecap:round;stroke-linejoin:round;stroke-miterlimit:10;}
	
		.st1{fill:#79BCF2;stroke:#231815;stroke-width:5;stroke-linecap:round;stroke-linejoin:round;stroke-miterlimit:10;stroke-dasharray:2,8;}
	.st2{fill:none;stroke:#231815;stroke-width:8;stroke-linecap:round;stroke-linejoin:round;stroke-miterlimit:10;}
	.st3{fill:#D1CDC9;stroke:#231815;stroke-width:8;stroke-linecap:round;stroke-linejoin:round;stroke-miterlimit:10;}
	
		.st4{fill:none;stroke:#231815;stroke-width:5;stroke-linecap:round;stroke-linejoin:round;stroke-miterlimit:10;stroke-dasharray:8,15;}
</style>
<g id="레이어드">
	<g id="멜빵">
		<g>
			<path class="st0" d="M396.6,521.2l-7.8,19.7c-81.5,0-166.8-24.2-166.8-24.2l12-88.9h332l12,88.9c0,0-85.3,24.2-166.8,24.2
				l-7.8-19.7H396.6z"/>
			<path class="st0" d="M227.6,474.1c25.7,10.2,36.8-18.8,36.8-18.8l-33.1-8.2L227.6,474.1z"/>
			<path class="st1" d="M255.1,454.2c0,0-9.1,13.3-25.1,11.7"/>
			<path class="st0" d="M572.5,474.1c-25.7,10.2-36.8-18.8-36.8-18.8l33.1-8.2L572.5,474.1z"/>
			<path class="st1" d="M545,454.2c0,0,9.1,13.3,25.1,11.7"/>
			<line class="st2" x1="400.1" y1="521.2" x2="400.1" y2="427.7"/>
		</g>
		<path class="st0" d="M245.7,317.5l-20.2,130.1c0,0,150.7,53.7,349.1,2.5l-21.4-132.6C553.3,317.5,315.8,334.5,245.7,317.5z"/>
		<polygon class="st0" points="248.7,259.1 248.7,307.7 282.1,307.7 282.1,266.1 		"/>
		<polygon class="st0" points="551.5,259.1 551.5,307.7 518,307.7 518,265 		"/>
		<g>
			<path class="st3" d="M279.2,325.4h-29.9c-4.9,0-8.9-4-8.9-8.9v-16.3c0-4.9,4-8.9,8.9-8.9h29.9c4.9,0,8.9,4,8.9,8.9v16.3
				C288.1,321.5,284.1,325.4,279.2,325.4z"/>
			<rect x="257.3" y="306.5" class="st2" width="14.5" height="2.8"/>
			<path class="st3" d="M520.9,325.4h29.9c4.9,0,8.9-4,8.9-8.9v-16.3c0-4.9-4-8.9-8.9-8.9h-29.9c-4.9,0-8.9,4-8.9,8.9v16.3
				C512,321.5,516,325.4,520.9,325.4z"/>
			<rect x="528.3" y="306.5" class="st2" width="14.5" height="2.8"/>
		</g>
		<g>
			<path class="st2" d="M345.4,378.6v25.9c0,3.5,2,6.8,5.2,8.4l47.5,23.4c2.7,1.3,5.8,1.3,8.5-0.1l43.2-22.8c3.1-1.6,5-4.8,5-8.2
				v-26.5c0-5.1-4.2-9.3-9.3-9.3h-90.7C349.6,369.3,345.4,373.4,345.4,378.6z"/>
			<line class="st4" x1="349.6" y1="383.9" x2="450.1" y2="383.9"/>
		</g>
	</g>
</g>
</svg>
