<?xml version="1.0" encoding="utf-8"?>
<!-- Generator: Adobe Illustrator 27.7.0, SVG Export Plug-In . SVG Version: 6.00 Build 0)  -->
<svg version="1.1" id="레이어_1" xmlns="http://www.w3.org/2000/svg" xmlns:xlink="http://www.w3.org/1999/xlink" x="0px"
	 y="0px" viewBox="0 0 800 800" style="enable-background:new 0 0 800 800;" xml:space="preserve">
<style type="text/css">
	.st0{fill:#FFD9D9;stroke:#231815;stroke-width:8;stroke-linecap:round;stroke-linejoin:round;stroke-miterlimit:10;}
	.st1{fill:#231815;}
	.st2{fill:#FFFFFF;stroke:#231815;stroke-width:3;stroke-linecap:round;stroke-linejoin:round;stroke-miterlimit:10;}
	.st3{fill:#FFFFFF;}
</style>
<g id="토끼인형">
	<path class="st0" d="M412.4,330.1c0,0,65.7-17.7,102.4,31.5s11.5,86.6-4.2,80.4c-15.7-6.2,2.4-55-33.4-71.7
		C441.4,353.7,365.3,363.8,412.4,330.1z"/>
	<path class="st0" d="M351.7,351.8c0,0-1.6-88.6-33.1-108.6s-32.9,56.8-12.9,138.1c0,0-24.3,33.3-24.3,74.8
		c0,70.1-28.6,74.4-7.1,85.8s41.4,9.9,41.4-41.5l35.9,10c0,0-7.4,31.5,21.2,45.8c28.6,14.3,21.4-13,18.6-53s18.6-78.6,18.6-78.6
		s8.6,44.3,32.9,80c24.3,35.7,45.7,8.7,27.1-33.5C451.4,428.9,429,333.2,351.7,351.8z"/>
	<path class="st0" d="M369.4,301.1c-22.2,6.5-30.2,35.2-24.3,57.5c3.1,11.8,10.7,23.6,26.8,31.7c45.2,22.9,68.7,16.6,87.1-2.4
		c8.8-9.1,18.3,0.8,23.3,22c6,25.2-8.6,51.9,18.6,47.6c27.1-4.3,21.4-86.7-28.1-109.2C472.9,348.3,447.2,278.4,369.4,301.1z"/>
	<circle class="st1" cx="411.3" cy="342.4" r="6"/>
	<line class="st2" x1="414.4" y1="354.5" x2="416.7" y2="366.7"/>
	<line class="st2" x1="408.8" y1="355" x2="407.4" y2="367.5"/>
	<line class="st2" x1="410.7" y1="331.3" x2="407.3" y2="319.7"/>
	<line class="st2" x1="404.9" y1="332.7" x2="397.4" y2="323.2"/>
	<ellipse class="st3" cx="343.3" cy="448" rx="25.1" ry="28.6"/>
	
		<ellipse transform="matrix(0.9558 -0.2941 0.2941 0.9558 -77.567 139.0497)" class="st1" cx="423.6" cy="327.4" rx="5.4" ry="4.1"/>
	<ellipse transform="matrix(0.1518 -0.9884 0.9884 0.1518 9.4514 723.4571)" class="st1" cx="426.3" cy="356.2" rx="4.1" ry="5.4"/>
	<line class="st2" x1="412" y1="344.2" x2="394.1" y2="345.6"/>
	<path class="st2" d="M391.8,338.2c0.7,0.6,2.2,14.8,2.2,14.8"/>
</g>
</svg>
