<?xml version="1.0" encoding="utf-8"?>
<!-- Generator: Adobe Illustrator 27.7.0, SVG Export Plug-In . SVG Version: 6.00 Build 0)  -->
<svg version="1.1" id="레이어_1" xmlns="http://www.w3.org/2000/svg" xmlns:xlink="http://www.w3.org/1999/xlink" x="0px"
	 y="0px" viewBox="0 0 800 800" style="enable-background:new 0 0 800 800;" xml:space="preserve">
<style type="text/css">
	.st0{fill:#FFFFFF;}
	.st1{clip-path:url(#SVGID_00000116921411433477225400000002353535076916156571_);fill:#FF5562;}
	.st2{clip-path:url(#SVGID_00000111178196128369375910000011722385779719943842_);fill:#FF5562;}
	.st3{clip-path:url(#SVGID_00000023984099131360946640000007893157297116609698_);fill:#FF5562;}
	.st4{clip-path:url(#SVGID_00000033346291229936759070000015046756085712565893_);fill:#FF5562;}
	.st5{fill:none;stroke:#231815;stroke-width:8;stroke-linecap:round;stroke-linejoin:round;stroke-miterlimit:10;}
	.st6{fill:#FFFFFF;stroke:#231815;stroke-width:8;stroke-linecap:round;stroke-linejoin:round;stroke-miterlimit:10;}
</style>
<g id="상의">
	<g id="줄무늬티셔츠">
		<g>
			<path id="SVGID_00000005249484288837186680000011419366360162303390_" class="st0" d="M559.5,478.2l-3.5-47.4
				c0,0,60.4-34.4,63.4-44.4c3-10.1-11.3-27.3-26.7-49.8s-31.1-24.9-31.1-24.9s-88.3,20.4-124.4,19c-0.5,0-0.8,0.4-0.8,0.8
				c0.2,4.7-0.6,27.5-35,27c-34.6-0.5-38.2-22.7-38.6-27.1c0-0.4-0.4-0.7-0.8-0.7c-36.1,1.4-124.5-19-124.5-19s-15.7,2.4-31.1,24.9
				s-29.6,39.7-26.7,49.8c3,10.1,63.4,44.4,63.4,44.4l-3.4,47.1c-0.1,0.9,0.6,1.7,1.5,1.9c19.7,3.3,167,17.4,317.3,0.2
				C559.2,479.9,559.7,479,559.5,478.2z"/>
		</g>
		<g>
			<g>
				<g>
					<g>
						<defs>
							<path id="SVGID_1_" d="M559.5,478.2l-3.5-47.4c0,0,60.4-34.4,63.4-44.4c3-10.1-11.3-27.3-26.7-49.8s-31.1-24.9-31.1-24.9
								s-88.3,20.4-124.4,19c-0.5,0-0.8,0.4-0.8,0.8c0.2,4.7-0.6,27.5-35,27c-34.6-0.5-38.2-22.7-38.6-27.1c0-0.4-0.4-0.7-0.8-0.7
								c-36.1,1.4-124.5-19-124.5-19s-15.7,2.4-31.1,24.9s-29.6,39.7-26.7,49.8c3,10.1,63.4,44.4,63.4,44.4l-3.4,47.1
								c-0.1,0.9,0.6,1.7,1.5,1.9c19.7,3.3,167,17.4,317.3,0.2C559.2,479.9,559.7,479,559.5,478.2z"/>
						</defs>
						<clipPath id="SVGID_00000137822321276670040380000009590680279633821069_">
							<use xlink:href="#SVGID_1_"  style="overflow:visible;"/>
						</clipPath>
						<path style="clip-path:url(#SVGID_00000137822321276670040380000009590680279633821069_);fill:#FF5562;" d="M187.7,353
							c0,0,101.3,31.9,220.8,31.9s213.9-38.5,213.9-38.5l13.3,10c0,0-105.8,41.6-227,41.6s-252.4-39.6-252.4-39.6L187.7,353z"/>
					</g>
					<g>
						<defs>
							<path id="SVGID_00000155115702173738154240000002595972806726163899_" d="M559.5,478.2l-3.5-47.4c0,0,60.4-34.4,63.4-44.4
								c3-10.1-11.3-27.3-26.7-49.8s-31.1-24.9-31.1-24.9s-88.3,20.4-124.4,19c-0.5,0-0.8,0.4-0.8,0.8c0.2,4.7-0.6,27.5-35,27
								c-34.6-0.5-38.2-22.7-38.6-27.1c0-0.4-0.4-0.7-0.8-0.7c-36.1,1.4-124.5-19-124.5-19s-15.7,2.4-31.1,24.9
								s-29.6,39.7-26.7,49.8c3,10.1,63.4,44.4,63.4,44.4l-3.4,47.1c-0.1,0.9,0.6,1.7,1.5,1.9c19.7,3.3,167,17.4,317.3,0.2
								C559.2,479.9,559.7,479,559.5,478.2z"/>
						</defs>
						<clipPath id="SVGID_00000025418720364917520410000015618135526324129721_">
							<use xlink:href="#SVGID_00000155115702173738154240000002595972806726163899_"  style="overflow:visible;"/>
						</clipPath>
						<path style="clip-path:url(#SVGID_00000025418720364917520410000015618135526324129721_);fill:#FF5562;" d="M187.7,390.9
							c0,0,101.3,26.9,220.8,26.9s213.9-33.5,213.9-33.5l13.3,13c0,0-105.8,33.6-227,33.6s-252.4-34.6-252.4-34.6L187.7,390.9z"/>
					</g>
					<g>
						<defs>
							<path id="SVGID_00000031893324553367437640000001595620092610950024_" d="M559.5,478.2l-3.5-47.4c0,0,60.4-34.4,63.4-44.4
								c3-10.1-11.3-27.3-26.7-49.8s-31.1-24.9-31.1-24.9s-88.3,20.4-124.4,19c-0.5,0-0.8,0.4-0.8,0.8c0.2,4.7-0.6,27.5-35,27
								c-34.6-0.5-38.2-22.7-38.6-27.1c0-0.4-0.4-0.7-0.8-0.7c-36.1,1.4-124.5-19-124.5-19s-15.7,2.4-31.1,24.9
								s-29.6,39.7-26.7,49.8c3,10.1,63.4,44.4,63.4,44.4l-3.4,47.1c-0.1,0.9,0.6,1.7,1.5,1.9c19.7,3.3,167,17.4,317.3,0.2
								C559.2,479.9,559.7,479,559.5,478.2z"/>
						</defs>
						<clipPath id="SVGID_00000059996066573096256890000008151025633476440493_">
							<use xlink:href="#SVGID_00000031893324553367437640000001595620092610950024_"  style="overflow:visible;"/>
						</clipPath>
						<path style="clip-path:url(#SVGID_00000059996066573096256890000008151025633476440493_);fill:#FF5562;" d="M187.7,431.6
							c0,0,101.3,19.2,220.8,19.2S622.5,425,622.5,425l13.3,15c0,0-105.8,24.9-227,24.9S156.3,439,156.3,439L187.7,431.6z"/>
					</g>
					<g>
						<defs>
							<path id="SVGID_00000063635445771949032350000004287469714764913337_" d="M559.5,478.2l-3.5-47.4c0,0,60.4-34.4,63.4-44.4
								c3-10.1-11.3-27.3-26.7-49.8s-31.1-24.9-31.1-24.9s-88.3,20.4-124.4,19c-0.5,0-0.8,0.4-0.8,0.8c0.2,4.7-0.6,27.5-35,27
								c-34.6-0.5-38.2-22.7-38.6-27.1c0-0.4-0.4-0.7-0.8-0.7c-36.1,1.4-124.5-19-124.5-19s-15.7,2.4-31.1,24.9
								s-29.6,39.7-26.7,49.8c3,10.1,63.4,44.4,63.4,44.4l-3.4,47.1c-0.1,0.9,0.6,1.7,1.5,1.9c19.7,3.3,167,17.4,317.3,0.2
								C559.2,479.9,559.7,479,559.5,478.2z"/>
						</defs>
						<clipPath id="SVGID_00000142898312228509205410000013297253819154856322_">
							<use xlink:href="#SVGID_00000063635445771949032350000004287469714764913337_"  style="overflow:visible;"/>
						</clipPath>
						<path style="clip-path:url(#SVGID_00000142898312228509205410000013297253819154856322_);fill:#FF5562;" d="M207.7,320.3
							c0,0,91.6,31.9,199.6,31.9s193.3-38.5,193.3-38.5l12,10c0,0-92.9,39.6-202.4,39.6s-230.8-37.6-230.8-37.6L207.7,320.3z"/>
					</g>
				</g>
			</g>
			<g>
				<path id="SVGID_00000064344044286617313800000017533698761611633086_" class="st5" d="M559.5,478.2l-3.5-47.4
					c0,0,60.4-34.4,63.4-44.4c3-10.1-11.3-27.3-26.7-49.8s-31.1-24.9-31.1-24.9s-88.3,20.4-124.4,19c-0.5,0-0.8,0.4-0.8,0.8
					c0.2,4.7-0.6,27.5-35,27c-34.6-0.5-38.2-22.7-38.6-27.1c0-0.4-0.4-0.7-0.8-0.7c-36.1,1.4-124.5-19-124.5-19s-15.7,2.4-31.1,24.9
					s-29.6,39.7-26.7,49.8c3,10.1,63.4,44.4,63.4,44.4l-3.4,47.1c-0.1,0.9,0.6,1.7,1.5,1.9c19.7,3.3,167,17.4,317.3,0.2
					C559.2,479.9,559.7,479,559.5,478.2z"/>
			</g>
		</g>
		<line class="st5" x1="243.2" y1="430.8" x2="245.2" y2="408.6"/>
		<line class="st5" x1="556.2" y1="430.8" x2="553.7" y2="408.6"/>
		<path class="st6" d="M347.4,330.7c0,0-0.4,43.1,53.6,43.1c55.3,0,52.7-43.1,52.7-43.1h-16.4c0,0,0.5,27.8-35.8,27.8
			s-38.6-27.1-38.6-27.1L347.4,330.7z"/>
		<path class="st6" d="M180.2,378.5l-8,15.3c-1.1,2-0.6,4.5,1,6.1c8.1,7.7,33.5,30.3,69,44.6l1.8-21.8
			C243.8,422.7,198.3,394.9,180.2,378.5z"/>
		<path class="st6" d="M619.9,378.5l8,15.3c1.1,2,0.6,4.5-1,6.1c-8.1,7.7-33.5,30.3-69,44.6l-1.8-21.8
			C556.2,422.7,601.7,394.9,619.9,378.5z"/>
	</g>
</g>
</svg>
