<?xml version="1.0" encoding="utf-8"?>
<!-- Generator: Adobe Illustrator 27.7.0, SVG Export Plug-In . SVG Version: 6.00 Build 0)  -->
<svg version="1.1" id="레이어_1" xmlns="http://www.w3.org/2000/svg" xmlns:xlink="http://www.w3.org/1999/xlink" x="0px"
	 y="0px" viewBox="0 0 1080 1013.3" style="enable-background:new 0 0 1080 1013.3;" xml:space="preserve">
<style type="text/css">
	.st0{fill:#5584D8;}
	.st1{fill:#FFFFFF;}
</style>
<g>
	<g>
		<g>
			<path class="st0" d="M579.7,490.7c40-9.8,74.5-26.5,91.7-52c17.2-25.5,20.1-117.9,20.1-117.9l38.8-17.2l44.4,94.4l-24.6,11.6
				c14.2,30.2,21.6,83.3,21.6,83.3l2.3,26.2c2.1,34.4,1.7,68.9-1.4,103.3l-4.1,27.9l-62.8-4.4c0,0-57.5-3-111.4-11.9
				c-113.2-18.7-143.4-32-143.4-32l1-1.9c7.6-14.4,11.2-25.7,13-41.9l0.5-4.4c-27.9,8.3-61.3,2.7-61.3,2.7l0.9-85.8l10.4,0.6
				c27.9,24.3,94.5,22.5,94.5,22.5s5.8,21.2,33.8,22.2C581.4,517.3,579.7,490.7,579.7,490.7z"/>
			<path d="M770.7,652.9l-65.1-4.6c-0.5,0-58.2-3.1-111.6-11.9c-112.2-18.5-142.8-31.6-144-32.2l-2.4-1.1l2.2-4.2
				c7.6-14.4,11-25.5,12.8-41l0.1-0.7c-27.2,6.9-57.5,2-58.8,1.7l-2.1-0.4l0.9-90.5l13.8,0.8l0.6,0.6c26.8,23.4,92.2,21.9,92.8,21.9
				l2-0.1l0.5,1.9c0.2,0.8,5.8,19.5,31.5,20.4c12.6,0.4,21.9-2.3,27.6-8.1c6.2-6.4,5.8-14.5,5.8-14.6l-0.1-2.1l2-0.5
				c43.8-10.7,74.9-28.3,90.2-51c16.6-24.6,19.7-115.7,19.7-116.6l0.1-1.6l42.5-18.8l46.5,98.9l-24.6,11.6
				c13.5,30.5,20.5,79.6,20.8,81.7l0,0.1l2.3,26.2c2.1,34.5,1.7,69.3-1.4,103.7l0,0.1L770.7,652.9z M454.4,600.6
				c9.3,3.4,46.1,15.3,140.3,30.9c53.2,8.8,110.6,11.8,111.1,11.8l60.6,4.3l3.8-25.5c3-34.1,3.5-68.7,1.4-102.8l-2.2-26.1
				c-0.3-2.1-7.7-53.4-21.4-82.5l-1.1-2.3l24.6-11.6l-42.3-90L694,322.4c-0.5,12.7-4.2,93.4-20.5,117.7
				c-15.8,23.4-47.3,41.5-91.3,52.6c-0.2,3.4-1.4,10.3-7.1,16.2c-6.7,6.9-17.2,10.1-31.4,9.6c-24.4-0.9-33.1-16.7-35.4-22.2
				c-11,0.1-67.5-0.5-93.8-22.6l-6.9-0.4l-0.8,81c7.7,1,35.1,4,58.1-2.9l3.6-1.1l-0.9,8.1C465.6,574.4,462.1,585.9,454.4,600.6z"/>
		</g>
	</g>
	<g>
		<path class="st1" d="M706.4,496.1c0.6-2.3,1.6-3.7,2.3-4.4c0.3-0.4,0.3-1-0.2-1.3c-0.8-0.5-1.9-1.6-2.8-3.4
			c-1.5-3.2-3.2-8.8-9.6-10c-6.5-1.1-9.2,1.7-9.2,1.7s-3.4-2.5-7.4-1.5c-3.8,1-4.1,5.3-4.2,7.9c0,0.2,0.2,0.3,0.3,0.2
			c0.7-0.7,2.4-2.1,4.8-1.2c3.2,1.1,3.1,11.4,1.1,14.2c-1,1.3-1.9,2.1-2.7,2.5c-0.5,0.3-0.4,1,0,1.3c1.6,0.9,3.8,2.8,3.6,6.9
			c-0.2,6.2-0.3,8.9-2.7,10c-2,0.9-3.7-0.2-4.5-1.4c-0.2-0.3-0.7-0.2-0.7,0.2c-0.1,1,0,2.7,1.3,5c2.2,3.8,6.7,4.4,10.5,1.6
			c0,0,3.1,1.8,8.7,1.7c5.4-0.1,7.9-4.7,9.3-7.7c1.2-2.4,2.5-5.1,3.8-6.1c0.3-0.3,0.4-0.9,0.1-1.2c-0.6-0.7-1.3-1.8-1.6-3.3
			c-0.4-2.5-1.5-5.4-3.1-6.3C703.5,501.5,705.2,500.1,706.4,496.1z M698,515c-0.4,2.8-2.3,3.5-4.5,3.5c-2.6,0-4-1.9-4-1.9v-9.8
			c0,0,1.6-2.3,5.1-1.7c3.4,0.5,4.8,4.1,3.4,5.7C696.4,512.3,698.4,512.2,698,515z M697.8,490c-1.5,1.6,0.5,1.5,0.2,4.3
			c-0.4,2.8-2.3,3.5-4.5,3.5c-2.6,0-4-1.9-4-1.9v-9.8c0,0,1.6-2.3,5.1-1.7C697.9,484.9,699.3,488.4,697.8,490z"/>
		<path d="M700.8,501.2c0,0,3-0.7,4-5.2c0.6-2.6,1.2-3.9,1.7-4.5c0.2-0.3,0.2-0.7-0.1-1c-0.7-0.6-1.8-1.9-2.4-3.4
			c-1-2.4-2.7-7.7-8.9-8.7c-6.3-1-8,2.7-8,2.7s-2.5-3.3-6.5-2.4c-3.2,0.7-3.9,3.4-4,4.3c0,0.1,0.1,0.2,0.2,0.2
			c0.7-0.4,3-1.6,5.6,0.2c0,0,1.9,1.2,2.3,5.7c0.3,3.8,0.6,9.3-3.1,12.3c-0.1,0-0.1,0.1,0,0.2c0.5,0.3,2.7,1.9,2.7,6.9
			c0,5.7,0.3,14.4-7.7,11.7c-0.1,0-0.2,0-0.2,0.1c0.3,0.8,1.3,3.8,4.5,4.4c3.6,0.5,5.4-2.7,5.4-2.7s3.8,3.7,8.9,2.6s7-5.2,9.1-9.4
			c1-2.1,1.7-3,2.1-3.4c0.3-0.3,0.3-0.6,0.2-1c-0.4-0.8-1.2-2.2-1.7-3.8C703.9,504.3,702.7,501.9,700.8,501.2z M698.9,517.5
			c-1.7,2.7-7.9,3.3-10.7-0.1v-11.2c0,0,0.6-2.2,3.9-2.7c3.4-0.5,7.7,0.8,7.7,5.4c0,0,0,1.5-0.9,2.8
			C698.9,511.8,700.7,514.7,698.9,517.5z M698.9,491.1c0,0,1.7,3.1,0,5.8s-7.9,3.3-10.7-0.1v-11.2c0,0,0.6-2.2,3.9-2.7
			c3.4-0.5,7.7,0.8,7.7,5.4C699.8,488.3,699.8,489.7,698.9,491.1z"/>
	</g>
</g>
</svg>
