<?xml version="1.0" encoding="utf-8"?>
<!-- Generator: Adobe Illustrator 27.7.0, SVG Export Plug-In . SVG Version: 6.00 Build 0)  -->
<svg version="1.1" id="레이어_1" xmlns="http://www.w3.org/2000/svg" xmlns:xlink="http://www.w3.org/1999/xlink" x="0px"
	 y="0px" viewBox="0 0 1080 1013.3" style="enable-background:new 0 0 1080 1013.3;" xml:space="preserve">
<style type="text/css">
	.st0{fill:#79BCF2;stroke:#231815;stroke-width:8;stroke-linecap:round;stroke-linejoin:round;stroke-miterlimit:10;}
	
		.st1{fill:#79BCF2;stroke:#231815;stroke-width:5;stroke-linecap:round;stroke-linejoin:round;stroke-miterlimit:10;stroke-dasharray:2,8;}
	.st2{fill:#D1CDC9;stroke:#231815;stroke-width:8;stroke-linecap:round;stroke-linejoin:round;stroke-miterlimit:10;}
	.st3{fill:none;stroke:#231815;stroke-width:8;stroke-linecap:round;stroke-linejoin:round;stroke-miterlimit:10;}
	
		.st4{fill:none;stroke:#231815;stroke-width:5;stroke-linecap:round;stroke-linejoin:round;stroke-miterlimit:10;stroke-dasharray:8,15;}
</style>
<g id="레이어드">
	<g id="멜빵">
		<g>
			<path class="st0" d="M538.1,921.9l-7.8,19.7c-81.5,0-166.8-24.2-166.8-24.2l12-88.9h332l12,88.9c0,0-85.3,24.2-166.8,24.2
				l-7.8-19.7H538.1z"/>
			<path class="st0" d="M369.1,874.9c25.7,10.2,36.8-18.8,36.8-18.8l-33.1-8.2L369.1,874.9z"/>
			<path class="st1" d="M396.6,855c0,0-9.1,13.3-25.1,11.7"/>
			<path class="st0" d="M714,874.9c-25.7,10.2-36.8-18.8-36.8-18.8l33.1-8.2L714,874.9z"/>
			<path class="st1" d="M686.5,855c0,0,9.1,13.3,25.1,11.7"/>
			<line class="st0" x1="541.6" y1="921.9" x2="541.6" y2="828.5"/>
		</g>
		<path class="st0" d="M387.2,718.3L367,848.4c0,0,150.7,53.7,349.1,2.5l-21.4-132.6C694.8,718.3,457.3,735.3,387.2,718.3z"/>
		<polygon class="st0" points="390.2,659.9 390.2,708.5 423.6,708.5 423.6,666.9 		"/>
		<polygon class="st0" points="693,659.9 693,708.5 659.5,708.5 659.5,665.8 		"/>
		<g>
			<path class="st2" d="M420.7,726.2h-29.9c-4.9,0-8.9-4-8.9-8.9V701c0-4.9,4-8.9,8.9-8.9h29.9c4.9,0,8.9,4,8.9,8.9v16.3
				C429.6,722.3,425.6,726.2,420.7,726.2z"/>
			<rect x="398.8" y="707.3" class="st3" width="14.5" height="2.8"/>
			<path class="st2" d="M662.4,726.2h29.9c4.9,0,8.9-4,8.9-8.9V701c0-4.9-4-8.9-8.9-8.9h-29.9c-4.9,0-8.9,4-8.9,8.9v16.3
				C653.5,722.3,657.5,726.2,662.4,726.2z"/>
			<rect x="669.8" y="707.3" class="st3" width="14.5" height="2.8"/>
		</g>
		<g>
			<path class="st3" d="M486.9,779.4v25.9c0,3.5,2,6.8,5.2,8.4l47.5,23.4c2.7,1.3,5.8,1.3,8.5-0.1l43.2-22.8c3.1-1.6,5-4.8,5-8.2
				v-26.5c0-5.1-4.2-9.3-9.3-9.3h-90.7C491.1,770.1,486.9,774.2,486.9,779.4z"/>
			<line class="st4" x1="491.1" y1="784.7" x2="591.6" y2="784.7"/>
		</g>
	</g>
</g>
</svg>
