<?xml version="1.0" encoding="utf-8"?>
<!-- Generator: Adobe Illustrator 27.7.0, SVG Export Plug-In . SVG Version: 6.00 Build 0)  -->
<svg version="1.1" id="레이어_1" xmlns="http://www.w3.org/2000/svg" xmlns:xlink="http://www.w3.org/1999/xlink" x="0px"
	 y="0px" viewBox="0 0 800 800" style="enable-background:new 0 0 800 800;" xml:space="preserve">
<style type="text/css">
	.st0{fill:#FFFFFF;stroke:#231815;stroke-width:8;stroke-linecap:round;stroke-linejoin:round;stroke-miterlimit:10;}
	.st1{fill:#FFC82C;}
</style>
<g id="상의">
	<g id="고양이나시">
		<path class="st0" d="M567.8,492.5c-3.7-34.9-20.5-195.3-20.5-195.3s-10.6,1.2-33.7,8.4c0,0,3.2,33.3,4,47.6l-79.2,9.7
			c-22.2,3.1-54.7,3-76.9-0.1l-77.9-9.6c0.8-14.2,4-47.6,4-47.6c-23-7.2-33.7-8.4-33.7-8.4s-18,160.4-21.6,195.3
			C232.2,492.5,409,515.6,567.8,492.5z"/>
		<path class="st1" d="M412.5,422.9l3.3-6.9c1.3-1.9,4.2-1.2,4.6,1l1.8,11.4c1,1.9,1.6,3.9,1.6,6.1c0,8.3-8.6,15.1-19.1,15.1
			c-10.6,0-19.1-6.7-19.1-15.1c0-1.9,0.4-3.7,1.3-5.4l2-12.1c0.4-2.2,3.3-2.9,4.6-1l3.3,7C396.7,423,403.3,427,412.5,422.9z"/>
	</g>
</g>
</svg>
