<?xml version="1.0" encoding="utf-8"?>
<!-- Generator: Adobe Illustrator 27.7.0, SVG Export Plug-In . SVG Version: 6.00 Build 0)  -->
<svg version="1.1" id="레이어_1" xmlns="http://www.w3.org/2000/svg" xmlns:xlink="http://www.w3.org/1999/xlink" x="0px"
	 y="0px" viewBox="0 0 800 800" style="enable-background:new 0 0 800 800;" xml:space="preserve">
<style type="text/css">
	.st0{fill:#F74D6B;stroke:#231815;stroke-width:10;stroke-linecap:round;stroke-linejoin:round;stroke-miterlimit:10;}
	.st1{fill:#FFC50D;stroke:#231815;stroke-width:10;stroke-linecap:round;stroke-linejoin:round;stroke-miterlimit:10;}
</style>
<g id="머리장식_00000084527414012137542240000007933090627514024849_">
	<g id="핀3">
		<path class="st0" d="M427.1,464.6l-96.8-70.5c-5.5-3.9-6.6-11.6-2.6-17.1l0,0c3.9-5.5,11.6-6.6,17.1-2.6l96.8,70.5
			c5.5,3.9,6.6,11.6,2.6,17.1l0,0C440.3,467.3,432.6,468.6,427.1,464.6z"/>
		<path class="st1" d="M455.3,425.7l-96.8-70.5c-5.5-3.9-6.6-11.6-2.6-17.1l0,0c3.9-5.5,11.6-6.6,17.1-2.6l96.8,70.5
			c5.5,3.9,6.6,11.6,2.6,17.1l0,0C468.4,428.6,460.8,429.6,455.3,425.7z"/>
	</g>
</g>
</svg>
