<?xml version="1.0" encoding="utf-8"?>
<!-- Generator: Adobe Illustrator 27.7.0, SVG Export Plug-In . SVG Version: 6.00 Build 0)  -->
<svg version="1.1" id="레이어_1" xmlns="http://www.w3.org/2000/svg" xmlns:xlink="http://www.w3.org/1999/xlink" x="0px"
	 y="0px" viewBox="0 0 800 800" style="enable-background:new 0 0 800 800;" xml:space="preserve">
<style type="text/css">
	.st0{fill:#FF5562;stroke:#000000;stroke-width:8;stroke-miterlimit:10;}
</style>
<g id="머리장식">
	<g id="_x31_2">
		<path class="st0" d="M402.7,469.7c57.6,0,112.9,17,144.8,23.4c6.5,1.3,9.9-7.4,4.4-10.9c-24.5-15.6-67.5-36-123.5-36h-56.7
			c-56,0-99,20.6-123.5,36c-5.7,3.5-2.1,12.2,4.4,10.9c31.8-6.5,87.2-23.4,144.8-23.4H402.7z"/>
		<g>
			<path class="st0" d="M398.3,434.8c0,0,8.8-45.8-39.6-70.5s-95.7-57.6-95.7-57.6S237.8,473.4,383.4,454
				C383.3,453.8,399.3,458.1,398.3,434.8z"/>
			<path d="M386.7,434.4l-32.9-29.6c-2.4-2.1-6.2-2-8.4,0.4l-0.3,0.4c-2.1,2.4-2,6.2,0.6,8.4l33.2,29.2c2.7,2.3,6.8,1.8,8.8-1.1l0,0
				C389.4,439.8,389,436.4,386.7,434.4z"/>
			<path class="st0" d="M401.7,434.8c0,0-8.8-45.8,39.6-70.5c48.4-24.7,95.7-57.6,95.7-57.6S562.2,473.4,416.6,454
				C416.8,453.8,400.7,458.1,401.7,434.8z"/>
			<path d="M413.4,434.4l32.9-29.6c2.4-2.1,6.2-2,8.4,0.4l0.3,0.4c2.1,2.4,2,6.2-0.6,8.4l-33.2,29.2c-2.7,2.3-6.8,1.8-8.8-1.1l0,0
				C410.7,439.8,411.1,436.4,413.4,434.4z"/>
			<path class="st0" d="M404.3,462.3h-5c-9.1,0-16.4-7.4-16.4-16.4v-14.2c0-9.1,7.4-16.4,16.4-16.4h5c9.1,0,16.4,7.4,16.4,16.4v14.2
				C420.7,455,413.4,462.3,404.3,462.3z"/>
		</g>
	</g>
</g>
</svg>
