<?xml version="1.0" encoding="utf-8"?>
<!-- Generator: Adobe Illustrator 27.7.0, SVG Export Plug-In . SVG Version: 6.00 Build 0)  -->
<svg version="1.1" id="레이어_1" xmlns="http://www.w3.org/2000/svg" xmlns:xlink="http://www.w3.org/1999/xlink" x="0px"
	 y="0px" viewBox="0 0 800 800" style="enable-background:new 0 0 800 800;" xml:space="preserve">
<style type="text/css">
	
		.st0{clip-path:url(#SVGID_00000082341949578519674380000014975934570484388513_);fill:none;stroke:#E08C80;stroke-width:3;stroke-linecap:round;stroke-linejoin:round;stroke-miterlimit:10;}
	.st1{fill:#8BE8C6;stroke:#231815;stroke-width:8;stroke-linecap:round;stroke-linejoin:round;stroke-miterlimit:10;}
	.st2{fill:#6D3630;}
	.st3{fill:#FF6840;}
	.st4{fill:#9E0D0D;}
	.st5{fill:#6D3630;stroke:#231815;stroke-width:8;stroke-linecap:round;stroke-linejoin:round;stroke-miterlimit:10;}
</style>
<g id="아이스크림_00000183241160887881085820000013892865424431697055_">
	<g>
		<defs>
			<path id="SVGID_1_" d="M323.3,376.4l-22.5,161.1c-0.6,4.5,4.6,7.5,8.2,4.7l123.4-97.3c2.8-2.2,2.5-6.6-0.6-8.4
				c-16.3-9.6-60.9-36-100.6-63.6C328.2,370.8,323.9,372.7,323.3,376.4z"/>
		</defs>
		<use xlink:href="#SVGID_1_"  style="overflow:visible;fill:#FF9C85;"/>
		<clipPath id="SVGID_00000161611389045053980590000007363519561901592247_">
			<use xlink:href="#SVGID_1_"  style="overflow:visible;"/>
		</clipPath>
		
			<path style="clip-path:url(#SVGID_00000161611389045053980590000007363519561901592247_);fill:none;stroke:#E08C80;stroke-width:3;stroke-linecap:round;stroke-linejoin:round;stroke-miterlimit:10;" d="
			M316.1,565.8l25.6-218.1l17.9,11.3L334,577.2l19.5,12.3l25.6-218.1l21.2,13.4L374.7,603l19,12l25.6-218.1c0,0,1.3-80.4-68.6-88.2
			s-110,160.1-110,160.1L413,332.6l4.9,22L245.7,490.8l5.5,24.5l172.3-136.1l5.1,22.5L256.2,537.8l4.6,20.7l172.3-136.1"/>
		
			<use xlink:href="#SVGID_1_"  style="overflow:visible;fill:none;stroke:#231815;stroke-width:8;stroke-linecap:round;stroke-linejoin:round;stroke-miterlimit:10;"/>
	</g>
	<path class="st1" d="M329.6,369.8c0,0-2.5-14,8.9-14c11.4,0,7.5-24.4,17.1-21.8c9.6,2.6,1.2-17.1,21.4-8.4
		c20.1,8.7,6.7-4.2,20.8,0.1s33,5,37.5,16.7c4.6,11.8,19.6,19.7,22.9,29.8c3.2,10.1,4.6,15.5-0.1,26.7c-4.7,11.2,0.7,13.5-7.8,21.5
		s-8.7,14.6-14.8,16.6C429.5,439.1,345.9,404.6,329.6,369.8z"/>
	<path class="st1" d="M358.1,332.4c0,0-2.3-13.1,8.3-13.1c10.6,0,7-22.8,16-20.4c9,2.4,1.1-16,20-7.9c18.8,8.2,6.3-4,19.4,0.1
		c13.2,4.1,30.8,4.6,35.1,15.6s18.4,18.4,21.4,27.8c3,9.4,4.3,14.5-0.1,25c-4.4,10.5,0.6,12.6-7.3,20.1c-7.9,7.5-8.2,13.7-13.8,15.6
		C451.5,397.2,373.4,365,358.1,332.4z"/>
	<path class="st2" d="M357.7,371l-2.2,7.9c0,0,3.2,2,3.6,2.3c0.4,0.3,3.4-2.5,3.4-2.5s0.9-5.5,0.5-5.9
		C362.7,372.3,357.7,371,357.7,371z"/>
	<path class="st2" d="M402.1,381.7l-5.9,5.6c0,0,1.7,3.3,1.9,3.8c0.2,0.5,4.2-0.4,4.2-0.4s3.6-4.2,3.5-4.8
		C405.6,385.5,402.1,381.7,402.1,381.7z"/>
	<path class="st2" d="M464,368.6l-5.5,5.2c0,0,1.6,3.1,1.8,3.5c0.2,0.4,3.9-0.3,3.9-0.3s3.3-4,3.3-4.5
		C467.3,372.1,464,368.6,464,368.6z"/>
	<path class="st3" d="M421.8,307.6l-4.9,4.6c0,0,1.4,2.7,1.6,3.1s3.4-0.3,3.4-0.3s2.9-3.5,2.9-3.9
		C424.7,310.6,421.8,307.6,421.8,307.6z"/>
	<path class="st3" d="M431.4,342.6l-5.5,5.2c0,0,1.6,3.1,1.8,3.5c0.2,0.4,3.9-0.3,3.9-0.3s3.3-4,3.3-4.5
		C434.7,346.1,431.4,342.6,431.4,342.6z"/>
	<path class="st3" d="M449.4,322.8l0.2,5.9c0,0,3.1,1.1,3.6,1.3c0.4,0.2,2.2-2.1,2.2-2.1s-0.7-4-1.1-4.3
		C453.9,323.3,449.4,322.8,449.4,322.8z"/>
	<path class="st3" d="M425.6,380.1l0.2,6.7c0,0,3.6,1.3,4,1.4c0.5,0.2,2.5-2.4,2.5-2.4s-0.8-4.6-1.2-4.9
		C430.7,380.6,425.6,380.1,425.6,380.1z"/>
	<path class="st4" d="M375.7,355.1l-3.3,6.4c0,0,2.7,3,3,3.4c0.4,0.4,3.6-1,3.6-1s1.7-4.7,1.4-5.2
		C380.2,358.2,375.7,355.1,375.7,355.1z"/>
	<path class="st4" d="M438,405.5l-3.3,6.4c0,0,2.7,3,3,3.4c0.4,0.4,3.6-1,3.6-1s1.7-4.7,1.4-5.2C442.5,408.6,438,405.5,438,405.5z"
		/>
	<path class="st4" d="M392.6,314.4l-3.1,5.9c0,0,2.5,2.8,2.8,3.2c0.3,0.4,3.4-0.9,3.4-0.9s1.6-4.4,1.3-4.8S392.6,314.4,392.6,314.4z
		"/>
	<path class="st3" d="M398,346.9l0.2,6.7c0,0,3.6,1.3,4,1.4s2.5-2.4,2.5-2.4s-0.8-4.6-1.2-4.9C403.1,347.4,398,346.9,398,346.9z"/>
	<path class="st3" d="M411.9,413.5l0.2,7.2c0,0,3.8,1.3,4.3,1.5c0.5,0.2,2.7-2.6,2.7-2.6s-0.8-4.9-1.3-5.2S411.9,413.5,411.9,413.5z
		"/>
	<path class="st1" d="M389.6,295.7c0,0-2.1-11.5,7.3-11.6c9.4,0,6.2-20.1,14.1-17.9c7.9,2.1,1-14.1,17.6-6.9
		c16.6,7.2,5.5-3.5,17.1,0.1s27.1,4.1,30.9,13.8c3.8,9.7,16.2,16.2,18.8,24.5s3.8,12.8,0,22c-3.9,9.2,0.6,11.1-6.4,17.7
		c-7,6.6-7.2,12-12.2,13.7C471.9,352.7,403.1,324.4,389.6,295.7z"/>
	<path class="st5" d="M416.7,260.7c0,0,17.6-8.1,29.1-1.3c11.5,6.8,15.1,1.5,23.9,9.3c8.8,7.8,24.5,24.4,25.9,29s7.6,20.4,0,22
		s-7.9,7.3-11.7-2.4c-3.8-9.7,4.4-0.7-10-13.4c-14.4-12.7-8.7-3.9-18.8-11.9s-11.2-4.2-22.2-14c-11-9.8-12.1-1.8-16.9-6.8
		S411.3,262.7,416.7,260.7z"/>
	<path class="st2" d="M412.8,296.7l-1.8,6.5c0,0,2.6,1.6,2.9,1.9c0.4,0.2,2.8-2,2.8-2s0.7-4.5,0.4-4.8S412.8,296.7,412.8,296.7z"/>
	<path class="st2" d="M449.3,305.5l-4.9,4.6c0,0,1.4,2.7,1.6,3.1s3.4-0.3,3.4-0.3s2.9-3.5,2.9-3.9
		C452.2,308.6,449.3,305.5,449.3,305.5z"/>
	<path class="st3" d="M473.1,299.7l0.2,5.9c0,0,3.1,1.1,3.6,1.3s2.2-2.1,2.2-2.1s-0.7-4-1.1-4.3
		C477.6,300.2,473.1,299.7,473.1,299.7z"/>
	<path class="st4" d="M427.6,283.6l-2.7,5.2c0,0,2.2,2.5,2.5,2.8c0.3,0.3,3-0.8,3-0.8s1.4-3.8,1.2-4.3S427.6,283.6,427.6,283.6z"/>
	<path class="st4" d="M478.9,325.1l-2.7,5.2c0,0,2.2,2.5,2.5,2.8c0.3,0.3,3-0.8,3-0.8s1.4-3.8,1.2-4.3S478.9,325.1,478.9,325.1z"/>
	<path class="st3" d="M448.8,270.5l0.2,5.9c0,0,3.1,1.1,3.6,1.3s2.2-2.1,2.2-2.1s-0.7-4-1.1-4.3
		C453.3,270.9,448.8,270.5,448.8,270.5z"/>
	<path class="st3" d="M457.4,331.7l0.2,5.9c0,0,3.1,1.1,3.6,1.3c0.4,0.2,2.2-2.1,2.2-2.1s-0.7-4-1.1-4.3
		C461.9,332.1,457.4,331.7,457.4,331.7z"/>
</g>
</svg>
