<?xml version="1.0" encoding="utf-8"?>
<!-- Generator: Adobe Illustrator 27.7.0, SVG Export Plug-In . SVG Version: 6.00 Build 0)  -->
<svg version="1.1" id="레이어_1" xmlns="http://www.w3.org/2000/svg" xmlns:xlink="http://www.w3.org/1999/xlink" x="0px"
	 y="0px" viewBox="0 0 800 800" style="enable-background:new 0 0 800 800;" xml:space="preserve">
<style type="text/css">
	.st0{fill:#5D5D5D;stroke:#231815;stroke-width:8;stroke-linecap:round;stroke-linejoin:round;stroke-miterlimit:10;}
	.st1{fill:none;stroke:#231815;stroke-width:8;stroke-linecap:round;stroke-linejoin:round;stroke-miterlimit:10;}
	.st2{fill:#BCBCBC;stroke:#231815;stroke-width:8;stroke-linecap:round;stroke-linejoin:round;stroke-miterlimit:10;}
	.st3{fill:#231815;}
	.st4{fill:none;stroke:#231815;stroke-width:4;stroke-linecap:round;stroke-linejoin:round;}
	.st5{fill:none;stroke:#231815;stroke-width:4;stroke-linecap:round;stroke-linejoin:round;stroke-dasharray:7.643,7.643;}
</style>
<g id="청바지">
	<path class="st0" d="M556.3,338.9c0,0,5,50.5,2.1,109.2c0,0-59.9,12.4-97.2,13l-6.7-20.4H345.6l-6.7,20.4
		c-37.3-0.6-97.2-13-97.2-13c-3-58.7,2.1-109.2,2.1-109.2S390.8,353.7,556.3,338.9z"/>
	<line class="st1" x1="335.7" y1="439.8" x2="466.8" y2="439.8"/>
	<path class="st0" d="M242.5,359.2c0,0,153.9,20,315.1,0v-20.3c0,0-159.4,14.5-313.8,0L242.5,359.2z"/>
	<rect x="385.6" y="344.6" class="st2" width="28.9" height="22.8"/>
	<rect x="396.4" y="352" class="st3" width="7.1" height="7.1"/>
	<path class="st1" d="M241,386.7c0,0,46,6.9,47.7-23l-46.2-4.5L241,386.7z"/>
	<g>
		<g>
			<path class="st4" d="M276.1,369.5c0,0-0.8,1.1-2.5,2.4"/>
			<path class="st5" d="M267,375.7c-2.9,1.2-6.6,2.2-11.1,2.5"/>
			<path class="st4" d="M252.1,378.4c-1.1,0-2.3-0.1-3.5-0.1"/>
		</g>
	</g>
	<path class="st1" d="M558.5,386.7c0,0-46,6.9-47.7-23l46.2-4.5L558.5,386.7z"/>
	<g>
		<g>
			<path class="st4" d="M523.4,369.5c0,0,0.8,1.1,2.5,2.4"/>
			<path class="st5" d="M532.5,375.7c2.9,1.2,6.6,2.2,11.1,2.5"/>
			<path class="st4" d="M547.5,378.4c1.1,0,2.3-0.1,3.5-0.1"/>
		</g>
	</g>
</g>
</svg>
