<?xml version="1.0" encoding="utf-8"?>
<!-- Generator: Adobe Illustrator 27.7.0, SVG Export Plug-In . SVG Version: 6.00 Build 0)  -->
<svg version="1.1" id="레이어_1" xmlns="http://www.w3.org/2000/svg" xmlns:xlink="http://www.w3.org/1999/xlink" x="0px"
	 y="0px" viewBox="0 0 1080 1013.3" style="enable-background:new 0 0 1080 1013.3;" xml:space="preserve">
<style type="text/css">
	.st0{opacity:0.25;fill:#FFEBCC;}
	.st1{fill:none;stroke:#231815;stroke-width:8;stroke-linecap:round;stroke-linejoin:round;stroke-miterlimit:10;}
	.st2{fill:#FF3131;stroke:#231815;stroke-width:8;stroke-linecap:round;stroke-linejoin:round;stroke-miterlimit:10;}
	.st3{fill:#FFFFFF;}
</style>
<g id="탕후루">
	<path class="st0" d="M861.1,565.2c0,0-13.8-6.1-20.3-3.3c-6.5,2.8-15.8,5.8-16.8,14.4s-5.6,8.8-7.2,21.4
		c-1.7,12.6-2.1,29.2,5.7,33.6c7.8,4.4,12.7,9.9,21.6,3.2c8.9-6.7,12-3,21.3-12.7c9.3-9.7,15.3-14.2,16.7-22.1
		C882.9,595.3,887.6,575.3,861.1,565.2z"/>
	<path class="st0" d="M837.4,607.9c0,0-13.8-6.1-20.3-3.3c-6.5,2.8-15.8,5.8-16.8,14.4c-1,8.6-5.6,8.8-7.2,21.4
		c-1.7,12.6-2.1,29.2,5.7,33.6c7.8,4.4,12.7,9.9,21.6,3.2c8.9-6.7,12-3,21.3-12.7s15.3-14.2,16.7-22.1
		C859.2,638,863.9,618,837.4,607.9z"/>
	<path class="st0" d="M811.3,654.2c0,0-13.8-6.1-20.3-3.3c-6.5,2.8-15.8,5.8-16.8,14.4s-5.6,8.8-7.2,21.4
		c-1.7,12.6-2.1,29.2,5.7,33.6c7.8,4.4,12.7,9.9,21.6,3.2s12-3,21.3-12.7c9.3-9.7,15.3-14.2,16.7-22.1
		C833,684.3,837.8,664.3,811.3,654.2z"/>
	<line class="st1" x1="829.6" y1="636.2" x2="738.1" y2="784.4"/>
	<path class="st2" d="M857.9,573.1c0,0-23.6-12.8-30.6,18.6c-7,31.4,4.2,40.5,19.3,32C861.8,615.2,895,593.2,857.9,573.1z"/>
	<path class="st3" d="M861.5,591.4c0,0-10.6,12.7-14.3,14s0,9.8,6.1,4.5C859.4,604.5,872.4,598.4,861.5,591.4z"/>
	<path class="st2" d="M833.4,615.8c0,0-23.6-12.8-30.6,18.6s4.2,40.5,19.3,32C837.3,657.8,870.4,635.8,833.4,615.8z"/>
	<path class="st3" d="M837,634c0,0-10.6,12.7-14.3,14s0,9.8,6.1,4.5C834.9,647.1,847.8,641,837,634z"/>
	<path class="st2" d="M807.7,661.4c0,0-23.6-12.8-30.6,18.6c-7,31.4,4.2,40.5,19.3,32C811.6,703.5,844.7,681.4,807.7,661.4z"/>
	<path class="st3" d="M811.3,679.6c0,0-10.6,12.7-14.3,14s0,9.8,6.1,4.5C809.2,692.8,822.2,686.7,811.3,679.6z"/>
</g>
</svg>
