<?xml version="1.0" encoding="utf-8"?>
<!-- Generator: Adobe Illustrator 27.7.0, SVG Export Plug-In . SVG Version: 6.00 Build 0)  -->
<svg version="1.1" id="레이어_1" xmlns="http://www.w3.org/2000/svg" xmlns:xlink="http://www.w3.org/1999/xlink" x="0px"
	 y="0px" viewBox="0 0 800 800" style="enable-background:new 0 0 800 800;" xml:space="preserve">
<style type="text/css">
	.st0{opacity:0.25;fill:#FFEBCC;}
	.st1{fill:none;stroke:#231815;stroke-width:8;stroke-linecap:round;stroke-linejoin:round;stroke-miterlimit:10;}
	.st2{fill:#FF3131;stroke:#231815;stroke-width:8;stroke-linecap:round;stroke-linejoin:round;stroke-miterlimit:10;}
	.st3{fill:#FFFFFF;}
</style>
<g id="탕후루">
	<path class="st0" d="M484.6,220.1c0,0-23.1-10.2-34-5.5c-10.9,4.7-26.5,9.7-28.1,24.1c-1.6,14.4-9.3,14.8-12.1,35.8
		c-2.8,21.1-3.5,48.9,9.6,56.2s21.3,16.5,36.2,5.3s20.1-5.1,35.7-21.2c15.6-16.2,25.6-23.7,27.9-37
		C521,270.4,528.9,236.9,484.6,220.1z"/>
	<path class="st0" d="M445,291.5c0,0-23.1-10.2-34-5.5s-26.5,9.7-28.1,24.1c-1.6,14.4-9.3,14.8-12.1,35.8
		c-2.8,21.1-3.5,48.9,9.6,56.2c13.1,7.4,21.3,16.5,36.2,5.3c14.9-11.1,20.1-5.1,35.7-21.2c15.6-16.2,25.6-23.7,27.9-37
		C481.4,341.8,489.3,308.4,445,291.5z"/>
	<path class="st0" d="M401.3,369c0,0-23.1-10.2-34-5.5s-26.5,9.7-28.1,24.1c-1.6,14.4-9.3,14.8-12.1,35.8
		c-2.8,21.1-3.5,48.9,9.6,56.2c13.1,7.4,21.3,16.5,36.2,5.3c14.9-11.1,20.1-5.1,35.7-21.2c15.6-16.2,25.6-23.7,27.9-37
		C437.7,419.3,445.6,385.8,401.3,369z"/>
	<line class="st1" x1="432" y1="338.8" x2="278.9" y2="586.7"/>
	<path class="st2" d="M479.3,233.4c0,0-39.4-21.5-51.1,31.1s7,67.7,32.3,53.5C485.9,303.8,541.3,266.8,479.3,233.4z"/>
	<path class="st3" d="M485.3,263.8c0,0-17.8,21.2-23.9,23.5c-6.1,2.2-0.1,16.4,10.2,7.5S503.5,275.7,485.3,263.8z"/>
	<path class="st2" d="M438.3,304.6c0,0-39.4-21.5-51.1,31.1s7,67.7,32.3,53.5C444.8,375,500.2,338.1,438.3,304.6z"/>
	<path class="st3" d="M444.3,335.1c0,0-17.8,21.2-23.9,23.5c-6.1,2.2-0.1,16.4,10.2,7.5S462.4,346.9,444.3,335.1z"/>
	<path class="st2" d="M395.4,381c0,0-39.4-21.5-51.1,31.1c-11.7,52.5,7,67.7,32.3,53.5C401.9,451.4,457.3,414.5,395.4,381z"/>
	<path class="st3" d="M401.3,411.5c0,0-17.8,21.2-23.9,23.5c-6.1,2.2-0.1,16.4,10.2,7.5S419.5,423.3,401.3,411.5z"/>
</g>
</svg>
