<?xml version="1.0" encoding="utf-8"?>
<!-- Generator: Adobe Illustrator 27.7.0, SVG Export Plug-In . SVG Version: 6.00 Build 0)  -->
<svg version="1.1" id="레이어_1" xmlns="http://www.w3.org/2000/svg" xmlns:xlink="http://www.w3.org/1999/xlink" x="0px"
	 y="0px" viewBox="0 0 800 800" style="enable-background:new 0 0 800 800;" xml:space="preserve">
<style type="text/css">
	.st0{fill:#7EC433;stroke:#231815;stroke-width:8;stroke-miterlimit:10;}
	.st1{fill:#E2DFC5;stroke:#231815;stroke-width:8;stroke-miterlimit:10;}
	
		.st2{clip-path:url(#SVGID_00000013182108559299509680000018302979236965469347_);fill:#BAEAF7;stroke:#231815;stroke-width:8;stroke-linecap:round;stroke-linejoin:round;stroke-miterlimit:10;}
</style>
<g>
	<g>
		<path class="st0" d="M477.5,346.7l-2.3-78.9c-0.1-2.9-2.8-5-5.6-4.4l-2.6,0.6c-4.4,1-9.1,1-13.5,0l-2.6-0.6
			c-2.8-0.6-5.5,1.5-5.6,4.3l-2.6,78.9c-16.5,3.9-28.7,18.6-28.7,36.3l-0.2,129.3c0,12.8,10.4,23.2,23.2,23.3l45.6,0.1
			c12.8,0,23.2-10.4,23.3-23.2l0.2-129.3C506.2,365.5,494,350.7,477.5,346.7z"/>
		
			<rect x="424.1" y="402" transform="matrix(1.657905e-03 -1 1 1.657905e-03 11.2317 907.3022)" class="st1" width="71.8" height="92.1"/>
	</g>
	<g>
		<defs>
			<path id="SVGID_1_" d="M294.5,475.1l17.4,52.5c2,6,7.9,9.7,14.2,8.9l46-5.7c7.1-0.9,12.2-7.2,11.5-14.3l-5.2-56.5
				c-0.7-7.8-8.1-13.3-15.8-11.7c-12.9,2.6-33.4,6.4-57.3,9.6C297.1,459,291.9,467.3,294.5,475.1z"/>
		</defs>
		<use xlink:href="#SVGID_1_"  style="overflow:visible;fill:#FFFFFF;"/>
		<clipPath id="SVGID_00000038371798321981338970000016773896924830993851_">
			<use xlink:href="#SVGID_1_"  style="overflow:visible;"/>
		</clipPath>
		
			<path style="clip-path:url(#SVGID_00000038371798321981338970000016773896924830993851_);fill:#BAEAF7;stroke:#231815;stroke-width:8;stroke-linecap:round;stroke-linejoin:round;stroke-miterlimit:10;" d="
			M300.2,492.4c0,0-3.7-4.6,26,0c29.7,4.6,32.3-10.2,54.4-8.4l3,32.6c0,0,4.3,12.4-16.4,14.9c-20.7,2.6-41.2,5.1-41.2,5.1
			s-9.8,4.3-17.8-20C300.2,492.4,300.2,492.4,300.2,492.4z"/>
		
			<use xlink:href="#SVGID_1_"  style="overflow:visible;fill:none;stroke:#231815;stroke-width:8;stroke-linecap:round;stroke-linejoin:round;stroke-miterlimit:10;"/>
	</g>
</g>
</svg>
