<?xml version="1.0" encoding="utf-8"?>
<!-- Generator: Adobe Illustrator 27.7.0, SVG Export Plug-In . SVG Version: 6.00 Build 0)  -->
<svg version="1.1" id="위치" xmlns="http://www.w3.org/2000/svg" xmlns:xlink="http://www.w3.org/1999/xlink" x="0px" y="0px"
	 viewBox="0 0 450 450" style="enable-background:new 0 0 450 450;" xml:space="preserve">
<style type="text/css">
	.st0{fill:none;stroke:#5D5D5D;stroke-width:14;stroke-miterlimit:10;}
</style>
<g>
	<g>
	</g>
	<g>
		<path id="SVGID_00000062186905032790719750000018411701498820584085_" class="st0" d="M323.7,387.7c16.8-3.7,32.9-10.4,47.1-20.1
			c8.1-5.5,15.4-11.8,21.6-19.7c23.9-30.3-0.2-67.8-0.2-108.5c0-57.2-34-104-72.2-124.2c-2.9-1.5-5.8-2.9-8.6-4.2
			c0,0,0.9-39-10.3-58c-5-8.6-11.7-8.2-21.4,1.9l-33,37.2L240.1,82l-7.2,10.1c-2.7-0.1-5.3-0.4-8.1-0.4c-3.1,0-6.1,0.3-9.2,0.4
			L208.4,82l-6.5,10.1L169,55c-8.8-9.1-16.4-10.5-21.4-1.9c-11.4,19.3-10.5,58.5-10.5,58.5c-3,1.4-5.9,2.9-8.6,4.5
			C91,136.2,57.6,183,57.6,239.4c0,40.3-24.4,77.5-0.9,107.7c6.3,8.1,13.7,14.5,21.9,20.1c14.7,10.1,31.3,17,48.7,20.6
			C163.1,395.5,238.8,406.5,323.7,387.7z"/>
	</g>
</g>
</svg>
