<?xml version="1.0" encoding="utf-8"?>
<!-- Generator: Adobe Illustrator 27.7.0, SVG Export Plug-In . SVG Version: 6.00 Build 0)  -->
<svg version="1.1" id="위치" xmlns="http://www.w3.org/2000/svg" xmlns:xlink="http://www.w3.org/1999/xlink" x="0px" y="0px"
	 viewBox="0 0 450 450" style="enable-background:new 0 0 450 450;" xml:space="preserve">
<style type="text/css">
	.st0{display:none;fill:#FFE7DF;stroke:#000000;stroke-width:6;stroke-miterlimit:10;}
	.st1{fill:none;stroke:#5D5D5D;stroke-width:14;stroke-miterlimit:10;}
	.st2{fill:none;stroke:#5D5D5D;stroke-width:14.0009;stroke-miterlimit:10.0016;}
	.st3{fill:none;stroke:#5D5D5D;stroke-width:13.9982;stroke-miterlimit:9.9968;}
</style>
<g>
	<path id="귀_1_" class="st0" d="M376.6,315.1c27,0,50.5,1.4,54.8-47.2s-36.8-47.6-36.8-47.6H57.1c0,0-41.1-1.2-36.8,47.6
		c4.3,48.7,27.8,47.2,54.8,47.2H376.6z"/>
</g>
<g>
	<path class="st1" d="M235.5,382.5c155.4,0,97.9-80.5,68-128.8c-30-48.3-64-48.5-64-48.5s-13.8-1.1-25.7,0c0,0-34.1,0.3-64,48.5
		s-87.5,128.8,68,128.8H235.5z"/>
	
		<ellipse transform="matrix(0.8013 -0.5983 0.5983 0.8013 -83.3636 96.9578)" class="st2" cx="104.3" cy="174" rx="32.6" ry="40.8"/>
	
		<ellipse transform="matrix(0.9692 -0.2461 0.2461 0.9692 -21.1207 46.9262)" class="st3" cx="177.2" cy="108" rx="32.6" ry="40.8"/>
	
		<ellipse transform="matrix(0.5983 -0.8013 0.8013 0.5983 -0.4962 346.8988)" class="st2" cx="345.7" cy="173.9" rx="40.8" ry="32.6"/>
	
		<ellipse transform="matrix(0.2461 -0.9692 0.9692 0.2461 101.0287 345.6737)" class="st3" cx="272.7" cy="107.9" rx="40.8" ry="32.6"/>
</g>
</svg>
