<?xml version="1.0" encoding="utf-8"?>
<!-- Generator: Adobe Illustrator 27.7.0, SVG Export Plug-In . SVG Version: 6.00 Build 0)  -->
<svg version="1.1" id="레이어_1" xmlns="http://www.w3.org/2000/svg" xmlns:xlink="http://www.w3.org/1999/xlink" x="0px"
	 y="0px" viewBox="0 0 500 500" style="enable-background:new 0 0 500 500;" xml:space="preserve">
<style type="text/css">
	.st0{fill:#FFC0C0;stroke:#231815;stroke-width:8;stroke-linecap:round;stroke-linejoin:round;stroke-miterlimit:10;}
	.st1{fill:none;stroke:#231815;stroke-width:8;stroke-linecap:round;stroke-linejoin:round;stroke-miterlimit:10;}
	.st2{fill:#231815;}
</style>
<g id="가방">
	<g id="가방1">
		<path class="st0" d="M92.1,147.3c21.3,22.4,124.7,127.2,225.9,166.2l5.2-18.4c0,0-72.2-15.8-208.8-147.3L93.8,144
			C92,143.8,90.8,146,92.1,147.3z"/>
		<g>
			<path class="st0" d="M295.9,299.7l16.4,41c4.8,12,18.1,18.1,30.3,13.9l49.4-16.8c12-4.1,18.8-16.7,15.6-28.9l-10.9-42.3
				c-1-4-5.2-6.3-9.2-5l-87.3,28.7C296.4,291.6,294.4,295.9,295.9,299.7z"/>
			<path class="st1" d="M330.9,313l-30.1-16.2c-2.9-1.6-2.5-5.8,0.6-6.8l85.6-28.2c3.1-1,5.9,2.1,4.6,5l-12.7,29.5
				c-3.9,9.1-11.7,16.1-21.1,19.2l0,0C348.8,318.3,339.1,317.4,330.9,313z"/>
			<circle class="st2" cx="353.1" cy="300.7" r="5.5"/>
		</g>
	</g>
</g>
</svg>
