<?xml version="1.0" encoding="utf-8"?>
<!-- Generator: Adobe Illustrator 27.7.0, SVG Export Plug-In . SVG Version: 6.00 Build 0)  -->
<svg version="1.1" id="레이어_1" xmlns="http://www.w3.org/2000/svg" xmlns:xlink="http://www.w3.org/1999/xlink" x="0px"
	 y="0px" viewBox="0 0 500 500" style="enable-background:new 0 0 500 500;" xml:space="preserve">
<style type="text/css">
	.st0{fill:#F3EFE9;stroke:#000000;stroke-width:8;stroke-miterlimit:10;}
	.st1{fill:#E5CFBD;stroke:#000000;stroke-width:8;stroke-miterlimit:10;}
	.st2{fill:none;stroke:#000000;stroke-width:8;stroke-miterlimit:10;}
</style>
<g id="가방">
	<g id="가방3">
		<path class="st0" d="M253.7,381.7c0,0-14.2-120-8.3-120c10.9,0,16.2,17.1,17.9,32.5c1.6,14.4,1.9,54.9,1.3,73.9
			c-0.2,7.2-2.3,13.8-8,13.8H256L253.7,381.7z"/>
		<path class="st1" d="M258.6,376.3c0.1,4.2-2.7,6.8-5.9,6.8h-18.5c-3.2,0-5.6-2.6-5.6-6.8v-77.1c0-4.6,0.7-14.4,2-18.7
			c2.9-9.1,8.3-18.6,13.8-18.6c6.1,0,11.2,12.5,13.5,22c0.9,3.7,1.3,12.6,1.3,16.4L258.6,376.3z"/>
		<path class="st1" d="M240.5,268.8c2.7-0.4,1.2-4.8,3.9-5.4c23.8-5.3,24.1,19.6,25.7,36.3c0.7,16,1.3,37,1.2,44.5
			c0,2.9-2.6,5.2-7.7,5.2h-4.3c-0.7,0-0.6-2.6-0.6-3.3c-0.1-5.4-0.3-27.5-1.2-45.4c-1.3-16.6-0.5-26.1-13.1-26.1l0,0
			c-0.2,2.8-4.1,3.5-5.2,0.9C237.9,272.3,237.7,269.3,240.5,268.8z"/>
		<path class="st1" d="M236.5,264.3V259V127.1c0-0.6-0.6-7,4.4-8.2l6.5-1.8c1.5-0.4,3.1,0,4.1,1.1s0.9,2.3,0.9,2.5v143.6
			c0,2,0.2,17.9-6.1,17.9h-3.7C236.4,282.3,236.5,266.4,236.5,264.3z"/>
		<line class="st2" x1="244.4" y1="283.1" x2="244.4" y2="381.9"/>
	</g>
</g>
</svg>
