<?xml version="1.0" encoding="utf-8"?>
<!-- Generator: Adobe Illustrator 27.7.0, SVG Export Plug-In . SVG Version: 6.00 Build 0)  -->
<svg version="1.1" id="레이어_1" xmlns="http://www.w3.org/2000/svg" xmlns:xlink="http://www.w3.org/1999/xlink" x="0px"
	 y="0px" viewBox="0 0 800 800" style="enable-background:new 0 0 800 800;" xml:space="preserve">
<style type="text/css">
	.st0{fill:#FFFFFF;}
	.st1{clip-path:url(#SVGID_00000051375910679691664780000002469420894603385265_);fill:#FFCECE;}
	.st2{fill:none;stroke:#231815;stroke-width:8;stroke-linecap:round;stroke-linejoin:round;stroke-miterlimit:10;}
	.st3{fill:#FFA1A2;}
	.st4{fill:#231815;}
	.st5{fill:#FFA1A2;stroke:#231815;stroke-width:8;stroke-linecap:round;stroke-linejoin:round;stroke-miterlimit:10;}
	.st6{fill:#FFFFFF;stroke:#231815;stroke-width:8;stroke-linecap:round;stroke-linejoin:round;stroke-miterlimit:10;}
</style>
<g>
	<g>
		<g>
			<path id="SVGID_1_" class="st0" d="M537.7,629.7c23.4-5.2,45.8-14.4,65.5-27.9c11.2-7.7,21.4-16.4,30-27.4
				c33.3-42.2-0.3-94.3-0.3-150.9c0-79.5-47.3-144.6-100.4-172.7c-4.1-2.1-8-4-11.9-5.8c0,0,1.3-54.2-14.3-80.7
				c-7-11.9-16.3-11.4-29.8,2.6l-45.9,51.8l-9.2-14.2l-10,14.1c-3.8-0.1-7.4-0.5-11.2-0.5c-4.3,0-8.5,0.4-12.8,0.6l-10-14.2
				l-9.1,14.1l-45.8-51.7c-12.3-12.6-22.8-14.6-29.8-2.6c-15.8,26.9-14.6,81.3-14.6,81.3c-4.2,1.9-8.2,4-11.9,6.2
				c-52.1,28.1-98.6,93.2-98.6,171.7c0,56-33.9,107.8-1.2,149.8c8.7,11.2,19,20.2,30.4,28c20.4,14,43.5,23.6,67.7,28.7
				C314.2,640.6,419.6,655.9,537.7,629.7z"/>
		</g>
		<g>
			<defs>
				<path id="SVGID_00000134245517236698643010000000567503705382571930_" d="M537.7,629.7c23.4-5.2,45.8-14.4,65.5-27.9
					c11.2-7.7,21.4-16.4,30-27.4c33.3-42.2-0.3-94.3-0.3-150.9c0-79.5-47.3-144.6-100.4-172.7c-4.1-2.1-8-4-11.9-5.8
					c0,0,1.3-54.2-14.3-80.7c-7-11.9-16.3-11.4-29.8,2.6l-45.9,51.8l-9.2-14.2l-10,14.1c-3.8-0.1-7.4-0.5-11.2-0.5
					c-4.3,0-8.5,0.4-12.8,0.6l-10-14.2l-9.1,14.1l-45.8-51.7c-12.3-12.6-22.8-14.6-29.8-2.6c-15.8,26.9-14.6,81.3-14.6,81.3
					c-4.2,1.9-8.2,4-11.9,6.2c-52.1,28.1-98.6,93.2-98.6,171.7c0,56-33.9,107.8-1.2,149.8c8.7,11.2,19,20.2,30.4,28
					c20.4,14,43.5,23.6,67.7,28.7C314.2,640.6,419.6,655.9,537.7,629.7z"/>
			</defs>
			<clipPath id="SVGID_00000077312477839862914870000005192576287567259566_">
				<use xlink:href="#SVGID_00000134245517236698643010000000567503705382571930_"  style="overflow:visible;"/>
			</clipPath>
			<path style="clip-path:url(#SVGID_00000077312477839862914870000005192576287567259566_);fill:#FFCECE;" d="M387.4,218.5
				c0,0-29,134.9-209.1,140.2C20.6,363.4,283.7,81.4,344.1,120.5S387.4,218.5,387.4,218.5z"/>
		</g>
		<g>
			<path id="SVGID_00000163033446343073342560000002964468883773207219_" class="st2" d="M537.7,629.7c23.4-5.2,45.8-14.4,65.5-27.9
				c11.2-7.7,21.4-16.4,30-27.4c33.3-42.2-0.3-94.3-0.3-150.9c0-79.5-47.3-144.6-100.4-172.7c-4.1-2.1-8-4-11.9-5.8
				c0,0,1.3-54.2-14.3-80.7c-7-11.9-16.3-11.4-29.8,2.6l-45.9,51.8l-9.2-14.2l-10,14.1c-3.8-0.1-7.4-0.5-11.2-0.5
				c-4.3,0-8.5,0.4-12.8,0.6l-10-14.2l-9.1,14.1l-45.8-51.7c-12.3-12.6-22.8-14.6-29.8-2.6c-15.8,26.9-14.6,81.3-14.6,81.3
				c-4.2,1.9-8.2,4-11.9,6.2c-52.1,28.1-98.6,93.2-98.6,171.7c0,56-33.9,107.8-1.2,149.8c8.7,11.2,19,20.2,30.4,28
				c20.4,14,43.5,23.6,67.7,28.7C314.2,640.6,419.6,655.9,537.7,629.7z"/>
		</g>
	</g>
	<line class="st2" x1="399.4" y1="497.7" x2="399.4" y2="468.6"/>
	<path class="st2" d="M440.2,497.7l-12.7,4.8c-6.6,2.5-13.9,2.1-20.2-1l-7.7-3.8l-8,3.9c-6.3,3.1-13.5,3.4-20.1,1l-13-4.9"/>
	<ellipse class="st3" cx="271.4" cy="478.5" rx="34.7" ry="27.7"/>
	<ellipse class="st3" cx="528.7" cy="478.5" rx="34.7" ry="27.7"/>
	<g>
		<line class="st2" x1="316.7" y1="484.9" x2="265.7" y2="488.4"/>
		<line class="st2" x1="317.8" y1="460.8" x2="271.2" y2="450.4"/>
	</g>
	<g>
		<line class="st2" x1="482" y1="484.9" x2="533" y2="488.4"/>
		<line class="st2" x1="480.9" y1="460.8" x2="527.5" y2="450.4"/>
	</g>
	<g>
		<path class="st4" d="M447.2,433.8c0-10.1,6.6-18.3,14.7-18.3s14.7,8.2,14.7,18.3s-6.6,8.3-14.7,8.3S447.2,443.9,447.2,433.8z"/>
		<path class="st4" d="M351.9,433.8c0-10.1-6.6-18.3-14.7-18.3s-14.7,8.2-14.7,18.3s6.6,8.3,14.7,8.3S351.9,443.9,351.9,433.8z"/>
	</g>
	<path class="st2" d="M485.3,389.4c0,0-16.8-27.5-36.6-1.3"/>
	<path class="st5" d="M411.3,464.1l-8.1,5.1c-2.4,1.5-5.3,1.5-7.7,0l-8.1-5.1c-3.3-2-4.7-6.4-3.5-10.2l0.5-1.6
		c1.1-3.4,4-5.7,7.3-5.7H407c3.3,0,6.2,2.3,7.3,5.7l0.5,1.6C416.1,457.7,414.6,462,411.3,464.1z"/>
	<g>
		<path class="st3" d="M308.1,194.3l-3,25.8c-0.2,2.1,1.6,3.7,3.3,3l20.4-8.7c1.8-0.7,2.2-3.3,0.8-4.7l-17.4-17.1
			C310.7,191.1,308.4,192.1,308.1,194.3z"/>
		<path class="st3" d="M491.9,194.3l3,25.8c0.2,2.1-1.6,3.7-3.3,3l-20.4-8.7c-1.8-0.7-2.2-3.3-0.8-4.7l17.4-17.1
			C489.3,191.1,491.6,192.1,491.9,194.3z"/>
	</g>
	<path class="st6" d="M388,565c0,0,12.7,5.3,24.8,0"/>
	<path class="st5" d="M376.4,503.8l17.4,27.5c3.2,3.7,9.1,3.5,12.2-0.3l15.2-27c0,0-11.3,0.2-21.5-6.3
		C399.6,497.7,387,506.2,376.4,503.8z"/>
</g>
</svg>
