<?xml version="1.0" encoding="utf-8"?>
<!-- Generator: Adobe Illustrator 27.7.0, SVG Export Plug-In . SVG Version: 6.00 Build 0)  -->
<svg version="1.1" id="레이어_1" xmlns="http://www.w3.org/2000/svg" xmlns:xlink="http://www.w3.org/1999/xlink" x="0px"
	 y="0px" viewBox="0 0 1080 1013.3" style="enable-background:new 0 0 1080 1013.3;" xml:space="preserve">
<style type="text/css">
	.st0{fill:#9E7E6C;stroke:#231815;stroke-width:8;stroke-linecap:round;stroke-linejoin:round;stroke-miterlimit:10;}
	.st1{fill:#E4A073;stroke:#231815;stroke-width:8;stroke-linecap:round;stroke-linejoin:round;stroke-miterlimit:10;}
	.st2{fill:#F4DBCE;stroke:#231815;stroke-width:8;stroke-linecap:round;stroke-linejoin:round;stroke-miterlimit:10;}
</style>
<g id="머리장식">
	<g id="밀짚모자">
		<path class="st0" d="M257.1,433.8c5.1,5.6,29.4,20.4,49.9,33.5l2.7-45.9c0,0-30.3,5.1-51.6,9.4
			C256.7,431.1,256.1,432.7,257.1,433.8z"/>
		<path class="st0" d="M822.7,433.8c-5.1,5.6-29.4,20.4-49.9,33.5l-2.7-45.9c0,0,30.3,5.1,51.6,9.4
			C823.1,431.1,823.7,432.7,822.7,433.8z"/>
		<polyline class="st1" points="329.9,331.3 329.9,373.8 539.7,373.8 540.1,373.8 749.9,373.8 749.9,331.3 		"/>
		<path class="st1" d="M824.5,426.9l-74.6-95.4c-92.6-12-202.5-12.4-209.8-12.4l0,0c0,0-0.1,0-0.2,0c-0.1,0-0.2,0-0.2,0l0,0
			c-7.3,0-117.3,0.4-209.8,12.4l-74.6,95.4c-2.2,3.2,0.6,7.5,4.2,6.5c27-8.2,116-26.8,280.4-26.8s253.4,18.6,280.4,26.8
			C823.9,434.4,826.7,430.1,824.5,426.9z"/>
		<path class="st1" d="M328,331.5c0,0-8-147.1,209.3-147.1s215.8,146.9,215.8,146.9L328,331.5z"/>
		<path class="st2" d="M332.6,300.8L317,350.6c0,0,137.9-33.4,445.8,0l-15.6-49.8C747.3,300.8,532.1,259.4,332.6,300.8z"/>
	</g>
</g>
</svg>
