<?xml version="1.0" encoding="utf-8"?>
<!-- Generator: Adobe Illustrator 27.7.0, SVG Export Plug-In . SVG Version: 6.00 Build 0)  -->
<svg version="1.1" id="레이어_1" xmlns="http://www.w3.org/2000/svg" xmlns:xlink="http://www.w3.org/1999/xlink" x="0px"
	 y="0px" viewBox="0 0 800 800" style="enable-background:new 0 0 800 800;" xml:space="preserve">
<style type="text/css">
	.st0{fill:#E5CFBD;stroke:#231815;stroke-width:8;stroke-linecap:round;stroke-linejoin:round;stroke-miterlimit:10;}
	.st1{fill:none;stroke:#231815;stroke-width:8;stroke-linecap:round;stroke-linejoin:round;stroke-miterlimit:10;}
	.st2{fill:#FFFFFF;stroke:#231815;stroke-width:8;stroke-linecap:round;stroke-linejoin:round;stroke-miterlimit:10;}
</style>
<g id="상의">
	<g id="캣티셔츠">
		<g id="기본티셔츠_00000148647653280736379510000015838623805830912703_">
			<path class="st0" d="M569.9,525.1l-10.5-141.4c0,0,57.4-34.4,60.4-44.4c3-10.1-11.3-27.3-26.7-49.8S562,264.6,562,264.6
				s-83.3,20.4-119.4,19c-0.5,0-0.8,0.4-0.8,0.8c0.2,4.7-5.6,35.5-40,35c-34.6-0.5-43.2-30.7-43.6-35.1c0-0.4-0.4-0.7-0.8-0.7
				c-36.1,1.4-119.5-19-119.5-19s-15.7,2.4-31.1,24.9s-29.6,39.7-26.7,49.8c3,10.1,60.4,44.4,60.4,44.4l-10.4,141.2
				c-0.1,0.9,0.6,1.7,1.5,1.9c19.7,3.3,187,17.4,337.3,0.2C569.6,526.9,570,525.9,569.9,525.1z"/>
			<line class="st1" x1="241.3" y1="383.7" x2="243.4" y2="361.5"/>
			<line class="st1" x1="558.3" y1="383.7" x2="555.8" y2="361.5"/>
		</g>
		<path class="st2" d="M340.5,283.6c0,0-0.2,48.3,59.4,50.1s59.5-50.1,59.5-50.1l-18.8,0.8c0,0-5.1,30.5-40.7,30.5
			s-37.6-31.4-37.6-31.4h-21.8L340.5,283.6L340.5,283.6z"/>
		<g>
			<path class="st1" d="M377.7,407.3c0,0,3.7-25.8,29.8-25.8v25.8"/>
			<line class="st1" x1="393" y1="397.9" x2="398.2" y2="397.9"/>
			<path class="st1" d="M436,381.6h-62.2c0,0-12.8-0.3-12.8,13c0,0-2.2,12.8,16.6,12.8"/>
			<line class="st1" x1="423.2" y1="407.4" x2="423.2" y2="381.7"/>
		</g>
	</g>
</g>
</svg>
