<?xml version="1.0" encoding="utf-8"?>
<!-- Generator: Adobe Illustrator 27.7.0, SVG Export Plug-In . SVG Version: 6.00 Build 0)  -->
<svg version="1.1" id="레이어_1" xmlns="http://www.w3.org/2000/svg" xmlns:xlink="http://www.w3.org/1999/xlink" x="0px"
	 y="0px" viewBox="0 0 800 800" style="enable-background:new 0 0 800 800;" xml:space="preserve">
<style type="text/css">
	.st0{fill:#FFFFFF;stroke:#231815;stroke-width:8;stroke-linecap:round;stroke-linejoin:round;stroke-miterlimit:10;}
	.st1{fill:#323232;}
	.st2{fill:none;stroke:#231815;stroke-width:8;stroke-linecap:round;stroke-linejoin:round;stroke-miterlimit:10;}
</style>
<g id="상의_00000152970291111091075500000011302034084125298597_">
	<g id="원피스1_00000093136891621523296650000017517077759848540584_">
		<path class="st0" d="M438,319.1c102.4-7.4,128.7-21.4,128.7-21.4s22.2,31.8,51.7,71.6c2.8,3.8,2,9.3-1.9,12
			c-14.4,10.3-47,33.4-63.1,43c0,0,1,10,13.5,53.6c0,0-22.4,28.8-85,16.1c-35.2,16.9-84.4,3.2-84.4,3.2C357.1,508.4,318,494,318,494
			c-62.7,12.7-85-16.1-85-16.1c12.4-43.6,13.5-53.6,13.5-53.6c-15.9-9.5-48.1-32.3-62.7-42.7c-4.1-2.9-5-8.7-2-12.8
			c29.4-39.6,51.4-71.2,51.4-71.2s26.3,14,128.7,21.4c0,0,22.8,29.8,36.7,29.6C419.7,348.2,438,319.1,438,319.1z"/>
		<g>
			<path class="st0" d="M373.3,319.4c0,0,6.5,15.1,25,29.2c1.2,0.9,1.1,2.6-0.1,3.4c-5,3.1-17.3,8.5-34.4,0.1
				c-22.5-11-14.8-35-14.5-34.6C349.5,317.8,347.7,317.4,373.3,319.4z"/>
			<path class="st0" d="M424.9,319.4c0,0-6.5,15.1-25,29.2c-1.2,0.9-1.1,2.6,0.1,3.4c5,3.1,17.3,8.5,34.4,0.1
				c22.5-11,14.8-35,14.5-34.6C448.7,317.8,450.5,317.4,424.9,319.4z"/>
		</g>
		<circle class="st1" cx="400.1" cy="377.2" r="5.7"/>
		<circle class="st1" cx="400.1" cy="402.2" r="5.7"/>
		<line class="st2" x1="246.2" y1="424.3" x2="249.8" y2="393.5"/>
		<line class="st2" x1="553.4" y1="424.3" x2="549.9" y2="393.5"/>
	</g>
</g>
</svg>
