<?xml version="1.0" encoding="utf-8"?>
<!-- Generator: Adobe Illustrator 27.7.0, SVG Export Plug-In . SVG Version: 6.00 Build 0)  -->
<svg version="1.1" id="레이어_1" xmlns="http://www.w3.org/2000/svg" xmlns:xlink="http://www.w3.org/1999/xlink" x="0px"
	 y="0px" viewBox="0 0 800 800" style="enable-background:new 0 0 800 800;" xml:space="preserve">
<style type="text/css">
	.st0{fill:#FFFFFF;stroke:#231815;stroke-width:8;stroke-linecap:round;stroke-linejoin:round;stroke-miterlimit:10;}
	.st1{fill:none;stroke:#231815;stroke-width:8;stroke-linecap:round;stroke-linejoin:round;stroke-miterlimit:10;}
	.st2{fill:#231815;}
	.st3{fill:#222222;stroke:#231815;stroke-width:8;stroke-linecap:round;stroke-linejoin:round;stroke-miterlimit:10;}
</style>
<g id="상의">
	<g id="니그랑티셔츠">
		<g id="기본티셔츠_00000144299509892156917270000002250818970135937409_">
			<path class="st0" d="M574.1,504.7l-17.5-100.3c0,0,60.4-34.4,63.4-44.4c3-10.1-11.3-27.3-26.7-49.8s-31.1-24.9-31.1-24.9
				s-88.3,20.4-124.4,19c-0.5,0-0.8,0.4-0.8,0.8c0.2,4.7-0.6,27.5-35,27c-34.6-0.5-38.2-22.7-38.6-27.1c0-0.4-0.4-0.7-0.8-0.7
				c-36.1,1.4-124.5-19-124.5-19s-15.7,2.4-31.1,24.9s-29.6,39.7-26.7,49.8c3,10.1,63.4,44.4,63.4,44.4l-17.4,100.1
				c-0.1,0.9,0.6,1.7,1.5,1.9c19.7,3.3,195,17.4,345.3,0.2C573.8,506.4,574.2,505.5,574.1,504.7z"/>
			<line class="st1" x1="556.7" y1="404.4" x2="554.2" y2="382.2"/>
		</g>
		<path class="st2" d="M347.4,304.3c0,0,0,41.6,56.9,39.4c56.2-2.2,49.3-39.4,49.3-39.4h-15.8c0,0,2.7,23.8-33.6,26.5
			c-36,2.7-40.8-25.8-40.8-25.8L347.4,304.3z"/>
		<path class="st3" d="M243.7,404.4c0,0,9.3-78.4,24.5-112.7c0,0-14.8-2.8-24.5-6.4c0,0-9.9-4-30.6,17c0,0-14.8,16.1-27.1,38.7
			c-12.3,22.6-4.2,22.6,2,27.4C194.3,373.3,243.7,404.4,243.7,404.4z"/>
		<path class="st3" d="M556.3,404.4c0,0-9.3-78.4-24.5-112.7c0,0,14.8-2.8,24.5-6.4c0,0,9.9-4,30.6,17c0,0,14.8,16.1,27.1,38.7
			c12.3,22.6,4.2,22.6-2,27.4C605.7,373.3,556.3,404.4,556.3,404.4z"/>
	</g>
</g>
</svg>
